%TF.GenerationSoftware,KiCad,Pcbnew,9.0.7*%
%TF.CreationDate,2026-02-28T16:41:56+00:00*%
%TF.ProjectId,USB-Lora-Modem,5553422d-4c6f-4726-912d-4d6f64656d2e,V1.2*%
%TF.SameCoordinates,Original*%
%TF.FileFunction,Legend,Top*%
%TF.FilePolarity,Positive*%
%FSLAX46Y46*%
G04 Gerber Fmt 4.6, Leading zero omitted, Abs format (unit mm)*
G04 Created by KiCad (PCBNEW 9.0.7) date 2026-02-28 16:41:56*
%MOMM*%
%LPD*%
G01*
G04 APERTURE LIST*
%ADD10C,0.150000*%
%ADD11C,0.120000*%
%ADD12C,0.127000*%
%ADD13C,0.200000*%
G04 APERTURE END LIST*
D10*
X13512895Y-20825619D02*
X13512895Y-19825619D01*
X13512895Y-20301809D02*
X14084323Y-20301809D01*
X14084323Y-20825619D02*
X14084323Y-19825619D01*
X14465276Y-19825619D02*
X15084323Y-19825619D01*
X15084323Y-19825619D02*
X14750990Y-20206571D01*
X14750990Y-20206571D02*
X14893847Y-20206571D01*
X14893847Y-20206571D02*
X14989085Y-20254190D01*
X14989085Y-20254190D02*
X15036704Y-20301809D01*
X15036704Y-20301809D02*
X15084323Y-20397047D01*
X15084323Y-20397047D02*
X15084323Y-20635142D01*
X15084323Y-20635142D02*
X15036704Y-20730380D01*
X15036704Y-20730380D02*
X14989085Y-20778000D01*
X14989085Y-20778000D02*
X14893847Y-20825619D01*
X14893847Y-20825619D02*
X14608133Y-20825619D01*
X14608133Y-20825619D02*
X14512895Y-20778000D01*
X14512895Y-20778000D02*
X14465276Y-20730380D01*
X17359333Y-42364819D02*
X16883143Y-42364819D01*
X16883143Y-42364819D02*
X16883143Y-41364819D01*
X18216476Y-42364819D02*
X17645048Y-42364819D01*
X17930762Y-42364819D02*
X17930762Y-41364819D01*
X17930762Y-41364819D02*
X17835524Y-41507676D01*
X17835524Y-41507676D02*
X17740286Y-41602914D01*
X17740286Y-41602914D02*
X17645048Y-41650533D01*
X50905580Y-51474666D02*
X50953200Y-51522285D01*
X50953200Y-51522285D02*
X51000819Y-51665142D01*
X51000819Y-51665142D02*
X51000819Y-51760380D01*
X51000819Y-51760380D02*
X50953200Y-51903237D01*
X50953200Y-51903237D02*
X50857961Y-51998475D01*
X50857961Y-51998475D02*
X50762723Y-52046094D01*
X50762723Y-52046094D02*
X50572247Y-52093713D01*
X50572247Y-52093713D02*
X50429390Y-52093713D01*
X50429390Y-52093713D02*
X50238914Y-52046094D01*
X50238914Y-52046094D02*
X50143676Y-51998475D01*
X50143676Y-51998475D02*
X50048438Y-51903237D01*
X50048438Y-51903237D02*
X50000819Y-51760380D01*
X50000819Y-51760380D02*
X50000819Y-51665142D01*
X50000819Y-51665142D02*
X50048438Y-51522285D01*
X50048438Y-51522285D02*
X50096057Y-51474666D01*
X50000819Y-51141332D02*
X50000819Y-50522285D01*
X50000819Y-50522285D02*
X50381771Y-50855618D01*
X50381771Y-50855618D02*
X50381771Y-50712761D01*
X50381771Y-50712761D02*
X50429390Y-50617523D01*
X50429390Y-50617523D02*
X50477009Y-50569904D01*
X50477009Y-50569904D02*
X50572247Y-50522285D01*
X50572247Y-50522285D02*
X50810342Y-50522285D01*
X50810342Y-50522285D02*
X50905580Y-50569904D01*
X50905580Y-50569904D02*
X50953200Y-50617523D01*
X50953200Y-50617523D02*
X51000819Y-50712761D01*
X51000819Y-50712761D02*
X51000819Y-50998475D01*
X51000819Y-50998475D02*
X50953200Y-51093713D01*
X50953200Y-51093713D02*
X50905580Y-51141332D01*
X41602819Y-59145466D02*
X41126628Y-59478799D01*
X41602819Y-59716894D02*
X40602819Y-59716894D01*
X40602819Y-59716894D02*
X40602819Y-59335942D01*
X40602819Y-59335942D02*
X40650438Y-59240704D01*
X40650438Y-59240704D02*
X40698057Y-59193085D01*
X40698057Y-59193085D02*
X40793295Y-59145466D01*
X40793295Y-59145466D02*
X40936152Y-59145466D01*
X40936152Y-59145466D02*
X41031390Y-59193085D01*
X41031390Y-59193085D02*
X41079009Y-59240704D01*
X41079009Y-59240704D02*
X41126628Y-59335942D01*
X41126628Y-59335942D02*
X41126628Y-59716894D01*
X40602819Y-58812132D02*
X40602819Y-58145466D01*
X40602819Y-58145466D02*
X41602819Y-58574037D01*
X17218819Y-55792666D02*
X16742628Y-56125999D01*
X17218819Y-56364094D02*
X16218819Y-56364094D01*
X16218819Y-56364094D02*
X16218819Y-55983142D01*
X16218819Y-55983142D02*
X16266438Y-55887904D01*
X16266438Y-55887904D02*
X16314057Y-55840285D01*
X16314057Y-55840285D02*
X16409295Y-55792666D01*
X16409295Y-55792666D02*
X16552152Y-55792666D01*
X16552152Y-55792666D02*
X16647390Y-55840285D01*
X16647390Y-55840285D02*
X16695009Y-55887904D01*
X16695009Y-55887904D02*
X16742628Y-55983142D01*
X16742628Y-55983142D02*
X16742628Y-56364094D01*
X16218819Y-54887904D02*
X16218819Y-55364094D01*
X16218819Y-55364094D02*
X16695009Y-55411713D01*
X16695009Y-55411713D02*
X16647390Y-55364094D01*
X16647390Y-55364094D02*
X16599771Y-55268856D01*
X16599771Y-55268856D02*
X16599771Y-55030761D01*
X16599771Y-55030761D02*
X16647390Y-54935523D01*
X16647390Y-54935523D02*
X16695009Y-54887904D01*
X16695009Y-54887904D02*
X16790247Y-54840285D01*
X16790247Y-54840285D02*
X17028342Y-54840285D01*
X17028342Y-54840285D02*
X17123580Y-54887904D01*
X17123580Y-54887904D02*
X17171200Y-54935523D01*
X17171200Y-54935523D02*
X17218819Y-55030761D01*
X17218819Y-55030761D02*
X17218819Y-55268856D01*
X17218819Y-55268856D02*
X17171200Y-55364094D01*
X17171200Y-55364094D02*
X17123580Y-55411713D01*
X44551695Y-54928419D02*
X44551695Y-55737942D01*
X44551695Y-55737942D02*
X44599314Y-55833180D01*
X44599314Y-55833180D02*
X44646933Y-55880800D01*
X44646933Y-55880800D02*
X44742171Y-55928419D01*
X44742171Y-55928419D02*
X44932647Y-55928419D01*
X44932647Y-55928419D02*
X45027885Y-55880800D01*
X45027885Y-55880800D02*
X45075504Y-55833180D01*
X45075504Y-55833180D02*
X45123123Y-55737942D01*
X45123123Y-55737942D02*
X45123123Y-54928419D01*
X46123123Y-55928419D02*
X45551695Y-55928419D01*
X45837409Y-55928419D02*
X45837409Y-54928419D01*
X45837409Y-54928419D02*
X45742171Y-55071276D01*
X45742171Y-55071276D02*
X45646933Y-55166514D01*
X45646933Y-55166514D02*
X45551695Y-55214133D01*
X14089142Y-42269580D02*
X14041523Y-42317200D01*
X14041523Y-42317200D02*
X13898666Y-42364819D01*
X13898666Y-42364819D02*
X13803428Y-42364819D01*
X13803428Y-42364819D02*
X13660571Y-42317200D01*
X13660571Y-42317200D02*
X13565333Y-42221961D01*
X13565333Y-42221961D02*
X13517714Y-42126723D01*
X13517714Y-42126723D02*
X13470095Y-41936247D01*
X13470095Y-41936247D02*
X13470095Y-41793390D01*
X13470095Y-41793390D02*
X13517714Y-41602914D01*
X13517714Y-41602914D02*
X13565333Y-41507676D01*
X13565333Y-41507676D02*
X13660571Y-41412438D01*
X13660571Y-41412438D02*
X13803428Y-41364819D01*
X13803428Y-41364819D02*
X13898666Y-41364819D01*
X13898666Y-41364819D02*
X14041523Y-41412438D01*
X14041523Y-41412438D02*
X14089142Y-41460057D01*
X15041523Y-42364819D02*
X14470095Y-42364819D01*
X14755809Y-42364819D02*
X14755809Y-41364819D01*
X14755809Y-41364819D02*
X14660571Y-41507676D01*
X14660571Y-41507676D02*
X14565333Y-41602914D01*
X14565333Y-41602914D02*
X14470095Y-41650533D01*
X15374857Y-41364819D02*
X16041523Y-41364819D01*
X16041523Y-41364819D02*
X15612952Y-42364819D01*
X21256666Y-56115809D02*
X20923333Y-56115809D01*
X20923333Y-56639619D02*
X20923333Y-55639619D01*
X20923333Y-55639619D02*
X21399523Y-55639619D01*
X22304285Y-56639619D02*
X21732857Y-56639619D01*
X22018571Y-56639619D02*
X22018571Y-55639619D01*
X22018571Y-55639619D02*
X21923333Y-55782476D01*
X21923333Y-55782476D02*
X21828095Y-55877714D01*
X21828095Y-55877714D02*
X21732857Y-55925333D01*
X25425856Y-55893735D02*
X25390142Y-55929450D01*
X25390142Y-55929450D02*
X25282999Y-55965164D01*
X25282999Y-55965164D02*
X25211571Y-55965164D01*
X25211571Y-55965164D02*
X25104428Y-55929450D01*
X25104428Y-55929450D02*
X25032999Y-55858021D01*
X25032999Y-55858021D02*
X24997285Y-55786592D01*
X24997285Y-55786592D02*
X24961571Y-55643735D01*
X24961571Y-55643735D02*
X24961571Y-55536592D01*
X24961571Y-55536592D02*
X24997285Y-55393735D01*
X24997285Y-55393735D02*
X25032999Y-55322307D01*
X25032999Y-55322307D02*
X25104428Y-55250878D01*
X25104428Y-55250878D02*
X25211571Y-55215164D01*
X25211571Y-55215164D02*
X25282999Y-55215164D01*
X25282999Y-55215164D02*
X25390142Y-55250878D01*
X25390142Y-55250878D02*
X25425856Y-55286592D01*
X26140142Y-55965164D02*
X25711571Y-55965164D01*
X25925856Y-55965164D02*
X25925856Y-55215164D01*
X25925856Y-55215164D02*
X25854428Y-55322307D01*
X25854428Y-55322307D02*
X25782999Y-55393735D01*
X25782999Y-55393735D02*
X25711571Y-55429450D01*
X26390142Y-55215164D02*
X26854428Y-55215164D01*
X26854428Y-55215164D02*
X26604428Y-55500878D01*
X26604428Y-55500878D02*
X26711571Y-55500878D01*
X26711571Y-55500878D02*
X26783000Y-55536592D01*
X26783000Y-55536592D02*
X26818714Y-55572307D01*
X26818714Y-55572307D02*
X26854428Y-55643735D01*
X26854428Y-55643735D02*
X26854428Y-55822307D01*
X26854428Y-55822307D02*
X26818714Y-55893735D01*
X26818714Y-55893735D02*
X26783000Y-55929450D01*
X26783000Y-55929450D02*
X26711571Y-55965164D01*
X26711571Y-55965164D02*
X26497285Y-55965164D01*
X26497285Y-55965164D02*
X26425857Y-55929450D01*
X26425857Y-55929450D02*
X26390142Y-55893735D01*
X50088895Y-20825619D02*
X50088895Y-19825619D01*
X50088895Y-20301809D02*
X50660323Y-20301809D01*
X50660323Y-20825619D02*
X50660323Y-19825619D01*
X51565085Y-20158952D02*
X51565085Y-20825619D01*
X51326990Y-19778000D02*
X51088895Y-20492285D01*
X51088895Y-20492285D02*
X51707942Y-20492285D01*
X38554819Y-59094666D02*
X38078628Y-59427999D01*
X38554819Y-59666094D02*
X37554819Y-59666094D01*
X37554819Y-59666094D02*
X37554819Y-59285142D01*
X37554819Y-59285142D02*
X37602438Y-59189904D01*
X37602438Y-59189904D02*
X37650057Y-59142285D01*
X37650057Y-59142285D02*
X37745295Y-59094666D01*
X37745295Y-59094666D02*
X37888152Y-59094666D01*
X37888152Y-59094666D02*
X37983390Y-59142285D01*
X37983390Y-59142285D02*
X38031009Y-59189904D01*
X38031009Y-59189904D02*
X38078628Y-59285142D01*
X38078628Y-59285142D02*
X38078628Y-59666094D01*
X38554819Y-58142285D02*
X38554819Y-58713713D01*
X38554819Y-58427999D02*
X37554819Y-58427999D01*
X37554819Y-58427999D02*
X37697676Y-58523237D01*
X37697676Y-58523237D02*
X37792914Y-58618475D01*
X37792914Y-58618475D02*
X37840533Y-58713713D01*
X44196095Y-63396019D02*
X44196095Y-62396019D01*
X44196095Y-62872209D02*
X44767523Y-62872209D01*
X44767523Y-63396019D02*
X44767523Y-62396019D01*
X45196095Y-62491257D02*
X45243714Y-62443638D01*
X45243714Y-62443638D02*
X45338952Y-62396019D01*
X45338952Y-62396019D02*
X45577047Y-62396019D01*
X45577047Y-62396019D02*
X45672285Y-62443638D01*
X45672285Y-62443638D02*
X45719904Y-62491257D01*
X45719904Y-62491257D02*
X45767523Y-62586495D01*
X45767523Y-62586495D02*
X45767523Y-62681733D01*
X45767523Y-62681733D02*
X45719904Y-62824590D01*
X45719904Y-62824590D02*
X45148476Y-63396019D01*
X45148476Y-63396019D02*
X45767523Y-63396019D01*
X14237735Y-51536143D02*
X14273450Y-51571857D01*
X14273450Y-51571857D02*
X14309164Y-51679000D01*
X14309164Y-51679000D02*
X14309164Y-51750428D01*
X14309164Y-51750428D02*
X14273450Y-51857571D01*
X14273450Y-51857571D02*
X14202021Y-51929000D01*
X14202021Y-51929000D02*
X14130592Y-51964714D01*
X14130592Y-51964714D02*
X13987735Y-52000428D01*
X13987735Y-52000428D02*
X13880592Y-52000428D01*
X13880592Y-52000428D02*
X13737735Y-51964714D01*
X13737735Y-51964714D02*
X13666307Y-51929000D01*
X13666307Y-51929000D02*
X13594878Y-51857571D01*
X13594878Y-51857571D02*
X13559164Y-51750428D01*
X13559164Y-51750428D02*
X13559164Y-51679000D01*
X13559164Y-51679000D02*
X13594878Y-51571857D01*
X13594878Y-51571857D02*
X13630592Y-51536143D01*
X14309164Y-50821857D02*
X14309164Y-51250428D01*
X14309164Y-51036143D02*
X13559164Y-51036143D01*
X13559164Y-51036143D02*
X13666307Y-51107571D01*
X13666307Y-51107571D02*
X13737735Y-51179000D01*
X13737735Y-51179000D02*
X13773450Y-51250428D01*
X13559164Y-50179000D02*
X13559164Y-50321857D01*
X13559164Y-50321857D02*
X13594878Y-50393285D01*
X13594878Y-50393285D02*
X13630592Y-50429000D01*
X13630592Y-50429000D02*
X13737735Y-50500428D01*
X13737735Y-50500428D02*
X13880592Y-50536142D01*
X13880592Y-50536142D02*
X14166307Y-50536142D01*
X14166307Y-50536142D02*
X14237735Y-50500428D01*
X14237735Y-50500428D02*
X14273450Y-50464714D01*
X14273450Y-50464714D02*
X14309164Y-50393285D01*
X14309164Y-50393285D02*
X14309164Y-50250428D01*
X14309164Y-50250428D02*
X14273450Y-50179000D01*
X14273450Y-50179000D02*
X14237735Y-50143285D01*
X14237735Y-50143285D02*
X14166307Y-50107571D01*
X14166307Y-50107571D02*
X13987735Y-50107571D01*
X13987735Y-50107571D02*
X13916307Y-50143285D01*
X13916307Y-50143285D02*
X13880592Y-50179000D01*
X13880592Y-50179000D02*
X13844878Y-50250428D01*
X13844878Y-50250428D02*
X13844878Y-50393285D01*
X13844878Y-50393285D02*
X13880592Y-50464714D01*
X13880592Y-50464714D02*
X13916307Y-50500428D01*
X13916307Y-50500428D02*
X13987735Y-50536142D01*
X47857580Y-51474666D02*
X47905200Y-51522285D01*
X47905200Y-51522285D02*
X47952819Y-51665142D01*
X47952819Y-51665142D02*
X47952819Y-51760380D01*
X47952819Y-51760380D02*
X47905200Y-51903237D01*
X47905200Y-51903237D02*
X47809961Y-51998475D01*
X47809961Y-51998475D02*
X47714723Y-52046094D01*
X47714723Y-52046094D02*
X47524247Y-52093713D01*
X47524247Y-52093713D02*
X47381390Y-52093713D01*
X47381390Y-52093713D02*
X47190914Y-52046094D01*
X47190914Y-52046094D02*
X47095676Y-51998475D01*
X47095676Y-51998475D02*
X47000438Y-51903237D01*
X47000438Y-51903237D02*
X46952819Y-51760380D01*
X46952819Y-51760380D02*
X46952819Y-51665142D01*
X46952819Y-51665142D02*
X47000438Y-51522285D01*
X47000438Y-51522285D02*
X47048057Y-51474666D01*
X47286152Y-50617523D02*
X47952819Y-50617523D01*
X46905200Y-50855618D02*
X47619485Y-51093713D01*
X47619485Y-51093713D02*
X47619485Y-50474666D01*
X37030819Y-59094666D02*
X36554628Y-59427999D01*
X37030819Y-59666094D02*
X36030819Y-59666094D01*
X36030819Y-59666094D02*
X36030819Y-59285142D01*
X36030819Y-59285142D02*
X36078438Y-59189904D01*
X36078438Y-59189904D02*
X36126057Y-59142285D01*
X36126057Y-59142285D02*
X36221295Y-59094666D01*
X36221295Y-59094666D02*
X36364152Y-59094666D01*
X36364152Y-59094666D02*
X36459390Y-59142285D01*
X36459390Y-59142285D02*
X36507009Y-59189904D01*
X36507009Y-59189904D02*
X36554628Y-59285142D01*
X36554628Y-59285142D02*
X36554628Y-59666094D01*
X36126057Y-58713713D02*
X36078438Y-58666094D01*
X36078438Y-58666094D02*
X36030819Y-58570856D01*
X36030819Y-58570856D02*
X36030819Y-58332761D01*
X36030819Y-58332761D02*
X36078438Y-58237523D01*
X36078438Y-58237523D02*
X36126057Y-58189904D01*
X36126057Y-58189904D02*
X36221295Y-58142285D01*
X36221295Y-58142285D02*
X36316533Y-58142285D01*
X36316533Y-58142285D02*
X36459390Y-58189904D01*
X36459390Y-58189904D02*
X37030819Y-58761332D01*
X37030819Y-58761332D02*
X37030819Y-58142285D01*
X39624095Y-61278419D02*
X39624095Y-62087942D01*
X39624095Y-62087942D02*
X39671714Y-62183180D01*
X39671714Y-62183180D02*
X39719333Y-62230800D01*
X39719333Y-62230800D02*
X39814571Y-62278419D01*
X39814571Y-62278419D02*
X40005047Y-62278419D01*
X40005047Y-62278419D02*
X40100285Y-62230800D01*
X40100285Y-62230800D02*
X40147904Y-62183180D01*
X40147904Y-62183180D02*
X40195523Y-62087942D01*
X40195523Y-62087942D02*
X40195523Y-61278419D01*
X41100285Y-61611752D02*
X41100285Y-62278419D01*
X40862190Y-61230800D02*
X40624095Y-61945085D01*
X40624095Y-61945085D02*
X41243142Y-61945085D01*
X17988819Y-50545904D02*
X18798342Y-50545904D01*
X18798342Y-50545904D02*
X18893580Y-50498285D01*
X18893580Y-50498285D02*
X18941200Y-50450666D01*
X18941200Y-50450666D02*
X18988819Y-50355428D01*
X18988819Y-50355428D02*
X18988819Y-50164952D01*
X18988819Y-50164952D02*
X18941200Y-50069714D01*
X18941200Y-50069714D02*
X18893580Y-50022095D01*
X18893580Y-50022095D02*
X18798342Y-49974476D01*
X18798342Y-49974476D02*
X17988819Y-49974476D01*
X17988819Y-49069714D02*
X17988819Y-49260190D01*
X17988819Y-49260190D02*
X18036438Y-49355428D01*
X18036438Y-49355428D02*
X18084057Y-49403047D01*
X18084057Y-49403047D02*
X18226914Y-49498285D01*
X18226914Y-49498285D02*
X18417390Y-49545904D01*
X18417390Y-49545904D02*
X18798342Y-49545904D01*
X18798342Y-49545904D02*
X18893580Y-49498285D01*
X18893580Y-49498285D02*
X18941200Y-49450666D01*
X18941200Y-49450666D02*
X18988819Y-49355428D01*
X18988819Y-49355428D02*
X18988819Y-49164952D01*
X18988819Y-49164952D02*
X18941200Y-49069714D01*
X18941200Y-49069714D02*
X18893580Y-49022095D01*
X18893580Y-49022095D02*
X18798342Y-48974476D01*
X18798342Y-48974476D02*
X18560247Y-48974476D01*
X18560247Y-48974476D02*
X18465009Y-49022095D01*
X18465009Y-49022095D02*
X18417390Y-49069714D01*
X18417390Y-49069714D02*
X18369771Y-49164952D01*
X18369771Y-49164952D02*
X18369771Y-49355428D01*
X18369771Y-49355428D02*
X18417390Y-49450666D01*
X18417390Y-49450666D02*
X18465009Y-49498285D01*
X18465009Y-49498285D02*
X18560247Y-49545904D01*
X32316095Y-59144819D02*
X32316095Y-59954342D01*
X32316095Y-59954342D02*
X32363714Y-60049580D01*
X32363714Y-60049580D02*
X32411333Y-60097200D01*
X32411333Y-60097200D02*
X32506571Y-60144819D01*
X32506571Y-60144819D02*
X32697047Y-60144819D01*
X32697047Y-60144819D02*
X32792285Y-60097200D01*
X32792285Y-60097200D02*
X32839904Y-60049580D01*
X32839904Y-60049580D02*
X32887523Y-59954342D01*
X32887523Y-59954342D02*
X32887523Y-59144819D01*
X33268476Y-59144819D02*
X33935142Y-59144819D01*
X33935142Y-59144819D02*
X33506571Y-60144819D01*
X18742819Y-55792666D02*
X18266628Y-56125999D01*
X18742819Y-56364094D02*
X17742819Y-56364094D01*
X17742819Y-56364094D02*
X17742819Y-55983142D01*
X17742819Y-55983142D02*
X17790438Y-55887904D01*
X17790438Y-55887904D02*
X17838057Y-55840285D01*
X17838057Y-55840285D02*
X17933295Y-55792666D01*
X17933295Y-55792666D02*
X18076152Y-55792666D01*
X18076152Y-55792666D02*
X18171390Y-55840285D01*
X18171390Y-55840285D02*
X18219009Y-55887904D01*
X18219009Y-55887904D02*
X18266628Y-55983142D01*
X18266628Y-55983142D02*
X18266628Y-56364094D01*
X17742819Y-54935523D02*
X17742819Y-55125999D01*
X17742819Y-55125999D02*
X17790438Y-55221237D01*
X17790438Y-55221237D02*
X17838057Y-55268856D01*
X17838057Y-55268856D02*
X17980914Y-55364094D01*
X17980914Y-55364094D02*
X18171390Y-55411713D01*
X18171390Y-55411713D02*
X18552342Y-55411713D01*
X18552342Y-55411713D02*
X18647580Y-55364094D01*
X18647580Y-55364094D02*
X18695200Y-55316475D01*
X18695200Y-55316475D02*
X18742819Y-55221237D01*
X18742819Y-55221237D02*
X18742819Y-55030761D01*
X18742819Y-55030761D02*
X18695200Y-54935523D01*
X18695200Y-54935523D02*
X18647580Y-54887904D01*
X18647580Y-54887904D02*
X18552342Y-54840285D01*
X18552342Y-54840285D02*
X18314247Y-54840285D01*
X18314247Y-54840285D02*
X18219009Y-54887904D01*
X18219009Y-54887904D02*
X18171390Y-54935523D01*
X18171390Y-54935523D02*
X18123771Y-55030761D01*
X18123771Y-55030761D02*
X18123771Y-55221237D01*
X18123771Y-55221237D02*
X18171390Y-55316475D01*
X18171390Y-55316475D02*
X18219009Y-55364094D01*
X18219009Y-55364094D02*
X18314247Y-55411713D01*
X15632133Y-23060819D02*
X15298800Y-22584628D01*
X15060705Y-23060819D02*
X15060705Y-22060819D01*
X15060705Y-22060819D02*
X15441657Y-22060819D01*
X15441657Y-22060819D02*
X15536895Y-22108438D01*
X15536895Y-22108438D02*
X15584514Y-22156057D01*
X15584514Y-22156057D02*
X15632133Y-22251295D01*
X15632133Y-22251295D02*
X15632133Y-22394152D01*
X15632133Y-22394152D02*
X15584514Y-22489390D01*
X15584514Y-22489390D02*
X15536895Y-22537009D01*
X15536895Y-22537009D02*
X15441657Y-22584628D01*
X15441657Y-22584628D02*
X15060705Y-22584628D01*
X16489276Y-22394152D02*
X16489276Y-23060819D01*
X16251181Y-22013200D02*
X16013086Y-22727485D01*
X16013086Y-22727485D02*
X16632133Y-22727485D01*
X27052999Y-59449735D02*
X27017285Y-59485450D01*
X27017285Y-59485450D02*
X26910142Y-59521164D01*
X26910142Y-59521164D02*
X26838714Y-59521164D01*
X26838714Y-59521164D02*
X26731571Y-59485450D01*
X26731571Y-59485450D02*
X26660142Y-59414021D01*
X26660142Y-59414021D02*
X26624428Y-59342592D01*
X26624428Y-59342592D02*
X26588714Y-59199735D01*
X26588714Y-59199735D02*
X26588714Y-59092592D01*
X26588714Y-59092592D02*
X26624428Y-58949735D01*
X26624428Y-58949735D02*
X26660142Y-58878307D01*
X26660142Y-58878307D02*
X26731571Y-58806878D01*
X26731571Y-58806878D02*
X26838714Y-58771164D01*
X26838714Y-58771164D02*
X26910142Y-58771164D01*
X26910142Y-58771164D02*
X27017285Y-58806878D01*
X27017285Y-58806878D02*
X27052999Y-58842592D01*
X27302999Y-58771164D02*
X27767285Y-58771164D01*
X27767285Y-58771164D02*
X27517285Y-59056878D01*
X27517285Y-59056878D02*
X27624428Y-59056878D01*
X27624428Y-59056878D02*
X27695857Y-59092592D01*
X27695857Y-59092592D02*
X27731571Y-59128307D01*
X27731571Y-59128307D02*
X27767285Y-59199735D01*
X27767285Y-59199735D02*
X27767285Y-59378307D01*
X27767285Y-59378307D02*
X27731571Y-59449735D01*
X27731571Y-59449735D02*
X27695857Y-59485450D01*
X27695857Y-59485450D02*
X27624428Y-59521164D01*
X27624428Y-59521164D02*
X27410142Y-59521164D01*
X27410142Y-59521164D02*
X27338714Y-59485450D01*
X27338714Y-59485450D02*
X27302999Y-59449735D01*
X14668667Y-29363200D02*
X14811524Y-29410819D01*
X14811524Y-29410819D02*
X15049619Y-29410819D01*
X15049619Y-29410819D02*
X15144857Y-29363200D01*
X15144857Y-29363200D02*
X15192476Y-29315580D01*
X15192476Y-29315580D02*
X15240095Y-29220342D01*
X15240095Y-29220342D02*
X15240095Y-29125104D01*
X15240095Y-29125104D02*
X15192476Y-29029866D01*
X15192476Y-29029866D02*
X15144857Y-28982247D01*
X15144857Y-28982247D02*
X15049619Y-28934628D01*
X15049619Y-28934628D02*
X14859143Y-28887009D01*
X14859143Y-28887009D02*
X14763905Y-28839390D01*
X14763905Y-28839390D02*
X14716286Y-28791771D01*
X14716286Y-28791771D02*
X14668667Y-28696533D01*
X14668667Y-28696533D02*
X14668667Y-28601295D01*
X14668667Y-28601295D02*
X14716286Y-28506057D01*
X14716286Y-28506057D02*
X14763905Y-28458438D01*
X14763905Y-28458438D02*
X14859143Y-28410819D01*
X14859143Y-28410819D02*
X15097238Y-28410819D01*
X15097238Y-28410819D02*
X15240095Y-28458438D01*
X15573429Y-28410819D02*
X15811524Y-29410819D01*
X15811524Y-29410819D02*
X16002000Y-28696533D01*
X16002000Y-28696533D02*
X16192476Y-29410819D01*
X16192476Y-29410819D02*
X16430572Y-28410819D01*
X17335333Y-29410819D02*
X16763905Y-29410819D01*
X17049619Y-29410819D02*
X17049619Y-28410819D01*
X17049619Y-28410819D02*
X16954381Y-28553676D01*
X16954381Y-28553676D02*
X16859143Y-28648914D01*
X16859143Y-28648914D02*
X16763905Y-28696533D01*
X15507735Y-56362143D02*
X15543450Y-56397857D01*
X15543450Y-56397857D02*
X15579164Y-56505000D01*
X15579164Y-56505000D02*
X15579164Y-56576428D01*
X15579164Y-56576428D02*
X15543450Y-56683571D01*
X15543450Y-56683571D02*
X15472021Y-56755000D01*
X15472021Y-56755000D02*
X15400592Y-56790714D01*
X15400592Y-56790714D02*
X15257735Y-56826428D01*
X15257735Y-56826428D02*
X15150592Y-56826428D01*
X15150592Y-56826428D02*
X15007735Y-56790714D01*
X15007735Y-56790714D02*
X14936307Y-56755000D01*
X14936307Y-56755000D02*
X14864878Y-56683571D01*
X14864878Y-56683571D02*
X14829164Y-56576428D01*
X14829164Y-56576428D02*
X14829164Y-56505000D01*
X14829164Y-56505000D02*
X14864878Y-56397857D01*
X14864878Y-56397857D02*
X14900592Y-56362143D01*
X15579164Y-55647857D02*
X15579164Y-56076428D01*
X15579164Y-55862143D02*
X14829164Y-55862143D01*
X14829164Y-55862143D02*
X14936307Y-55933571D01*
X14936307Y-55933571D02*
X15007735Y-56005000D01*
X15007735Y-56005000D02*
X15043450Y-56076428D01*
X14900592Y-55362142D02*
X14864878Y-55326428D01*
X14864878Y-55326428D02*
X14829164Y-55255000D01*
X14829164Y-55255000D02*
X14829164Y-55076428D01*
X14829164Y-55076428D02*
X14864878Y-55005000D01*
X14864878Y-55005000D02*
X14900592Y-54969285D01*
X14900592Y-54969285D02*
X14972021Y-54933571D01*
X14972021Y-54933571D02*
X15043450Y-54933571D01*
X15043450Y-54933571D02*
X15150592Y-54969285D01*
X15150592Y-54969285D02*
X15579164Y-55397857D01*
X15579164Y-55397857D02*
X15579164Y-54933571D01*
X40078819Y-59094666D02*
X39602628Y-59427999D01*
X40078819Y-59666094D02*
X39078819Y-59666094D01*
X39078819Y-59666094D02*
X39078819Y-59285142D01*
X39078819Y-59285142D02*
X39126438Y-59189904D01*
X39126438Y-59189904D02*
X39174057Y-59142285D01*
X39174057Y-59142285D02*
X39269295Y-59094666D01*
X39269295Y-59094666D02*
X39412152Y-59094666D01*
X39412152Y-59094666D02*
X39507390Y-59142285D01*
X39507390Y-59142285D02*
X39555009Y-59189904D01*
X39555009Y-59189904D02*
X39602628Y-59285142D01*
X39602628Y-59285142D02*
X39602628Y-59666094D01*
X39078819Y-58761332D02*
X39078819Y-58142285D01*
X39078819Y-58142285D02*
X39459771Y-58475618D01*
X39459771Y-58475618D02*
X39459771Y-58332761D01*
X39459771Y-58332761D02*
X39507390Y-58237523D01*
X39507390Y-58237523D02*
X39555009Y-58189904D01*
X39555009Y-58189904D02*
X39650247Y-58142285D01*
X39650247Y-58142285D02*
X39888342Y-58142285D01*
X39888342Y-58142285D02*
X39983580Y-58189904D01*
X39983580Y-58189904D02*
X40031200Y-58237523D01*
X40031200Y-58237523D02*
X40078819Y-58332761D01*
X40078819Y-58332761D02*
X40078819Y-58618475D01*
X40078819Y-58618475D02*
X40031200Y-58713713D01*
X40031200Y-58713713D02*
X39983580Y-58761332D01*
X48855333Y-37697580D02*
X48807714Y-37745200D01*
X48807714Y-37745200D02*
X48664857Y-37792819D01*
X48664857Y-37792819D02*
X48569619Y-37792819D01*
X48569619Y-37792819D02*
X48426762Y-37745200D01*
X48426762Y-37745200D02*
X48331524Y-37649961D01*
X48331524Y-37649961D02*
X48283905Y-37554723D01*
X48283905Y-37554723D02*
X48236286Y-37364247D01*
X48236286Y-37364247D02*
X48236286Y-37221390D01*
X48236286Y-37221390D02*
X48283905Y-37030914D01*
X48283905Y-37030914D02*
X48331524Y-36935676D01*
X48331524Y-36935676D02*
X48426762Y-36840438D01*
X48426762Y-36840438D02*
X48569619Y-36792819D01*
X48569619Y-36792819D02*
X48664857Y-36792819D01*
X48664857Y-36792819D02*
X48807714Y-36840438D01*
X48807714Y-36840438D02*
X48855333Y-36888057D01*
X49807714Y-37792819D02*
X49236286Y-37792819D01*
X49522000Y-37792819D02*
X49522000Y-36792819D01*
X49522000Y-36792819D02*
X49426762Y-36935676D01*
X49426762Y-36935676D02*
X49331524Y-37030914D01*
X49331524Y-37030914D02*
X49236286Y-37078533D01*
X23949066Y-58890819D02*
X23949066Y-59605104D01*
X23949066Y-59605104D02*
X23901447Y-59747961D01*
X23901447Y-59747961D02*
X23806209Y-59843200D01*
X23806209Y-59843200D02*
X23663352Y-59890819D01*
X23663352Y-59890819D02*
X23568114Y-59890819D01*
X24377638Y-58986057D02*
X24425257Y-58938438D01*
X24425257Y-58938438D02*
X24520495Y-58890819D01*
X24520495Y-58890819D02*
X24758590Y-58890819D01*
X24758590Y-58890819D02*
X24853828Y-58938438D01*
X24853828Y-58938438D02*
X24901447Y-58986057D01*
X24901447Y-58986057D02*
X24949066Y-59081295D01*
X24949066Y-59081295D02*
X24949066Y-59176533D01*
X24949066Y-59176533D02*
X24901447Y-59319390D01*
X24901447Y-59319390D02*
X24330019Y-59890819D01*
X24330019Y-59890819D02*
X24949066Y-59890819D01*
X48855333Y-27029580D02*
X48807714Y-27077200D01*
X48807714Y-27077200D02*
X48664857Y-27124819D01*
X48664857Y-27124819D02*
X48569619Y-27124819D01*
X48569619Y-27124819D02*
X48426762Y-27077200D01*
X48426762Y-27077200D02*
X48331524Y-26981961D01*
X48331524Y-26981961D02*
X48283905Y-26886723D01*
X48283905Y-26886723D02*
X48236286Y-26696247D01*
X48236286Y-26696247D02*
X48236286Y-26553390D01*
X48236286Y-26553390D02*
X48283905Y-26362914D01*
X48283905Y-26362914D02*
X48331524Y-26267676D01*
X48331524Y-26267676D02*
X48426762Y-26172438D01*
X48426762Y-26172438D02*
X48569619Y-26124819D01*
X48569619Y-26124819D02*
X48664857Y-26124819D01*
X48664857Y-26124819D02*
X48807714Y-26172438D01*
X48807714Y-26172438D02*
X48855333Y-26220057D01*
X49236286Y-26220057D02*
X49283905Y-26172438D01*
X49283905Y-26172438D02*
X49379143Y-26124819D01*
X49379143Y-26124819D02*
X49617238Y-26124819D01*
X49617238Y-26124819D02*
X49712476Y-26172438D01*
X49712476Y-26172438D02*
X49760095Y-26220057D01*
X49760095Y-26220057D02*
X49807714Y-26315295D01*
X49807714Y-26315295D02*
X49807714Y-26410533D01*
X49807714Y-26410533D02*
X49760095Y-26553390D01*
X49760095Y-26553390D02*
X49188667Y-27124819D01*
X49188667Y-27124819D02*
X49807714Y-27124819D01*
X19558095Y-63192819D02*
X19558095Y-62192819D01*
X19558095Y-62669009D02*
X20129523Y-62669009D01*
X20129523Y-63192819D02*
X20129523Y-62192819D01*
X21129523Y-63192819D02*
X20558095Y-63192819D01*
X20843809Y-63192819D02*
X20843809Y-62192819D01*
X20843809Y-62192819D02*
X20748571Y-62335676D01*
X20748571Y-62335676D02*
X20653333Y-62430914D01*
X20653333Y-62430914D02*
X20558095Y-62478533D01*
X25425856Y-57417735D02*
X25390142Y-57453450D01*
X25390142Y-57453450D02*
X25282999Y-57489164D01*
X25282999Y-57489164D02*
X25211571Y-57489164D01*
X25211571Y-57489164D02*
X25104428Y-57453450D01*
X25104428Y-57453450D02*
X25032999Y-57382021D01*
X25032999Y-57382021D02*
X24997285Y-57310592D01*
X24997285Y-57310592D02*
X24961571Y-57167735D01*
X24961571Y-57167735D02*
X24961571Y-57060592D01*
X24961571Y-57060592D02*
X24997285Y-56917735D01*
X24997285Y-56917735D02*
X25032999Y-56846307D01*
X25032999Y-56846307D02*
X25104428Y-56774878D01*
X25104428Y-56774878D02*
X25211571Y-56739164D01*
X25211571Y-56739164D02*
X25282999Y-56739164D01*
X25282999Y-56739164D02*
X25390142Y-56774878D01*
X25390142Y-56774878D02*
X25425856Y-56810592D01*
X26140142Y-57489164D02*
X25711571Y-57489164D01*
X25925856Y-57489164D02*
X25925856Y-56739164D01*
X25925856Y-56739164D02*
X25854428Y-56846307D01*
X25854428Y-56846307D02*
X25782999Y-56917735D01*
X25782999Y-56917735D02*
X25711571Y-56953450D01*
X26604428Y-56739164D02*
X26675857Y-56739164D01*
X26675857Y-56739164D02*
X26747285Y-56774878D01*
X26747285Y-56774878D02*
X26783000Y-56810592D01*
X26783000Y-56810592D02*
X26818714Y-56882021D01*
X26818714Y-56882021D02*
X26854428Y-57024878D01*
X26854428Y-57024878D02*
X26854428Y-57203450D01*
X26854428Y-57203450D02*
X26818714Y-57346307D01*
X26818714Y-57346307D02*
X26783000Y-57417735D01*
X26783000Y-57417735D02*
X26747285Y-57453450D01*
X26747285Y-57453450D02*
X26675857Y-57489164D01*
X26675857Y-57489164D02*
X26604428Y-57489164D01*
X26604428Y-57489164D02*
X26533000Y-57453450D01*
X26533000Y-57453450D02*
X26497285Y-57417735D01*
X26497285Y-57417735D02*
X26461571Y-57346307D01*
X26461571Y-57346307D02*
X26425857Y-57203450D01*
X26425857Y-57203450D02*
X26425857Y-57024878D01*
X26425857Y-57024878D02*
X26461571Y-56882021D01*
X26461571Y-56882021D02*
X26497285Y-56810592D01*
X26497285Y-56810592D02*
X26533000Y-56774878D01*
X26533000Y-56774878D02*
X26604428Y-56739164D01*
D11*
X15912000Y-46665564D02*
X15912000Y-45461436D01*
X18632000Y-46665564D02*
X18632000Y-45461436D01*
X50036000Y-48621733D02*
X50036000Y-48914267D01*
X51056000Y-48621733D02*
X51056000Y-48914267D01*
X40625500Y-56642724D02*
X40625500Y-56133276D01*
X41670500Y-56642724D02*
X41670500Y-56133276D01*
X16254000Y-53131767D02*
X16254000Y-52839233D01*
X17274000Y-53131767D02*
X17274000Y-52839233D01*
D12*
X20100000Y-13928000D02*
X24650000Y-13928000D01*
X20100000Y-33628000D02*
X20100000Y-13928000D01*
X20100000Y-54428000D02*
X20100000Y-51178000D01*
X35600000Y-13928000D02*
X29600000Y-13928000D01*
X40550000Y-13928000D02*
X45100000Y-13928000D01*
X45100000Y-13928000D02*
X45100000Y-33628000D01*
X45100000Y-51178000D02*
X45100000Y-54428000D01*
X45100000Y-54428000D02*
X20100000Y-54428000D01*
D13*
X46800000Y-34878000D02*
G75*
G02*
X46600000Y-34878000I-100000J0D01*
G01*
X46600000Y-34878000D02*
G75*
G02*
X46800000Y-34878000I100000J0D01*
G01*
D11*
X13743000Y-44254748D02*
X13743000Y-44777252D01*
X15213000Y-44254748D02*
X15213000Y-44777252D01*
X20680000Y-59820564D02*
X20680000Y-58616436D01*
X22500000Y-59820564D02*
X22500000Y-58616436D01*
X29001767Y-55116000D02*
X28709233Y-55116000D01*
X29001767Y-56136000D02*
X28709233Y-56136000D01*
X37577500Y-56642724D02*
X37577500Y-56133276D01*
X38622500Y-56642724D02*
X38622500Y-56133276D01*
X13751000Y-48333252D02*
X13751000Y-47810748D01*
X15221000Y-48333252D02*
X15221000Y-47810748D01*
X46988000Y-48621733D02*
X46988000Y-48914267D01*
X48008000Y-48621733D02*
X48008000Y-48914267D01*
X36053500Y-56133276D02*
X36053500Y-56642724D01*
X37098500Y-56133276D02*
X37098500Y-56642724D01*
X36010000Y-63398000D02*
X37810000Y-63398000D01*
X37010000Y-60178000D02*
X36210000Y-60178000D01*
X37010000Y-60178000D02*
X37810000Y-60178000D01*
X35710000Y-60228000D02*
X35470000Y-59898000D01*
X35950000Y-59898000D01*
X35710000Y-60228000D01*
G36*
X35710000Y-60228000D02*
G01*
X35470000Y-59898000D01*
X35950000Y-59898000D01*
X35710000Y-60228000D01*
G37*
X15575000Y-50543500D02*
X15575000Y-49123500D01*
X17445000Y-49407932D02*
X17445000Y-50543500D01*
X17640000Y-49253500D02*
X17450000Y-49113500D01*
X17640000Y-48973500D01*
X17640000Y-49253500D01*
G36*
X17640000Y-49253500D02*
G01*
X17450000Y-49113500D01*
X17640000Y-48973500D01*
X17640000Y-49253500D01*
G37*
X31468000Y-55228000D02*
X31918000Y-55228000D01*
X31468000Y-55678000D02*
X31468000Y-55228000D01*
X31468000Y-58448000D02*
X31468000Y-57998000D01*
X31918000Y-58448000D02*
X31468000Y-58448000D01*
X34238000Y-55228000D02*
X34688000Y-55228000D01*
X34688000Y-55228000D02*
X34688000Y-55678000D01*
X34688000Y-57998000D02*
X34688000Y-58448000D01*
X34688000Y-58448000D02*
X34238000Y-58448000D01*
X30938000Y-56088000D02*
X30608000Y-56328000D01*
X30608000Y-55848000D01*
X30938000Y-56088000D01*
G36*
X30938000Y-56088000D02*
G01*
X30608000Y-56328000D01*
X30608000Y-55848000D01*
X30938000Y-56088000D01*
G37*
X17778000Y-52839233D02*
X17778000Y-53131767D01*
X18798000Y-52839233D02*
X18798000Y-53131767D01*
X14425000Y-26351737D02*
X14425000Y-24904263D01*
X17135000Y-26351737D02*
X17135000Y-24904263D01*
X29763767Y-58672000D02*
X29471233Y-58672000D01*
X29763767Y-59692000D02*
X29471233Y-59692000D01*
X13702000Y-31006000D02*
X13702000Y-33206000D01*
X13702000Y-37306000D02*
X13702000Y-39606000D01*
X18302000Y-31006000D02*
X18302000Y-39606000D01*
X14730000Y-53131767D02*
X14730000Y-52839233D01*
X15750000Y-53131767D02*
X15750000Y-52839233D01*
X39101500Y-56642724D02*
X39101500Y-56133276D01*
X40146500Y-56642724D02*
X40146500Y-56133276D01*
X46762000Y-38768000D02*
X46762000Y-46833000D01*
X46762000Y-46833000D02*
X51282000Y-46833000D01*
X51282000Y-46833000D02*
X51282000Y-38768000D01*
X23512000Y-60342000D02*
X23512000Y-63102000D01*
X31242000Y-60342000D02*
X23512000Y-60342000D01*
X31242000Y-60342000D02*
X31242000Y-63102000D01*
X31242000Y-63102000D02*
X23512000Y-63102000D01*
X32512000Y-60342000D02*
X33892000Y-60342000D01*
X33892000Y-60342000D02*
X33892000Y-61722000D01*
X46762000Y-28282000D02*
X46762000Y-36347000D01*
X46762000Y-36347000D02*
X51282000Y-36347000D01*
X51282000Y-36347000D02*
X51282000Y-28282000D01*
X29001767Y-56640000D02*
X28709233Y-56640000D01*
X29001767Y-57660000D02*
X28709233Y-57660000D01*
M02*
