%TF.GenerationSoftware,KiCad,Pcbnew,9.0.7*%
%TF.CreationDate,2026-02-28T16:41:56+00:00*%
%TF.ProjectId,USB-Lora-Modem,5553422d-4c6f-4726-912d-4d6f64656d2e,V1.2*%
%TF.SameCoordinates,Original*%
%TF.FileFunction,Soldermask,Top*%
%TF.FilePolarity,Negative*%
%FSLAX46Y46*%
G04 Gerber Fmt 4.6, Leading zero omitted, Abs format (unit mm)*
G04 Created by KiCad (PCBNEW 9.0.7) date 2026-02-28 16:41:56*
%MOMM*%
%LPD*%
G01*
G04 APERTURE LIST*
G04 Aperture macros list*
%AMRoundRect*
0 Rectangle with rounded corners*
0 $1 Rounding radius*
0 $2 $3 $4 $5 $6 $7 $8 $9 X,Y pos of 4 corners*
0 Add a 4 corners polygon primitive as box body*
4,1,4,$2,$3,$4,$5,$6,$7,$8,$9,$2,$3,0*
0 Add four circle primitives for the rounded corners*
1,1,$1+$1,$2,$3*
1,1,$1+$1,$4,$5*
1,1,$1+$1,$6,$7*
1,1,$1+$1,$8,$9*
0 Add four rect primitives between the rounded corners*
20,1,$1+$1,$2,$3,$4,$5,0*
20,1,$1+$1,$4,$5,$6,$7,0*
20,1,$1+$1,$6,$7,$8,$9,0*
20,1,$1+$1,$8,$9,$2,$3,0*%
G04 Aperture macros list end*
%ADD10C,3.200000*%
%ADD11RoundRect,0.250001X1.074999X-0.462499X1.074999X0.462499X-1.074999X0.462499X-1.074999X-0.462499X0*%
%ADD12RoundRect,0.237500X-0.237500X0.300000X-0.237500X-0.300000X0.237500X-0.300000X0.237500X0.300000X0*%
%ADD13RoundRect,0.237500X0.237500X-0.250000X0.237500X0.250000X-0.237500X0.250000X-0.237500X-0.250000X0*%
%ADD14RoundRect,0.237500X0.237500X-0.300000X0.237500X0.300000X-0.237500X0.300000X-0.237500X-0.300000X0*%
%ADD15RoundRect,0.102000X1.170000X0.765000X-1.170000X0.765000X-1.170000X-0.765000X1.170000X-0.765000X0*%
%ADD16RoundRect,0.102000X0.755000X1.155000X-0.755000X1.155000X-0.755000X-1.155000X0.755000X-1.155000X0*%
%ADD17RoundRect,0.250000X-0.475000X0.250000X-0.475000X-0.250000X0.475000X-0.250000X0.475000X0.250000X0*%
%ADD18RoundRect,0.250001X0.624999X-0.462499X0.624999X0.462499X-0.624999X0.462499X-0.624999X-0.462499X0*%
%ADD19RoundRect,0.237500X0.300000X0.237500X-0.300000X0.237500X-0.300000X-0.237500X0.300000X-0.237500X0*%
%ADD20RoundRect,0.250000X0.475000X-0.250000X0.475000X0.250000X-0.475000X0.250000X-0.475000X-0.250000X0*%
%ADD21RoundRect,0.237500X-0.237500X0.250000X-0.237500X-0.250000X0.237500X-0.250000X0.237500X0.250000X0*%
%ADD22RoundRect,0.162500X-0.617500X-0.162500X0.617500X-0.162500X0.617500X0.162500X-0.617500X0.162500X0*%
%ADD23RoundRect,0.087500X-0.087500X0.250000X-0.087500X-0.250000X0.087500X-0.250000X0.087500X0.250000X0*%
%ADD24RoundRect,0.075000X-0.312500X-0.075000X0.312500X-0.075000X0.312500X0.075000X-0.312500X0.075000X0*%
%ADD25RoundRect,0.075000X-0.075000X-0.312500X0.075000X-0.312500X0.075000X0.312500X-0.075000X0.312500X0*%
%ADD26R,1.800000X1.800000*%
%ADD27RoundRect,0.250000X1.075000X-0.400000X1.075000X0.400000X-1.075000X0.400000X-1.075000X-0.400000X0*%
%ADD28O,3.500000X2.200000*%
%ADD29R,2.500000X1.500000*%
%ADD30O,2.500000X1.500000*%
%ADD31RoundRect,0.250000X1.045000X-0.785000X1.045000X0.785000X-1.045000X0.785000X-1.045000X-0.785000X0*%
%ADD32R,1.700000X1.700000*%
%ADD33C,1.700000*%
G04 APERTURE END LIST*
D10*
X17018000Y-16764000D03*
D11*
X17272000Y-47551000D03*
X17272000Y-44576000D03*
D12*
X50546000Y-47905500D03*
X50546000Y-49630500D03*
D13*
X41148000Y-57300500D03*
X41148000Y-55475500D03*
D14*
X16764000Y-53848000D03*
X16764000Y-52123000D03*
D15*
X44535000Y-34808000D03*
X44535000Y-37348000D03*
X44535000Y-39888000D03*
X44535000Y-42428000D03*
X44535000Y-44968000D03*
X44535000Y-47508000D03*
X44535000Y-50048000D03*
X20665000Y-50048000D03*
X20665000Y-47508000D03*
X20665000Y-44968000D03*
X20665000Y-42428000D03*
X20665000Y-39888000D03*
X20665000Y-37348000D03*
X20665000Y-34808000D03*
D16*
X25830000Y-14478000D03*
X28370000Y-14478000D03*
X36830000Y-14478000D03*
X39370000Y-14478000D03*
D17*
X14478000Y-43566000D03*
X14478000Y-45466000D03*
D18*
X21590000Y-60706000D03*
X21590000Y-57731000D03*
D19*
X29718000Y-55626000D03*
X27993000Y-55626000D03*
D10*
X48260000Y-16764000D03*
D13*
X38100000Y-57300500D03*
X38100000Y-55475500D03*
D10*
X48260000Y-59848000D03*
D20*
X14486000Y-49022000D03*
X14486000Y-47122000D03*
D12*
X47498000Y-47905500D03*
X47498000Y-49630500D03*
D21*
X36576000Y-55475500D03*
X36576000Y-57300500D03*
D22*
X35560000Y-60838000D03*
X35560000Y-61788000D03*
X35560000Y-62738000D03*
X38260000Y-62738000D03*
X38260000Y-61788000D03*
X38260000Y-60838000D03*
D23*
X17010000Y-49121000D03*
X16510000Y-49121000D03*
X16010000Y-49121000D03*
X16010000Y-50546000D03*
X16510000Y-50546000D03*
X17010000Y-50546000D03*
D24*
X31590500Y-56088000D03*
X31590500Y-56588000D03*
X31590500Y-57088000D03*
X31590500Y-57588000D03*
D25*
X32328000Y-58325500D03*
X32828000Y-58325500D03*
X33328000Y-58325500D03*
X33828000Y-58325500D03*
D24*
X34565500Y-57588000D03*
X34565500Y-57088000D03*
X34565500Y-56588000D03*
X34565500Y-56088000D03*
D25*
X33828000Y-55350500D03*
X33328000Y-55350500D03*
X32828000Y-55350500D03*
X32328000Y-55350500D03*
D26*
X33078000Y-56838000D03*
D12*
X18288000Y-52123000D03*
X18288000Y-53848000D03*
D27*
X15780000Y-27178000D03*
X15780000Y-24078000D03*
D19*
X30480000Y-59182000D03*
X28755000Y-59182000D03*
D28*
X16002000Y-31206000D03*
X16002000Y-39406000D03*
D29*
X16002000Y-33306000D03*
D30*
X16002000Y-35306000D03*
X16002000Y-37306000D03*
D14*
X15240000Y-53848000D03*
X15240000Y-52123000D03*
D13*
X39624000Y-57300500D03*
X39624000Y-55475500D03*
D31*
X49022000Y-45538000D03*
X49022000Y-39298000D03*
D32*
X32512000Y-61722000D03*
D33*
X29972000Y-61722000D03*
X27432000Y-61722000D03*
X24892000Y-61722000D03*
D31*
X49022000Y-35052000D03*
X49022000Y-28812000D03*
D10*
X16764000Y-59848000D03*
D19*
X29718000Y-57150000D03*
X27993000Y-57150000D03*
M02*
