%TF.GenerationSoftware,KiCad,Pcbnew,9.0.7*%
%TF.CreationDate,2026-03-04T23:18:43+00:00*%
%TF.ProjectId,USB-Lora-Modem,5553422d-4c6f-4726-912d-4d6f64656d2e,V1.2*%
%TF.SameCoordinates,Original*%
%TF.FileFunction,Copper,L2,Inr*%
%TF.FilePolarity,Positive*%
%FSLAX46Y46*%
G04 Gerber Fmt 4.6, Leading zero omitted, Abs format (unit mm)*
G04 Created by KiCad (PCBNEW 9.0.7) date 2026-03-04 23:18:43*
%MOMM*%
%LPD*%
G01*
G04 APERTURE LIST*
%TA.AperFunction,ComponentPad*%
%ADD10C,1.308000*%
%TD*%
%TA.AperFunction,ComponentPad*%
%ADD11R,1.700000X1.700000*%
%TD*%
%TA.AperFunction,ComponentPad*%
%ADD12C,1.700000*%
%TD*%
%TA.AperFunction,ViaPad*%
%ADD13C,0.800000*%
%TD*%
G04 APERTURE END LIST*
D10*
X136398000Y-96720400D03*
X136398000Y-99720400D03*
X136398000Y-102720400D03*
D11*
X153090800Y-126512400D03*
D12*
X150550800Y-126512400D03*
X148010800Y-126512400D03*
X145470800Y-126512400D03*
D13*
X165100000Y-82550000D03*
X165100000Y-81280000D03*
X165100000Y-80010000D03*
X165100000Y-80010000D03*
X165100000Y-78740000D03*
X165100000Y-77470000D03*
X156210000Y-77470000D03*
X154940000Y-77470000D03*
X154940000Y-78740000D03*
X156210000Y-78740000D03*
X156210000Y-80010000D03*
X154940000Y-80010000D03*
X154940000Y-81280000D03*
X154940000Y-82550000D03*
X156210000Y-81280000D03*
X156210000Y-82550000D03*
X157480000Y-82550000D03*
X158750000Y-82550000D03*
X160020000Y-82550000D03*
X161290000Y-82550000D03*
X162560000Y-82550000D03*
X163830000Y-82550000D03*
X163830000Y-81280000D03*
X163830000Y-80010000D03*
X163830000Y-78740000D03*
X163830000Y-77470000D03*
X157480000Y-80010000D03*
X157480000Y-81280000D03*
X157480000Y-78740000D03*
X155711000Y-74803000D03*
X158750000Y-81280000D03*
X160020000Y-81280000D03*
X161290000Y-81280000D03*
X162560000Y-81280000D03*
X162560000Y-80010000D03*
X162560000Y-78740000D03*
X162560000Y-77470000D03*
X162560000Y-76200000D03*
X162560000Y-74930000D03*
X162560000Y-73660000D03*
X162560000Y-72390000D03*
X157480000Y-72390000D03*
X157480000Y-73660000D03*
X157480000Y-74930000D03*
X157480000Y-76200000D03*
X157480000Y-77470000D03*
X146537600Y-81656000D03*
X147248800Y-120416400D03*
X165892400Y-118740000D03*
X146842400Y-93187600D03*
X164165200Y-120365600D03*
X147248800Y-121940400D03*
X165892400Y-117063600D03*
X139882800Y-118638400D03*
X165892400Y-120416400D03*
X160253600Y-93238400D03*
X167721200Y-118740000D03*
X139120800Y-111018400D03*
X169448400Y-117114400D03*
X164165200Y-122042000D03*
X136072800Y-111018400D03*
X157612000Y-93136800D03*
X155580000Y-102128400D03*
X169448400Y-118790800D03*
X167721200Y-117063600D03*
X169600800Y-106192400D03*
X164165200Y-117012800D03*
X153090800Y-121378400D03*
X154868800Y-126512400D03*
X148976000Y-81706800D03*
X156189600Y-122092800D03*
X153868333Y-121721833D03*
X137342800Y-90190400D03*
X149280800Y-93238400D03*
X169600800Y-102382400D03*
X155427600Y-114523600D03*
X135615600Y-90190400D03*
X165892400Y-122092800D03*
X164165200Y-118689200D03*
X137088800Y-111018400D03*
X138104800Y-111018400D03*
X148264800Y-123972400D03*
X139171600Y-90190400D03*
X143692800Y-127528400D03*
X143692800Y-126512400D03*
X143692800Y-125496400D03*
X143692800Y-124480400D03*
X151132979Y-122825375D03*
X160683104Y-123935399D03*
X161726800Y-123210400D03*
X152074800Y-123210400D03*
X162451800Y-118994000D03*
X155173600Y-119044800D03*
X139925324Y-117378722D03*
X137850800Y-107716400D03*
%TA.AperFunction,Conductor*%
G36*
X168381655Y-72050632D02*
G01*
X168737497Y-72067083D01*
X168748886Y-72068139D01*
X169098851Y-72116957D01*
X169110095Y-72119059D01*
X169454061Y-72199959D01*
X169465051Y-72203086D01*
X169800106Y-72315385D01*
X169810760Y-72319513D01*
X170134009Y-72462241D01*
X170144236Y-72467333D01*
X170385489Y-72601710D01*
X170452931Y-72639275D01*
X170462669Y-72645304D01*
X170754174Y-72844990D01*
X170763314Y-72851892D01*
X171035156Y-73077626D01*
X171043620Y-73085343D01*
X171293456Y-73335179D01*
X171301173Y-73343643D01*
X171526907Y-73615485D01*
X171533809Y-73624625D01*
X171733495Y-73916130D01*
X171739524Y-73925868D01*
X171796844Y-74028777D01*
X171864400Y-74150064D01*
X171911459Y-74234550D01*
X171916562Y-74244799D01*
X172015670Y-74469256D01*
X172059281Y-74568026D01*
X172063419Y-74578706D01*
X172175709Y-74913735D01*
X172178843Y-74924751D01*
X172259738Y-75268696D01*
X172261843Y-75279955D01*
X172310659Y-75629905D01*
X172311716Y-75641309D01*
X172328168Y-75997144D01*
X172328300Y-76002830D01*
X172328300Y-76016408D01*
X172328304Y-76016414D01*
X172328311Y-76035785D01*
X172344292Y-124366327D01*
X172344294Y-124370892D01*
X172344294Y-124370905D01*
X172344297Y-124379907D01*
X172344167Y-124385625D01*
X172327856Y-124741544D01*
X172326803Y-124752951D01*
X172278109Y-125103005D01*
X172276008Y-125114268D01*
X172195212Y-125458337D01*
X172192081Y-125469357D01*
X172079874Y-125804507D01*
X172075739Y-125815191D01*
X171933079Y-126138556D01*
X171927975Y-126148813D01*
X171756087Y-126457616D01*
X171750059Y-126467358D01*
X171550391Y-126758999D01*
X171543489Y-126768144D01*
X171317767Y-127040100D01*
X171310050Y-127048568D01*
X171060187Y-127298535D01*
X171051723Y-127306255D01*
X170779850Y-127532101D01*
X170770716Y-127539000D01*
X170479169Y-127738783D01*
X170469435Y-127744812D01*
X170160686Y-127916838D01*
X170150432Y-127921946D01*
X169827133Y-128064740D01*
X169816450Y-128068880D01*
X169481348Y-128181227D01*
X169470329Y-128184363D01*
X169126284Y-128265304D01*
X169115023Y-128267409D01*
X168958780Y-128289210D01*
X168941644Y-128290400D01*
X144132028Y-128290400D01*
X144064989Y-128270715D01*
X144019234Y-128217911D01*
X144009290Y-128148753D01*
X144038315Y-128085197D01*
X144063137Y-128063298D01*
X144078128Y-128053280D01*
X144107469Y-128033676D01*
X144198076Y-127943069D01*
X144269265Y-127836527D01*
X144318301Y-127718144D01*
X144343300Y-127592469D01*
X144343300Y-127464331D01*
X144343300Y-127464328D01*
X144318302Y-127338661D01*
X144318301Y-127338660D01*
X144318301Y-127338656D01*
X144269265Y-127220273D01*
X144269264Y-127220272D01*
X144269261Y-127220266D01*
X144198077Y-127113733D01*
X144198076Y-127113731D01*
X144192428Y-127108083D01*
X144158942Y-127046764D01*
X144163923Y-126977072D01*
X144180541Y-126946491D01*
X144185976Y-126939168D01*
X144198076Y-126927069D01*
X144226176Y-126885013D01*
X144228003Y-126882553D01*
X144253531Y-126863281D01*
X144278077Y-126842767D01*
X144281230Y-126842370D01*
X144283767Y-126840456D01*
X144315664Y-126838045D01*
X144347402Y-126834058D01*
X144350268Y-126835429D01*
X144353438Y-126835190D01*
X144381574Y-126850406D01*
X144410430Y-126864212D01*
X144412236Y-126866989D01*
X144414896Y-126868428D01*
X144424498Y-126885845D01*
X144445499Y-126918140D01*
X144450928Y-126934848D01*
X144506806Y-127044514D01*
X144529568Y-127089188D01*
X144631386Y-127229328D01*
X144753872Y-127351814D01*
X144894012Y-127453632D01*
X145048355Y-127532273D01*
X145213099Y-127585802D01*
X145384189Y-127612900D01*
X145384190Y-127612900D01*
X145557410Y-127612900D01*
X145557411Y-127612900D01*
X145728501Y-127585802D01*
X145893245Y-127532273D01*
X146047588Y-127453632D01*
X146187728Y-127351814D01*
X146310214Y-127229328D01*
X146412032Y-127089188D01*
X146490673Y-126934845D01*
X146544202Y-126770101D01*
X146571300Y-126599011D01*
X146571300Y-126425789D01*
X146910300Y-126425789D01*
X146910300Y-126599010D01*
X146935639Y-126758999D01*
X146937398Y-126770101D01*
X146990927Y-126934845D01*
X147069568Y-127089188D01*
X147171386Y-127229328D01*
X147293872Y-127351814D01*
X147434012Y-127453632D01*
X147588355Y-127532273D01*
X147753099Y-127585802D01*
X147924189Y-127612900D01*
X147924190Y-127612900D01*
X148097410Y-127612900D01*
X148097411Y-127612900D01*
X148268501Y-127585802D01*
X148433245Y-127532273D01*
X148587588Y-127453632D01*
X148727728Y-127351814D01*
X148850214Y-127229328D01*
X148952032Y-127089188D01*
X149030673Y-126934845D01*
X149084202Y-126770101D01*
X149111300Y-126599011D01*
X149111300Y-126425789D01*
X149450300Y-126425789D01*
X149450300Y-126599010D01*
X149475639Y-126758999D01*
X149477398Y-126770101D01*
X149530927Y-126934845D01*
X149609568Y-127089188D01*
X149711386Y-127229328D01*
X149833872Y-127351814D01*
X149974012Y-127453632D01*
X150128355Y-127532273D01*
X150293099Y-127585802D01*
X150464189Y-127612900D01*
X150464190Y-127612900D01*
X150637410Y-127612900D01*
X150637411Y-127612900D01*
X150808501Y-127585802D01*
X150973245Y-127532273D01*
X151127588Y-127453632D01*
X151267728Y-127351814D01*
X151390214Y-127229328D01*
X151492032Y-127089188D01*
X151570673Y-126934845D01*
X151624202Y-126770101D01*
X151651300Y-126599011D01*
X151651300Y-126425789D01*
X151624202Y-126254699D01*
X151570673Y-126089955D01*
X151492032Y-125935612D01*
X151390214Y-125795472D01*
X151267728Y-125672986D01*
X151127588Y-125571168D01*
X150973245Y-125492527D01*
X150808501Y-125438998D01*
X150808499Y-125438997D01*
X150808498Y-125438997D01*
X150677071Y-125418181D01*
X150637411Y-125411900D01*
X150464189Y-125411900D01*
X150424528Y-125418181D01*
X150293102Y-125438997D01*
X150128352Y-125492528D01*
X149974011Y-125571168D01*
X149894056Y-125629259D01*
X149833872Y-125672986D01*
X149833870Y-125672988D01*
X149833869Y-125672988D01*
X149711388Y-125795469D01*
X149711388Y-125795470D01*
X149711386Y-125795472D01*
X149667659Y-125855656D01*
X149609568Y-125935611D01*
X149530928Y-126089952D01*
X149477397Y-126254702D01*
X149450300Y-126425789D01*
X149111300Y-126425789D01*
X149084202Y-126254699D01*
X149030673Y-126089955D01*
X148952032Y-125935612D01*
X148850214Y-125795472D01*
X148727728Y-125672986D01*
X148587588Y-125571168D01*
X148433245Y-125492527D01*
X148268501Y-125438998D01*
X148268499Y-125438997D01*
X148268498Y-125438997D01*
X148137071Y-125418181D01*
X148097411Y-125411900D01*
X147924189Y-125411900D01*
X147884528Y-125418181D01*
X147753102Y-125438997D01*
X147588352Y-125492528D01*
X147434011Y-125571168D01*
X147354056Y-125629259D01*
X147293872Y-125672986D01*
X147293870Y-125672988D01*
X147293869Y-125672988D01*
X147171388Y-125795469D01*
X147171388Y-125795470D01*
X147171386Y-125795472D01*
X147127659Y-125855656D01*
X147069568Y-125935611D01*
X146990928Y-126089952D01*
X146937397Y-126254702D01*
X146910300Y-126425789D01*
X146571300Y-126425789D01*
X146544202Y-126254699D01*
X146490673Y-126089955D01*
X146412032Y-125935612D01*
X146310214Y-125795472D01*
X146187728Y-125672986D01*
X146047588Y-125571168D01*
X145893245Y-125492527D01*
X145728501Y-125438998D01*
X145728499Y-125438997D01*
X145728498Y-125438997D01*
X145597071Y-125418181D01*
X145557411Y-125411900D01*
X145384189Y-125411900D01*
X145344528Y-125418181D01*
X145213102Y-125438997D01*
X145048352Y-125492528D01*
X144894011Y-125571168D01*
X144814056Y-125629259D01*
X144753872Y-125672986D01*
X144753870Y-125672988D01*
X144753869Y-125672988D01*
X144631388Y-125795469D01*
X144631388Y-125795470D01*
X144631386Y-125795472D01*
X144587659Y-125855656D01*
X144529568Y-125935611D01*
X144450927Y-126089954D01*
X144445498Y-126106661D01*
X144438749Y-126116529D01*
X144436161Y-126128202D01*
X144419390Y-126144837D01*
X144406058Y-126164334D01*
X144395046Y-126168987D01*
X144386557Y-126177408D01*
X144363453Y-126182336D01*
X144341698Y-126191529D01*
X144329917Y-126189489D01*
X144318225Y-126191984D01*
X144296128Y-126183641D01*
X144272852Y-126179612D01*
X144262404Y-126170908D01*
X144252859Y-126167304D01*
X144233632Y-126146936D01*
X144228003Y-126142247D01*
X144226176Y-126139787D01*
X144198076Y-126097731D01*
X144185974Y-126085629D01*
X144180541Y-126078310D01*
X144171489Y-126053741D01*
X144158942Y-126030764D01*
X144159605Y-126021481D01*
X144156388Y-126012748D01*
X144162056Y-125987186D01*
X144163923Y-125961072D01*
X144169915Y-125951747D01*
X144171515Y-125944535D01*
X144179889Y-125936228D01*
X144192428Y-125916716D01*
X144198076Y-125911069D01*
X144269265Y-125804527D01*
X144318301Y-125686144D01*
X144343300Y-125560469D01*
X144343300Y-125432331D01*
X144343300Y-125432328D01*
X144318302Y-125306661D01*
X144318301Y-125306660D01*
X144318301Y-125306656D01*
X144269265Y-125188273D01*
X144269264Y-125188272D01*
X144269261Y-125188266D01*
X144221698Y-125117085D01*
X144198076Y-125081731D01*
X144192428Y-125076083D01*
X144158942Y-125014764D01*
X144163923Y-124945072D01*
X144192428Y-124900716D01*
X144198076Y-124895069D01*
X144269265Y-124788527D01*
X144318301Y-124670144D01*
X144338217Y-124570023D01*
X144343300Y-124544471D01*
X144343300Y-124416328D01*
X144318302Y-124290661D01*
X144318301Y-124290660D01*
X144318301Y-124290656D01*
X144269265Y-124172273D01*
X144269264Y-124172272D01*
X144269261Y-124172266D01*
X144198076Y-124065731D01*
X144198073Y-124065727D01*
X144131816Y-123999470D01*
X160032603Y-123999470D01*
X160057601Y-124125137D01*
X160057603Y-124125143D01*
X160106637Y-124243523D01*
X160106642Y-124243532D01*
X160177827Y-124350067D01*
X160177830Y-124350071D01*
X160268431Y-124440672D01*
X160268435Y-124440675D01*
X160374970Y-124511860D01*
X160374976Y-124511863D01*
X160374977Y-124511864D01*
X160493360Y-124560900D01*
X160493364Y-124560900D01*
X160493365Y-124560901D01*
X160619032Y-124585899D01*
X160619035Y-124585899D01*
X160747175Y-124585899D01*
X160831719Y-124569081D01*
X160872848Y-124560900D01*
X160978564Y-124517111D01*
X166988300Y-124517111D01*
X166988300Y-124759688D01*
X167019961Y-125000185D01*
X167082747Y-125234504D01*
X167175462Y-125458337D01*
X167175576Y-125458612D01*
X167296864Y-125668689D01*
X167296866Y-125668692D01*
X167296867Y-125668693D01*
X167444533Y-125861136D01*
X167444539Y-125861143D01*
X167616056Y-126032660D01*
X167616062Y-126032665D01*
X167808511Y-126180336D01*
X168018588Y-126301624D01*
X168242700Y-126394454D01*
X168477011Y-126457238D01*
X168657386Y-126480984D01*
X168717511Y-126488900D01*
X168717512Y-126488900D01*
X168960089Y-126488900D01*
X169008188Y-126482567D01*
X169200589Y-126457238D01*
X169434900Y-126394454D01*
X169659012Y-126301624D01*
X169869089Y-126180336D01*
X170061538Y-126032665D01*
X170233065Y-125861138D01*
X170380736Y-125668689D01*
X170502024Y-125458612D01*
X170594854Y-125234500D01*
X170657638Y-125000189D01*
X170689300Y-124759688D01*
X170689300Y-124517112D01*
X170657638Y-124276611D01*
X170594854Y-124042300D01*
X170502024Y-123818188D01*
X170380736Y-123608111D01*
X170265046Y-123457340D01*
X170233066Y-123415663D01*
X170233060Y-123415656D01*
X170061543Y-123244139D01*
X170061536Y-123244133D01*
X169869093Y-123096467D01*
X169869092Y-123096466D01*
X169869089Y-123096464D01*
X169659012Y-122975176D01*
X169659005Y-122975173D01*
X169434904Y-122882347D01*
X169200585Y-122819561D01*
X168960089Y-122787900D01*
X168960088Y-122787900D01*
X168717512Y-122787900D01*
X168717511Y-122787900D01*
X168477014Y-122819561D01*
X168242695Y-122882347D01*
X168018594Y-122975173D01*
X168018585Y-122975177D01*
X167808506Y-123096467D01*
X167616063Y-123244133D01*
X167616056Y-123244139D01*
X167444539Y-123415656D01*
X167444533Y-123415663D01*
X167296867Y-123608106D01*
X167175577Y-123818185D01*
X167175573Y-123818194D01*
X167082747Y-124042295D01*
X167019961Y-124276614D01*
X166988300Y-124517111D01*
X160978564Y-124517111D01*
X160991231Y-124511864D01*
X161097773Y-124440675D01*
X161097776Y-124440672D01*
X161113077Y-124425372D01*
X161188377Y-124350071D01*
X161188380Y-124350068D01*
X161259569Y-124243526D01*
X161308605Y-124125143D01*
X161333604Y-123999468D01*
X161333604Y-123937207D01*
X161353289Y-123870168D01*
X161406093Y-123824413D01*
X161475251Y-123814469D01*
X161505051Y-123822644D01*
X161537056Y-123835901D01*
X161537060Y-123835901D01*
X161537061Y-123835902D01*
X161662728Y-123860900D01*
X161662731Y-123860900D01*
X161790871Y-123860900D01*
X161875415Y-123844082D01*
X161916544Y-123835901D01*
X162034927Y-123786865D01*
X162141469Y-123715676D01*
X162232076Y-123625069D01*
X162303265Y-123518527D01*
X162352301Y-123400144D01*
X162365990Y-123331329D01*
X162377300Y-123274471D01*
X162377300Y-123146328D01*
X162352302Y-123020661D01*
X162352301Y-123020660D01*
X162352301Y-123020656D01*
X162303265Y-122902273D01*
X162303264Y-122902272D01*
X162303261Y-122902266D01*
X162232076Y-122795731D01*
X162232073Y-122795727D01*
X162141472Y-122705126D01*
X162141468Y-122705123D01*
X162034933Y-122633938D01*
X162034924Y-122633933D01*
X161916544Y-122584899D01*
X161916538Y-122584897D01*
X161790871Y-122559900D01*
X161790869Y-122559900D01*
X161662731Y-122559900D01*
X161662729Y-122559900D01*
X161537061Y-122584897D01*
X161537055Y-122584899D01*
X161418675Y-122633933D01*
X161418666Y-122633938D01*
X161312131Y-122705123D01*
X161312127Y-122705126D01*
X161221526Y-122795727D01*
X161221523Y-122795731D01*
X161150338Y-122902266D01*
X161150333Y-122902275D01*
X161101299Y-123020655D01*
X161101297Y-123020661D01*
X161076300Y-123146328D01*
X161076300Y-123208591D01*
X161056615Y-123275630D01*
X161003811Y-123321385D01*
X160934653Y-123331329D01*
X160904849Y-123323153D01*
X160891661Y-123317690D01*
X160872848Y-123309898D01*
X160872846Y-123309897D01*
X160872842Y-123309896D01*
X160747175Y-123284899D01*
X160747173Y-123284899D01*
X160619035Y-123284899D01*
X160619033Y-123284899D01*
X160493365Y-123309896D01*
X160493359Y-123309898D01*
X160374979Y-123358932D01*
X160374970Y-123358937D01*
X160268435Y-123430122D01*
X160268431Y-123430125D01*
X160177830Y-123520726D01*
X160177827Y-123520730D01*
X160106642Y-123627265D01*
X160106637Y-123627274D01*
X160057603Y-123745654D01*
X160057601Y-123745660D01*
X160032604Y-123871327D01*
X160032604Y-123871330D01*
X160032604Y-123999468D01*
X160032604Y-123999470D01*
X160032603Y-123999470D01*
X144131816Y-123999470D01*
X144107472Y-123975126D01*
X144107468Y-123975123D01*
X144000933Y-123903938D01*
X144000924Y-123903933D01*
X143882544Y-123854899D01*
X143882538Y-123854897D01*
X143756871Y-123829900D01*
X143756869Y-123829900D01*
X143628731Y-123829900D01*
X143628729Y-123829900D01*
X143503061Y-123854897D01*
X143503055Y-123854899D01*
X143384675Y-123903933D01*
X143384666Y-123903938D01*
X143278131Y-123975123D01*
X143278127Y-123975126D01*
X143187526Y-124065727D01*
X143187523Y-124065731D01*
X143116338Y-124172266D01*
X143116333Y-124172275D01*
X143067299Y-124290655D01*
X143067297Y-124290661D01*
X143042300Y-124416328D01*
X143042300Y-124416331D01*
X143042300Y-124544469D01*
X143042300Y-124544471D01*
X143042299Y-124544471D01*
X143067297Y-124670138D01*
X143067299Y-124670144D01*
X143116333Y-124788524D01*
X143116338Y-124788533D01*
X143187523Y-124895068D01*
X143187526Y-124895072D01*
X143193173Y-124900719D01*
X143226658Y-124962042D01*
X143221674Y-125031734D01*
X143193173Y-125076081D01*
X143187526Y-125081727D01*
X143187523Y-125081731D01*
X143116338Y-125188266D01*
X143116333Y-125188275D01*
X143067299Y-125306655D01*
X143067297Y-125306661D01*
X143042300Y-125432328D01*
X143042300Y-125432331D01*
X143042300Y-125560469D01*
X143042300Y-125560471D01*
X143042299Y-125560471D01*
X143067297Y-125686138D01*
X143067299Y-125686144D01*
X143116333Y-125804524D01*
X143116338Y-125804533D01*
X143187523Y-125911068D01*
X143187526Y-125911072D01*
X143193173Y-125916719D01*
X143226658Y-125978042D01*
X143221674Y-126047734D01*
X143193173Y-126092081D01*
X143187526Y-126097727D01*
X143187523Y-126097731D01*
X143116338Y-126204266D01*
X143116333Y-126204275D01*
X143067299Y-126322655D01*
X143067297Y-126322661D01*
X143042300Y-126448328D01*
X143042300Y-126448331D01*
X143042300Y-126576469D01*
X143042300Y-126576471D01*
X143042299Y-126576471D01*
X143067297Y-126702138D01*
X143067299Y-126702144D01*
X143116333Y-126820524D01*
X143116338Y-126820533D01*
X143187523Y-126927068D01*
X143187526Y-126927072D01*
X143193173Y-126932719D01*
X143226658Y-126994042D01*
X143221674Y-127063734D01*
X143193173Y-127108081D01*
X143187526Y-127113727D01*
X143187523Y-127113731D01*
X143116338Y-127220266D01*
X143116333Y-127220275D01*
X143067299Y-127338655D01*
X143067297Y-127338661D01*
X143042300Y-127464328D01*
X143042300Y-127464331D01*
X143042300Y-127592469D01*
X143042300Y-127592471D01*
X143042299Y-127592471D01*
X143067297Y-127718138D01*
X143067299Y-127718144D01*
X143116333Y-127836524D01*
X143116338Y-127836533D01*
X143187523Y-127943068D01*
X143187526Y-127943072D01*
X143278127Y-128033673D01*
X143278131Y-128033676D01*
X143322463Y-128063298D01*
X143367268Y-128116910D01*
X143375975Y-128186235D01*
X143345821Y-128249262D01*
X143286378Y-128285982D01*
X143253572Y-128290400D01*
X137685433Y-128290400D01*
X137679706Y-128290268D01*
X137520110Y-128282889D01*
X137508706Y-128281832D01*
X137158757Y-128233016D01*
X137147498Y-128230911D01*
X136803554Y-128150016D01*
X136792538Y-128146882D01*
X136554375Y-128067058D01*
X136457509Y-128034591D01*
X136446830Y-128030454D01*
X136123609Y-127887737D01*
X136113356Y-127882632D01*
X135804666Y-127710692D01*
X135794928Y-127704662D01*
X135631150Y-127592471D01*
X135503430Y-127504980D01*
X135494293Y-127498080D01*
X135459861Y-127469488D01*
X135222464Y-127272354D01*
X135213999Y-127264638D01*
X134964149Y-127014786D01*
X134956433Y-127006322D01*
X134837654Y-126863281D01*
X134730702Y-126734483D01*
X134723802Y-126725346D01*
X134524114Y-126433835D01*
X134518089Y-126424103D01*
X134480432Y-126356495D01*
X134346153Y-126115416D01*
X134341057Y-126105181D01*
X134233303Y-125861136D01*
X134198333Y-125781935D01*
X134194196Y-125771256D01*
X134165668Y-125686138D01*
X134081904Y-125436217D01*
X134078779Y-125425232D01*
X133997879Y-125081260D01*
X133995781Y-125070036D01*
X133946963Y-124720059D01*
X133945907Y-124708661D01*
X133944126Y-124670138D01*
X133937052Y-124517111D01*
X135492300Y-124517111D01*
X135492300Y-124759688D01*
X135523961Y-125000185D01*
X135586747Y-125234504D01*
X135679462Y-125458337D01*
X135679576Y-125458612D01*
X135800864Y-125668689D01*
X135800866Y-125668692D01*
X135800867Y-125668693D01*
X135948533Y-125861136D01*
X135948539Y-125861143D01*
X136120056Y-126032660D01*
X136120062Y-126032665D01*
X136312511Y-126180336D01*
X136522588Y-126301624D01*
X136746700Y-126394454D01*
X136981011Y-126457238D01*
X137161386Y-126480984D01*
X137221511Y-126488900D01*
X137221512Y-126488900D01*
X137464089Y-126488900D01*
X137512188Y-126482567D01*
X137704589Y-126457238D01*
X137938900Y-126394454D01*
X138163012Y-126301624D01*
X138373089Y-126180336D01*
X138565538Y-126032665D01*
X138737065Y-125861138D01*
X138884736Y-125668689D01*
X139006024Y-125458612D01*
X139098854Y-125234500D01*
X139161638Y-125000189D01*
X139193300Y-124759688D01*
X139193300Y-124517112D01*
X139161638Y-124276611D01*
X139098854Y-124042300D01*
X139006024Y-123818188D01*
X138884736Y-123608111D01*
X138769046Y-123457340D01*
X138737066Y-123415663D01*
X138737060Y-123415656D01*
X138565543Y-123244139D01*
X138565536Y-123244133D01*
X138373093Y-123096467D01*
X138373092Y-123096466D01*
X138373089Y-123096464D01*
X138163012Y-122975176D01*
X138163005Y-122975173D01*
X137956042Y-122889446D01*
X150482478Y-122889446D01*
X150507476Y-123015113D01*
X150507478Y-123015119D01*
X150556512Y-123133499D01*
X150556517Y-123133508D01*
X150627702Y-123240043D01*
X150627705Y-123240047D01*
X150718306Y-123330648D01*
X150718310Y-123330651D01*
X150824845Y-123401836D01*
X150824851Y-123401839D01*
X150824852Y-123401840D01*
X150943235Y-123450876D01*
X150943239Y-123450876D01*
X150943240Y-123450877D01*
X151068907Y-123475875D01*
X151068910Y-123475875D01*
X151197050Y-123475875D01*
X151290227Y-123457340D01*
X151322723Y-123450876D01*
X151334135Y-123446148D01*
X151403601Y-123438677D01*
X151466081Y-123469949D01*
X151496151Y-123513255D01*
X151498333Y-123518523D01*
X151498338Y-123518533D01*
X151569523Y-123625068D01*
X151569526Y-123625072D01*
X151660127Y-123715673D01*
X151660131Y-123715676D01*
X151766666Y-123786861D01*
X151766672Y-123786864D01*
X151766673Y-123786865D01*
X151885056Y-123835901D01*
X151885060Y-123835901D01*
X151885061Y-123835902D01*
X152010728Y-123860900D01*
X152010731Y-123860900D01*
X152138871Y-123860900D01*
X152223415Y-123844082D01*
X152264544Y-123835901D01*
X152382927Y-123786865D01*
X152489469Y-123715676D01*
X152580076Y-123625069D01*
X152651265Y-123518527D01*
X152700301Y-123400144D01*
X152713990Y-123331329D01*
X152725300Y-123274471D01*
X152725300Y-123146328D01*
X152700302Y-123020661D01*
X152700301Y-123020660D01*
X152700301Y-123020656D01*
X152651265Y-122902273D01*
X152651264Y-122902272D01*
X152651261Y-122902266D01*
X152580076Y-122795731D01*
X152580073Y-122795727D01*
X152489472Y-122705126D01*
X152489468Y-122705123D01*
X152382933Y-122633938D01*
X152382924Y-122633933D01*
X152264544Y-122584899D01*
X152264538Y-122584897D01*
X152138871Y-122559900D01*
X152138869Y-122559900D01*
X152010731Y-122559900D01*
X152010729Y-122559900D01*
X151885061Y-122584897D01*
X151885051Y-122584900D01*
X151873638Y-122589628D01*
X151804169Y-122597095D01*
X151741690Y-122565819D01*
X151711625Y-122522514D01*
X151709444Y-122517248D01*
X151709442Y-122517245D01*
X151709440Y-122517241D01*
X151638255Y-122410706D01*
X151638252Y-122410702D01*
X151547651Y-122320101D01*
X151547647Y-122320098D01*
X151441112Y-122248913D01*
X151441103Y-122248908D01*
X151322723Y-122199874D01*
X151322717Y-122199872D01*
X151197050Y-122174875D01*
X151197048Y-122174875D01*
X151068910Y-122174875D01*
X151068908Y-122174875D01*
X150943240Y-122199872D01*
X150943234Y-122199874D01*
X150824854Y-122248908D01*
X150824845Y-122248913D01*
X150718310Y-122320098D01*
X150718306Y-122320101D01*
X150627705Y-122410702D01*
X150627702Y-122410706D01*
X150556517Y-122517241D01*
X150556512Y-122517250D01*
X150507478Y-122635630D01*
X150507476Y-122635636D01*
X150482479Y-122761303D01*
X150482479Y-122761306D01*
X150482479Y-122889444D01*
X150482479Y-122889446D01*
X150482478Y-122889446D01*
X137956042Y-122889446D01*
X137938904Y-122882347D01*
X137934846Y-122881259D01*
X137704589Y-122819562D01*
X137704588Y-122819561D01*
X137704585Y-122819561D01*
X137464089Y-122787900D01*
X137464088Y-122787900D01*
X137221512Y-122787900D01*
X137221511Y-122787900D01*
X136981014Y-122819561D01*
X136746695Y-122882347D01*
X136522594Y-122975173D01*
X136522585Y-122975177D01*
X136312506Y-123096467D01*
X136120063Y-123244133D01*
X136120056Y-123244139D01*
X135948539Y-123415656D01*
X135948533Y-123415663D01*
X135800867Y-123608106D01*
X135679577Y-123818185D01*
X135679573Y-123818194D01*
X135586747Y-124042295D01*
X135523961Y-124276614D01*
X135492300Y-124517111D01*
X133937052Y-124517111D01*
X133929431Y-124352238D01*
X133929300Y-124346525D01*
X133929300Y-119108871D01*
X154523099Y-119108871D01*
X154548097Y-119234538D01*
X154548099Y-119234544D01*
X154597133Y-119352924D01*
X154597138Y-119352933D01*
X154668323Y-119459468D01*
X154668326Y-119459472D01*
X154758927Y-119550073D01*
X154758931Y-119550076D01*
X154865466Y-119621261D01*
X154865472Y-119621264D01*
X154865473Y-119621265D01*
X154983856Y-119670301D01*
X154983860Y-119670301D01*
X154983861Y-119670302D01*
X155109528Y-119695300D01*
X155109531Y-119695300D01*
X155237671Y-119695300D01*
X155322215Y-119678482D01*
X155363344Y-119670301D01*
X155481727Y-119621265D01*
X155588269Y-119550076D01*
X155678876Y-119459469D01*
X155750065Y-119352927D01*
X155799101Y-119234544D01*
X155824100Y-119108869D01*
X155824100Y-119058071D01*
X161801299Y-119058071D01*
X161826297Y-119183738D01*
X161826299Y-119183744D01*
X161875333Y-119302124D01*
X161875338Y-119302133D01*
X161946523Y-119408668D01*
X161946526Y-119408672D01*
X162037127Y-119499273D01*
X162037131Y-119499276D01*
X162143666Y-119570461D01*
X162143672Y-119570464D01*
X162143673Y-119570465D01*
X162262056Y-119619501D01*
X162262060Y-119619501D01*
X162262061Y-119619502D01*
X162387728Y-119644500D01*
X162387731Y-119644500D01*
X162515871Y-119644500D01*
X162600415Y-119627682D01*
X162641544Y-119619501D01*
X162759927Y-119570465D01*
X162866469Y-119499276D01*
X162957076Y-119408669D01*
X163028265Y-119302127D01*
X163077301Y-119183744D01*
X163102300Y-119058069D01*
X163102300Y-118929931D01*
X163102300Y-118929928D01*
X163077302Y-118804261D01*
X163077301Y-118804260D01*
X163077301Y-118804256D01*
X163028265Y-118685873D01*
X163028264Y-118685872D01*
X163028261Y-118685866D01*
X162957076Y-118579331D01*
X162957073Y-118579327D01*
X162866472Y-118488726D01*
X162866468Y-118488723D01*
X162759933Y-118417538D01*
X162759924Y-118417533D01*
X162641544Y-118368499D01*
X162641538Y-118368497D01*
X162515871Y-118343500D01*
X162515869Y-118343500D01*
X162387731Y-118343500D01*
X162387729Y-118343500D01*
X162262061Y-118368497D01*
X162262055Y-118368499D01*
X162143675Y-118417533D01*
X162143666Y-118417538D01*
X162037131Y-118488723D01*
X162037127Y-118488726D01*
X161946526Y-118579327D01*
X161946523Y-118579331D01*
X161875338Y-118685866D01*
X161875333Y-118685875D01*
X161826299Y-118804255D01*
X161826297Y-118804261D01*
X161801300Y-118929928D01*
X161801300Y-118929931D01*
X161801300Y-119058069D01*
X161801300Y-119058071D01*
X161801299Y-119058071D01*
X155824100Y-119058071D01*
X155824100Y-118980731D01*
X155824100Y-118980728D01*
X155824099Y-118980726D01*
X155817596Y-118948030D01*
X155799102Y-118855061D01*
X155799101Y-118855060D01*
X155799101Y-118855056D01*
X155750065Y-118736673D01*
X155750064Y-118736672D01*
X155750061Y-118736666D01*
X155678876Y-118630131D01*
X155678873Y-118630127D01*
X155588272Y-118539526D01*
X155588268Y-118539523D01*
X155481733Y-118468338D01*
X155481724Y-118468333D01*
X155363344Y-118419299D01*
X155363338Y-118419297D01*
X155237671Y-118394300D01*
X155237669Y-118394300D01*
X155109531Y-118394300D01*
X155109529Y-118394300D01*
X154983861Y-118419297D01*
X154983855Y-118419299D01*
X154865475Y-118468333D01*
X154865466Y-118468338D01*
X154758931Y-118539523D01*
X154758927Y-118539526D01*
X154668326Y-118630127D01*
X154668323Y-118630131D01*
X154597138Y-118736666D01*
X154597133Y-118736675D01*
X154548099Y-118855055D01*
X154548097Y-118855061D01*
X154523100Y-118980728D01*
X154523100Y-118980731D01*
X154523100Y-119108869D01*
X154523100Y-119108871D01*
X154523099Y-119108871D01*
X133929300Y-119108871D01*
X133929300Y-117442793D01*
X139274823Y-117442793D01*
X139299821Y-117568460D01*
X139299823Y-117568466D01*
X139348857Y-117686846D01*
X139348862Y-117686855D01*
X139420047Y-117793390D01*
X139420050Y-117793394D01*
X139510651Y-117883995D01*
X139510655Y-117883998D01*
X139617190Y-117955183D01*
X139617196Y-117955186D01*
X139617197Y-117955187D01*
X139735580Y-118004223D01*
X139735584Y-118004223D01*
X139735585Y-118004224D01*
X139861252Y-118029222D01*
X139861255Y-118029222D01*
X139989395Y-118029222D01*
X140073939Y-118012404D01*
X140115068Y-118004223D01*
X140233451Y-117955187D01*
X140339993Y-117883998D01*
X140430600Y-117793391D01*
X140501789Y-117686849D01*
X140550825Y-117568466D01*
X140575824Y-117442791D01*
X140575824Y-117314653D01*
X140575824Y-117314650D01*
X140550826Y-117188983D01*
X140550825Y-117188982D01*
X140550825Y-117188978D01*
X140501789Y-117070595D01*
X140501788Y-117070594D01*
X140501785Y-117070588D01*
X140430600Y-116964053D01*
X140430597Y-116964049D01*
X140339996Y-116873448D01*
X140339992Y-116873445D01*
X140233457Y-116802260D01*
X140233448Y-116802255D01*
X140115068Y-116753221D01*
X140115062Y-116753219D01*
X139989395Y-116728222D01*
X139989393Y-116728222D01*
X139861255Y-116728222D01*
X139861253Y-116728222D01*
X139735585Y-116753219D01*
X139735579Y-116753221D01*
X139617199Y-116802255D01*
X139617190Y-116802260D01*
X139510655Y-116873445D01*
X139510651Y-116873448D01*
X139420050Y-116964049D01*
X139420047Y-116964053D01*
X139348862Y-117070588D01*
X139348857Y-117070597D01*
X139299823Y-117188977D01*
X139299821Y-117188983D01*
X139274824Y-117314650D01*
X139274824Y-117314653D01*
X139274824Y-117442791D01*
X139274824Y-117442793D01*
X139274823Y-117442793D01*
X133929300Y-117442793D01*
X133929300Y-107780471D01*
X137200299Y-107780471D01*
X137225297Y-107906138D01*
X137225299Y-107906144D01*
X137274333Y-108024524D01*
X137274338Y-108024533D01*
X137345523Y-108131068D01*
X137345526Y-108131072D01*
X137436127Y-108221673D01*
X137436131Y-108221676D01*
X137542666Y-108292861D01*
X137542672Y-108292864D01*
X137542673Y-108292865D01*
X137661056Y-108341901D01*
X137661060Y-108341901D01*
X137661061Y-108341902D01*
X137786728Y-108366900D01*
X137786731Y-108366900D01*
X137914871Y-108366900D01*
X137999415Y-108350082D01*
X138040544Y-108341901D01*
X138158927Y-108292865D01*
X138265469Y-108221676D01*
X138356076Y-108131069D01*
X138427265Y-108024527D01*
X138476301Y-107906144D01*
X138501300Y-107780469D01*
X138501300Y-107652331D01*
X138501300Y-107652328D01*
X138476302Y-107526661D01*
X138476301Y-107526660D01*
X138476301Y-107526656D01*
X138427265Y-107408273D01*
X138427264Y-107408272D01*
X138427261Y-107408266D01*
X138356076Y-107301731D01*
X138356073Y-107301727D01*
X138265472Y-107211126D01*
X138265468Y-107211123D01*
X138158933Y-107139938D01*
X138158924Y-107139933D01*
X138040544Y-107090899D01*
X138040538Y-107090897D01*
X137914871Y-107065900D01*
X137914869Y-107065900D01*
X137786731Y-107065900D01*
X137786729Y-107065900D01*
X137661061Y-107090897D01*
X137661055Y-107090899D01*
X137542675Y-107139933D01*
X137542666Y-107139938D01*
X137436131Y-107211123D01*
X137436127Y-107211126D01*
X137345526Y-107301727D01*
X137345523Y-107301731D01*
X137274338Y-107408266D01*
X137274333Y-107408275D01*
X137225299Y-107526655D01*
X137225297Y-107526661D01*
X137200300Y-107652328D01*
X137200300Y-107652331D01*
X137200300Y-107780469D01*
X137200300Y-107780471D01*
X137200299Y-107780471D01*
X133929300Y-107780471D01*
X133929300Y-102809487D01*
X135493499Y-102809487D01*
X135528258Y-102984227D01*
X135528260Y-102984233D01*
X135596442Y-103148839D01*
X135695430Y-103296987D01*
X135821412Y-103422969D01*
X135821415Y-103422971D01*
X135969559Y-103521957D01*
X136134167Y-103590140D01*
X136134171Y-103590140D01*
X136134172Y-103590141D01*
X136308912Y-103624900D01*
X136308915Y-103624900D01*
X136487087Y-103624900D01*
X136604649Y-103601514D01*
X136661833Y-103590140D01*
X136826441Y-103521957D01*
X136974585Y-103422971D01*
X137100571Y-103296985D01*
X137199557Y-103148841D01*
X137267740Y-102984233D01*
X137302500Y-102809485D01*
X137302500Y-102631315D01*
X137302500Y-102631312D01*
X137267741Y-102456572D01*
X137267740Y-102456571D01*
X137267740Y-102456567D01*
X137199557Y-102291959D01*
X137100571Y-102143815D01*
X137100569Y-102143812D01*
X136974587Y-102017830D01*
X136900513Y-101968336D01*
X136826441Y-101918843D01*
X136661833Y-101850660D01*
X136661827Y-101850658D01*
X136487087Y-101815900D01*
X136487085Y-101815900D01*
X136308915Y-101815900D01*
X136308913Y-101815900D01*
X136134172Y-101850658D01*
X136134166Y-101850660D01*
X135969560Y-101918842D01*
X135821412Y-102017830D01*
X135695430Y-102143812D01*
X135596442Y-102291960D01*
X135528260Y-102456566D01*
X135528258Y-102456572D01*
X135493500Y-102631312D01*
X135493500Y-102631315D01*
X135493500Y-102809485D01*
X135493500Y-102809487D01*
X135493499Y-102809487D01*
X133929300Y-102809487D01*
X133929300Y-99809487D01*
X135493499Y-99809487D01*
X135528258Y-99984227D01*
X135528260Y-99984233D01*
X135596442Y-100148839D01*
X135695430Y-100296987D01*
X135821412Y-100422969D01*
X135821415Y-100422971D01*
X135969559Y-100521957D01*
X136134167Y-100590140D01*
X136134171Y-100590140D01*
X136134172Y-100590141D01*
X136308912Y-100624900D01*
X136308915Y-100624900D01*
X136487087Y-100624900D01*
X136604649Y-100601514D01*
X136661833Y-100590140D01*
X136826441Y-100521957D01*
X136974585Y-100422971D01*
X137100571Y-100296985D01*
X137199557Y-100148841D01*
X137267740Y-99984233D01*
X137302500Y-99809485D01*
X137302500Y-99631315D01*
X137302500Y-99631312D01*
X137267741Y-99456572D01*
X137267740Y-99456571D01*
X137267740Y-99456567D01*
X137199557Y-99291959D01*
X137100571Y-99143815D01*
X137100569Y-99143812D01*
X136974587Y-99017830D01*
X136900513Y-98968336D01*
X136826441Y-98918843D01*
X136661833Y-98850660D01*
X136661827Y-98850658D01*
X136487087Y-98815900D01*
X136487085Y-98815900D01*
X136308915Y-98815900D01*
X136308913Y-98815900D01*
X136134172Y-98850658D01*
X136134166Y-98850660D01*
X135969560Y-98918842D01*
X135821412Y-99017830D01*
X135695430Y-99143812D01*
X135596442Y-99291960D01*
X135528260Y-99456566D01*
X135528258Y-99456572D01*
X135493500Y-99631312D01*
X135493500Y-99631315D01*
X135493500Y-99809485D01*
X135493500Y-99809487D01*
X135493499Y-99809487D01*
X133929300Y-99809487D01*
X133929300Y-96809487D01*
X135493499Y-96809487D01*
X135528258Y-96984227D01*
X135528260Y-96984233D01*
X135596442Y-97148839D01*
X135695430Y-97296987D01*
X135821412Y-97422969D01*
X135821415Y-97422971D01*
X135969559Y-97521957D01*
X136134167Y-97590140D01*
X136134171Y-97590140D01*
X136134172Y-97590141D01*
X136308912Y-97624900D01*
X136308915Y-97624900D01*
X136487087Y-97624900D01*
X136604649Y-97601514D01*
X136661833Y-97590140D01*
X136826441Y-97521957D01*
X136974585Y-97422971D01*
X137100571Y-97296985D01*
X137199557Y-97148841D01*
X137267740Y-96984233D01*
X137302500Y-96809485D01*
X137302500Y-96631315D01*
X137302500Y-96631312D01*
X137267741Y-96456572D01*
X137267740Y-96456571D01*
X137267740Y-96456567D01*
X137199557Y-96291959D01*
X137100571Y-96143815D01*
X137100569Y-96143812D01*
X136974587Y-96017830D01*
X136900513Y-95968336D01*
X136826441Y-95918843D01*
X136661833Y-95850660D01*
X136661827Y-95850658D01*
X136487087Y-95815900D01*
X136487085Y-95815900D01*
X136308915Y-95815900D01*
X136308913Y-95815900D01*
X136134172Y-95850658D01*
X136134166Y-95850660D01*
X135969560Y-95918842D01*
X135821412Y-96017830D01*
X135695430Y-96143812D01*
X135596442Y-96291960D01*
X135528260Y-96456566D01*
X135528258Y-96456572D01*
X135493500Y-96631312D01*
X135493500Y-96631315D01*
X135493500Y-96809485D01*
X135493500Y-96809487D01*
X135493499Y-96809487D01*
X133929300Y-96809487D01*
X133929300Y-76002871D01*
X133929432Y-75997144D01*
X133945883Y-75641309D01*
X133946940Y-75629905D01*
X133955198Y-75570712D01*
X133955198Y-75570711D01*
X135690500Y-75570711D01*
X135690500Y-75813288D01*
X135722161Y-76053785D01*
X135784947Y-76288104D01*
X135877773Y-76512205D01*
X135877776Y-76512212D01*
X135999064Y-76722289D01*
X135999066Y-76722292D01*
X135999067Y-76722293D01*
X136146733Y-76914736D01*
X136146739Y-76914743D01*
X136318256Y-77086260D01*
X136318262Y-77086265D01*
X136510711Y-77233936D01*
X136720788Y-77355224D01*
X136944900Y-77448054D01*
X137179211Y-77510838D01*
X137359586Y-77534584D01*
X137419711Y-77542500D01*
X137419712Y-77542500D01*
X137662289Y-77542500D01*
X137710388Y-77536167D01*
X137902789Y-77510838D01*
X138137100Y-77448054D01*
X138361212Y-77355224D01*
X138571289Y-77233936D01*
X138763738Y-77086265D01*
X138935265Y-76914738D01*
X139082936Y-76722289D01*
X139204224Y-76512212D01*
X139297054Y-76288100D01*
X139359838Y-76053789D01*
X139391500Y-75813288D01*
X139391500Y-75570712D01*
X139391500Y-75570711D01*
X166805500Y-75570711D01*
X166805500Y-75813288D01*
X166837161Y-76053785D01*
X166899947Y-76288104D01*
X166992773Y-76512205D01*
X166992776Y-76512212D01*
X167114064Y-76722289D01*
X167114066Y-76722292D01*
X167114067Y-76722293D01*
X167261733Y-76914736D01*
X167261739Y-76914743D01*
X167433256Y-77086260D01*
X167433262Y-77086265D01*
X167625711Y-77233936D01*
X167835788Y-77355224D01*
X168059900Y-77448054D01*
X168294211Y-77510838D01*
X168474586Y-77534584D01*
X168534711Y-77542500D01*
X168534712Y-77542500D01*
X168777289Y-77542500D01*
X168825388Y-77536167D01*
X169017789Y-77510838D01*
X169252100Y-77448054D01*
X169476212Y-77355224D01*
X169686289Y-77233936D01*
X169878738Y-77086265D01*
X170050265Y-76914738D01*
X170197936Y-76722289D01*
X170319224Y-76512212D01*
X170412054Y-76288100D01*
X170474838Y-76053789D01*
X170506500Y-75813288D01*
X170506500Y-75570712D01*
X170474838Y-75330211D01*
X170412054Y-75095900D01*
X170319224Y-74871788D01*
X170197936Y-74661711D01*
X170050265Y-74469262D01*
X170050260Y-74469256D01*
X169878743Y-74297739D01*
X169878736Y-74297733D01*
X169686293Y-74150067D01*
X169686292Y-74150066D01*
X169686289Y-74150064D01*
X169476212Y-74028776D01*
X169471690Y-74026903D01*
X169252104Y-73935947D01*
X169017785Y-73873161D01*
X168777289Y-73841500D01*
X168777288Y-73841500D01*
X168534712Y-73841500D01*
X168534711Y-73841500D01*
X168294214Y-73873161D01*
X168059895Y-73935947D01*
X167835794Y-74028773D01*
X167835785Y-74028777D01*
X167625706Y-74150067D01*
X167433263Y-74297733D01*
X167433256Y-74297739D01*
X167261739Y-74469256D01*
X167261733Y-74469263D01*
X167114067Y-74661706D01*
X166992777Y-74871785D01*
X166992773Y-74871794D01*
X166899947Y-75095895D01*
X166837161Y-75330214D01*
X166805500Y-75570711D01*
X139391500Y-75570711D01*
X139359838Y-75330211D01*
X139297054Y-75095900D01*
X139204224Y-74871788D01*
X139082936Y-74661711D01*
X138935265Y-74469262D01*
X138935260Y-74469256D01*
X138763743Y-74297739D01*
X138763736Y-74297733D01*
X138571293Y-74150067D01*
X138571292Y-74150066D01*
X138571289Y-74150064D01*
X138361212Y-74028776D01*
X138356690Y-74026903D01*
X138137104Y-73935947D01*
X137902785Y-73873161D01*
X137662289Y-73841500D01*
X137662288Y-73841500D01*
X137419712Y-73841500D01*
X137419711Y-73841500D01*
X137179214Y-73873161D01*
X136944895Y-73935947D01*
X136720794Y-74028773D01*
X136720785Y-74028777D01*
X136510706Y-74150067D01*
X136318263Y-74297733D01*
X136318256Y-74297739D01*
X136146739Y-74469256D01*
X136146733Y-74469263D01*
X135999067Y-74661706D01*
X135877777Y-74871785D01*
X135877773Y-74871794D01*
X135784947Y-75095895D01*
X135722161Y-75330214D01*
X135690500Y-75570711D01*
X133955198Y-75570711D01*
X133995758Y-75279944D01*
X133997858Y-75268708D01*
X134078761Y-74924732D01*
X134081884Y-74913753D01*
X134194187Y-74578685D01*
X134198310Y-74568046D01*
X134341045Y-74244781D01*
X134346128Y-74234572D01*
X134518078Y-73925862D01*
X134524104Y-73916130D01*
X134666355Y-73708470D01*
X134723799Y-73624612D01*
X134730681Y-73615498D01*
X134956436Y-73343630D01*
X134964132Y-73335190D01*
X135213990Y-73085332D01*
X135222430Y-73077636D01*
X135494298Y-72851881D01*
X135503412Y-72844999D01*
X135794936Y-72645300D01*
X135804662Y-72639278D01*
X136113372Y-72467328D01*
X136123581Y-72462245D01*
X136446846Y-72319510D01*
X136457485Y-72315387D01*
X136792553Y-72203084D01*
X136803532Y-72199961D01*
X137147508Y-72119058D01*
X137158744Y-72116958D01*
X137508714Y-72068139D01*
X137520100Y-72067083D01*
X137875945Y-72050632D01*
X137881672Y-72050500D01*
X137895208Y-72050500D01*
X168362392Y-72050500D01*
X168375928Y-72050500D01*
X168381655Y-72050632D01*
G37*
%TD.AperFunction*%
M02*
