M48
; DRILL file {KiCad 9.0.7} date 2026-03-04T23:18:39+0000
; FORMAT={-:-/ absolute / metric / decimal}
; #@! TF.CreationDate,2026-03-04T23:18:39+00:00
; #@! TF.GenerationSoftware,Kicad,Pcbnew,9.0.7
; #@! TF.FileFunction,Plated,1,4,PTH
FMAT,2
METRIC
; #@! TA.AperFunction,Plated,PTH,ViaDrill
T1C0.400
; #@! TA.AperFunction,Plated,PTH,ComponentDrill
T2C0.800
; #@! TA.AperFunction,Plated,PTH,ComponentDrill
T3C1.000
%
G90
G05
T1
X135.616Y-90.19
X136.073Y-111.018
X137.089Y-111.018
X137.343Y-90.19
X137.851Y-107.716
X138.105Y-111.018
X139.121Y-111.018
X139.172Y-90.19
X139.883Y-118.638
X139.925Y-117.379
X143.693Y-124.48
X143.693Y-125.496
X143.693Y-126.512
X143.693Y-127.528
X146.538Y-81.656
X146.842Y-93.188
X147.249Y-120.416
X147.249Y-121.94
X148.265Y-123.972
X148.976Y-81.707
X149.281Y-93.238
X151.133Y-122.825
X152.075Y-123.21
X153.091Y-121.378
X153.868Y-121.722
X154.869Y-126.512
X154.94Y-77.47
X154.94Y-78.74
X154.94Y-80.01
X154.94Y-81.28
X154.94Y-82.55
X155.174Y-119.045
X155.428Y-114.524
X155.58Y-102.128
X155.711Y-74.803
X156.19Y-122.093
X156.21Y-77.47
X156.21Y-78.74
X156.21Y-80.01
X156.21Y-81.28
X156.21Y-82.55
X157.48Y-72.39
X157.48Y-73.66
X157.48Y-74.93
X157.48Y-76.2
X157.48Y-77.47
X157.48Y-78.74
X157.48Y-80.01
X157.48Y-81.28
X157.48Y-82.55
X157.612Y-93.137
X158.75Y-81.28
X158.75Y-82.55
X160.02Y-81.28
X160.02Y-82.55
X160.254Y-93.238
X160.683Y-123.935
X161.29Y-81.28
X161.29Y-82.55
X161.727Y-123.21
X162.452Y-118.994
X162.56Y-72.39
X162.56Y-73.66
X162.56Y-74.93
X162.56Y-76.2
X162.56Y-77.47
X162.56Y-78.74
X162.56Y-80.01
X162.56Y-81.28
X162.56Y-82.55
X163.83Y-77.47
X163.83Y-78.74
X163.83Y-80.01
X163.83Y-81.28
X163.83Y-82.55
X164.165Y-117.013
X164.165Y-118.689
X164.165Y-120.366
X164.165Y-122.042
X165.1Y-77.47
X165.1Y-78.74
X165.1Y-80.01
X165.1Y-80.01
X165.1Y-81.28
X165.1Y-82.55
X165.892Y-117.064
X165.892Y-118.74
X165.892Y-120.416
X165.892Y-122.093
X167.721Y-117.064
X167.721Y-118.74
X169.448Y-117.114
X169.448Y-118.791
X169.601Y-102.382
X169.601Y-106.192
T2
X136.398Y-96.72
X136.398Y-99.72
X136.398Y-102.72
T3
X145.471Y-126.512
X148.011Y-126.512
X150.551Y-126.512
X153.091Y-126.512
M30
