%TF.GenerationSoftware,KiCad,Pcbnew,9.0.7*%
%TF.CreationDate,2026-02-28T16:41:56+00:00*%
%TF.ProjectId,USB-Lora-Modem,5553422d-4c6f-4726-912d-4d6f64656d2e,V1.2*%
%TF.SameCoordinates,Original*%
%TF.FileFunction,Copper,L4,Bot*%
%TF.FilePolarity,Positive*%
%FSLAX46Y46*%
G04 Gerber Fmt 4.6, Leading zero omitted, Abs format (unit mm)*
G04 Created by KiCad (PCBNEW 9.0.7) date 2026-02-28 16:41:56*
%MOMM*%
%LPD*%
G01*
G04 APERTURE LIST*
%TA.AperFunction,ComponentPad*%
%ADD10O,3.500000X2.200000*%
%TD*%
%TA.AperFunction,ComponentPad*%
%ADD11R,2.500000X1.500000*%
%TD*%
%TA.AperFunction,ComponentPad*%
%ADD12O,2.500000X1.500000*%
%TD*%
%TA.AperFunction,ComponentPad*%
%ADD13R,1.700000X1.700000*%
%TD*%
%TA.AperFunction,ComponentPad*%
%ADD14C,1.700000*%
%TD*%
%TA.AperFunction,ViaPad*%
%ADD15C,0.800000*%
%TD*%
%TA.AperFunction,Conductor*%
%ADD16C,0.250000*%
%TD*%
G04 APERTURE END LIST*
D10*
X16002000Y-31206000D03*
X16002000Y-39406000D03*
D11*
X16002000Y-33306000D03*
D12*
X16002000Y-35306000D03*
X16002000Y-37306000D03*
D13*
X32512000Y-61722000D03*
D14*
X29972000Y-61722000D03*
X27432000Y-61722000D03*
X24892000Y-61722000D03*
D15*
X18592800Y-25400000D03*
X16764000Y-25400000D03*
X15036800Y-25400000D03*
X39674800Y-28448000D03*
X26263600Y-28397200D03*
X37033200Y-28346400D03*
X28702000Y-28448000D03*
X39370000Y-16916400D03*
X36728400Y-16814800D03*
X28397200Y-16916400D03*
X25958800Y-16865600D03*
X45313600Y-55626000D03*
X43586400Y-57251600D03*
X43586400Y-55575200D03*
X45313600Y-57302400D03*
X48869600Y-52324000D03*
X47142400Y-53949600D03*
X47142400Y-52273200D03*
X48869600Y-54000400D03*
X45313600Y-53949600D03*
X43586400Y-53898800D03*
X45313600Y-52273200D03*
X43586400Y-52222400D03*
X26670000Y-55626000D03*
X26670000Y-57150000D03*
X19304000Y-53848000D03*
X18542000Y-46228000D03*
X15494000Y-46228000D03*
X35001200Y-37338000D03*
X49022000Y-41402000D03*
X32512000Y-56588000D03*
X34290000Y-61722000D03*
X35610800Y-57302400D03*
X33289533Y-56931433D03*
X49022000Y-37592000D03*
X34848800Y-49733200D03*
X16510000Y-46228000D03*
X17526000Y-46228000D03*
X27686000Y-59182000D03*
X23114000Y-62738000D03*
X23114000Y-61722000D03*
X23114000Y-60706000D03*
X23114000Y-59690000D03*
X30554179Y-58034975D03*
X40104304Y-59144999D03*
X41148000Y-58420000D03*
X31496000Y-58420000D03*
X41873000Y-54203600D03*
X34594800Y-54254400D03*
X19346524Y-52588322D03*
X17272000Y-42926000D03*
D16*
X30554179Y-58034975D02*
X30554179Y-58504899D01*
X31194279Y-59144999D02*
X40104304Y-59144999D01*
X30554179Y-58504899D02*
X31194279Y-59144999D01*
X31496000Y-58420000D02*
X41148000Y-58420000D01*
X34594800Y-54254400D02*
X34645600Y-54203600D01*
X34645600Y-54203600D02*
X41873000Y-54203600D01*
X18542000Y-42926000D02*
X17272000Y-42926000D01*
X19346524Y-52588322D02*
X19346524Y-43730524D01*
X19346524Y-43730524D02*
X19092524Y-43476524D01*
X19050000Y-43434000D02*
X18542000Y-42926000D01*
X19092524Y-43476524D02*
X19050000Y-43434000D01*
%TA.AperFunction,Conductor*%
G36*
X25343039Y-58984185D02*
G01*
X25388794Y-59036989D01*
X25400000Y-59088500D01*
X25400000Y-60296913D01*
X25380315Y-60363952D01*
X25327511Y-60409707D01*
X25258353Y-60419651D01*
X25237685Y-60414845D01*
X25208127Y-60405242D01*
X24998246Y-60372000D01*
X24785754Y-60372000D01*
X24575872Y-60405242D01*
X24575869Y-60405242D01*
X24373782Y-60470904D01*
X24184439Y-60567380D01*
X24130282Y-60606727D01*
X24130282Y-60606728D01*
X24762591Y-61239037D01*
X24699007Y-61256075D01*
X24584993Y-61321901D01*
X24491901Y-61414993D01*
X24426075Y-61529007D01*
X24409037Y-61592591D01*
X23776728Y-60960282D01*
X23776727Y-60960282D01*
X23737380Y-61014439D01*
X23640904Y-61203782D01*
X23575242Y-61405869D01*
X23575242Y-61405872D01*
X23542000Y-61615753D01*
X23542000Y-61828246D01*
X23575242Y-62038127D01*
X23575242Y-62038130D01*
X23640904Y-62240217D01*
X23737375Y-62429550D01*
X23776728Y-62483716D01*
X24409037Y-61851408D01*
X24426075Y-61914993D01*
X24491901Y-62029007D01*
X24584993Y-62122099D01*
X24699007Y-62187925D01*
X24762589Y-62204962D01*
X24130282Y-62837269D01*
X24130282Y-62837270D01*
X24184449Y-62876624D01*
X24373782Y-62973095D01*
X24469110Y-63004069D01*
X24526785Y-63043506D01*
X24553984Y-63107865D01*
X24542070Y-63176711D01*
X24494826Y-63228187D01*
X24430792Y-63246000D01*
X20698000Y-63246000D01*
X20630961Y-63226315D01*
X20585206Y-63173511D01*
X20574000Y-63122000D01*
X20574000Y-59088500D01*
X20593685Y-59021461D01*
X20646489Y-58975706D01*
X20698000Y-58964500D01*
X25276000Y-58964500D01*
X25343039Y-58984185D01*
G37*
%TD.AperFunction*%
%TA.AperFunction,Conductor*%
G36*
X47802855Y-13150632D02*
G01*
X48158697Y-13167083D01*
X48170086Y-13168139D01*
X48520051Y-13216957D01*
X48531295Y-13219059D01*
X48875261Y-13299959D01*
X48886251Y-13303086D01*
X49221306Y-13415385D01*
X49231960Y-13419513D01*
X49555209Y-13562241D01*
X49565436Y-13567333D01*
X49806689Y-13701710D01*
X49874131Y-13739275D01*
X49883869Y-13745304D01*
X50175374Y-13944990D01*
X50184514Y-13951892D01*
X50456356Y-14177626D01*
X50464820Y-14185343D01*
X50714656Y-14435179D01*
X50722373Y-14443643D01*
X50948107Y-14715485D01*
X50955009Y-14724625D01*
X51154695Y-15016130D01*
X51160724Y-15025868D01*
X51332659Y-15334550D01*
X51337762Y-15344799D01*
X51480481Y-15668026D01*
X51484619Y-15678706D01*
X51596909Y-16013735D01*
X51600043Y-16024751D01*
X51680938Y-16368696D01*
X51683043Y-16379955D01*
X51731859Y-16729905D01*
X51732916Y-16741309D01*
X51749368Y-17097144D01*
X51749500Y-17102823D01*
X51749500Y-17116408D01*
X51749505Y-17116414D01*
X51749513Y-17136522D01*
X51749513Y-17136523D01*
X51765496Y-59589503D01*
X51765366Y-59595226D01*
X51749056Y-59951143D01*
X51748003Y-59962551D01*
X51699309Y-60312605D01*
X51697208Y-60323868D01*
X51616412Y-60667937D01*
X51613281Y-60678957D01*
X51501074Y-61014107D01*
X51496939Y-61024791D01*
X51354279Y-61348156D01*
X51349175Y-61358413D01*
X51177287Y-61667216D01*
X51171259Y-61676958D01*
X50971591Y-61968599D01*
X50964689Y-61977744D01*
X50738967Y-62249700D01*
X50731250Y-62258168D01*
X50481387Y-62508135D01*
X50472923Y-62515855D01*
X50201050Y-62741701D01*
X50191916Y-62748600D01*
X49900369Y-62948383D01*
X49890635Y-62954412D01*
X49581886Y-63126438D01*
X49571632Y-63131546D01*
X49248333Y-63274340D01*
X49237650Y-63278480D01*
X48902548Y-63390827D01*
X48891529Y-63393963D01*
X48547484Y-63474904D01*
X48536223Y-63477009D01*
X48379980Y-63498810D01*
X48362844Y-63500000D01*
X25142129Y-63500000D01*
X25075090Y-63480315D01*
X25029335Y-63427511D01*
X25019391Y-63358353D01*
X25024198Y-63337682D01*
X25042073Y-63282668D01*
X25048050Y-63264272D01*
X25059964Y-63195426D01*
X25059964Y-63195424D01*
X25059964Y-63195409D01*
X25059994Y-63195069D01*
X25060015Y-63193638D01*
X25064136Y-63049330D01*
X25064136Y-63049326D01*
X25038320Y-62951115D01*
X25040314Y-62881277D01*
X25079751Y-62823601D01*
X25138850Y-62797120D01*
X25149701Y-62795402D01*
X25314445Y-62741873D01*
X25468788Y-62663232D01*
X25608928Y-62561414D01*
X25731414Y-62438928D01*
X25833232Y-62298788D01*
X25911873Y-62144445D01*
X25965402Y-61979701D01*
X25992500Y-61808611D01*
X25992500Y-61635389D01*
X26331500Y-61635389D01*
X26331500Y-61808610D01*
X26356839Y-61968599D01*
X26358598Y-61979701D01*
X26412127Y-62144445D01*
X26490768Y-62298788D01*
X26592586Y-62438928D01*
X26715072Y-62561414D01*
X26855212Y-62663232D01*
X27009555Y-62741873D01*
X27174299Y-62795402D01*
X27345389Y-62822500D01*
X27345390Y-62822500D01*
X27518610Y-62822500D01*
X27518611Y-62822500D01*
X27689701Y-62795402D01*
X27854445Y-62741873D01*
X28008788Y-62663232D01*
X28148928Y-62561414D01*
X28271414Y-62438928D01*
X28373232Y-62298788D01*
X28451873Y-62144445D01*
X28505402Y-61979701D01*
X28532500Y-61808611D01*
X28532500Y-61635389D01*
X28871500Y-61635389D01*
X28871500Y-61808610D01*
X28896839Y-61968599D01*
X28898598Y-61979701D01*
X28952127Y-62144445D01*
X29030768Y-62298788D01*
X29132586Y-62438928D01*
X29255072Y-62561414D01*
X29395212Y-62663232D01*
X29549555Y-62741873D01*
X29714299Y-62795402D01*
X29885389Y-62822500D01*
X29885390Y-62822500D01*
X30058610Y-62822500D01*
X30058611Y-62822500D01*
X30229701Y-62795402D01*
X30394445Y-62741873D01*
X30548788Y-62663232D01*
X30688928Y-62561414D01*
X30811414Y-62438928D01*
X30913232Y-62298788D01*
X30991873Y-62144445D01*
X31045402Y-61979701D01*
X31072500Y-61808611D01*
X31072500Y-61635389D01*
X31045402Y-61464299D01*
X30991873Y-61299555D01*
X30913232Y-61145212D01*
X30811414Y-61005072D01*
X30688928Y-60882586D01*
X30548788Y-60780768D01*
X30394445Y-60702127D01*
X30229701Y-60648598D01*
X30229699Y-60648597D01*
X30229698Y-60648597D01*
X30098271Y-60627781D01*
X30058611Y-60621500D01*
X29885389Y-60621500D01*
X29845728Y-60627781D01*
X29714302Y-60648597D01*
X29549552Y-60702128D01*
X29395211Y-60780768D01*
X29333260Y-60825779D01*
X29255072Y-60882586D01*
X29255070Y-60882588D01*
X29255069Y-60882588D01*
X29132588Y-61005069D01*
X29132588Y-61005070D01*
X29132586Y-61005072D01*
X29088859Y-61065256D01*
X29030768Y-61145211D01*
X28952128Y-61299552D01*
X28898597Y-61464302D01*
X28871500Y-61635389D01*
X28532500Y-61635389D01*
X28505402Y-61464299D01*
X28451873Y-61299555D01*
X28373232Y-61145212D01*
X28271414Y-61005072D01*
X28148928Y-60882586D01*
X28008788Y-60780768D01*
X27854445Y-60702127D01*
X27689701Y-60648598D01*
X27689699Y-60648597D01*
X27689698Y-60648597D01*
X27558271Y-60627781D01*
X27518611Y-60621500D01*
X27345389Y-60621500D01*
X27305728Y-60627781D01*
X27174302Y-60648597D01*
X27009552Y-60702128D01*
X26855211Y-60780768D01*
X26793260Y-60825779D01*
X26715072Y-60882586D01*
X26715070Y-60882588D01*
X26715069Y-60882588D01*
X26592588Y-61005069D01*
X26592588Y-61005070D01*
X26592586Y-61005072D01*
X26548859Y-61065256D01*
X26490768Y-61145211D01*
X26412128Y-61299552D01*
X26358597Y-61464302D01*
X26331500Y-61635389D01*
X25992500Y-61635389D01*
X25965402Y-61464299D01*
X25911873Y-61299555D01*
X25833232Y-61145212D01*
X25731414Y-61005072D01*
X25683136Y-60956794D01*
X25649651Y-60895471D01*
X25654635Y-60825779D01*
X25689614Y-60775400D01*
X25716586Y-60752029D01*
X25812297Y-60641574D01*
X25873014Y-60508626D01*
X25892699Y-60441587D01*
X25892700Y-60441583D01*
X25913500Y-60296913D01*
X25913500Y-59088500D01*
X25901764Y-58979343D01*
X25890558Y-58927832D01*
X25880648Y-58898058D01*
X25855893Y-58823679D01*
X25855890Y-58823673D01*
X25776871Y-58700718D01*
X25776865Y-58700711D01*
X25731120Y-58647918D01*
X25731117Y-58647915D01*
X25620664Y-58552205D01*
X25620658Y-58552201D01*
X25487716Y-58491487D01*
X25462460Y-58484071D01*
X25427969Y-58473943D01*
X25420671Y-58471800D01*
X25357620Y-58462735D01*
X25276000Y-58451000D01*
X20698000Y-58451000D01*
X20697991Y-58451000D01*
X20697990Y-58451001D01*
X20588848Y-58462735D01*
X20588836Y-58462737D01*
X20537326Y-58473943D01*
X20433179Y-58508606D01*
X20433173Y-58508609D01*
X20310218Y-58587628D01*
X20310211Y-58587634D01*
X20257418Y-58633379D01*
X20257415Y-58633382D01*
X20161705Y-58743835D01*
X20161701Y-58743841D01*
X20100987Y-58876783D01*
X20086749Y-58925273D01*
X20081301Y-58943826D01*
X20081300Y-58943830D01*
X20060500Y-59088500D01*
X20060500Y-63122000D01*
X20060501Y-63122009D01*
X20072235Y-63231151D01*
X20072237Y-63231163D01*
X20083443Y-63282673D01*
X20101472Y-63336841D01*
X20103966Y-63406666D01*
X20068314Y-63466755D01*
X20005835Y-63498030D01*
X19983818Y-63500000D01*
X17106633Y-63500000D01*
X17100906Y-63499868D01*
X16941310Y-63492489D01*
X16929906Y-63491432D01*
X16579957Y-63442616D01*
X16568698Y-63440511D01*
X16224754Y-63359616D01*
X16213738Y-63356482D01*
X15975575Y-63276658D01*
X15878709Y-63244191D01*
X15868030Y-63240054D01*
X15847880Y-63231157D01*
X15761859Y-63193174D01*
X15544809Y-63097337D01*
X15534556Y-63092232D01*
X15225866Y-62920292D01*
X15216128Y-62914262D01*
X14924633Y-62714582D01*
X14915493Y-62707680D01*
X14881061Y-62679088D01*
X14643664Y-62481954D01*
X14635199Y-62474238D01*
X14385349Y-62224386D01*
X14377633Y-62215922D01*
X14151904Y-61944086D01*
X14145002Y-61934946D01*
X14110560Y-61884666D01*
X13945314Y-61643435D01*
X13939289Y-61633703D01*
X13901632Y-61566095D01*
X13767353Y-61325016D01*
X13762257Y-61314781D01*
X13654503Y-61070736D01*
X13619533Y-60991535D01*
X13615396Y-60980856D01*
X13586778Y-60895471D01*
X13503104Y-60645817D01*
X13499979Y-60634832D01*
X13419079Y-60290860D01*
X13416981Y-60279636D01*
X13368163Y-59929659D01*
X13367107Y-59918261D01*
X13358330Y-59728379D01*
X13358253Y-59726711D01*
X14913500Y-59726711D01*
X14913500Y-59969288D01*
X14945161Y-60209785D01*
X15007947Y-60444104D01*
X15100662Y-60667937D01*
X15100776Y-60668212D01*
X15222064Y-60878289D01*
X15222066Y-60878292D01*
X15222067Y-60878293D01*
X15369733Y-61070736D01*
X15369739Y-61070743D01*
X15541256Y-61242260D01*
X15541262Y-61242265D01*
X15733711Y-61389936D01*
X15943788Y-61511224D01*
X16167900Y-61604054D01*
X16402211Y-61666838D01*
X16582586Y-61690584D01*
X16642711Y-61698500D01*
X16642712Y-61698500D01*
X16885289Y-61698500D01*
X16933388Y-61692167D01*
X17125789Y-61666838D01*
X17360100Y-61604054D01*
X17584212Y-61511224D01*
X17794289Y-61389936D01*
X17986738Y-61242265D01*
X18158265Y-61070738D01*
X18305936Y-60878289D01*
X18427224Y-60668212D01*
X18520054Y-60444100D01*
X18582838Y-60209789D01*
X18614500Y-59969288D01*
X18614500Y-59726712D01*
X18582838Y-59486211D01*
X18520054Y-59251900D01*
X18427224Y-59027788D01*
X18305936Y-58817711D01*
X18216159Y-58700711D01*
X18158266Y-58625263D01*
X18158260Y-58625256D01*
X17986743Y-58453739D01*
X17986736Y-58453733D01*
X17794293Y-58306067D01*
X17794292Y-58306066D01*
X17794289Y-58306064D01*
X17584212Y-58184776D01*
X17584205Y-58184773D01*
X17377242Y-58099046D01*
X29903678Y-58099046D01*
X29928676Y-58224713D01*
X29928678Y-58224719D01*
X29977712Y-58343099D01*
X29977717Y-58343108D01*
X30048902Y-58449643D01*
X30048905Y-58449647D01*
X30139506Y-58540248D01*
X30139509Y-58540250D01*
X30139510Y-58540251D01*
X30143815Y-58543128D01*
X30188622Y-58596738D01*
X30194702Y-58614136D01*
X30204268Y-58649835D01*
X30204270Y-58649840D01*
X30245050Y-58720473D01*
X30253705Y-58735463D01*
X30588743Y-59070500D01*
X30893804Y-59375561D01*
X30963717Y-59445474D01*
X31034276Y-59486211D01*
X31049341Y-59494909D01*
X31088820Y-59505488D01*
X31088821Y-59505488D01*
X31100659Y-59508660D01*
X31144843Y-59520499D01*
X31144844Y-59520499D01*
X39508496Y-59520499D01*
X39575535Y-59540184D01*
X39596177Y-59556818D01*
X39689631Y-59650272D01*
X39689635Y-59650275D01*
X39796170Y-59721460D01*
X39796176Y-59721463D01*
X39796177Y-59721464D01*
X39914560Y-59770500D01*
X39914564Y-59770500D01*
X39914565Y-59770501D01*
X40040232Y-59795499D01*
X40040235Y-59795499D01*
X40168375Y-59795499D01*
X40252919Y-59778681D01*
X40294048Y-59770500D01*
X40399764Y-59726711D01*
X46409500Y-59726711D01*
X46409500Y-59969288D01*
X46441161Y-60209785D01*
X46503947Y-60444104D01*
X46596662Y-60667937D01*
X46596776Y-60668212D01*
X46718064Y-60878289D01*
X46718066Y-60878292D01*
X46718067Y-60878293D01*
X46865733Y-61070736D01*
X46865739Y-61070743D01*
X47037256Y-61242260D01*
X47037262Y-61242265D01*
X47229711Y-61389936D01*
X47439788Y-61511224D01*
X47663900Y-61604054D01*
X47898211Y-61666838D01*
X48078586Y-61690584D01*
X48138711Y-61698500D01*
X48138712Y-61698500D01*
X48381289Y-61698500D01*
X48429388Y-61692167D01*
X48621789Y-61666838D01*
X48856100Y-61604054D01*
X49080212Y-61511224D01*
X49290289Y-61389936D01*
X49482738Y-61242265D01*
X49654265Y-61070738D01*
X49801936Y-60878289D01*
X49923224Y-60668212D01*
X50016054Y-60444100D01*
X50078838Y-60209789D01*
X50110500Y-59969288D01*
X50110500Y-59726712D01*
X50078838Y-59486211D01*
X50016054Y-59251900D01*
X49923224Y-59027788D01*
X49801936Y-58817711D01*
X49712159Y-58700711D01*
X49654266Y-58625263D01*
X49654260Y-58625256D01*
X49482743Y-58453739D01*
X49482736Y-58453733D01*
X49290293Y-58306067D01*
X49290292Y-58306066D01*
X49290289Y-58306064D01*
X49080212Y-58184776D01*
X49080205Y-58184773D01*
X48856104Y-58091947D01*
X48621785Y-58029161D01*
X48381289Y-57997500D01*
X48381288Y-57997500D01*
X48138712Y-57997500D01*
X48138711Y-57997500D01*
X47898214Y-58029161D01*
X47663895Y-58091947D01*
X47439794Y-58184773D01*
X47439785Y-58184777D01*
X47229706Y-58306067D01*
X47037263Y-58453733D01*
X47037256Y-58453739D01*
X46865739Y-58625256D01*
X46865733Y-58625263D01*
X46718067Y-58817706D01*
X46596777Y-59027785D01*
X46596773Y-59027794D01*
X46503947Y-59251895D01*
X46441161Y-59486214D01*
X46409500Y-59726711D01*
X40399764Y-59726711D01*
X40412431Y-59721464D01*
X40518973Y-59650275D01*
X40518976Y-59650272D01*
X40534277Y-59634972D01*
X40609577Y-59559671D01*
X40609580Y-59559668D01*
X40680769Y-59453126D01*
X40729805Y-59334743D01*
X40754804Y-59209068D01*
X40754804Y-59146807D01*
X40774489Y-59079768D01*
X40827293Y-59034013D01*
X40896451Y-59024069D01*
X40926251Y-59032244D01*
X40958256Y-59045501D01*
X40958260Y-59045501D01*
X40958261Y-59045502D01*
X41083928Y-59070500D01*
X41083931Y-59070500D01*
X41212071Y-59070500D01*
X41296615Y-59053682D01*
X41337744Y-59045501D01*
X41456127Y-58996465D01*
X41562669Y-58925276D01*
X41653276Y-58834669D01*
X41724465Y-58728127D01*
X41773501Y-58609744D01*
X41786752Y-58543127D01*
X41798500Y-58484071D01*
X41798500Y-58355928D01*
X41773502Y-58230261D01*
X41773501Y-58230260D01*
X41773501Y-58230256D01*
X41724465Y-58111873D01*
X41724464Y-58111872D01*
X41724461Y-58111866D01*
X41653276Y-58005331D01*
X41653273Y-58005327D01*
X41562672Y-57914726D01*
X41562668Y-57914723D01*
X41456133Y-57843538D01*
X41456124Y-57843533D01*
X41337744Y-57794499D01*
X41337738Y-57794497D01*
X41212071Y-57769500D01*
X41212069Y-57769500D01*
X41083931Y-57769500D01*
X41083929Y-57769500D01*
X40958261Y-57794497D01*
X40958255Y-57794499D01*
X40839875Y-57843533D01*
X40839866Y-57843538D01*
X40733331Y-57914723D01*
X40733327Y-57914726D01*
X40639873Y-58008181D01*
X40578550Y-58041666D01*
X40552192Y-58044500D01*
X32091808Y-58044500D01*
X32024769Y-58024815D01*
X32004127Y-58008181D01*
X31910672Y-57914726D01*
X31910668Y-57914723D01*
X31804133Y-57843538D01*
X31804124Y-57843533D01*
X31685744Y-57794499D01*
X31685738Y-57794497D01*
X31560071Y-57769500D01*
X31560069Y-57769500D01*
X31431931Y-57769500D01*
X31431929Y-57769500D01*
X31306261Y-57794497D01*
X31306251Y-57794500D01*
X31294838Y-57799228D01*
X31225369Y-57806695D01*
X31162890Y-57775419D01*
X31132825Y-57732114D01*
X31130644Y-57726848D01*
X31130642Y-57726845D01*
X31130640Y-57726841D01*
X31059455Y-57620306D01*
X31059452Y-57620302D01*
X30968851Y-57529701D01*
X30968847Y-57529698D01*
X30862312Y-57458513D01*
X30862303Y-57458508D01*
X30743923Y-57409474D01*
X30743917Y-57409472D01*
X30618250Y-57384475D01*
X30618248Y-57384475D01*
X30490110Y-57384475D01*
X30490108Y-57384475D01*
X30364440Y-57409472D01*
X30364434Y-57409474D01*
X30246054Y-57458508D01*
X30246045Y-57458513D01*
X30139510Y-57529698D01*
X30139506Y-57529701D01*
X30048905Y-57620302D01*
X30048902Y-57620306D01*
X29977717Y-57726841D01*
X29977712Y-57726850D01*
X29928678Y-57845230D01*
X29928676Y-57845236D01*
X29903679Y-57970903D01*
X29903679Y-57970906D01*
X29903679Y-58099044D01*
X29903679Y-58099046D01*
X29903678Y-58099046D01*
X17377242Y-58099046D01*
X17360104Y-58091947D01*
X17356046Y-58090859D01*
X17125789Y-58029162D01*
X17125788Y-58029161D01*
X17125785Y-58029161D01*
X16885289Y-57997500D01*
X16885288Y-57997500D01*
X16642712Y-57997500D01*
X16642711Y-57997500D01*
X16402214Y-58029161D01*
X16167895Y-58091947D01*
X15943794Y-58184773D01*
X15943785Y-58184777D01*
X15733706Y-58306067D01*
X15541263Y-58453733D01*
X15541256Y-58453739D01*
X15369739Y-58625256D01*
X15369733Y-58625263D01*
X15222067Y-58817706D01*
X15100777Y-59027785D01*
X15100773Y-59027794D01*
X15007947Y-59251895D01*
X14945161Y-59486214D01*
X14913500Y-59726711D01*
X13358253Y-59726711D01*
X13354720Y-59650275D01*
X13350631Y-59561838D01*
X13350500Y-59556125D01*
X13350500Y-54318471D01*
X33944299Y-54318471D01*
X33969297Y-54444138D01*
X33969299Y-54444144D01*
X34018333Y-54562524D01*
X34018338Y-54562533D01*
X34089523Y-54669068D01*
X34089526Y-54669072D01*
X34180127Y-54759673D01*
X34180131Y-54759676D01*
X34286666Y-54830861D01*
X34286672Y-54830864D01*
X34286673Y-54830865D01*
X34405056Y-54879901D01*
X34405060Y-54879901D01*
X34405061Y-54879902D01*
X34530728Y-54904900D01*
X34530731Y-54904900D01*
X34658871Y-54904900D01*
X34743415Y-54888082D01*
X34784544Y-54879901D01*
X34902927Y-54830865D01*
X35009469Y-54759676D01*
X35100076Y-54669069D01*
X35123367Y-54634210D01*
X35176978Y-54589405D01*
X35226470Y-54579100D01*
X41277192Y-54579100D01*
X41344231Y-54598785D01*
X41364873Y-54615419D01*
X41458327Y-54708873D01*
X41458331Y-54708876D01*
X41564866Y-54780061D01*
X41564872Y-54780064D01*
X41564873Y-54780065D01*
X41683256Y-54829101D01*
X41683260Y-54829101D01*
X41683261Y-54829102D01*
X41808928Y-54854100D01*
X41808931Y-54854100D01*
X41937071Y-54854100D01*
X42021615Y-54837282D01*
X42062744Y-54829101D01*
X42181127Y-54780065D01*
X42287669Y-54708876D01*
X42378276Y-54618269D01*
X42449465Y-54511727D01*
X42498501Y-54393344D01*
X42523500Y-54267669D01*
X42523500Y-54139531D01*
X42523500Y-54139528D01*
X42498502Y-54013861D01*
X42498501Y-54013860D01*
X42498501Y-54013856D01*
X42449465Y-53895473D01*
X42449464Y-53895472D01*
X42449461Y-53895466D01*
X42378276Y-53788931D01*
X42378273Y-53788927D01*
X42287672Y-53698326D01*
X42287668Y-53698323D01*
X42181133Y-53627138D01*
X42181124Y-53627133D01*
X42062744Y-53578099D01*
X42062738Y-53578097D01*
X41937071Y-53553100D01*
X41937069Y-53553100D01*
X41808931Y-53553100D01*
X41808929Y-53553100D01*
X41683261Y-53578097D01*
X41683255Y-53578099D01*
X41564875Y-53627133D01*
X41564866Y-53627138D01*
X41458331Y-53698323D01*
X41458327Y-53698326D01*
X41364873Y-53791781D01*
X41303550Y-53825266D01*
X41277192Y-53828100D01*
X35139807Y-53828100D01*
X35072768Y-53808415D01*
X35052125Y-53791780D01*
X35009472Y-53749126D01*
X35009468Y-53749123D01*
X34902933Y-53677938D01*
X34902924Y-53677933D01*
X34784544Y-53628899D01*
X34784538Y-53628897D01*
X34658871Y-53603900D01*
X34658869Y-53603900D01*
X34530731Y-53603900D01*
X34530729Y-53603900D01*
X34405061Y-53628897D01*
X34405055Y-53628899D01*
X34286675Y-53677933D01*
X34286666Y-53677938D01*
X34180131Y-53749123D01*
X34180127Y-53749126D01*
X34089526Y-53839727D01*
X34089523Y-53839731D01*
X34018338Y-53946266D01*
X34018333Y-53946275D01*
X33969299Y-54064655D01*
X33969297Y-54064661D01*
X33944300Y-54190328D01*
X33944300Y-54190331D01*
X33944300Y-54318469D01*
X33944300Y-54318471D01*
X33944299Y-54318471D01*
X13350500Y-54318471D01*
X13350500Y-42990071D01*
X16621499Y-42990071D01*
X16646497Y-43115738D01*
X16646499Y-43115744D01*
X16695533Y-43234124D01*
X16695538Y-43234133D01*
X16766723Y-43340668D01*
X16766726Y-43340672D01*
X16857327Y-43431273D01*
X16857331Y-43431276D01*
X16963866Y-43502461D01*
X16963872Y-43502464D01*
X16963873Y-43502465D01*
X17082256Y-43551501D01*
X17082260Y-43551501D01*
X17082261Y-43551502D01*
X17207928Y-43576500D01*
X17207931Y-43576500D01*
X17336071Y-43576500D01*
X17420615Y-43559682D01*
X17461744Y-43551501D01*
X17580127Y-43502465D01*
X17686669Y-43431276D01*
X17687896Y-43430049D01*
X17780127Y-43337819D01*
X17841450Y-43304334D01*
X17867808Y-43301500D01*
X18335101Y-43301500D01*
X18402140Y-43321185D01*
X18422782Y-43337819D01*
X18934705Y-43849742D01*
X18968190Y-43911065D01*
X18971024Y-43937423D01*
X18971024Y-51992514D01*
X18951339Y-52059553D01*
X18934705Y-52080195D01*
X18841250Y-52173649D01*
X18841247Y-52173653D01*
X18770062Y-52280188D01*
X18770057Y-52280197D01*
X18721023Y-52398577D01*
X18721021Y-52398583D01*
X18696024Y-52524250D01*
X18696024Y-52524253D01*
X18696024Y-52652391D01*
X18696024Y-52652393D01*
X18696023Y-52652393D01*
X18721021Y-52778060D01*
X18721023Y-52778066D01*
X18770057Y-52896446D01*
X18770062Y-52896455D01*
X18841247Y-53002990D01*
X18841250Y-53002994D01*
X18931851Y-53093595D01*
X18931855Y-53093598D01*
X19038390Y-53164783D01*
X19038396Y-53164786D01*
X19038397Y-53164787D01*
X19156780Y-53213823D01*
X19156784Y-53213823D01*
X19156785Y-53213824D01*
X19282452Y-53238822D01*
X19282455Y-53238822D01*
X19410595Y-53238822D01*
X19495139Y-53222004D01*
X19536268Y-53213823D01*
X19654651Y-53164787D01*
X19761193Y-53093598D01*
X19851800Y-53002991D01*
X19922989Y-52896449D01*
X19972025Y-52778066D01*
X19997024Y-52652391D01*
X19997024Y-52524253D01*
X19997024Y-52524250D01*
X19972026Y-52398583D01*
X19972025Y-52398582D01*
X19972025Y-52398578D01*
X19922989Y-52280195D01*
X19922988Y-52280194D01*
X19922985Y-52280188D01*
X19851800Y-52173653D01*
X19851797Y-52173649D01*
X19758343Y-52080195D01*
X19724858Y-52018872D01*
X19722024Y-51992514D01*
X19722024Y-43681091D01*
X19722024Y-43681089D01*
X19696434Y-43585586D01*
X19646999Y-43499962D01*
X19577086Y-43430049D01*
X19323087Y-43176050D01*
X19280563Y-43133526D01*
X18772563Y-42625526D01*
X18772562Y-42625525D01*
X18686938Y-42576090D01*
X18639186Y-42563295D01*
X18639184Y-42563294D01*
X18639182Y-42563293D01*
X18591436Y-42550500D01*
X18591435Y-42550500D01*
X17867808Y-42550500D01*
X17800769Y-42530815D01*
X17780127Y-42514181D01*
X17686672Y-42420726D01*
X17686668Y-42420723D01*
X17580133Y-42349538D01*
X17580124Y-42349533D01*
X17461744Y-42300499D01*
X17461738Y-42300497D01*
X17336071Y-42275500D01*
X17336069Y-42275500D01*
X17207931Y-42275500D01*
X17207929Y-42275500D01*
X17082261Y-42300497D01*
X17082255Y-42300499D01*
X16963875Y-42349533D01*
X16963866Y-42349538D01*
X16857331Y-42420723D01*
X16857327Y-42420726D01*
X16766726Y-42511327D01*
X16766723Y-42511331D01*
X16695538Y-42617866D01*
X16695533Y-42617875D01*
X16646499Y-42736255D01*
X16646497Y-42736261D01*
X16621500Y-42861928D01*
X16621500Y-42861931D01*
X16621500Y-42990069D01*
X16621500Y-42990071D01*
X16621499Y-42990071D01*
X13350500Y-42990071D01*
X13350500Y-31099713D01*
X14001500Y-31099713D01*
X14001500Y-31312286D01*
X14034753Y-31522239D01*
X14100444Y-31724414D01*
X14196951Y-31913820D01*
X14321890Y-32085786D01*
X14321896Y-32085792D01*
X14472208Y-32236104D01*
X14472209Y-32236105D01*
X14472208Y-32236105D01*
X14493987Y-32251927D01*
X14505183Y-32260062D01*
X14547850Y-32315390D01*
X14553831Y-32385004D01*
X14535404Y-32429270D01*
X14516033Y-32458261D01*
X14516032Y-32458264D01*
X14501500Y-32531321D01*
X14501500Y-34080678D01*
X14516032Y-34153735D01*
X14516033Y-34153739D01*
X14516034Y-34153740D01*
X14571399Y-34236601D01*
X14654260Y-34291966D01*
X14654264Y-34291967D01*
X14727321Y-34306499D01*
X14727324Y-34306500D01*
X14727326Y-34306500D01*
X14788608Y-34306500D01*
X14855647Y-34326185D01*
X14901402Y-34378989D01*
X14911346Y-34448147D01*
X14882321Y-34511703D01*
X14867275Y-34526352D01*
X14864212Y-34528865D01*
X14724863Y-34668214D01*
X14724860Y-34668218D01*
X14615371Y-34832079D01*
X14615364Y-34832092D01*
X14539950Y-35014160D01*
X14539947Y-35014170D01*
X14501500Y-35207456D01*
X14501500Y-35207459D01*
X14501500Y-35404541D01*
X14501500Y-35404543D01*
X14501499Y-35404543D01*
X14539947Y-35597829D01*
X14539950Y-35597839D01*
X14615364Y-35779907D01*
X14615371Y-35779920D01*
X14724860Y-35943781D01*
X14724863Y-35943785D01*
X14864214Y-36083136D01*
X14864218Y-36083139D01*
X15028079Y-36192628D01*
X15033456Y-36195502D01*
X15032490Y-36197308D01*
X15079612Y-36235285D01*
X15101673Y-36301580D01*
X15084391Y-36369279D01*
X15033251Y-36416887D01*
X15029660Y-36418526D01*
X15028079Y-36419371D01*
X14864218Y-36528860D01*
X14864214Y-36528863D01*
X14724863Y-36668214D01*
X14724860Y-36668218D01*
X14615371Y-36832079D01*
X14615364Y-36832092D01*
X14539950Y-37014160D01*
X14539947Y-37014170D01*
X14501500Y-37207456D01*
X14501500Y-37207459D01*
X14501500Y-37404541D01*
X14501500Y-37404543D01*
X14501499Y-37404543D01*
X14539947Y-37597829D01*
X14539950Y-37597839D01*
X14615364Y-37779907D01*
X14615371Y-37779920D01*
X14724860Y-37943781D01*
X14724863Y-37943785D01*
X14780431Y-37999353D01*
X14813916Y-38060676D01*
X14808932Y-38130368D01*
X14767060Y-38186301D01*
X14749045Y-38197518D01*
X14644185Y-38250947D01*
X14644184Y-38250948D01*
X14472213Y-38375890D01*
X14321890Y-38526213D01*
X14196951Y-38698179D01*
X14100444Y-38887585D01*
X14034753Y-39089760D01*
X14001500Y-39299713D01*
X14001500Y-39512286D01*
X14034753Y-39722239D01*
X14100444Y-39924414D01*
X14196951Y-40113820D01*
X14321890Y-40285786D01*
X14472213Y-40436109D01*
X14644179Y-40561048D01*
X14644181Y-40561049D01*
X14644184Y-40561051D01*
X14833588Y-40657557D01*
X15035757Y-40723246D01*
X15245713Y-40756500D01*
X15245714Y-40756500D01*
X16758286Y-40756500D01*
X16758287Y-40756500D01*
X16968243Y-40723246D01*
X17170412Y-40657557D01*
X17359816Y-40561051D01*
X17381789Y-40545086D01*
X17531786Y-40436109D01*
X17531788Y-40436106D01*
X17531792Y-40436104D01*
X17682104Y-40285792D01*
X17682106Y-40285788D01*
X17682109Y-40285786D01*
X17807048Y-40113820D01*
X17807047Y-40113820D01*
X17807051Y-40113816D01*
X17903557Y-39924412D01*
X17969246Y-39722243D01*
X18002500Y-39512287D01*
X18002500Y-39299713D01*
X17969246Y-39089757D01*
X17903557Y-38887588D01*
X17807051Y-38698184D01*
X17807049Y-38698181D01*
X17807048Y-38698179D01*
X17682109Y-38526213D01*
X17531786Y-38375890D01*
X17359819Y-38250951D01*
X17359818Y-38250950D01*
X17359816Y-38250949D01*
X17254954Y-38197519D01*
X17204158Y-38149544D01*
X17187363Y-38081723D01*
X17209901Y-38015588D01*
X17223562Y-37999358D01*
X17279139Y-37943782D01*
X17388632Y-37779914D01*
X17464051Y-37597835D01*
X17502500Y-37404541D01*
X17502500Y-37207459D01*
X17502500Y-37207456D01*
X17464052Y-37014170D01*
X17464051Y-37014169D01*
X17464051Y-37014165D01*
X17464049Y-37014160D01*
X17388635Y-36832092D01*
X17388628Y-36832079D01*
X17279139Y-36668218D01*
X17279136Y-36668214D01*
X17139785Y-36528863D01*
X17139781Y-36528860D01*
X16975920Y-36419371D01*
X16970544Y-36416498D01*
X16971510Y-36414689D01*
X16924397Y-36376728D01*
X16902326Y-36310436D01*
X16919600Y-36242735D01*
X16970734Y-36195121D01*
X16974331Y-36193477D01*
X16975907Y-36192634D01*
X16975914Y-36192632D01*
X17139782Y-36083139D01*
X17279139Y-35943782D01*
X17388632Y-35779914D01*
X17464051Y-35597835D01*
X17502500Y-35404541D01*
X17502500Y-35207459D01*
X17502500Y-35207456D01*
X17464052Y-35014170D01*
X17464051Y-35014169D01*
X17464051Y-35014165D01*
X17464049Y-35014160D01*
X17388635Y-34832092D01*
X17388628Y-34832079D01*
X17279139Y-34668218D01*
X17279136Y-34668214D01*
X17139787Y-34528865D01*
X17136725Y-34526352D01*
X17135552Y-34524630D01*
X17135475Y-34524553D01*
X17135489Y-34524538D01*
X17097392Y-34468605D01*
X17095523Y-34398761D01*
X17131711Y-34338993D01*
X17194468Y-34308278D01*
X17215392Y-34306500D01*
X17276676Y-34306500D01*
X17276677Y-34306499D01*
X17349740Y-34291966D01*
X17432601Y-34236601D01*
X17487966Y-34153740D01*
X17502500Y-34080674D01*
X17502500Y-32531326D01*
X17502500Y-32531323D01*
X17502499Y-32531321D01*
X17487967Y-32458264D01*
X17487966Y-32458261D01*
X17487966Y-32458260D01*
X17487964Y-32458258D01*
X17487964Y-32458256D01*
X17468597Y-32429271D01*
X17447719Y-32362594D01*
X17466204Y-32295214D01*
X17498812Y-32260064D01*
X17531792Y-32236104D01*
X17682104Y-32085792D01*
X17682106Y-32085788D01*
X17682109Y-32085786D01*
X17807048Y-31913820D01*
X17807047Y-31913820D01*
X17807051Y-31913816D01*
X17903557Y-31724412D01*
X17969246Y-31522243D01*
X18002500Y-31312287D01*
X18002500Y-31099713D01*
X17969246Y-30889757D01*
X17903557Y-30687588D01*
X17807051Y-30498184D01*
X17807049Y-30498181D01*
X17807048Y-30498179D01*
X17682109Y-30326213D01*
X17531786Y-30175890D01*
X17359820Y-30050951D01*
X17170414Y-29954444D01*
X17170413Y-29954443D01*
X17170412Y-29954443D01*
X16968243Y-29888754D01*
X16968241Y-29888753D01*
X16968240Y-29888753D01*
X16806957Y-29863208D01*
X16758287Y-29855500D01*
X15245713Y-29855500D01*
X15197042Y-29863208D01*
X15035760Y-29888753D01*
X14833585Y-29954444D01*
X14644179Y-30050951D01*
X14472213Y-30175890D01*
X14321890Y-30326213D01*
X14196951Y-30498179D01*
X14100444Y-30687585D01*
X14034753Y-30889760D01*
X14001500Y-31099713D01*
X13350500Y-31099713D01*
X13350500Y-17102871D01*
X13350632Y-17097144D01*
X13367083Y-16741309D01*
X13368140Y-16729905D01*
X13380303Y-16642711D01*
X15167500Y-16642711D01*
X15167500Y-16885288D01*
X15199161Y-17125785D01*
X15261947Y-17360104D01*
X15354773Y-17584205D01*
X15354776Y-17584212D01*
X15476064Y-17794289D01*
X15476066Y-17794292D01*
X15476067Y-17794293D01*
X15623733Y-17986736D01*
X15623739Y-17986743D01*
X15795256Y-18158260D01*
X15795262Y-18158265D01*
X15987711Y-18305936D01*
X16197788Y-18427224D01*
X16421900Y-18520054D01*
X16656211Y-18582838D01*
X16836586Y-18606584D01*
X16896711Y-18614500D01*
X16896712Y-18614500D01*
X17139289Y-18614500D01*
X17187388Y-18608167D01*
X17379789Y-18582838D01*
X17614100Y-18520054D01*
X17838212Y-18427224D01*
X18048289Y-18305936D01*
X18240738Y-18158265D01*
X18412265Y-17986738D01*
X18559936Y-17794289D01*
X18681224Y-17584212D01*
X18774054Y-17360100D01*
X18836838Y-17125789D01*
X18868500Y-16885288D01*
X18868500Y-16642712D01*
X18868500Y-16642711D01*
X46409500Y-16642711D01*
X46409500Y-16885288D01*
X46441161Y-17125785D01*
X46503947Y-17360104D01*
X46596773Y-17584205D01*
X46596776Y-17584212D01*
X46718064Y-17794289D01*
X46718066Y-17794292D01*
X46718067Y-17794293D01*
X46865733Y-17986736D01*
X46865739Y-17986743D01*
X47037256Y-18158260D01*
X47037262Y-18158265D01*
X47229711Y-18305936D01*
X47439788Y-18427224D01*
X47663900Y-18520054D01*
X47898211Y-18582838D01*
X48078586Y-18606584D01*
X48138711Y-18614500D01*
X48138712Y-18614500D01*
X48381289Y-18614500D01*
X48429388Y-18608167D01*
X48621789Y-18582838D01*
X48856100Y-18520054D01*
X49080212Y-18427224D01*
X49290289Y-18305936D01*
X49482738Y-18158265D01*
X49654265Y-17986738D01*
X49801936Y-17794289D01*
X49923224Y-17584212D01*
X50016054Y-17360100D01*
X50078838Y-17125789D01*
X50110500Y-16885288D01*
X50110500Y-16642712D01*
X50078838Y-16402211D01*
X50016054Y-16167900D01*
X49923224Y-15943788D01*
X49801936Y-15733711D01*
X49654265Y-15541262D01*
X49654260Y-15541256D01*
X49482743Y-15369739D01*
X49482736Y-15369733D01*
X49290293Y-15222067D01*
X49290292Y-15222066D01*
X49290289Y-15222064D01*
X49080212Y-15100776D01*
X49080205Y-15100773D01*
X48856104Y-15007947D01*
X48621785Y-14945161D01*
X48381289Y-14913500D01*
X48381288Y-14913500D01*
X48138712Y-14913500D01*
X48138711Y-14913500D01*
X47898214Y-14945161D01*
X47663895Y-15007947D01*
X47439794Y-15100773D01*
X47439785Y-15100777D01*
X47229706Y-15222067D01*
X47037263Y-15369733D01*
X47037256Y-15369739D01*
X46865739Y-15541256D01*
X46865733Y-15541263D01*
X46718067Y-15733706D01*
X46596777Y-15943785D01*
X46596773Y-15943794D01*
X46503947Y-16167895D01*
X46441161Y-16402214D01*
X46409500Y-16642711D01*
X18868500Y-16642711D01*
X18836838Y-16402211D01*
X18774054Y-16167900D01*
X18681224Y-15943788D01*
X18559936Y-15733711D01*
X18412265Y-15541262D01*
X18412260Y-15541256D01*
X18240743Y-15369739D01*
X18240736Y-15369733D01*
X18048293Y-15222067D01*
X18048292Y-15222066D01*
X18048289Y-15222064D01*
X17838212Y-15100776D01*
X17838205Y-15100773D01*
X17614104Y-15007947D01*
X17379785Y-14945161D01*
X17139289Y-14913500D01*
X17139288Y-14913500D01*
X16896712Y-14913500D01*
X16896711Y-14913500D01*
X16656214Y-14945161D01*
X16421895Y-15007947D01*
X16197794Y-15100773D01*
X16197785Y-15100777D01*
X15987706Y-15222067D01*
X15795263Y-15369733D01*
X15795256Y-15369739D01*
X15623739Y-15541256D01*
X15623733Y-15541263D01*
X15476067Y-15733706D01*
X15354777Y-15943785D01*
X15354773Y-15943794D01*
X15261947Y-16167895D01*
X15199161Y-16402214D01*
X15167500Y-16642711D01*
X13380303Y-16642711D01*
X13416958Y-16379944D01*
X13419058Y-16368708D01*
X13499961Y-16024732D01*
X13503084Y-16013753D01*
X13615387Y-15678685D01*
X13619510Y-15668046D01*
X13762245Y-15344781D01*
X13767328Y-15334572D01*
X13939278Y-15025862D01*
X13945304Y-15016130D01*
X14144999Y-14724612D01*
X14151881Y-14715498D01*
X14377636Y-14443630D01*
X14385332Y-14435190D01*
X14635190Y-14185332D01*
X14643630Y-14177636D01*
X14915498Y-13951881D01*
X14924612Y-13944999D01*
X15216136Y-13745300D01*
X15225862Y-13739278D01*
X15534572Y-13567328D01*
X15544781Y-13562245D01*
X15868046Y-13419510D01*
X15878685Y-13415387D01*
X16213753Y-13303084D01*
X16224732Y-13299961D01*
X16568708Y-13219058D01*
X16579944Y-13216958D01*
X16929914Y-13168139D01*
X16941300Y-13167083D01*
X17297145Y-13150632D01*
X17302872Y-13150500D01*
X17316408Y-13150500D01*
X47783592Y-13150500D01*
X47797128Y-13150500D01*
X47802855Y-13150632D01*
G37*
%TD.AperFunction*%
M02*
