M48
; DRILL file {KiCad 9.0.7} date 2026-02-28T16:41:58+0000
; FORMAT={-:-/ absolute / metric / decimal}
; #@! TF.CreationDate,2026-02-28T16:41:58+00:00
; #@! TF.GenerationSoftware,Kicad,Pcbnew,9.0.7
; #@! TF.FileFunction,Plated,1,4,PTH
FMAT,2
METRIC
; #@! TA.AperFunction,Plated,PTH,ViaDrill
T1C0.400
; #@! TA.AperFunction,Plated,PTH,ComponentDrill
T2C0.900
; #@! TA.AperFunction,Plated,PTH,ComponentDrill
T3C1.000
; #@! TA.AperFunction,Plated,PTH,ComponentDrill
T4C1.500
%
G90
G05
T1
X15.037Y-25.4
X15.494Y-46.228
X16.51Y-46.228
X16.764Y-25.4
X17.272Y-42.926
X17.526Y-46.228
X18.542Y-46.228
X18.593Y-25.4
X19.304Y-53.848
X19.347Y-52.588
X23.114Y-59.69
X23.114Y-60.706
X23.114Y-61.722
X23.114Y-62.738
X25.959Y-16.866
X26.264Y-28.397
X26.67Y-55.626
X26.67Y-57.15
X27.686Y-59.182
X28.397Y-16.916
X28.702Y-28.448
X30.554Y-58.035
X31.496Y-58.42
X32.512Y-56.588
X33.29Y-56.931
X34.29Y-61.722
X34.595Y-54.254
X34.849Y-49.733
X35.001Y-37.338
X35.611Y-57.302
X36.728Y-16.815
X37.033Y-28.346
X39.37Y-16.916
X39.675Y-28.448
X40.104Y-59.145
X41.148Y-58.42
X41.873Y-54.204
X43.586Y-52.222
X43.586Y-53.899
X43.586Y-55.575
X43.586Y-57.252
X45.314Y-52.273
X45.314Y-53.95
X45.314Y-55.626
X45.314Y-57.302
X47.142Y-52.273
X47.142Y-53.95
X48.87Y-52.324
X48.87Y-54.0
X49.022Y-37.592
X49.022Y-41.402
T2
X16.002Y-33.306
X16.002Y-35.306
X16.002Y-37.306
T3
X24.892Y-61.722
X27.432Y-61.722
X29.972Y-61.722
X32.512Y-61.722
T4
X16.002Y-31.206
X16.002Y-39.406
M30
