%TF.GenerationSoftware,KiCad,Pcbnew,9.0.7*%
%TF.CreationDate,2026-03-04T23:18:43+00:00*%
%TF.ProjectId,USB-Lora-Modem,5553422d-4c6f-4726-912d-4d6f64656d2e,V1.2*%
%TF.SameCoordinates,Original*%
%TF.FileFunction,Soldermask,Top*%
%TF.FilePolarity,Negative*%
%FSLAX46Y46*%
G04 Gerber Fmt 4.6, Leading zero omitted, Abs format (unit mm)*
G04 Created by KiCad (PCBNEW 9.0.7) date 2026-03-04 23:18:43*
%MOMM*%
%LPD*%
G01*
G04 APERTURE LIST*
G04 Aperture macros list*
%AMRoundRect*
0 Rectangle with rounded corners*
0 $1 Rounding radius*
0 $2 $3 $4 $5 $6 $7 $8 $9 X,Y pos of 4 corners*
0 Add a 4 corners polygon primitive as box body*
4,1,4,$2,$3,$4,$5,$6,$7,$8,$9,$2,$3,0*
0 Add four circle primitives for the rounded corners*
1,1,$1+$1,$2,$3*
1,1,$1+$1,$4,$5*
1,1,$1+$1,$6,$7*
1,1,$1+$1,$8,$9*
0 Add four rect primitives between the rounded corners*
20,1,$1+$1,$2,$3,$4,$5,0*
20,1,$1+$1,$4,$5,$6,$7,0*
20,1,$1+$1,$6,$7,$8,$9,0*
20,1,$1+$1,$8,$9,$2,$3,0*%
G04 Aperture macros list end*
%ADD10C,3.200000*%
%ADD11R,1.500000X5.080000*%
%ADD12RoundRect,0.250000X-0.475000X0.337500X-0.475000X-0.337500X0.475000X-0.337500X0.475000X0.337500X0*%
%ADD13RoundRect,0.250001X1.074999X-0.462499X1.074999X0.462499X-1.074999X0.462499X-1.074999X-0.462499X0*%
%ADD14RoundRect,0.237500X0.237500X-0.250000X0.237500X0.250000X-0.237500X0.250000X-0.237500X-0.250000X0*%
%ADD15RoundRect,0.237500X0.237500X-0.300000X0.237500X0.300000X-0.237500X0.300000X-0.237500X-0.300000X0*%
%ADD16RoundRect,0.102000X1.170000X0.765000X-1.170000X0.765000X-1.170000X-0.765000X1.170000X-0.765000X0*%
%ADD17RoundRect,0.102000X0.755000X1.155000X-0.755000X1.155000X-0.755000X-1.155000X0.755000X-1.155000X0*%
%ADD18RoundRect,0.250000X-0.475000X0.250000X-0.475000X-0.250000X0.475000X-0.250000X0.475000X0.250000X0*%
%ADD19RoundRect,0.250001X0.624999X-0.462499X0.624999X0.462499X-0.624999X0.462499X-0.624999X-0.462499X0*%
%ADD20RoundRect,0.237500X0.300000X0.237500X-0.300000X0.237500X-0.300000X-0.237500X0.300000X-0.237500X0*%
%ADD21RoundRect,0.250000X0.475000X-0.250000X0.475000X0.250000X-0.475000X0.250000X-0.475000X-0.250000X0*%
%ADD22RoundRect,0.237500X-0.237500X0.300000X-0.237500X-0.300000X0.237500X-0.300000X0.237500X0.300000X0*%
%ADD23RoundRect,0.237500X-0.237500X0.250000X-0.237500X-0.250000X0.237500X-0.250000X0.237500X0.250000X0*%
%ADD24RoundRect,0.162500X-0.617500X-0.162500X0.617500X-0.162500X0.617500X0.162500X-0.617500X0.162500X0*%
%ADD25RoundRect,0.087500X-0.087500X0.250000X-0.087500X-0.250000X0.087500X-0.250000X0.087500X0.250000X0*%
%ADD26RoundRect,0.075000X-0.312500X-0.075000X0.312500X-0.075000X0.312500X0.075000X-0.312500X0.075000X0*%
%ADD27RoundRect,0.075000X-0.075000X-0.312500X0.075000X-0.312500X0.075000X0.312500X-0.075000X0.312500X0*%
%ADD28R,1.800000X1.800000*%
%ADD29RoundRect,0.250000X1.075000X-0.400000X1.075000X0.400000X-1.075000X0.400000X-1.075000X-0.400000X0*%
%ADD30C,1.512000*%
%ADD31RoundRect,0.250000X1.045000X-0.785000X1.045000X0.785000X-1.045000X0.785000X-1.045000X-0.785000X0*%
%ADD32R,1.700000X1.700000*%
%ADD33C,1.700000*%
G04 APERTURE END LIST*
D10*
X168656000Y-75692000D03*
D11*
X159961000Y-74803000D03*
X155711000Y-74803000D03*
X164211000Y-74803000D03*
D12*
X171124800Y-112520900D03*
X171124800Y-114595900D03*
D10*
X137541000Y-75692000D03*
D13*
X137850800Y-112341400D03*
X137850800Y-109366400D03*
D14*
X161726800Y-122090900D03*
X161726800Y-120265900D03*
D15*
X137342800Y-118638400D03*
X137342800Y-116913400D03*
D16*
X165113800Y-99598400D03*
X165113800Y-102138400D03*
X165113800Y-104678400D03*
X165113800Y-107218400D03*
X165113800Y-109758400D03*
X165113800Y-112298400D03*
X165113800Y-114838400D03*
X141243800Y-114838400D03*
X141243800Y-112298400D03*
X141243800Y-109758400D03*
X141243800Y-107218400D03*
X141243800Y-104678400D03*
X141243800Y-102138400D03*
X141243800Y-99598400D03*
D17*
X146408800Y-79268400D03*
X148948800Y-79268400D03*
X157408800Y-79268400D03*
X159948800Y-79268400D03*
D18*
X135056800Y-108356400D03*
X135056800Y-110256400D03*
D19*
X142168800Y-125496400D03*
X142168800Y-122521400D03*
D20*
X150296800Y-120416400D03*
X148571800Y-120416400D03*
D14*
X158678800Y-122090900D03*
X158678800Y-120265900D03*
D10*
X168838800Y-124638400D03*
D21*
X135064800Y-113812400D03*
X135064800Y-111912400D03*
D22*
X168076800Y-112695900D03*
X168076800Y-114420900D03*
D23*
X157154800Y-120265900D03*
X157154800Y-122090900D03*
D24*
X156138800Y-125628400D03*
X156138800Y-126578400D03*
X156138800Y-127528400D03*
X158838800Y-127528400D03*
X158838800Y-126578400D03*
X158838800Y-125628400D03*
D25*
X137588800Y-113911400D03*
X137088800Y-113911400D03*
X136588800Y-113911400D03*
X136588800Y-115336400D03*
X137088800Y-115336400D03*
X137588800Y-115336400D03*
D26*
X152169300Y-120878400D03*
X152169300Y-121378400D03*
X152169300Y-121878400D03*
X152169300Y-122378400D03*
D27*
X152906800Y-123115900D03*
X153406800Y-123115900D03*
X153906800Y-123115900D03*
X154406800Y-123115900D03*
D26*
X155144300Y-122378400D03*
X155144300Y-121878400D03*
X155144300Y-121378400D03*
X155144300Y-120878400D03*
D27*
X154406800Y-120140900D03*
X153906800Y-120140900D03*
X153406800Y-120140900D03*
X152906800Y-120140900D03*
D28*
X153656800Y-121628400D03*
D22*
X138866800Y-116913400D03*
X138866800Y-118638400D03*
D29*
X136358800Y-91968400D03*
X136358800Y-88868400D03*
D20*
X151058800Y-123972400D03*
X149333800Y-123972400D03*
D30*
X136398000Y-96720400D03*
X136398000Y-99720400D03*
X136398000Y-102720400D03*
D15*
X135818800Y-118638400D03*
X135818800Y-116913400D03*
D14*
X160202800Y-122090900D03*
X160202800Y-120265900D03*
D31*
X169600800Y-110328400D03*
X169600800Y-104088400D03*
D32*
X153090800Y-126512400D03*
D33*
X150550800Y-126512400D03*
X148010800Y-126512400D03*
X145470800Y-126512400D03*
D31*
X169600800Y-99842400D03*
X169600800Y-93602400D03*
D10*
X137342800Y-124638400D03*
D20*
X150296800Y-121940400D03*
X148571800Y-121940400D03*
M02*
