%TF.GenerationSoftware,KiCad,Pcbnew,9.0.7*%
%TF.CreationDate,2026-02-28T16:41:56+00:00*%
%TF.ProjectId,USB-Lora-Modem,5553422d-4c6f-4726-912d-4d6f64656d2e,V1.2*%
%TF.SameCoordinates,Original*%
%TF.FileFunction,Copper,L1,Top*%
%TF.FilePolarity,Positive*%
%FSLAX46Y46*%
G04 Gerber Fmt 4.6, Leading zero omitted, Abs format (unit mm)*
G04 Created by KiCad (PCBNEW 9.0.7) date 2026-02-28 16:41:56*
%MOMM*%
%LPD*%
G01*
G04 APERTURE LIST*
G04 Aperture macros list*
%AMRoundRect*
0 Rectangle with rounded corners*
0 $1 Rounding radius*
0 $2 $3 $4 $5 $6 $7 $8 $9 X,Y pos of 4 corners*
0 Add a 4 corners polygon primitive as box body*
4,1,4,$2,$3,$4,$5,$6,$7,$8,$9,$2,$3,0*
0 Add four circle primitives for the rounded corners*
1,1,$1+$1,$2,$3*
1,1,$1+$1,$4,$5*
1,1,$1+$1,$6,$7*
1,1,$1+$1,$8,$9*
0 Add four rect primitives between the rounded corners*
20,1,$1+$1,$2,$3,$4,$5,0*
20,1,$1+$1,$4,$5,$6,$7,0*
20,1,$1+$1,$6,$7,$8,$9,0*
20,1,$1+$1,$8,$9,$2,$3,0*%
G04 Aperture macros list end*
%TA.AperFunction,SMDPad,CuDef*%
%ADD10RoundRect,0.250001X1.074999X-0.462499X1.074999X0.462499X-1.074999X0.462499X-1.074999X-0.462499X0*%
%TD*%
%TA.AperFunction,SMDPad,CuDef*%
%ADD11RoundRect,0.237500X-0.237500X0.300000X-0.237500X-0.300000X0.237500X-0.300000X0.237500X0.300000X0*%
%TD*%
%TA.AperFunction,SMDPad,CuDef*%
%ADD12RoundRect,0.237500X0.237500X-0.250000X0.237500X0.250000X-0.237500X0.250000X-0.237500X-0.250000X0*%
%TD*%
%TA.AperFunction,SMDPad,CuDef*%
%ADD13RoundRect,0.237500X0.237500X-0.300000X0.237500X0.300000X-0.237500X0.300000X-0.237500X-0.300000X0*%
%TD*%
%TA.AperFunction,SMDPad,CuDef*%
%ADD14R,2.340000X1.530000*%
%TD*%
%TA.AperFunction,SMDPad,CuDef*%
%ADD15R,1.510000X2.310000*%
%TD*%
%TA.AperFunction,SMDPad,CuDef*%
%ADD16RoundRect,0.250000X-0.475000X0.250000X-0.475000X-0.250000X0.475000X-0.250000X0.475000X0.250000X0*%
%TD*%
%TA.AperFunction,SMDPad,CuDef*%
%ADD17RoundRect,0.250001X0.624999X-0.462499X0.624999X0.462499X-0.624999X0.462499X-0.624999X-0.462499X0*%
%TD*%
%TA.AperFunction,SMDPad,CuDef*%
%ADD18RoundRect,0.237500X0.300000X0.237500X-0.300000X0.237500X-0.300000X-0.237500X0.300000X-0.237500X0*%
%TD*%
%TA.AperFunction,SMDPad,CuDef*%
%ADD19RoundRect,0.250000X0.475000X-0.250000X0.475000X0.250000X-0.475000X0.250000X-0.475000X-0.250000X0*%
%TD*%
%TA.AperFunction,SMDPad,CuDef*%
%ADD20RoundRect,0.237500X-0.237500X0.250000X-0.237500X-0.250000X0.237500X-0.250000X0.237500X0.250000X0*%
%TD*%
%TA.AperFunction,SMDPad,CuDef*%
%ADD21RoundRect,0.162500X-0.617500X-0.162500X0.617500X-0.162500X0.617500X0.162500X-0.617500X0.162500X0*%
%TD*%
%TA.AperFunction,SMDPad,CuDef*%
%ADD22RoundRect,0.087500X-0.087500X0.250000X-0.087500X-0.250000X0.087500X-0.250000X0.087500X0.250000X0*%
%TD*%
%TA.AperFunction,SMDPad,CuDef*%
%ADD23RoundRect,0.075000X-0.312500X-0.075000X0.312500X-0.075000X0.312500X0.075000X-0.312500X0.075000X0*%
%TD*%
%TA.AperFunction,SMDPad,CuDef*%
%ADD24RoundRect,0.075000X-0.075000X-0.312500X0.075000X-0.312500X0.075000X0.312500X-0.075000X0.312500X0*%
%TD*%
%TA.AperFunction,HeatsinkPad*%
%ADD25R,1.800000X1.800000*%
%TD*%
%TA.AperFunction,SMDPad,CuDef*%
%ADD26RoundRect,0.250000X1.075000X-0.400000X1.075000X0.400000X-1.075000X0.400000X-1.075000X-0.400000X0*%
%TD*%
%TA.AperFunction,ComponentPad*%
%ADD27O,3.500000X2.200000*%
%TD*%
%TA.AperFunction,ComponentPad*%
%ADD28R,2.500000X1.500000*%
%TD*%
%TA.AperFunction,ComponentPad*%
%ADD29O,2.500000X1.500000*%
%TD*%
%TA.AperFunction,SMDPad,CuDef*%
%ADD30RoundRect,0.250000X1.045000X-0.785000X1.045000X0.785000X-1.045000X0.785000X-1.045000X-0.785000X0*%
%TD*%
%TA.AperFunction,ComponentPad*%
%ADD31R,1.700000X1.700000*%
%TD*%
%TA.AperFunction,ComponentPad*%
%ADD32C,1.700000*%
%TD*%
%TA.AperFunction,ViaPad*%
%ADD33C,0.800000*%
%TD*%
%TA.AperFunction,Conductor*%
%ADD34C,0.250000*%
%TD*%
G04 APERTURE END LIST*
D10*
X17272000Y-47551000D03*
X17272000Y-44576000D03*
D11*
X50546000Y-47905500D03*
X50546000Y-49630500D03*
D12*
X41148000Y-57300500D03*
X41148000Y-55475500D03*
D13*
X16764000Y-53848000D03*
X16764000Y-52123000D03*
D14*
X44535000Y-34808000D03*
X44535000Y-37348000D03*
X44535000Y-39888000D03*
X44535000Y-42428000D03*
X44535000Y-44968000D03*
X44535000Y-47508000D03*
X44535000Y-50048000D03*
X20665000Y-50048000D03*
X20665000Y-47508000D03*
X20665000Y-44968000D03*
X20665000Y-42428000D03*
X20665000Y-39888000D03*
X20665000Y-37348000D03*
X20665000Y-34808000D03*
D15*
X25830000Y-14478000D03*
X28370000Y-14478000D03*
X36830000Y-14478000D03*
X39370000Y-14478000D03*
D16*
X14478000Y-43566000D03*
X14478000Y-45466000D03*
D17*
X21590000Y-60706000D03*
X21590000Y-57731000D03*
D18*
X29718000Y-55626000D03*
X27993000Y-55626000D03*
D12*
X38100000Y-57300500D03*
X38100000Y-55475500D03*
D19*
X14486000Y-49022000D03*
X14486000Y-47122000D03*
D11*
X47498000Y-47905500D03*
X47498000Y-49630500D03*
D20*
X36576000Y-55475500D03*
X36576000Y-57300500D03*
D21*
X35560000Y-60838000D03*
X35560000Y-61788000D03*
X35560000Y-62738000D03*
X38260000Y-62738000D03*
X38260000Y-61788000D03*
X38260000Y-60838000D03*
D22*
X17010000Y-49121000D03*
X16510000Y-49121000D03*
X16010000Y-49121000D03*
X16010000Y-50546000D03*
X16510000Y-50546000D03*
X17010000Y-50546000D03*
D23*
X31590500Y-56088000D03*
X31590500Y-56588000D03*
X31590500Y-57088000D03*
X31590500Y-57588000D03*
D24*
X32328000Y-58325500D03*
X32828000Y-58325500D03*
X33328000Y-58325500D03*
X33828000Y-58325500D03*
D23*
X34565500Y-57588000D03*
X34565500Y-57088000D03*
X34565500Y-56588000D03*
X34565500Y-56088000D03*
D24*
X33828000Y-55350500D03*
X33328000Y-55350500D03*
X32828000Y-55350500D03*
X32328000Y-55350500D03*
D25*
X33078000Y-56838000D03*
D11*
X18288000Y-52123000D03*
X18288000Y-53848000D03*
D26*
X15780000Y-27178000D03*
X15780000Y-24078000D03*
D18*
X30480000Y-59182000D03*
X28755000Y-59182000D03*
D27*
X16002000Y-31206000D03*
X16002000Y-39406000D03*
D28*
X16002000Y-33306000D03*
D29*
X16002000Y-35306000D03*
X16002000Y-37306000D03*
D13*
X15240000Y-53848000D03*
X15240000Y-52123000D03*
D12*
X39624000Y-57300500D03*
X39624000Y-55475500D03*
D30*
X49022000Y-45538000D03*
X49022000Y-39298000D03*
D31*
X32512000Y-61722000D03*
D32*
X29972000Y-61722000D03*
X27432000Y-61722000D03*
X24892000Y-61722000D03*
D30*
X49022000Y-35052000D03*
X49022000Y-28812000D03*
D18*
X29718000Y-57150000D03*
X27993000Y-57150000D03*
D33*
X18592800Y-25400000D03*
X16764000Y-25400000D03*
X15036800Y-25400000D03*
X39674800Y-28448000D03*
X26263600Y-28397200D03*
X37033200Y-28346400D03*
X28702000Y-28448000D03*
X39370000Y-16916400D03*
X36728400Y-16814800D03*
X28397200Y-16916400D03*
X25958800Y-16865600D03*
X45313600Y-55626000D03*
X43586400Y-57251600D03*
X43586400Y-55575200D03*
X45313600Y-57302400D03*
X48869600Y-52324000D03*
X47142400Y-53949600D03*
X47142400Y-52273200D03*
X48869600Y-54000400D03*
X45313600Y-53949600D03*
X43586400Y-53898800D03*
X45313600Y-52273200D03*
X43586400Y-52222400D03*
X26670000Y-55626000D03*
X26670000Y-57150000D03*
X19304000Y-53848000D03*
X18542000Y-46228000D03*
X15494000Y-46228000D03*
X35001200Y-37338000D03*
X49022000Y-41402000D03*
X32512000Y-56588000D03*
X34290000Y-61722000D03*
X35610800Y-57302400D03*
X33289533Y-56931433D03*
X49022000Y-37592000D03*
X34848800Y-49733200D03*
X16510000Y-46228000D03*
X17526000Y-46228000D03*
X27686000Y-59182000D03*
X23114000Y-62738000D03*
X23114000Y-61722000D03*
X23114000Y-60706000D03*
X23114000Y-59690000D03*
X30554179Y-58034975D03*
X40104304Y-59144999D03*
X41148000Y-58420000D03*
X31496000Y-58420000D03*
X41873000Y-54203600D03*
X34594800Y-54254400D03*
X19346524Y-52588322D03*
X17272000Y-42926000D03*
D34*
X32828000Y-59120000D02*
X32512000Y-59436000D01*
X32828000Y-58325500D02*
X32828000Y-59120000D01*
X32512000Y-59436000D02*
X30988000Y-59436000D01*
X35610800Y-57302400D02*
X35612700Y-57300500D01*
X33171433Y-56931433D02*
X32828000Y-56588000D01*
X28755000Y-59182000D02*
X27686000Y-59182000D01*
X49022000Y-39298000D02*
X49022000Y-37592000D01*
X27993000Y-55626000D02*
X26670000Y-55626000D01*
X15494000Y-46228000D02*
X19385000Y-46228000D01*
X18288000Y-53848000D02*
X18288000Y-53647000D01*
X31590500Y-56588000D02*
X32512000Y-56588000D01*
X18288000Y-53848000D02*
X19304000Y-53848000D01*
X14600000Y-47122000D02*
X15494000Y-46228000D01*
X35612700Y-57300500D02*
X36576000Y-57300500D01*
X49022000Y-39298000D02*
X49022000Y-41402000D01*
X14732000Y-45466000D02*
X15494000Y-46228000D01*
X19385000Y-46228000D02*
X20665000Y-47508000D01*
X14486000Y-47122000D02*
X14600000Y-47122000D01*
X33289533Y-56931433D02*
X33171433Y-56931433D01*
X14478000Y-45466000D02*
X14732000Y-45466000D01*
X32828000Y-56588000D02*
X32512000Y-56588000D01*
X27993000Y-57150000D02*
X26670000Y-57150000D01*
X44535000Y-47508000D02*
X47100500Y-47508000D01*
X38100000Y-56642000D02*
X38100000Y-57300500D01*
X31590500Y-53753500D02*
X31902400Y-53441600D01*
X35560000Y-53695600D02*
X35560000Y-56235600D01*
X35763200Y-56438800D02*
X37896800Y-56438800D01*
X31590500Y-56088000D02*
X30180000Y-56088000D01*
X31902400Y-53441600D02*
X35306000Y-53441600D01*
X35306000Y-53441600D02*
X35560000Y-53695600D01*
X30180000Y-56088000D02*
X29718000Y-55626000D01*
X37896800Y-56438800D02*
X38100000Y-56642000D01*
X31590500Y-56088000D02*
X31590500Y-53753500D01*
X35560000Y-56235600D02*
X35763200Y-56438800D01*
X47100500Y-47508000D02*
X47498000Y-47905500D01*
X41138000Y-37348000D02*
X39116000Y-39370000D01*
X39116000Y-54508400D02*
X38148900Y-55475500D01*
X39116000Y-39370000D02*
X39116000Y-54508400D01*
X38148900Y-55475500D02*
X38100000Y-55475500D01*
X44535000Y-37348000D02*
X41138000Y-37348000D01*
X38100000Y-54102000D02*
X36726500Y-55475500D01*
X36726500Y-55475500D02*
X36576000Y-55475500D01*
X38100000Y-37084000D02*
X38100000Y-54102000D01*
X44535000Y-34808000D02*
X40376000Y-34808000D01*
X40376000Y-34808000D02*
X38100000Y-37084000D01*
X39624000Y-55475500D02*
X39624000Y-55118000D01*
X40132000Y-41402000D02*
X41646000Y-39888000D01*
X41646000Y-39888000D02*
X44535000Y-39888000D01*
X40132000Y-54610000D02*
X40132000Y-41402000D01*
X39624000Y-55118000D02*
X40132000Y-54610000D01*
X31590500Y-57588000D02*
X31001154Y-57588000D01*
X39624000Y-57300500D02*
X39624000Y-58664695D01*
X39624000Y-58664695D02*
X40104304Y-59144999D01*
X31001154Y-57588000D02*
X30554179Y-58034975D01*
X41148000Y-58420000D02*
X41148000Y-57300500D01*
X31590500Y-58325500D02*
X31496000Y-58420000D01*
X32328000Y-58325500D02*
X31590500Y-58325500D01*
X44535000Y-42428000D02*
X42408000Y-42428000D01*
X41148000Y-43688000D02*
X41148000Y-55475500D01*
X42408000Y-42428000D02*
X41148000Y-43688000D01*
X33375600Y-54254400D02*
X32828000Y-54802000D01*
X42164000Y-50749200D02*
X42164000Y-51054000D01*
X34594800Y-54254400D02*
X33375600Y-54254400D01*
X32828000Y-54802000D02*
X32828000Y-55350500D01*
X42164000Y-50342800D02*
X42164000Y-50749200D01*
X42916000Y-44968000D02*
X42164000Y-45720000D01*
X42164000Y-50342800D02*
X42164000Y-53912600D01*
X44535000Y-44968000D02*
X42916000Y-44968000D01*
X42164000Y-45720000D02*
X42164000Y-50342800D01*
X42164000Y-53912600D02*
X41873000Y-54203600D01*
X38260000Y-60358000D02*
X38260000Y-60838000D01*
X33328000Y-58782178D02*
X33727822Y-59182000D01*
X33328000Y-58325500D02*
X33328000Y-58782178D01*
X37084000Y-59182000D02*
X38260000Y-60358000D01*
X38260000Y-60800000D02*
X38354000Y-60706000D01*
X33727822Y-59182000D02*
X37084000Y-59182000D01*
X39370000Y-60452000D02*
X39370000Y-62230000D01*
X37592000Y-58674000D02*
X39370000Y-60452000D01*
X38862000Y-62738000D02*
X38260000Y-62738000D01*
X34176500Y-58674000D02*
X37592000Y-58674000D01*
X39370000Y-62230000D02*
X38862000Y-62738000D01*
X33828000Y-58325500D02*
X34176500Y-58674000D01*
X35400000Y-62898000D02*
X35560000Y-62738000D01*
X31148000Y-62898000D02*
X35400000Y-62898000D01*
X29972000Y-61722000D02*
X31148000Y-62898000D01*
X16764000Y-53848000D02*
X17626500Y-52985500D01*
X15240000Y-53848000D02*
X16764000Y-53848000D01*
X17272000Y-42926000D02*
X17272000Y-44576000D01*
X19304000Y-52578000D02*
X19336202Y-52578000D01*
X18896500Y-52985500D02*
X19304000Y-52578000D01*
X17626500Y-52985500D02*
X18896500Y-52985500D01*
X19336202Y-52578000D02*
X19346524Y-52588322D01*
X27432000Y-61722000D02*
X28608000Y-60546000D01*
X28608000Y-60546000D02*
X35268000Y-60546000D01*
X35268000Y-60546000D02*
X35560000Y-60838000D01*
X16764000Y-52123000D02*
X18288000Y-52123000D01*
X16510000Y-50546000D02*
X16510000Y-52123000D01*
X15240000Y-52123000D02*
X16764000Y-52123000D01*
X16010000Y-50546000D02*
X13970000Y-50546000D01*
X21590000Y-57731000D02*
X22171000Y-57731000D01*
X39878000Y-59944000D02*
X38100000Y-58166000D01*
X22171000Y-57731000D02*
X22860000Y-58420000D01*
X29617500Y-59660490D02*
X29940010Y-59983000D01*
X37435654Y-63389000D02*
X39084346Y-63389000D01*
X29617500Y-57250500D02*
X29617500Y-58420000D01*
X39084346Y-63389000D02*
X39878000Y-62595346D01*
X37154000Y-62114001D02*
X37154000Y-62484000D01*
X29780000Y-57088000D02*
X29718000Y-57150000D01*
X37220000Y-61788000D02*
X37154000Y-61722000D01*
X38260000Y-61788000D02*
X37480001Y-61788000D01*
X29718000Y-57150000D02*
X29617500Y-57250500D01*
X29617500Y-58420000D02*
X29617500Y-59660490D01*
X29940010Y-59983000D02*
X36685000Y-59983000D01*
X38260000Y-61788000D02*
X37220000Y-61788000D01*
X22070500Y-57250500D02*
X21590000Y-57731000D01*
X14585000Y-49121000D02*
X14486000Y-49022000D01*
X13970000Y-49538000D02*
X14486000Y-49022000D01*
X37154000Y-62484000D02*
X37154000Y-63107346D01*
X38100000Y-58166000D02*
X35143500Y-58166000D01*
X37154000Y-60452000D02*
X37154000Y-61722000D01*
X35143500Y-58166000D02*
X34565500Y-57588000D01*
X22899000Y-58381000D02*
X29578500Y-58381000D01*
X13970000Y-50546000D02*
X13970000Y-49538000D01*
X31590500Y-57088000D02*
X29780000Y-57088000D01*
X29578500Y-58381000D02*
X29617500Y-58420000D01*
X16010000Y-49121000D02*
X14585000Y-49121000D01*
X39878000Y-62595346D02*
X39878000Y-59944000D01*
X36685000Y-59983000D02*
X37154000Y-60452000D01*
X37154000Y-63107346D02*
X37435654Y-63389000D01*
X22860000Y-58420000D02*
X22899000Y-58381000D01*
X37154000Y-61722000D02*
X37154000Y-62484000D01*
X16510000Y-48514000D02*
X17526000Y-47498000D01*
X16510000Y-49121000D02*
X16510000Y-48514000D01*
%TA.AperFunction,Conductor*%
G36*
X17723039Y-26435685D02*
G01*
X17768794Y-26488489D01*
X17780000Y-26540000D01*
X17780000Y-29125821D01*
X17760315Y-29192860D01*
X17707511Y-29238615D01*
X17695159Y-29243475D01*
X17639179Y-29262106D01*
X17639173Y-29262109D01*
X17516218Y-29341128D01*
X17516211Y-29341134D01*
X17463416Y-29386880D01*
X17433676Y-29421203D01*
X17374897Y-29458977D01*
X17339963Y-29464000D01*
X13970000Y-29464000D01*
X13970000Y-30345529D01*
X13956485Y-30401824D01*
X13861342Y-30588552D01*
X13783106Y-30829340D01*
X13743500Y-31079402D01*
X13743500Y-31332597D01*
X13783106Y-31582658D01*
X13861345Y-31823452D01*
X13956485Y-32010174D01*
X13970000Y-32066469D01*
X13970000Y-32766000D01*
X14928329Y-32766000D01*
X14966647Y-32772068D01*
X14975342Y-32774894D01*
X15017019Y-32781495D01*
X15225403Y-32814500D01*
X15225408Y-32814500D01*
X16778597Y-32814500D01*
X16960525Y-32785685D01*
X17028658Y-32774894D01*
X17037352Y-32772068D01*
X17039682Y-32771699D01*
X17040736Y-32771023D01*
X17075671Y-32766000D01*
X17142500Y-32766000D01*
X17209539Y-32785685D01*
X17255294Y-32838489D01*
X17266500Y-32890000D01*
X17266500Y-33912000D01*
X17246815Y-33979039D01*
X17194011Y-34024794D01*
X17142500Y-34036000D01*
X14649911Y-34036000D01*
X14638858Y-34035506D01*
X14627603Y-34034498D01*
X14582923Y-34030500D01*
X14582920Y-34030500D01*
X13586000Y-34030500D01*
X13518961Y-34010815D01*
X13473206Y-33958011D01*
X13462000Y-33906500D01*
X13462000Y-26540000D01*
X13481685Y-26472961D01*
X13534489Y-26427206D01*
X13586000Y-26416000D01*
X17656000Y-26416000D01*
X17723039Y-26435685D01*
G37*
%TD.AperFunction*%
%TA.AperFunction,Conductor*%
G36*
X15597152Y-48520957D02*
G01*
X15621689Y-48523765D01*
X15635924Y-48532342D01*
X15640496Y-48533685D01*
X15647442Y-48539282D01*
X15651919Y-48541980D01*
X15656731Y-48545912D01*
X15723349Y-48612530D01*
X15784155Y-48650036D01*
X15790514Y-48655232D01*
X15805786Y-48677552D01*
X15823873Y-48697660D01*
X15825223Y-48705958D01*
X15829970Y-48712895D01*
X15834681Y-48764077D01*
X15835096Y-48766623D01*
X15834947Y-48766964D01*
X15834991Y-48767437D01*
X15826500Y-48831933D01*
X15826500Y-49410066D01*
X15841839Y-49526585D01*
X15841840Y-49526587D01*
X15877446Y-49612547D01*
X15884915Y-49682017D01*
X15853640Y-49744496D01*
X15793551Y-49780148D01*
X15762885Y-49784000D01*
X14478000Y-49784000D01*
X14478000Y-51241134D01*
X14458315Y-51308173D01*
X14441681Y-51328815D01*
X14413342Y-51357153D01*
X14413339Y-51357157D01*
X14321795Y-51505571D01*
X14321790Y-51505582D01*
X14266938Y-51671117D01*
X14256500Y-51773279D01*
X14256500Y-52472705D01*
X14256501Y-52472721D01*
X14266938Y-52574882D01*
X14321790Y-52740417D01*
X14321795Y-52740428D01*
X14413339Y-52888842D01*
X14413342Y-52888846D01*
X14422315Y-52897819D01*
X14455800Y-52959142D01*
X14450816Y-53028834D01*
X14422315Y-53073181D01*
X14413342Y-53082153D01*
X14413339Y-53082157D01*
X14321795Y-53230571D01*
X14321790Y-53230582D01*
X14266938Y-53396117D01*
X14256500Y-53498279D01*
X14256500Y-54197705D01*
X14256501Y-54197721D01*
X14266938Y-54299882D01*
X14321790Y-54465417D01*
X14321795Y-54465428D01*
X14413339Y-54613842D01*
X14413342Y-54613846D01*
X14536653Y-54737157D01*
X14536657Y-54737160D01*
X14685071Y-54828704D01*
X14685074Y-54828705D01*
X14685080Y-54828709D01*
X14850619Y-54883562D01*
X14952787Y-54894000D01*
X15527212Y-54893999D01*
X15629381Y-54883562D01*
X15794920Y-54828709D01*
X15936904Y-54741131D01*
X16004295Y-54722691D01*
X16067095Y-54741131D01*
X16209080Y-54828709D01*
X16374619Y-54883562D01*
X16476787Y-54894000D01*
X17051212Y-54893999D01*
X17153381Y-54883562D01*
X17318920Y-54828709D01*
X17460904Y-54741131D01*
X17528295Y-54722691D01*
X17591095Y-54741131D01*
X17733080Y-54828709D01*
X17898619Y-54883562D01*
X18000787Y-54894000D01*
X18575212Y-54893999D01*
X18677381Y-54883562D01*
X18842920Y-54828709D01*
X18980572Y-54743803D01*
X19047963Y-54725363D01*
X19069855Y-54727724D01*
X19214519Y-54756499D01*
X19214520Y-54756500D01*
X19214521Y-54756500D01*
X19393480Y-54756500D01*
X19393481Y-54756499D01*
X19569000Y-54721587D01*
X19734336Y-54653102D01*
X19767567Y-54630897D01*
X19834244Y-54610020D01*
X19836458Y-54610000D01*
X25276000Y-54610000D01*
X25343039Y-54629685D01*
X25388794Y-54682489D01*
X25400000Y-54734000D01*
X25400000Y-58550000D01*
X25380315Y-58617039D01*
X25327511Y-58662794D01*
X25276000Y-58674000D01*
X20190000Y-58674000D01*
X20122961Y-58654315D01*
X20077206Y-58601511D01*
X20066000Y-58550000D01*
X20066000Y-56388000D01*
X13586000Y-56388000D01*
X13518961Y-56368315D01*
X13473206Y-56315511D01*
X13462000Y-56264000D01*
X13462000Y-48638000D01*
X13481685Y-48570961D01*
X13534489Y-48525206D01*
X13586000Y-48514000D01*
X15573457Y-48514000D01*
X15597152Y-48520957D01*
G37*
%TD.AperFunction*%
%TA.AperFunction,Conductor*%
G36*
X47195534Y-29737685D02*
G01*
X47241289Y-29790489D01*
X47246201Y-29802996D01*
X47259688Y-29843698D01*
X47284885Y-29919738D01*
X47377970Y-30070652D01*
X47503348Y-30196030D01*
X47654262Y-30289115D01*
X47822574Y-30344887D01*
X47926455Y-30355500D01*
X50117544Y-30355499D01*
X50221426Y-30344887D01*
X50389738Y-30289115D01*
X50540652Y-30196030D01*
X50666030Y-30070652D01*
X50759115Y-29919738D01*
X50797799Y-29802996D01*
X50837572Y-29745551D01*
X50902087Y-29718728D01*
X50915505Y-29718000D01*
X51436290Y-29718000D01*
X51503329Y-29737685D01*
X51549084Y-29790489D01*
X51560278Y-29843698D01*
X51309675Y-48137698D01*
X51289074Y-48204462D01*
X51235649Y-48249489D01*
X51185687Y-48260000D01*
X46606000Y-48260000D01*
X46538961Y-48240315D01*
X46493206Y-48187511D01*
X46482000Y-48136000D01*
X46482000Y-38462447D01*
X47218500Y-38462447D01*
X47218500Y-40133537D01*
X47218501Y-40133553D01*
X47229113Y-40237427D01*
X47284884Y-40405735D01*
X47284885Y-40405738D01*
X47377970Y-40556652D01*
X47503348Y-40682030D01*
X47654262Y-40775115D01*
X47822574Y-40830887D01*
X47926455Y-40841500D01*
X48085234Y-40841499D01*
X48152273Y-40861183D01*
X48198028Y-40913987D01*
X48207972Y-40983145D01*
X48199795Y-41012951D01*
X48148414Y-41136995D01*
X48148411Y-41137007D01*
X48113500Y-41312516D01*
X48113500Y-41491483D01*
X48148411Y-41666992D01*
X48148413Y-41667000D01*
X48216896Y-41832332D01*
X48216901Y-41832342D01*
X48316321Y-41981134D01*
X48316324Y-41981138D01*
X48442861Y-42107675D01*
X48442865Y-42107678D01*
X48591657Y-42207098D01*
X48591661Y-42207100D01*
X48591664Y-42207102D01*
X48757000Y-42275587D01*
X48932516Y-42310499D01*
X48932520Y-42310500D01*
X48932521Y-42310500D01*
X49111480Y-42310500D01*
X49111481Y-42310499D01*
X49287000Y-42275587D01*
X49452336Y-42207102D01*
X49601135Y-42107678D01*
X49727678Y-41981135D01*
X49827102Y-41832336D01*
X49895587Y-41667000D01*
X49930500Y-41491479D01*
X49930500Y-41312521D01*
X49895587Y-41137000D01*
X49844203Y-41012951D01*
X49836735Y-40943483D01*
X49868010Y-40881003D01*
X49928099Y-40845351D01*
X49958765Y-40841499D01*
X50117537Y-40841499D01*
X50117544Y-40841499D01*
X50221426Y-40830887D01*
X50389738Y-40775115D01*
X50540652Y-40682030D01*
X50666030Y-40556652D01*
X50759115Y-40405738D01*
X50814887Y-40237426D01*
X50825500Y-40133545D01*
X50825499Y-38462456D01*
X50814887Y-38358574D01*
X50759115Y-38190262D01*
X50666030Y-38039348D01*
X50540652Y-37913970D01*
X50389738Y-37820885D01*
X50389735Y-37820884D01*
X50221427Y-37765113D01*
X50117552Y-37754500D01*
X50117545Y-37754500D01*
X50054500Y-37754500D01*
X49987461Y-37734815D01*
X49941706Y-37682011D01*
X49930500Y-37630500D01*
X49930500Y-37502520D01*
X49930499Y-37502516D01*
X49911111Y-37405046D01*
X49895587Y-37327000D01*
X49827102Y-37161664D01*
X49827100Y-37161661D01*
X49827098Y-37161657D01*
X49727678Y-37012865D01*
X49727675Y-37012861D01*
X49601138Y-36886324D01*
X49601134Y-36886321D01*
X49452342Y-36786901D01*
X49452332Y-36786896D01*
X49287000Y-36718413D01*
X49286992Y-36718411D01*
X49111483Y-36683500D01*
X49111479Y-36683500D01*
X48932521Y-36683500D01*
X48932516Y-36683500D01*
X48757007Y-36718411D01*
X48756999Y-36718413D01*
X48591667Y-36786896D01*
X48591657Y-36786901D01*
X48442865Y-36886321D01*
X48442861Y-36886324D01*
X48316324Y-37012861D01*
X48316321Y-37012865D01*
X48216901Y-37161657D01*
X48216896Y-37161667D01*
X48148413Y-37326999D01*
X48148411Y-37327007D01*
X48113500Y-37502516D01*
X48113500Y-37630500D01*
X48093815Y-37697539D01*
X48041011Y-37743294D01*
X47989502Y-37754500D01*
X47926462Y-37754500D01*
X47926446Y-37754501D01*
X47822572Y-37765113D01*
X47654264Y-37820884D01*
X47654259Y-37820886D01*
X47503346Y-37913971D01*
X47377971Y-38039346D01*
X47284886Y-38190259D01*
X47284884Y-38190264D01*
X47229113Y-38358572D01*
X47218500Y-38462447D01*
X46482000Y-38462447D01*
X46482000Y-33782000D01*
X46481999Y-33782000D01*
X46208967Y-33783732D01*
X46141805Y-33764473D01*
X46108915Y-33734045D01*
X46068262Y-33679741D01*
X46068263Y-33679741D01*
X46068261Y-33679739D01*
X45951204Y-33592111D01*
X45814203Y-33541011D01*
X45753654Y-33534500D01*
X45753638Y-33534500D01*
X43316362Y-33534500D01*
X43316345Y-33534500D01*
X43255797Y-33541011D01*
X43255795Y-33541011D01*
X43118795Y-33592111D01*
X43001739Y-33679739D01*
X42945111Y-33755385D01*
X42889177Y-33797256D01*
X42846631Y-33805072D01*
X31750000Y-33875500D01*
X31750000Y-54702926D01*
X31740561Y-54750377D01*
X31720280Y-54799342D01*
X31684519Y-54885675D01*
X31684519Y-54885676D01*
X31669500Y-54999748D01*
X31669500Y-55701246D01*
X31679643Y-55778297D01*
X31679331Y-55784450D01*
X31680526Y-55787835D01*
X31677383Y-55822989D01*
X31674780Y-55834008D01*
X31640210Y-55894726D01*
X31578301Y-55927116D01*
X31554101Y-55929500D01*
X31239748Y-55929500D01*
X31125676Y-55944519D01*
X31125675Y-55944519D01*
X30983733Y-56003313D01*
X30861839Y-56096846D01*
X30860998Y-56097688D01*
X30860114Y-56098170D01*
X30855396Y-56101791D01*
X30854831Y-56101054D01*
X30799672Y-56131168D01*
X30773323Y-56134000D01*
X29153757Y-56134000D01*
X29086718Y-56114315D01*
X29040963Y-56061511D01*
X29030399Y-55997397D01*
X29032712Y-55974756D01*
X29039000Y-55913213D01*
X29038999Y-55338788D01*
X29028562Y-55236619D01*
X28973709Y-55071080D01*
X28973703Y-55071071D01*
X28972712Y-55068944D01*
X28972145Y-55066360D01*
X28971437Y-55064223D01*
X28971660Y-55064149D01*
X28961093Y-55015973D01*
X29057600Y-33832800D01*
X29057599Y-33832799D01*
X29057600Y-33832799D01*
X22348789Y-33798744D01*
X22281850Y-33778720D01*
X22250151Y-33749056D01*
X22198262Y-33679740D01*
X22081204Y-33592111D01*
X21944203Y-33541011D01*
X21883654Y-33534500D01*
X21883638Y-33534500D01*
X19446362Y-33534500D01*
X19446345Y-33534500D01*
X19385797Y-33541011D01*
X19385795Y-33541011D01*
X19248795Y-33592111D01*
X19131738Y-33679740D01*
X19131735Y-33679742D01*
X19078356Y-33751046D01*
X19078336Y-33751075D01*
X19055167Y-33782025D01*
X19050000Y-33782000D01*
X19050000Y-33788929D01*
X19044111Y-33796796D01*
X19037508Y-33814498D01*
X19037504Y-33814505D01*
X18993012Y-33933792D01*
X18993011Y-33933797D01*
X18986500Y-33994345D01*
X18986500Y-35621654D01*
X18993011Y-35682202D01*
X18993012Y-35682207D01*
X19042181Y-35814031D01*
X19043196Y-35819659D01*
X19044977Y-35822430D01*
X19050000Y-35857365D01*
X19050000Y-35944000D01*
X19030315Y-36011039D01*
X18977511Y-36056794D01*
X18926000Y-36068000D01*
X16740237Y-36068000D01*
X16720839Y-36066473D01*
X16601051Y-36047500D01*
X16601046Y-36047500D01*
X15402954Y-36047500D01*
X15402949Y-36047500D01*
X15283161Y-36066473D01*
X15263763Y-36068000D01*
X13586000Y-36068000D01*
X13518961Y-36048315D01*
X13473206Y-35995511D01*
X13462000Y-35944000D01*
X13462000Y-34668000D01*
X13481685Y-34600961D01*
X13534489Y-34555206D01*
X13586000Y-34544000D01*
X14582920Y-34544000D01*
X14626254Y-34551819D01*
X14642792Y-34557987D01*
X14642795Y-34557987D01*
X14642799Y-34557989D01*
X14672270Y-34561157D01*
X14703345Y-34564499D01*
X14703362Y-34564500D01*
X17300638Y-34564500D01*
X17300654Y-34564499D01*
X17327692Y-34561591D01*
X17361201Y-34557989D01*
X17361205Y-34557987D01*
X17361207Y-34557987D01*
X17377746Y-34551819D01*
X17421080Y-34544000D01*
X17780000Y-34544000D01*
X17780000Y-32404125D01*
X17799685Y-32337086D01*
X17816316Y-32316445D01*
X17878895Y-32253868D01*
X18027713Y-32049038D01*
X18142656Y-31823450D01*
X18220894Y-31582658D01*
X18242996Y-31443108D01*
X18260500Y-31332597D01*
X18260500Y-31079402D01*
X18239495Y-30946788D01*
X18220894Y-30829342D01*
X18142656Y-30588550D01*
X18027713Y-30362962D01*
X17878895Y-30158132D01*
X17816319Y-30095556D01*
X17801615Y-30068628D01*
X17785023Y-30042810D01*
X17784131Y-30036609D01*
X17782834Y-30034233D01*
X17780000Y-30007875D01*
X17780000Y-29842000D01*
X17799685Y-29774961D01*
X17852489Y-29729206D01*
X17904000Y-29718000D01*
X47128495Y-29718000D01*
X47195534Y-29737685D01*
G37*
%TD.AperFunction*%
%TA.AperFunction,Conductor*%
G36*
X17215039Y-36595685D02*
G01*
X17260794Y-36648489D01*
X17272000Y-36700000D01*
X17272000Y-37745501D01*
X17252315Y-37812540D01*
X17199511Y-37858295D01*
X17130353Y-37868239D01*
X17109682Y-37863432D01*
X17028659Y-37837106D01*
X16778597Y-37797500D01*
X16778592Y-37797500D01*
X15225408Y-37797500D01*
X15225403Y-37797500D01*
X14975341Y-37837106D01*
X14734547Y-37915345D01*
X14508961Y-38030287D01*
X14445606Y-38076318D01*
X14379799Y-38099798D01*
X14372720Y-38100000D01*
X13970000Y-38100000D01*
X13970000Y-38545529D01*
X13956485Y-38601824D01*
X13861342Y-38788552D01*
X13783106Y-39029340D01*
X13743500Y-39279402D01*
X13743500Y-39532597D01*
X13783106Y-39782658D01*
X13861345Y-40023452D01*
X13956485Y-40210174D01*
X13970000Y-40266469D01*
X13970000Y-40894000D01*
X14706735Y-40894000D01*
X14745053Y-40900069D01*
X14863554Y-40938572D01*
X14975342Y-40974894D01*
X15091160Y-40993237D01*
X15225403Y-41014500D01*
X15225408Y-41014500D01*
X16778597Y-41014500D01*
X16899823Y-40995299D01*
X17028658Y-40974894D01*
X17177245Y-40926615D01*
X17258947Y-40900069D01*
X17297265Y-40894000D01*
X18672000Y-40894000D01*
X18739039Y-40913685D01*
X18784794Y-40966489D01*
X18796000Y-41018000D01*
X18796000Y-45201130D01*
X18776315Y-45268169D01*
X18723511Y-45313924D01*
X18654353Y-45323868D01*
X18647813Y-45322748D01*
X18631482Y-45319500D01*
X18631479Y-45319500D01*
X18452521Y-45319500D01*
X18452516Y-45319500D01*
X18277007Y-45354411D01*
X18276999Y-45354413D01*
X18111667Y-45422896D01*
X18111654Y-45422903D01*
X18102889Y-45428760D01*
X18036212Y-45449637D01*
X17968832Y-45431152D01*
X17965111Y-45428760D01*
X17956345Y-45422903D01*
X17956332Y-45422896D01*
X17791000Y-45354413D01*
X17790992Y-45354411D01*
X17615483Y-45319500D01*
X17615479Y-45319500D01*
X17436521Y-45319500D01*
X17436516Y-45319500D01*
X17261007Y-45354411D01*
X17260999Y-45354413D01*
X17095667Y-45422896D01*
X17095654Y-45422903D01*
X17086889Y-45428760D01*
X17020212Y-45449637D01*
X16952832Y-45431152D01*
X16949111Y-45428760D01*
X16940345Y-45422903D01*
X16940332Y-45422896D01*
X16775000Y-45354413D01*
X16774992Y-45354411D01*
X16599483Y-45319500D01*
X16599479Y-45319500D01*
X16420521Y-45319500D01*
X16420516Y-45319500D01*
X16245007Y-45354411D01*
X16244999Y-45354413D01*
X16079667Y-45422896D01*
X16079654Y-45422903D01*
X16070889Y-45428760D01*
X16004212Y-45449637D01*
X15951003Y-45438685D01*
X15941641Y-45434461D01*
X15924336Y-45422898D01*
X15822779Y-45380831D01*
X15821003Y-45380030D01*
X15795906Y-45358483D01*
X15770143Y-45337721D01*
X15769510Y-45335820D01*
X15767991Y-45334516D01*
X15758525Y-45302814D01*
X15748079Y-45271427D01*
X15748010Y-45267599D01*
X15748001Y-45267567D01*
X15748009Y-45267537D01*
X15748000Y-45267002D01*
X15748000Y-44196000D01*
X13586000Y-44196000D01*
X13518961Y-44176315D01*
X13473206Y-44123511D01*
X13462000Y-44072000D01*
X13462000Y-36700000D01*
X13481685Y-36632961D01*
X13534489Y-36587206D01*
X13586000Y-36576000D01*
X17148000Y-36576000D01*
X17215039Y-36595685D01*
G37*
%TD.AperFunction*%
%TA.AperFunction,Conductor*%
G36*
X25343039Y-59207185D02*
G01*
X25388794Y-59259989D01*
X25400000Y-59311500D01*
X25400000Y-60296913D01*
X25380315Y-60363952D01*
X25327511Y-60409707D01*
X25258353Y-60419651D01*
X25237685Y-60414845D01*
X25208127Y-60405242D01*
X24998246Y-60372000D01*
X24785754Y-60372000D01*
X24575872Y-60405242D01*
X24575869Y-60405242D01*
X24373782Y-60470904D01*
X24184439Y-60567380D01*
X24130282Y-60606727D01*
X24130282Y-60606728D01*
X24762591Y-61239037D01*
X24699007Y-61256075D01*
X24584993Y-61321901D01*
X24491901Y-61414993D01*
X24426075Y-61529007D01*
X24409037Y-61592591D01*
X23776728Y-60960282D01*
X23776727Y-60960282D01*
X23737380Y-61014439D01*
X23640904Y-61203782D01*
X23575242Y-61405869D01*
X23575242Y-61405872D01*
X23542000Y-61615753D01*
X23542000Y-61828246D01*
X23575242Y-62038127D01*
X23575242Y-62038130D01*
X23640904Y-62240217D01*
X23737375Y-62429550D01*
X23776728Y-62483716D01*
X24409037Y-61851408D01*
X24426075Y-61914993D01*
X24491901Y-62029007D01*
X24584993Y-62122099D01*
X24699007Y-62187925D01*
X24762589Y-62204962D01*
X24130282Y-62837269D01*
X24130282Y-62837270D01*
X24184449Y-62876624D01*
X24373782Y-62973095D01*
X24469110Y-63004069D01*
X24526785Y-63043506D01*
X24553984Y-63107865D01*
X24542070Y-63176711D01*
X24494826Y-63228187D01*
X24430792Y-63246000D01*
X20698000Y-63246000D01*
X20630961Y-63226315D01*
X20585206Y-63173511D01*
X20574000Y-63122000D01*
X20574000Y-62000759D01*
X20593685Y-61933720D01*
X20646489Y-61887965D01*
X20715647Y-61878021D01*
X20737004Y-61883053D01*
X20812303Y-61908005D01*
X20812310Y-61908006D01*
X20915014Y-61918499D01*
X20915027Y-61918500D01*
X21340000Y-61918500D01*
X21840000Y-61918500D01*
X22264973Y-61918500D01*
X22264985Y-61918499D01*
X22367689Y-61908006D01*
X22367696Y-61908005D01*
X22534118Y-61852858D01*
X22534123Y-61852856D01*
X22683344Y-61760815D01*
X22807315Y-61636844D01*
X22863482Y-61545784D01*
X22863484Y-61545781D01*
X22899353Y-61487629D01*
X22899358Y-61487618D01*
X22954505Y-61321196D01*
X22954506Y-61321189D01*
X22964999Y-61218485D01*
X22965000Y-61218472D01*
X22965000Y-60956000D01*
X21840000Y-60956000D01*
X21840000Y-61918500D01*
X21340000Y-61918500D01*
X21340000Y-60456000D01*
X21840000Y-60456000D01*
X22965000Y-60456000D01*
X22965000Y-60193527D01*
X22964999Y-60193514D01*
X22954506Y-60090810D01*
X22954505Y-60090803D01*
X22899358Y-59924381D01*
X22899356Y-59924376D01*
X22807315Y-59775155D01*
X22683344Y-59651184D01*
X22534123Y-59559143D01*
X22534118Y-59559141D01*
X22367696Y-59503994D01*
X22367689Y-59503993D01*
X22264985Y-59493500D01*
X21840000Y-59493500D01*
X21840000Y-60456000D01*
X21340000Y-60456000D01*
X21340000Y-59493500D01*
X20915014Y-59493500D01*
X20812310Y-59503993D01*
X20812299Y-59503995D01*
X20737003Y-59528946D01*
X20667175Y-59531347D01*
X20607133Y-59495615D01*
X20575941Y-59433095D01*
X20574000Y-59411240D01*
X20574000Y-59311500D01*
X20593685Y-59244461D01*
X20646489Y-59198706D01*
X20698000Y-59187500D01*
X25276000Y-59187500D01*
X25343039Y-59207185D01*
G37*
%TD.AperFunction*%
%TA.AperFunction,Conductor*%
G36*
X29185039Y-58776185D02*
G01*
X29230794Y-58828989D01*
X29242000Y-58880500D01*
X29242000Y-59611054D01*
X29242000Y-59709926D01*
X29246498Y-59726712D01*
X29265884Y-59799063D01*
X29267591Y-59805431D01*
X29314081Y-59885954D01*
X29314082Y-59885954D01*
X29317026Y-59891053D01*
X29317028Y-59891056D01*
X29384791Y-59958819D01*
X29418276Y-60020142D01*
X29413292Y-60089834D01*
X29371420Y-60145767D01*
X29305956Y-60170184D01*
X29297110Y-60170500D01*
X28558564Y-60170500D01*
X28510812Y-60183295D01*
X28510811Y-60183294D01*
X28463063Y-60196089D01*
X28463062Y-60196089D01*
X28377435Y-60245527D01*
X27958284Y-60664677D01*
X27896961Y-60698162D01*
X27832286Y-60694927D01*
X27689701Y-60648598D01*
X27689699Y-60648597D01*
X27689698Y-60648597D01*
X27558271Y-60627781D01*
X27518611Y-60621500D01*
X27345389Y-60621500D01*
X27305728Y-60627781D01*
X27174302Y-60648597D01*
X27009552Y-60702128D01*
X26855211Y-60780768D01*
X26793260Y-60825779D01*
X26715072Y-60882586D01*
X26715070Y-60882588D01*
X26715069Y-60882588D01*
X26592588Y-61005069D01*
X26592588Y-61005070D01*
X26592586Y-61005072D01*
X26572294Y-61033002D01*
X26490768Y-61145211D01*
X26412128Y-61299552D01*
X26358597Y-61464302D01*
X26331500Y-61635389D01*
X26331500Y-61808610D01*
X26356839Y-61968599D01*
X26358598Y-61979701D01*
X26412127Y-62144445D01*
X26490768Y-62298788D01*
X26592586Y-62438928D01*
X26715072Y-62561414D01*
X26855212Y-62663232D01*
X27009555Y-62741873D01*
X27174299Y-62795402D01*
X27345389Y-62822500D01*
X27345390Y-62822500D01*
X27518610Y-62822500D01*
X27518611Y-62822500D01*
X27689701Y-62795402D01*
X27854445Y-62741873D01*
X28008788Y-62663232D01*
X28148928Y-62561414D01*
X28271414Y-62438928D01*
X28373232Y-62298788D01*
X28451873Y-62144445D01*
X28505402Y-61979701D01*
X28532500Y-61808611D01*
X28532500Y-61635389D01*
X28505402Y-61464299D01*
X28459071Y-61321710D01*
X28457077Y-61251871D01*
X28489319Y-61195717D01*
X28727219Y-60957816D01*
X28754151Y-60943111D01*
X28779964Y-60926523D01*
X28786164Y-60925631D01*
X28788541Y-60924334D01*
X28814899Y-60921500D01*
X28949940Y-60921500D01*
X29016979Y-60941185D01*
X29062734Y-60993989D01*
X29072678Y-61063147D01*
X29050259Y-61118385D01*
X29030767Y-61145212D01*
X28952128Y-61299552D01*
X28898597Y-61464302D01*
X28871500Y-61635389D01*
X28871500Y-61808610D01*
X28896839Y-61968599D01*
X28898598Y-61979701D01*
X28952127Y-62144445D01*
X29030768Y-62298788D01*
X29132586Y-62438928D01*
X29255072Y-62561414D01*
X29395212Y-62663232D01*
X29549555Y-62741873D01*
X29714299Y-62795402D01*
X29885389Y-62822500D01*
X29885390Y-62822500D01*
X30058610Y-62822500D01*
X30058611Y-62822500D01*
X30229701Y-62795402D01*
X30372289Y-62749071D01*
X30442126Y-62747077D01*
X30498285Y-62779322D01*
X30847525Y-63128562D01*
X30917438Y-63198475D01*
X30987264Y-63238789D01*
X31003062Y-63247910D01*
X31034095Y-63256226D01*
X31093755Y-63292591D01*
X31124283Y-63355439D01*
X31115988Y-63424814D01*
X31071501Y-63478692D01*
X31004949Y-63499965D01*
X31002000Y-63500000D01*
X25142129Y-63500000D01*
X25119982Y-63493497D01*
X25096987Y-63491491D01*
X25087091Y-63483838D01*
X25075090Y-63480315D01*
X25059974Y-63462871D01*
X25041714Y-63448751D01*
X25037526Y-63436963D01*
X25029335Y-63427511D01*
X25026049Y-63404664D01*
X25018322Y-63382914D01*
X25020505Y-63366104D01*
X25019391Y-63358353D01*
X25021389Y-63347753D01*
X25022580Y-63342657D01*
X25048050Y-63264272D01*
X25059964Y-63195426D01*
X25059964Y-63195424D01*
X25064136Y-63049326D01*
X25038320Y-62951115D01*
X25040314Y-62881277D01*
X25079751Y-62823601D01*
X25138850Y-62797120D01*
X25149701Y-62795402D01*
X25314445Y-62741873D01*
X25468788Y-62663232D01*
X25608928Y-62561414D01*
X25731414Y-62438928D01*
X25833232Y-62298788D01*
X25911873Y-62144445D01*
X25965402Y-61979701D01*
X25992500Y-61808611D01*
X25992500Y-61635389D01*
X25965402Y-61464299D01*
X25911873Y-61299555D01*
X25833232Y-61145212D01*
X25731414Y-61005072D01*
X25683136Y-60956794D01*
X25649651Y-60895471D01*
X25654635Y-60825779D01*
X25689614Y-60775400D01*
X25716586Y-60752029D01*
X25812297Y-60641574D01*
X25873014Y-60508626D01*
X25892699Y-60441587D01*
X25892700Y-60441583D01*
X25913500Y-60296913D01*
X25913500Y-59311500D01*
X25901764Y-59202343D01*
X25890558Y-59150832D01*
X25869079Y-59086298D01*
X25855891Y-59046674D01*
X25855890Y-59046672D01*
X25826430Y-59000833D01*
X25823878Y-58992143D01*
X25817948Y-58985299D01*
X25814188Y-58959146D01*
X25806744Y-58933794D01*
X25809032Y-58923274D01*
X25808007Y-58916140D01*
X25817949Y-58882283D01*
X25839696Y-58834668D01*
X25842292Y-58828984D01*
X25888048Y-58776182D01*
X25955084Y-58756500D01*
X29118000Y-58756500D01*
X29185039Y-58776185D01*
G37*
%TD.AperFunction*%
%TA.AperFunction,Conductor*%
G36*
X43033834Y-45483717D02*
G01*
X43089767Y-45525589D01*
X43114184Y-45591053D01*
X43114500Y-45599899D01*
X43114500Y-45757678D01*
X43129032Y-45830735D01*
X43129033Y-45830739D01*
X43145405Y-45855242D01*
X43184399Y-45913601D01*
X43259608Y-45963853D01*
X43267260Y-45968966D01*
X43267264Y-45968967D01*
X43340321Y-45983499D01*
X43340324Y-45983500D01*
X43340326Y-45983500D01*
X45729676Y-45983500D01*
X45729677Y-45983499D01*
X45746719Y-45980109D01*
X45814719Y-45966584D01*
X45815272Y-45969365D01*
X45866506Y-45963853D01*
X45928988Y-45995123D01*
X45964646Y-46055209D01*
X45968500Y-46085885D01*
X45968500Y-46390114D01*
X45948815Y-46457153D01*
X45896011Y-46502908D01*
X45826853Y-46512852D01*
X45813293Y-46509132D01*
X45729677Y-46492500D01*
X45729674Y-46492500D01*
X43340326Y-46492500D01*
X43340323Y-46492500D01*
X43267264Y-46507032D01*
X43267260Y-46507033D01*
X43184399Y-46562399D01*
X43129033Y-46645260D01*
X43129032Y-46645264D01*
X43114500Y-46718321D01*
X43114500Y-48297678D01*
X43129032Y-48370735D01*
X43129033Y-48370739D01*
X43129238Y-48371046D01*
X43184399Y-48453601D01*
X43243853Y-48493326D01*
X43267260Y-48508966D01*
X43267264Y-48508967D01*
X43340321Y-48523499D01*
X43340324Y-48523500D01*
X43340326Y-48523500D01*
X45729676Y-48523500D01*
X45729677Y-48523499D01*
X45802740Y-48508966D01*
X45885601Y-48453601D01*
X45885601Y-48453599D01*
X45895756Y-48446815D01*
X45896946Y-48448596D01*
X45944292Y-48422739D01*
X46013984Y-48427718D01*
X46069921Y-48469584D01*
X46074974Y-48476862D01*
X46105125Y-48523777D01*
X46105134Y-48523788D01*
X46150879Y-48576581D01*
X46150882Y-48576584D01*
X46261335Y-48672294D01*
X46261341Y-48672298D01*
X46297569Y-48688843D01*
X46394287Y-48733014D01*
X46461326Y-48752699D01*
X46461330Y-48752700D01*
X46606000Y-48773500D01*
X46606003Y-48773500D01*
X51185681Y-48773500D01*
X51185687Y-48773500D01*
X51291403Y-48762500D01*
X51341365Y-48751989D01*
X51442548Y-48719462D01*
X51530478Y-48664640D01*
X51570333Y-48639792D01*
X51571248Y-48641259D01*
X51630190Y-48620152D01*
X51698262Y-48635898D01*
X51747015Y-48685947D01*
X51761413Y-48743894D01*
X51765496Y-59589503D01*
X51765366Y-59595226D01*
X51749056Y-59951143D01*
X51748003Y-59962551D01*
X51699309Y-60312605D01*
X51697208Y-60323868D01*
X51616412Y-60667937D01*
X51613281Y-60678957D01*
X51501074Y-61014107D01*
X51496939Y-61024791D01*
X51354279Y-61348156D01*
X51349175Y-61358413D01*
X51177287Y-61667216D01*
X51171259Y-61676958D01*
X50971591Y-61968599D01*
X50964689Y-61977744D01*
X50738967Y-62249700D01*
X50731250Y-62258168D01*
X50481387Y-62508135D01*
X50472923Y-62515855D01*
X50201050Y-62741701D01*
X50191916Y-62748600D01*
X49900369Y-62948383D01*
X49890635Y-62954412D01*
X49581886Y-63126438D01*
X49571632Y-63131546D01*
X49248333Y-63274340D01*
X49237650Y-63278480D01*
X48902548Y-63390827D01*
X48891529Y-63393963D01*
X48547484Y-63474904D01*
X48536223Y-63477009D01*
X48379980Y-63498810D01*
X48362844Y-63500000D01*
X39803744Y-63500000D01*
X39736705Y-63480315D01*
X39690950Y-63427511D01*
X39681006Y-63358353D01*
X39710031Y-63294797D01*
X39716063Y-63288319D01*
X39836676Y-63167707D01*
X40178474Y-62825909D01*
X40178475Y-62825908D01*
X40227910Y-62740284D01*
X40241768Y-62688564D01*
X40253500Y-62644782D01*
X40253500Y-62545910D01*
X40253500Y-59894565D01*
X40253498Y-59894561D01*
X40252527Y-59887181D01*
X40263291Y-59818146D01*
X40309669Y-59765888D01*
X40328014Y-59756431D01*
X40399764Y-59726711D01*
X46409500Y-59726711D01*
X46409500Y-59969288D01*
X46439358Y-60196090D01*
X46441162Y-60209789D01*
X46459873Y-60279619D01*
X46503947Y-60444104D01*
X46595312Y-60664677D01*
X46596776Y-60668212D01*
X46718064Y-60878289D01*
X46718066Y-60878292D01*
X46718067Y-60878293D01*
X46865733Y-61070736D01*
X46865739Y-61070743D01*
X47037256Y-61242260D01*
X47037263Y-61242266D01*
X47091045Y-61283534D01*
X47229711Y-61389936D01*
X47439788Y-61511224D01*
X47663900Y-61604054D01*
X47898211Y-61666838D01*
X48078586Y-61690584D01*
X48138711Y-61698500D01*
X48138712Y-61698500D01*
X48381289Y-61698500D01*
X48429388Y-61692167D01*
X48621789Y-61666838D01*
X48856100Y-61604054D01*
X49080212Y-61511224D01*
X49290289Y-61389936D01*
X49482738Y-61242265D01*
X49654265Y-61070738D01*
X49801936Y-60878289D01*
X49923224Y-60668212D01*
X50016054Y-60444100D01*
X50078838Y-60209789D01*
X50110500Y-59969288D01*
X50110500Y-59726712D01*
X50109809Y-59721467D01*
X50096490Y-59620295D01*
X50078838Y-59486211D01*
X50016054Y-59251900D01*
X49923224Y-59027788D01*
X49801936Y-58817711D01*
X49680278Y-58659163D01*
X49654266Y-58625263D01*
X49654260Y-58625256D01*
X49482743Y-58453739D01*
X49482736Y-58453733D01*
X49290293Y-58306067D01*
X49290292Y-58306066D01*
X49290289Y-58306064D01*
X49080212Y-58184776D01*
X49080205Y-58184773D01*
X48856104Y-58091947D01*
X48621785Y-58029161D01*
X48381289Y-57997500D01*
X48381288Y-57997500D01*
X48138712Y-57997500D01*
X48138711Y-57997500D01*
X47898214Y-58029161D01*
X47663895Y-58091947D01*
X47439794Y-58184773D01*
X47439785Y-58184777D01*
X47229706Y-58306067D01*
X47037263Y-58453733D01*
X47037256Y-58453739D01*
X46865739Y-58625256D01*
X46865733Y-58625263D01*
X46718067Y-58817706D01*
X46596777Y-59027785D01*
X46596773Y-59027794D01*
X46503947Y-59251895D01*
X46441161Y-59486214D01*
X46409500Y-59726711D01*
X40399764Y-59726711D01*
X40412424Y-59721467D01*
X40412424Y-59721466D01*
X40412431Y-59721464D01*
X40518973Y-59650275D01*
X40518976Y-59650272D01*
X40534277Y-59634972D01*
X40609577Y-59559671D01*
X40609580Y-59559668D01*
X40680769Y-59453126D01*
X40729805Y-59334743D01*
X40740060Y-59283189D01*
X40754804Y-59209070D01*
X40754804Y-59146807D01*
X40774489Y-59079768D01*
X40827293Y-59034013D01*
X40896451Y-59024069D01*
X40926251Y-59032244D01*
X40958256Y-59045501D01*
X40958260Y-59045501D01*
X40958261Y-59045502D01*
X41083928Y-59070500D01*
X41083931Y-59070500D01*
X41212071Y-59070500D01*
X41296615Y-59053682D01*
X41337744Y-59045501D01*
X41456127Y-58996465D01*
X41562669Y-58925276D01*
X41653276Y-58834669D01*
X41724465Y-58728127D01*
X41773501Y-58609744D01*
X41794814Y-58502601D01*
X41798500Y-58484071D01*
X41798500Y-58355928D01*
X41773502Y-58230261D01*
X41773501Y-58230260D01*
X41773501Y-58230256D01*
X41724465Y-58111873D01*
X41698218Y-58072592D01*
X41677341Y-58005916D01*
X41695825Y-57938536D01*
X41727012Y-57904433D01*
X41734116Y-57899116D01*
X41818212Y-57786778D01*
X41867251Y-57655299D01*
X41870640Y-57623778D01*
X41873499Y-57597190D01*
X41873500Y-57597173D01*
X41873500Y-57003826D01*
X41873499Y-57003809D01*
X41867251Y-56945700D01*
X41846626Y-56890404D01*
X41818212Y-56814222D01*
X41813330Y-56807701D01*
X41764243Y-56742129D01*
X41734116Y-56701884D01*
X41657540Y-56644559D01*
X41621780Y-56617789D01*
X41621778Y-56617788D01*
X41579988Y-56602201D01*
X41490299Y-56568748D01*
X41432190Y-56562500D01*
X41432174Y-56562500D01*
X40863826Y-56562500D01*
X40863809Y-56562500D01*
X40805700Y-56568748D01*
X40674219Y-56617789D01*
X40605328Y-56669362D01*
X40561884Y-56701884D01*
X40561883Y-56701885D01*
X40561882Y-56701886D01*
X40485266Y-56804231D01*
X40429332Y-56846102D01*
X40359641Y-56851086D01*
X40298318Y-56817600D01*
X40286734Y-56804231D01*
X40218063Y-56712500D01*
X40210116Y-56701884D01*
X40116438Y-56631757D01*
X40097780Y-56617789D01*
X40097778Y-56617788D01*
X40055988Y-56602201D01*
X39966299Y-56568748D01*
X39908190Y-56562500D01*
X39908174Y-56562500D01*
X39339826Y-56562500D01*
X39339809Y-56562500D01*
X39281700Y-56568748D01*
X39150219Y-56617789D01*
X39081328Y-56669362D01*
X39037884Y-56701884D01*
X39037883Y-56701885D01*
X39037882Y-56701886D01*
X38961266Y-56804231D01*
X38905332Y-56846102D01*
X38835641Y-56851086D01*
X38774318Y-56817600D01*
X38762734Y-56804231D01*
X38694063Y-56712500D01*
X38686116Y-56701884D01*
X38573778Y-56617788D01*
X38573775Y-56617786D01*
X38531990Y-56602201D01*
X38476057Y-56560329D01*
X38466209Y-56544924D01*
X38459310Y-56532144D01*
X38449910Y-56497062D01*
X38400475Y-56411438D01*
X38386730Y-56397693D01*
X38378118Y-56381739D01*
X38374472Y-56364584D01*
X38366068Y-56349193D01*
X38367360Y-56331118D01*
X38363594Y-56313395D01*
X38369800Y-56296994D01*
X38371052Y-56279501D01*
X38381911Y-56264994D01*
X38388325Y-56248049D01*
X38402414Y-56237606D01*
X38412924Y-56223568D01*
X38443898Y-56206654D01*
X38573778Y-56158212D01*
X38686116Y-56074116D01*
X38762734Y-55971767D01*
X38818667Y-55929897D01*
X38888359Y-55924913D01*
X38949682Y-55958398D01*
X38961263Y-55971763D01*
X39037884Y-56074116D01*
X39150222Y-56158212D01*
X39242594Y-56192665D01*
X39281700Y-56207251D01*
X39339809Y-56213499D01*
X39339826Y-56213500D01*
X39908174Y-56213500D01*
X39908190Y-56213499D01*
X39966299Y-56207251D01*
X39982686Y-56201139D01*
X40097778Y-56158212D01*
X40210116Y-56074116D01*
X40286734Y-55971767D01*
X40342667Y-55929897D01*
X40412359Y-55924913D01*
X40473682Y-55958398D01*
X40485263Y-55971763D01*
X40561884Y-56074116D01*
X40674222Y-56158212D01*
X40766594Y-56192665D01*
X40805700Y-56207251D01*
X40863809Y-56213499D01*
X40863826Y-56213500D01*
X41432174Y-56213500D01*
X41432190Y-56213499D01*
X41490299Y-56207251D01*
X41506686Y-56201139D01*
X41621778Y-56158212D01*
X41734116Y-56074116D01*
X41818212Y-55961778D01*
X41867251Y-55830299D01*
X41873499Y-55772190D01*
X41873500Y-55772173D01*
X41873500Y-55178826D01*
X41873499Y-55178809D01*
X41870291Y-55148984D01*
X41867251Y-55120701D01*
X41830110Y-55021124D01*
X41825126Y-54951434D01*
X41858610Y-54890111D01*
X41919933Y-54856625D01*
X41934149Y-54854387D01*
X41937056Y-54854100D01*
X41937069Y-54854100D01*
X42062744Y-54829101D01*
X42181127Y-54780065D01*
X42287669Y-54708876D01*
X42378276Y-54618269D01*
X42449465Y-54511727D01*
X42498501Y-54393344D01*
X42507877Y-54346211D01*
X42523500Y-54267671D01*
X42523500Y-54139530D01*
X42515694Y-54100290D01*
X42517535Y-54044005D01*
X42539500Y-53962035D01*
X42539500Y-50293365D01*
X42539500Y-45926899D01*
X42559185Y-45859860D01*
X42575819Y-45839218D01*
X42902819Y-45512218D01*
X42964142Y-45478733D01*
X43033834Y-45483717D01*
G37*
%TD.AperFunction*%
%TA.AperFunction,Conductor*%
G36*
X34473140Y-60941185D02*
G01*
X34518895Y-60993989D01*
X34527791Y-61028339D01*
X34528738Y-61028190D01*
X34544817Y-61129713D01*
X34544817Y-61129714D01*
X34552714Y-61145212D01*
X34604211Y-61246281D01*
X34604213Y-61246283D01*
X34604215Y-61246286D01*
X34696713Y-61338784D01*
X34696716Y-61338786D01*
X34696719Y-61338789D01*
X34813285Y-61398182D01*
X34813286Y-61398182D01*
X34813288Y-61398183D01*
X34813287Y-61398183D01*
X34856618Y-61405045D01*
X34909997Y-61413500D01*
X36210002Y-61413499D01*
X36210007Y-61413499D01*
X36210007Y-61413498D01*
X36306715Y-61398182D01*
X36423281Y-61338789D01*
X36515789Y-61246281D01*
X36544016Y-61190881D01*
X36591989Y-61140087D01*
X36659810Y-61123291D01*
X36725945Y-61145828D01*
X36769397Y-61200543D01*
X36778500Y-61247177D01*
X36778500Y-62328821D01*
X36758815Y-62395860D01*
X36706011Y-62441615D01*
X36636853Y-62451559D01*
X36573297Y-62422534D01*
X36544016Y-62385116D01*
X36515791Y-62329722D01*
X36515784Y-62329713D01*
X36423286Y-62237215D01*
X36423282Y-62237212D01*
X36423281Y-62237211D01*
X36306715Y-62177818D01*
X36306714Y-62177817D01*
X36306711Y-62177816D01*
X36306712Y-62177816D01*
X36210003Y-62162500D01*
X34909992Y-62162500D01*
X34909992Y-62162501D01*
X34813286Y-62177817D01*
X34813285Y-62177817D01*
X34738501Y-62215922D01*
X34696719Y-62237211D01*
X34696718Y-62237212D01*
X34696713Y-62237215D01*
X34604215Y-62329713D01*
X34604212Y-62329718D01*
X34604211Y-62329719D01*
X34544818Y-62446285D01*
X34540482Y-62454795D01*
X34492507Y-62505591D01*
X34429997Y-62522500D01*
X31354899Y-62522500D01*
X31287860Y-62502815D01*
X31267218Y-62486181D01*
X31029322Y-62248285D01*
X30995837Y-62186962D01*
X30999071Y-62122289D01*
X31045402Y-61979701D01*
X31072500Y-61808611D01*
X31072500Y-61635389D01*
X31045402Y-61464299D01*
X30991873Y-61299555D01*
X30913232Y-61145212D01*
X30893741Y-61118385D01*
X30870262Y-61052578D01*
X30886088Y-60984525D01*
X30936194Y-60935830D01*
X30994060Y-60921500D01*
X34406101Y-60921500D01*
X34473140Y-60941185D01*
G37*
%TD.AperFunction*%
%TA.AperFunction,Conductor*%
G36*
X22227243Y-34294520D02*
G01*
X22346182Y-34312237D01*
X28417834Y-34343056D01*
X28484770Y-34363080D01*
X28530256Y-34416116D01*
X28541201Y-34467619D01*
X28462055Y-51840226D01*
X28448324Y-54854387D01*
X28447598Y-55013643D01*
X28459515Y-55125983D01*
X28459517Y-55125996D01*
X28459574Y-55126254D01*
X28466570Y-55158152D01*
X28468827Y-55168434D01*
X28468829Y-55168445D01*
X28474509Y-55194343D01*
X28474347Y-55196660D01*
X28476702Y-55205236D01*
X28479883Y-55213314D01*
X28482597Y-55221504D01*
X28482599Y-55221512D01*
X28500846Y-55276590D01*
X28500855Y-55276606D01*
X28519164Y-55331862D01*
X28524782Y-55357947D01*
X28524824Y-55358348D01*
X28525499Y-55371265D01*
X28525499Y-55880729D01*
X28524857Y-55893331D01*
X28519558Y-55945202D01*
X28519557Y-55945214D01*
X28523730Y-56080882D01*
X28534293Y-56144983D01*
X28534295Y-56144995D01*
X28573867Y-56274828D01*
X28652885Y-56397781D01*
X28652891Y-56397788D01*
X28698636Y-56450581D01*
X28698639Y-56450584D01*
X28698641Y-56450586D01*
X28726657Y-56474862D01*
X28809092Y-56546294D01*
X28809093Y-56546295D01*
X28809096Y-56546297D01*
X28809098Y-56546298D01*
X28809100Y-56546299D01*
X28896035Y-56586002D01*
X28948839Y-56631757D01*
X28968523Y-56698797D01*
X28960705Y-56742129D01*
X28936249Y-56807698D01*
X28936249Y-56807699D01*
X28930000Y-56865809D01*
X28930000Y-57434190D01*
X28936248Y-57492299D01*
X28985289Y-57623780D01*
X29009597Y-57656251D01*
X29069384Y-57736116D01*
X29130989Y-57782233D01*
X29172860Y-57838167D01*
X29177844Y-57907859D01*
X29144359Y-57969182D01*
X29083035Y-58002666D01*
X29056678Y-58005500D01*
X26037500Y-58005500D01*
X25970461Y-57985815D01*
X25924706Y-57933011D01*
X25913500Y-57881500D01*
X25913500Y-54734010D01*
X25913500Y-54734000D01*
X25901764Y-54624843D01*
X25890558Y-54573332D01*
X25868741Y-54507782D01*
X25855893Y-54469179D01*
X25855890Y-54469173D01*
X25776871Y-54346218D01*
X25776865Y-54346211D01*
X25731120Y-54293418D01*
X25731117Y-54293415D01*
X25620664Y-54197705D01*
X25620658Y-54197701D01*
X25487716Y-54136987D01*
X25420671Y-54117300D01*
X25372446Y-54110366D01*
X25276000Y-54096500D01*
X19836458Y-54096500D01*
X19831820Y-54096521D01*
X19829606Y-54096541D01*
X19825415Y-54096597D01*
X19825082Y-54096602D01*
X19680802Y-54119980D01*
X19623382Y-54137958D01*
X19623370Y-54137963D01*
X19614132Y-54140856D01*
X19614118Y-54140860D01*
X19519470Y-54186144D01*
X19518816Y-54186448D01*
X19518699Y-54186465D01*
X19514104Y-54188515D01*
X19430496Y-54223147D01*
X19407235Y-54230203D01*
X19370107Y-54237588D01*
X19354880Y-54240617D01*
X19330690Y-54243000D01*
X19277312Y-54243000D01*
X19253121Y-54240617D01*
X19170038Y-54224091D01*
X19170033Y-54224090D01*
X19170032Y-54224090D01*
X19167532Y-54223707D01*
X19124911Y-54217182D01*
X19103021Y-54214822D01*
X19057471Y-54211950D01*
X19057459Y-54211951D01*
X18912442Y-54230069D01*
X18912440Y-54230069D01*
X18845067Y-54248504D01*
X18845065Y-54248504D01*
X18845046Y-54248510D01*
X18845044Y-54248511D01*
X18710994Y-54306756D01*
X18632151Y-54355387D01*
X18627301Y-54357822D01*
X18624252Y-54358375D01*
X18610671Y-54364709D01*
X18582132Y-54374165D01*
X18555838Y-54379805D01*
X18555440Y-54379846D01*
X18542733Y-54380499D01*
X18033267Y-54380499D01*
X18020382Y-54379828D01*
X18019980Y-54379786D01*
X17993863Y-54374164D01*
X17976890Y-54368540D01*
X17965329Y-54364709D01*
X17939237Y-54352542D01*
X17871477Y-54310748D01*
X17860671Y-54304083D01*
X17860670Y-54304082D01*
X17735772Y-54248434D01*
X17735770Y-54248433D01*
X17735767Y-54248432D01*
X17705925Y-54239669D01*
X17672969Y-54229992D01*
X17672964Y-54229991D01*
X17594716Y-54218000D01*
X17531432Y-54188387D01*
X17494204Y-54129262D01*
X17489500Y-54095431D01*
X17489500Y-53704899D01*
X17509185Y-53637860D01*
X17525819Y-53617218D01*
X17745718Y-53397319D01*
X17807041Y-53363834D01*
X17833399Y-53361000D01*
X18945935Y-53361000D01*
X18945936Y-53361000D01*
X18993686Y-53348205D01*
X19041438Y-53335410D01*
X19127062Y-53285975D01*
X19158008Y-53255028D01*
X19173795Y-53246452D01*
X19191093Y-53242727D01*
X19206627Y-53234245D01*
X19231523Y-53234022D01*
X19242099Y-53231746D01*
X19247777Y-53233877D01*
X19257178Y-53233794D01*
X19282455Y-53238822D01*
X19282456Y-53238822D01*
X19410595Y-53238822D01*
X19495139Y-53222004D01*
X19536268Y-53213823D01*
X19654651Y-53164787D01*
X19761193Y-53093598D01*
X19851800Y-53002991D01*
X19922989Y-52896449D01*
X19972025Y-52778066D01*
X19995654Y-52659278D01*
X19997024Y-52652393D01*
X19997024Y-52524250D01*
X19972026Y-52398583D01*
X19972025Y-52398582D01*
X19972025Y-52398578D01*
X19922989Y-52280195D01*
X19922988Y-52280194D01*
X19922985Y-52280188D01*
X19851800Y-52173653D01*
X19851797Y-52173649D01*
X19761196Y-52083048D01*
X19761192Y-52083045D01*
X19654657Y-52011860D01*
X19654648Y-52011855D01*
X19536268Y-51962821D01*
X19536262Y-51962819D01*
X19410595Y-51937822D01*
X19410593Y-51937822D01*
X19282455Y-51937822D01*
X19282452Y-51937822D01*
X19161691Y-51961843D01*
X19092100Y-51955616D01*
X19036922Y-51912753D01*
X19013678Y-51846863D01*
X19013500Y-51840226D01*
X19013500Y-51776326D01*
X19013499Y-51776309D01*
X19007251Y-51718200D01*
X18992665Y-51679094D01*
X18958212Y-51586722D01*
X18874116Y-51474384D01*
X18806612Y-51423851D01*
X18761780Y-51390289D01*
X18761778Y-51390288D01*
X18735144Y-51380354D01*
X18630299Y-51341248D01*
X18572190Y-51335000D01*
X18572174Y-51335000D01*
X18003826Y-51335000D01*
X18003809Y-51335000D01*
X17945700Y-51341248D01*
X17814219Y-51390289D01*
X17734184Y-51450204D01*
X17701884Y-51474384D01*
X17701883Y-51474385D01*
X17701882Y-51474386D01*
X17625266Y-51576731D01*
X17569332Y-51618602D01*
X17499641Y-51623586D01*
X17438318Y-51590100D01*
X17426734Y-51576731D01*
X17350117Y-51474386D01*
X17350118Y-51474386D01*
X17350116Y-51474384D01*
X17237778Y-51390288D01*
X17169970Y-51364996D01*
X17114037Y-51323124D01*
X17089621Y-51257659D01*
X17104474Y-51189387D01*
X17153880Y-51139982D01*
X17178618Y-51129765D01*
X17186315Y-51127520D01*
X17186330Y-51127519D01*
X17294359Y-51077144D01*
X17378644Y-50992859D01*
X17429019Y-50884830D01*
X17435500Y-50835603D01*
X17435499Y-50256398D01*
X17429019Y-50207170D01*
X17378644Y-50099141D01*
X17294359Y-50014856D01*
X17186330Y-49964481D01*
X17186328Y-49964480D01*
X17137113Y-49958001D01*
X17137108Y-49958000D01*
X17137103Y-49958000D01*
X17137096Y-49958000D01*
X16882895Y-49958000D01*
X16833674Y-49964480D01*
X16833668Y-49964481D01*
X16812403Y-49974398D01*
X16743325Y-49984889D01*
X16707596Y-49974397D01*
X16686330Y-49964481D01*
X16686328Y-49964480D01*
X16637113Y-49958001D01*
X16637108Y-49958000D01*
X16637103Y-49958000D01*
X16637096Y-49958000D01*
X16500703Y-49958000D01*
X16473259Y-49949941D01*
X16445115Y-49944842D01*
X16440161Y-49940222D01*
X16433664Y-49938315D01*
X16414935Y-49916701D01*
X16394014Y-49897193D01*
X16392343Y-49890629D01*
X16387909Y-49885511D01*
X16383838Y-49857202D01*
X16376785Y-49829481D01*
X16378495Y-49820041D01*
X16377965Y-49816353D01*
X16383075Y-49794762D01*
X16383412Y-49793751D01*
X16423303Y-49736389D01*
X16487875Y-49709700D01*
X16501037Y-49708999D01*
X16637104Y-49708999D01*
X16651167Y-49707147D01*
X16686330Y-49702519D01*
X16794359Y-49652144D01*
X16878644Y-49567859D01*
X16929019Y-49459830D01*
X16935500Y-49410603D01*
X16935500Y-49258321D01*
X19244500Y-49258321D01*
X19244500Y-50837678D01*
X19259032Y-50910735D01*
X19259033Y-50910739D01*
X19269489Y-50926387D01*
X19314399Y-50993601D01*
X19392073Y-51045500D01*
X19397260Y-51048966D01*
X19397264Y-51048967D01*
X19470321Y-51063499D01*
X19470324Y-51063500D01*
X19470326Y-51063500D01*
X21859676Y-51063500D01*
X21859677Y-51063499D01*
X21932740Y-51048966D01*
X22015601Y-50993601D01*
X22070966Y-50910740D01*
X22085500Y-50837674D01*
X22085500Y-49258326D01*
X22085500Y-49258323D01*
X22085499Y-49258321D01*
X22070967Y-49185264D01*
X22070966Y-49185260D01*
X22015601Y-49102399D01*
X21932740Y-49047034D01*
X21932739Y-49047033D01*
X21932735Y-49047032D01*
X21859677Y-49032500D01*
X21859674Y-49032500D01*
X19470326Y-49032500D01*
X19470323Y-49032500D01*
X19397264Y-49047032D01*
X19397260Y-49047033D01*
X19314399Y-49102399D01*
X19259033Y-49185260D01*
X19259032Y-49185264D01*
X19244500Y-49258321D01*
X16935500Y-49258321D01*
X16935499Y-49102399D01*
X16935499Y-48831395D01*
X16932721Y-48810300D01*
X16929019Y-48782170D01*
X16916053Y-48754365D01*
X16912656Y-48732001D01*
X16904752Y-48710807D01*
X16907511Y-48698123D01*
X16905562Y-48685291D01*
X16914794Y-48664640D01*
X16919604Y-48642534D01*
X16932205Y-48625700D01*
X16934081Y-48621506D01*
X16940730Y-48614306D01*
X17004720Y-48550316D01*
X17066042Y-48516834D01*
X17092399Y-48514000D01*
X18394863Y-48514000D01*
X18394872Y-48514000D01*
X18454482Y-48507591D01*
X18589330Y-48457296D01*
X18704546Y-48371046D01*
X18790796Y-48255830D01*
X18841091Y-48120982D01*
X18847500Y-48061372D01*
X18847500Y-47040628D01*
X18841091Y-46981018D01*
X18790796Y-46846170D01*
X18704546Y-46730954D01*
X18589330Y-46644704D01*
X18589328Y-46644703D01*
X18589327Y-46644702D01*
X18454481Y-46594408D01*
X18454482Y-46594408D01*
X18394882Y-46588001D01*
X18394880Y-46588000D01*
X18394872Y-46588000D01*
X16149128Y-46588000D01*
X16149120Y-46588000D01*
X16149117Y-46588001D01*
X16089518Y-46594408D01*
X15954672Y-46644702D01*
X15954670Y-46644704D01*
X15839454Y-46730954D01*
X15753204Y-46846170D01*
X15753202Y-46846172D01*
X15702908Y-46981018D01*
X15696501Y-47040617D01*
X15696500Y-47040636D01*
X15696500Y-47876500D01*
X15676815Y-47943539D01*
X15624011Y-47989294D01*
X15572500Y-48000500D01*
X13586000Y-48000500D01*
X13487753Y-48011062D01*
X13418995Y-47998657D01*
X13367858Y-47951046D01*
X13350500Y-47887773D01*
X13350500Y-44818744D01*
X13370185Y-44751705D01*
X13422989Y-44705950D01*
X13492146Y-44696006D01*
X13586000Y-44709500D01*
X15110500Y-44709500D01*
X15177539Y-44729185D01*
X15223294Y-44781989D01*
X15234500Y-44833500D01*
X15234500Y-45267002D01*
X15234573Y-45275639D01*
X15234582Y-45276174D01*
X15234614Y-45276173D01*
X15234616Y-45276852D01*
X15234593Y-45276853D01*
X15234619Y-45278332D01*
X15234620Y-45278474D01*
X15235012Y-45301778D01*
X15237779Y-45306647D01*
X15239107Y-45313038D01*
X15246851Y-45355962D01*
X15247752Y-45361734D01*
X15253679Y-45406594D01*
X15253680Y-45406599D01*
X15258501Y-45423738D01*
X15260110Y-45429459D01*
X15260854Y-45433582D01*
X15263540Y-45441655D01*
X15264331Y-45444465D01*
X15265247Y-45447721D01*
X15266611Y-45450901D01*
X15268211Y-45455708D01*
X15269370Y-45459381D01*
X15275150Y-45478733D01*
X15275957Y-45481434D01*
X15275964Y-45481457D01*
X15275966Y-45481462D01*
X15275967Y-45481464D01*
X15275993Y-45481521D01*
X15281087Y-45494377D01*
X15282941Y-45499946D01*
X15302567Y-45539149D01*
X15304240Y-45542625D01*
X15337295Y-45614129D01*
X15342122Y-45621564D01*
X15341613Y-45621894D01*
X15342785Y-45623639D01*
X15343283Y-45623294D01*
X15348335Y-45630570D01*
X15348337Y-45630573D01*
X15403503Y-45689828D01*
X15433514Y-45724141D01*
X15435033Y-45725445D01*
X15435814Y-45724534D01*
X15445506Y-45734943D01*
X15447874Y-45737487D01*
X15447875Y-45737488D01*
X15447926Y-45737543D01*
X15447935Y-45737552D01*
X15465978Y-45752091D01*
X15468953Y-45754566D01*
X15486385Y-45769534D01*
X15486562Y-45769685D01*
X15486567Y-45769689D01*
X15584757Y-45832141D01*
X15609886Y-45848124D01*
X15611662Y-45848925D01*
X15626268Y-45855242D01*
X15694566Y-45883532D01*
X15707264Y-45889660D01*
X15730440Y-45902516D01*
X15730467Y-45902530D01*
X15735658Y-45904871D01*
X15739819Y-45906749D01*
X15847480Y-45941641D01*
X15847485Y-45941642D01*
X15847489Y-45941643D01*
X15863022Y-45944840D01*
X15900689Y-45952593D01*
X15997003Y-45961535D01*
X16013369Y-45963055D01*
X16013369Y-45963054D01*
X16013371Y-45963055D01*
X16157647Y-45939678D01*
X16224324Y-45918801D01*
X16224346Y-45918794D01*
X16225505Y-45918334D01*
X16228689Y-45916915D01*
X16276160Y-45897270D01*
X16276176Y-45897308D01*
X16383538Y-45852836D01*
X16383562Y-45852833D01*
X16406761Y-45845795D01*
X16433408Y-45840495D01*
X16459117Y-45835382D01*
X16483306Y-45833000D01*
X16536693Y-45833000D01*
X16560882Y-45835381D01*
X16613236Y-45845795D01*
X16636498Y-45852852D01*
X16653417Y-45859860D01*
X16743823Y-45897308D01*
X16743823Y-45897307D01*
X16780011Y-45912297D01*
X16795408Y-45916966D01*
X16816978Y-45926355D01*
X16884358Y-45944840D01*
X17029371Y-45963055D01*
X17173647Y-45939678D01*
X17240324Y-45918801D01*
X17240346Y-45918794D01*
X17241505Y-45918334D01*
X17244689Y-45916915D01*
X17292160Y-45897270D01*
X17292176Y-45897308D01*
X17399538Y-45852836D01*
X17399562Y-45852833D01*
X17422761Y-45845795D01*
X17449408Y-45840495D01*
X17475117Y-45835382D01*
X17499306Y-45833000D01*
X17552693Y-45833000D01*
X17576882Y-45835381D01*
X17629236Y-45845795D01*
X17652498Y-45852852D01*
X17669417Y-45859860D01*
X17759823Y-45897308D01*
X17759823Y-45897307D01*
X17796011Y-45912297D01*
X17811408Y-45916966D01*
X17832978Y-45926355D01*
X17900358Y-45944840D01*
X18045371Y-45963055D01*
X18189647Y-45939678D01*
X18256324Y-45918801D01*
X18256346Y-45918794D01*
X18257505Y-45918334D01*
X18260689Y-45916915D01*
X18308160Y-45897270D01*
X18308176Y-45897308D01*
X18415538Y-45852836D01*
X18415562Y-45852833D01*
X18438761Y-45845795D01*
X18465408Y-45840495D01*
X18491117Y-45835382D01*
X18515306Y-45833000D01*
X18675711Y-45833000D01*
X18683700Y-45832141D01*
X18727433Y-45832141D01*
X18727436Y-45832141D01*
X18796594Y-45822197D01*
X18936827Y-45781020D01*
X19059782Y-45702001D01*
X19059784Y-45701998D01*
X19060601Y-45701474D01*
X19127640Y-45681789D01*
X19194680Y-45701473D01*
X19240435Y-45754277D01*
X19249258Y-45781597D01*
X19259032Y-45830736D01*
X19259033Y-45830739D01*
X19275405Y-45855242D01*
X19314399Y-45913601D01*
X19389608Y-45963853D01*
X19397260Y-45968966D01*
X19397264Y-45968967D01*
X19470321Y-45983499D01*
X19470324Y-45983500D01*
X19470326Y-45983500D01*
X21859676Y-45983500D01*
X21859677Y-45983499D01*
X21932740Y-45968966D01*
X22015601Y-45913601D01*
X22070966Y-45830740D01*
X22085500Y-45757674D01*
X22085500Y-44178326D01*
X22085500Y-44178323D01*
X22085499Y-44178321D01*
X22070967Y-44105264D01*
X22070966Y-44105260D01*
X22015601Y-44022399D01*
X21960235Y-43985405D01*
X21932739Y-43967033D01*
X21932735Y-43967032D01*
X21859677Y-43952500D01*
X21859674Y-43952500D01*
X19470326Y-43952500D01*
X19470324Y-43952500D01*
X19457688Y-43955013D01*
X19388096Y-43948783D01*
X19332920Y-43905919D01*
X19309678Y-43840028D01*
X19309500Y-43833395D01*
X19309500Y-43562604D01*
X19329185Y-43495565D01*
X19381989Y-43449810D01*
X19451147Y-43439866D01*
X19457683Y-43440985D01*
X19470326Y-43443500D01*
X21859676Y-43443500D01*
X21859677Y-43443499D01*
X21932740Y-43428966D01*
X22015601Y-43373601D01*
X22070966Y-43290740D01*
X22085500Y-43217674D01*
X22085500Y-41638326D01*
X22085500Y-41638323D01*
X22085499Y-41638321D01*
X22070967Y-41565264D01*
X22070966Y-41565260D01*
X22055331Y-41541860D01*
X22015601Y-41482399D01*
X21953501Y-41440906D01*
X21932739Y-41427033D01*
X21932735Y-41427032D01*
X21859677Y-41412500D01*
X21859674Y-41412500D01*
X19470326Y-41412500D01*
X19470324Y-41412500D01*
X19457688Y-41415013D01*
X19388096Y-41408783D01*
X19332920Y-41365919D01*
X19309678Y-41300028D01*
X19309500Y-41293395D01*
X19309500Y-41022604D01*
X19329185Y-40955565D01*
X19381989Y-40909810D01*
X19451147Y-40899866D01*
X19457683Y-40900985D01*
X19470326Y-40903500D01*
X21859676Y-40903500D01*
X21859677Y-40903499D01*
X21932740Y-40888966D01*
X22015601Y-40833601D01*
X22070966Y-40750740D01*
X22085500Y-40677674D01*
X22085500Y-39098326D01*
X22085500Y-39098323D01*
X22085499Y-39098321D01*
X22070967Y-39025264D01*
X22070966Y-39025260D01*
X22015601Y-38942399D01*
X21960235Y-38905405D01*
X21932739Y-38887033D01*
X21932735Y-38887032D01*
X21859677Y-38872500D01*
X21859674Y-38872500D01*
X19470326Y-38872500D01*
X19470323Y-38872500D01*
X19397264Y-38887032D01*
X19397260Y-38887033D01*
X19314399Y-38942399D01*
X19259033Y-39025260D01*
X19259032Y-39025264D01*
X19244500Y-39098321D01*
X19244500Y-40407604D01*
X19224815Y-40474643D01*
X19172011Y-40520398D01*
X19102853Y-40530342D01*
X19039298Y-40501318D01*
X19033225Y-40496056D01*
X19016661Y-40481703D01*
X19016659Y-40481702D01*
X19016658Y-40481701D01*
X18883716Y-40420987D01*
X18816671Y-40401300D01*
X18768446Y-40394366D01*
X18672000Y-40380500D01*
X18671998Y-40380500D01*
X17856658Y-40380500D01*
X17789619Y-40360815D01*
X17743864Y-40308011D01*
X17733920Y-40238853D01*
X17756340Y-40183615D01*
X17795809Y-40129289D01*
X17807051Y-40113816D01*
X17903557Y-39924412D01*
X17969246Y-39722243D01*
X18002500Y-39512287D01*
X18002500Y-39299713D01*
X17969246Y-39089757D01*
X17903557Y-38887588D01*
X17807051Y-38698184D01*
X17807049Y-38698181D01*
X17807048Y-38698179D01*
X17682109Y-38526213D01*
X17558426Y-38402530D01*
X17524941Y-38341207D01*
X17529925Y-38271515D01*
X17564906Y-38221135D01*
X17588586Y-38200617D01*
X17684297Y-38090162D01*
X17745014Y-37957214D01*
X17764699Y-37890175D01*
X17764700Y-37890171D01*
X17785500Y-37745501D01*
X17785500Y-36705500D01*
X17805185Y-36638461D01*
X17857989Y-36592706D01*
X17909500Y-36581500D01*
X18925990Y-36581500D01*
X18926000Y-36581500D01*
X19035157Y-36569764D01*
X19086668Y-36558558D01*
X19086684Y-36558552D01*
X19087692Y-36558277D01*
X19087939Y-36558281D01*
X19089913Y-36557852D01*
X19090014Y-36558318D01*
X19157550Y-36559523D01*
X19215646Y-36598339D01*
X19243533Y-36662402D01*
X19244500Y-36677858D01*
X19244500Y-38137678D01*
X19259032Y-38210735D01*
X19259033Y-38210739D01*
X19259034Y-38210740D01*
X19314399Y-38293601D01*
X19385648Y-38341207D01*
X19397260Y-38348966D01*
X19397264Y-38348967D01*
X19470321Y-38363499D01*
X19470324Y-38363500D01*
X19470326Y-38363500D01*
X21859676Y-38363500D01*
X21859677Y-38363499D01*
X21932740Y-38348966D01*
X22015601Y-38293601D01*
X22070966Y-38210740D01*
X22085500Y-38137674D01*
X22085500Y-36558326D01*
X22085500Y-36558323D01*
X22085499Y-36558321D01*
X22070967Y-36485264D01*
X22070966Y-36485260D01*
X22064872Y-36476139D01*
X22015601Y-36402399D01*
X21945170Y-36355339D01*
X21932739Y-36347033D01*
X21932735Y-36347032D01*
X21859677Y-36332500D01*
X21859674Y-36332500D01*
X19635226Y-36332500D01*
X19568187Y-36312815D01*
X19522432Y-36260011D01*
X19512488Y-36190853D01*
X19521574Y-36159908D01*
X19521465Y-36159868D01*
X19522036Y-36158336D01*
X19522433Y-36156985D01*
X19523014Y-36155713D01*
X19542699Y-36088674D01*
X19542700Y-36088670D01*
X19563500Y-35944000D01*
X19563500Y-35943984D01*
X19563816Y-35939580D01*
X19565784Y-35939720D01*
X19583185Y-35880461D01*
X19635989Y-35834706D01*
X19687500Y-35823500D01*
X21859676Y-35823500D01*
X21859677Y-35823499D01*
X21932740Y-35808966D01*
X22015601Y-35753601D01*
X22070966Y-35670740D01*
X22085500Y-35597674D01*
X22085500Y-34417244D01*
X22105185Y-34350205D01*
X22157989Y-34304450D01*
X22227147Y-34294506D01*
X22227243Y-34294520D01*
G37*
%TD.AperFunction*%
%TA.AperFunction,Conductor*%
G36*
X35329879Y-56589693D02*
G01*
X35352859Y-56587910D01*
X35363902Y-56593853D01*
X35376352Y-56595376D01*
X35394087Y-56610099D01*
X35414384Y-56621023D01*
X35414916Y-56621553D01*
X35462725Y-56669362D01*
X35532638Y-56739275D01*
X35618262Y-56788710D01*
X35660733Y-56800090D01*
X35713764Y-56814300D01*
X35713765Y-56814300D01*
X37256830Y-56814300D01*
X37323869Y-56833985D01*
X37369624Y-56886789D01*
X37380119Y-56951556D01*
X37374500Y-57003809D01*
X37374500Y-57597188D01*
X37380528Y-57653243D01*
X37368124Y-57722003D01*
X37320514Y-57773141D01*
X37257239Y-57790500D01*
X35350399Y-57790500D01*
X35320958Y-57781855D01*
X35290972Y-57775332D01*
X35285956Y-57771577D01*
X35283360Y-57770815D01*
X35262718Y-57754181D01*
X35239818Y-57731281D01*
X35206333Y-57669958D01*
X35203499Y-57643600D01*
X35203499Y-57474867D01*
X35203499Y-57474862D01*
X35197259Y-57427455D01*
X35179982Y-57390404D01*
X35169490Y-57321326D01*
X35179980Y-57285599D01*
X35197259Y-57248545D01*
X35203500Y-57201139D01*
X35203499Y-56974862D01*
X35197259Y-56927455D01*
X35185156Y-56901500D01*
X35179982Y-56890404D01*
X35169490Y-56821326D01*
X35172675Y-56805586D01*
X35175466Y-56795279D01*
X35197259Y-56748545D01*
X35203500Y-56701139D01*
X35203499Y-56691761D01*
X35207546Y-56676821D01*
X35219596Y-56657169D01*
X35227520Y-56635526D01*
X35237513Y-56627950D01*
X35244070Y-56617258D01*
X35264832Y-56607240D01*
X35283199Y-56593317D01*
X35295701Y-56592346D01*
X35306998Y-56586896D01*
X35329879Y-56589693D01*
G37*
%TD.AperFunction*%
%TA.AperFunction,Conductor*%
G36*
X33630404Y-55964981D02*
G01*
X33667455Y-55982259D01*
X33714861Y-55988500D01*
X33803500Y-55988499D01*
X33870538Y-56008183D01*
X33916294Y-56060986D01*
X33926022Y-56093409D01*
X33927500Y-56102898D01*
X33927501Y-56201138D01*
X33933741Y-56248545D01*
X33958449Y-56301533D01*
X33961157Y-56318909D01*
X33958797Y-56336816D01*
X33961509Y-56354673D01*
X33952319Y-56385970D01*
X33952028Y-56388180D01*
X33951480Y-56388827D01*
X33951018Y-56390402D01*
X33933742Y-56427451D01*
X33933740Y-56427458D01*
X33927500Y-56474859D01*
X33927500Y-56701131D01*
X33927501Y-56701138D01*
X33933741Y-56748545D01*
X33951018Y-56785596D01*
X33961509Y-56854673D01*
X33951018Y-56890402D01*
X33933742Y-56927451D01*
X33933740Y-56927458D01*
X33927500Y-56974859D01*
X33927500Y-57201131D01*
X33927501Y-57201138D01*
X33933741Y-57248545D01*
X33951018Y-57285596D01*
X33961509Y-57354673D01*
X33961157Y-57357089D01*
X33958449Y-57374467D01*
X33933741Y-57427455D01*
X33927500Y-57474861D01*
X33927500Y-57573104D01*
X33926022Y-57582590D01*
X33915060Y-57605863D01*
X33907815Y-57630539D01*
X33900421Y-57636945D01*
X33896251Y-57645800D01*
X33874446Y-57659453D01*
X33855011Y-57676294D01*
X33843579Y-57678780D01*
X33837033Y-57682880D01*
X33825368Y-57682742D01*
X33803501Y-57687500D01*
X33714868Y-57687500D01*
X33704341Y-57688885D01*
X33667455Y-57693741D01*
X33667453Y-57693742D01*
X33667451Y-57693742D01*
X33630403Y-57711018D01*
X33561325Y-57721509D01*
X33525596Y-57711018D01*
X33488545Y-57693741D01*
X33488541Y-57693740D01*
X33441140Y-57687500D01*
X33214868Y-57687500D01*
X33204341Y-57688885D01*
X33167455Y-57693741D01*
X33167453Y-57693742D01*
X33167451Y-57693742D01*
X33130403Y-57711018D01*
X33061325Y-57721509D01*
X33025596Y-57711018D01*
X32988545Y-57693741D01*
X32988541Y-57693740D01*
X32941140Y-57687500D01*
X32714868Y-57687500D01*
X32704341Y-57688885D01*
X32667455Y-57693741D01*
X32667453Y-57693742D01*
X32667451Y-57693742D01*
X32630403Y-57711018D01*
X32561325Y-57721509D01*
X32558910Y-57721157D01*
X32541533Y-57718449D01*
X32488545Y-57693741D01*
X32441139Y-57687500D01*
X32342895Y-57687500D01*
X32333409Y-57686022D01*
X32310135Y-57675060D01*
X32285460Y-57667815D01*
X32279053Y-57660421D01*
X32270199Y-57656251D01*
X32256545Y-57634446D01*
X32239705Y-57615011D01*
X32237218Y-57603579D01*
X32233119Y-57597033D01*
X32233256Y-57585367D01*
X32228499Y-57563500D01*
X32228499Y-57474867D01*
X32228499Y-57474862D01*
X32222259Y-57427455D01*
X32204982Y-57390404D01*
X32194490Y-57321326D01*
X32204980Y-57285599D01*
X32222259Y-57248545D01*
X32228500Y-57201139D01*
X32228499Y-56974862D01*
X32222259Y-56927455D01*
X32173747Y-56823421D01*
X32092579Y-56742253D01*
X32002785Y-56700381D01*
X31950347Y-56654210D01*
X31931195Y-56587016D01*
X31951411Y-56520135D01*
X32002785Y-56475618D01*
X32092579Y-56433747D01*
X32173747Y-56352579D01*
X32222259Y-56248545D01*
X32228500Y-56201139D01*
X32228500Y-56112499D01*
X32248185Y-56045460D01*
X32300989Y-55999705D01*
X32333410Y-55989977D01*
X32342896Y-55988499D01*
X32441138Y-55988499D01*
X32488545Y-55982259D01*
X32541534Y-55957549D01*
X32558910Y-55954842D01*
X32576817Y-55957201D01*
X32594672Y-55954490D01*
X32625968Y-55963679D01*
X32628181Y-55963971D01*
X32628828Y-55964519D01*
X32630404Y-55964981D01*
X32667455Y-55982259D01*
X32714861Y-55988500D01*
X32941138Y-55988499D01*
X32988545Y-55982259D01*
X33025595Y-55964981D01*
X33094672Y-55954490D01*
X33130404Y-55964981D01*
X33167455Y-55982259D01*
X33214861Y-55988500D01*
X33441138Y-55988499D01*
X33488545Y-55982259D01*
X33525595Y-55964981D01*
X33594672Y-55954490D01*
X33630404Y-55964981D01*
G37*
%TD.AperFunction*%
%TA.AperFunction,Conductor*%
G36*
X40083433Y-34355804D02*
G01*
X40129522Y-34408317D01*
X40139904Y-34477411D01*
X40111283Y-34541149D01*
X40104738Y-34548224D01*
X37869438Y-36783525D01*
X37799526Y-36853436D01*
X37750091Y-36939059D01*
X37750091Y-36939060D01*
X37750090Y-36939062D01*
X37724500Y-37034565D01*
X37724500Y-37034567D01*
X37724500Y-53895100D01*
X37704815Y-53962139D01*
X37688181Y-53982781D01*
X36968298Y-54702663D01*
X36906975Y-54736148D01*
X36867371Y-54738273D01*
X36860178Y-54737500D01*
X36860174Y-54737500D01*
X36291826Y-54737500D01*
X36291809Y-54737500D01*
X36233700Y-54743748D01*
X36136331Y-54780066D01*
X36102833Y-54792560D01*
X36033142Y-54797544D01*
X35971819Y-54764059D01*
X35938334Y-54702736D01*
X35935500Y-54676378D01*
X35935500Y-53646167D01*
X35935500Y-53646165D01*
X35909910Y-53550662D01*
X35860475Y-53465038D01*
X35790562Y-53395125D01*
X35536563Y-53141126D01*
X35536562Y-53141125D01*
X35450938Y-53091690D01*
X35403186Y-53078895D01*
X35403184Y-53078894D01*
X35403182Y-53078893D01*
X35355436Y-53066100D01*
X35355435Y-53066100D01*
X32387500Y-53066100D01*
X32320461Y-53046415D01*
X32274706Y-52993611D01*
X32263500Y-52942100D01*
X32263500Y-34508966D01*
X32283185Y-34441927D01*
X32335989Y-34396172D01*
X32386708Y-34384969D01*
X40016274Y-34336546D01*
X40083433Y-34355804D01*
G37*
%TD.AperFunction*%
%TA.AperFunction,Conductor*%
G36*
X49072882Y-37199381D02*
G01*
X49125236Y-37209795D01*
X49148499Y-37216852D01*
X49197825Y-37237284D01*
X49219262Y-37248743D01*
X49263642Y-37278397D01*
X49282431Y-37293817D01*
X49320176Y-37331561D01*
X49335599Y-37350353D01*
X49365257Y-37394740D01*
X49376715Y-37416176D01*
X49397148Y-37465504D01*
X49404203Y-37488762D01*
X49404204Y-37488766D01*
X49414617Y-37541114D01*
X49417000Y-37565305D01*
X49417000Y-37630500D01*
X49417001Y-37630509D01*
X49428735Y-37739651D01*
X49428737Y-37739663D01*
X49439943Y-37791173D01*
X49474606Y-37895320D01*
X49474609Y-37895326D01*
X49553628Y-38018281D01*
X49553634Y-38018288D01*
X49599379Y-38071081D01*
X49599382Y-38071084D01*
X49599384Y-38071086D01*
X49616157Y-38085620D01*
X49709835Y-38166794D01*
X49709837Y-38166795D01*
X49709839Y-38166797D01*
X49842787Y-38227514D01*
X49909826Y-38247199D01*
X49909830Y-38247200D01*
X50054500Y-38268000D01*
X50085067Y-38268000D01*
X50097666Y-38268641D01*
X50099786Y-38268858D01*
X50126183Y-38274510D01*
X50157482Y-38284881D01*
X50183576Y-38297048D01*
X50207660Y-38311903D01*
X50230245Y-38329761D01*
X50250237Y-38349753D01*
X50268095Y-38372338D01*
X50282948Y-38396419D01*
X50295114Y-38422509D01*
X50299323Y-38435209D01*
X50305487Y-38453813D01*
X50305488Y-38453814D01*
X50311141Y-38480216D01*
X50311357Y-38482330D01*
X50311999Y-38494934D01*
X50311999Y-40101063D01*
X50311351Y-40113719D01*
X50311134Y-40115834D01*
X50305488Y-40142180D01*
X50295115Y-40173485D01*
X50282948Y-40199579D01*
X50268095Y-40223660D01*
X50250237Y-40246245D01*
X50230245Y-40266237D01*
X50207660Y-40284095D01*
X50183579Y-40298948D01*
X50157489Y-40311114D01*
X50126184Y-40321488D01*
X50099788Y-40327140D01*
X50097675Y-40327356D01*
X50085065Y-40327999D01*
X49958765Y-40327999D01*
X49894756Y-40332003D01*
X49864115Y-40335852D01*
X49801107Y-40347801D01*
X49801103Y-40347802D01*
X49666083Y-40403728D01*
X49605999Y-40439378D01*
X49605986Y-40439386D01*
X49492181Y-40531095D01*
X49492180Y-40531096D01*
X49408828Y-40651148D01*
X49408820Y-40651161D01*
X49377553Y-40713627D01*
X49377545Y-40713644D01*
X49331395Y-40852303D01*
X49326177Y-40998367D01*
X49333642Y-41067814D01*
X49333646Y-41067847D01*
X49333647Y-41067851D01*
X49369790Y-41209455D01*
X49369794Y-41209465D01*
X49397148Y-41275504D01*
X49404202Y-41298759D01*
X49404204Y-41298764D01*
X49414617Y-41351111D01*
X49417000Y-41375303D01*
X49417000Y-41428693D01*
X49414617Y-41452886D01*
X49404204Y-41505232D01*
X49397147Y-41528494D01*
X49376714Y-41577821D01*
X49365257Y-41599255D01*
X49335597Y-41643646D01*
X49320175Y-41662438D01*
X49282438Y-41700175D01*
X49263646Y-41715597D01*
X49219251Y-41745260D01*
X49197817Y-41756717D01*
X49148502Y-41777145D01*
X49125239Y-41784202D01*
X49083531Y-41792498D01*
X49072880Y-41794617D01*
X49048690Y-41797000D01*
X48995306Y-41797000D01*
X48971114Y-41794617D01*
X48918767Y-41784204D01*
X48895506Y-41777148D01*
X48846179Y-41756716D01*
X48824741Y-41745257D01*
X48780352Y-41715597D01*
X48761562Y-41700176D01*
X48723821Y-41662435D01*
X48708404Y-41643651D01*
X48678734Y-41599247D01*
X48667284Y-41577825D01*
X48646851Y-41528498D01*
X48639796Y-41505239D01*
X48629382Y-41452882D01*
X48627000Y-41428692D01*
X48627000Y-41375305D01*
X48629383Y-41351114D01*
X48639797Y-41298759D01*
X48646851Y-41275501D01*
X48674207Y-41209460D01*
X48694998Y-41148805D01*
X48703175Y-41118999D01*
X48716246Y-41056219D01*
X48716245Y-40910062D01*
X48706301Y-40840904D01*
X48665124Y-40700671D01*
X48586105Y-40577716D01*
X48540350Y-40524912D01*
X48540348Y-40524910D01*
X48513121Y-40501318D01*
X48429890Y-40429198D01*
X48429886Y-40429195D01*
X48296936Y-40368481D01*
X48296930Y-40368479D01*
X48264836Y-40359056D01*
X48254342Y-40352312D01*
X48229901Y-40348798D01*
X48085231Y-40327999D01*
X47958935Y-40327999D01*
X47946279Y-40327351D01*
X47944164Y-40327134D01*
X47917818Y-40321488D01*
X47886513Y-40311115D01*
X47860419Y-40298948D01*
X47836338Y-40284095D01*
X47813753Y-40266237D01*
X47793761Y-40246245D01*
X47775904Y-40223662D01*
X47761049Y-40199579D01*
X47748882Y-40173486D01*
X47738508Y-40142180D01*
X47732854Y-40115741D01*
X47732636Y-40113613D01*
X47732000Y-40101067D01*
X47732000Y-38494931D01*
X47732638Y-38482373D01*
X47732853Y-38480261D01*
X47738510Y-38453814D01*
X47748886Y-38422502D01*
X47761049Y-38396419D01*
X47775903Y-38372335D01*
X47793755Y-38349758D01*
X47813758Y-38329755D01*
X47836334Y-38311904D01*
X47860420Y-38297048D01*
X47886502Y-38284886D01*
X47917819Y-38274508D01*
X47944257Y-38268853D01*
X47946384Y-38268636D01*
X47958932Y-38268000D01*
X47989493Y-38268000D01*
X47989502Y-38268000D01*
X48098663Y-38256263D01*
X48150172Y-38245057D01*
X48254327Y-38210390D01*
X48377282Y-38131371D01*
X48430086Y-38085616D01*
X48525797Y-37975161D01*
X48586514Y-37842213D01*
X48606199Y-37775174D01*
X48606200Y-37775170D01*
X48627000Y-37630500D01*
X48627000Y-37565305D01*
X48629382Y-37541115D01*
X48629382Y-37541114D01*
X48639795Y-37488758D01*
X48646850Y-37465502D01*
X48667286Y-37416167D01*
X48678740Y-37394740D01*
X48708401Y-37350349D01*
X48723812Y-37331571D01*
X48761567Y-37293816D01*
X48780340Y-37278408D01*
X48824754Y-37248731D01*
X48846168Y-37237286D01*
X48895502Y-37216850D01*
X48918756Y-37209796D01*
X48971116Y-37199381D01*
X48995306Y-37197000D01*
X49048693Y-37197000D01*
X49072882Y-37199381D01*
G37*
%TD.AperFunction*%
%TA.AperFunction,Conductor*%
G36*
X38309849Y-13170185D02*
G01*
X38355604Y-13222989D01*
X38365548Y-13292147D01*
X38364513Y-13298185D01*
X38364500Y-13298323D01*
X38364500Y-15657678D01*
X38379032Y-15730735D01*
X38379033Y-15730739D01*
X38381019Y-15733711D01*
X38434399Y-15813601D01*
X38517260Y-15868966D01*
X38517264Y-15868967D01*
X38590321Y-15883499D01*
X38590324Y-15883500D01*
X38590326Y-15883500D01*
X40149676Y-15883500D01*
X40149677Y-15883499D01*
X40222740Y-15868966D01*
X40305601Y-15813601D01*
X40360966Y-15730740D01*
X40375500Y-15657674D01*
X40375500Y-13298326D01*
X40375500Y-13298323D01*
X40374903Y-13292261D01*
X40376160Y-13292137D01*
X40381798Y-13229106D01*
X40424658Y-13173926D01*
X40490547Y-13150678D01*
X40497190Y-13150500D01*
X47783592Y-13150500D01*
X47797128Y-13150500D01*
X47802855Y-13150632D01*
X48158697Y-13167083D01*
X48170086Y-13168139D01*
X48520051Y-13216957D01*
X48531295Y-13219059D01*
X48875261Y-13299959D01*
X48886251Y-13303086D01*
X49221306Y-13415385D01*
X49231960Y-13419513D01*
X49555209Y-13562241D01*
X49565436Y-13567333D01*
X49806689Y-13701710D01*
X49874131Y-13739275D01*
X49883869Y-13745304D01*
X50175374Y-13944990D01*
X50184514Y-13951892D01*
X50456356Y-14177626D01*
X50464820Y-14185343D01*
X50714656Y-14435179D01*
X50722373Y-14443643D01*
X50948107Y-14715485D01*
X50955009Y-14724625D01*
X51154695Y-15016130D01*
X51160724Y-15025868D01*
X51332659Y-15334550D01*
X51337762Y-15344799D01*
X51475910Y-15657674D01*
X51480481Y-15668026D01*
X51484619Y-15678706D01*
X51596909Y-16013735D01*
X51600043Y-16024751D01*
X51680938Y-16368696D01*
X51683043Y-16379955D01*
X51731859Y-16729905D01*
X51732916Y-16741309D01*
X51749368Y-17097144D01*
X51749500Y-17102823D01*
X51749500Y-17116408D01*
X51749505Y-17116414D01*
X51749513Y-17136522D01*
X51749513Y-17136523D01*
X51754021Y-29110423D01*
X51734362Y-29177470D01*
X51681575Y-29223245D01*
X51612420Y-29233214D01*
X51595086Y-29229447D01*
X51580965Y-29225300D01*
X51477624Y-29210442D01*
X51436290Y-29204500D01*
X50915505Y-29204500D01*
X50915487Y-29204500D01*
X50887705Y-29205252D01*
X50874259Y-29205982D01*
X50846521Y-29208242D01*
X50704954Y-29244575D01*
X50704950Y-29244576D01*
X50640440Y-29271397D01*
X50640434Y-29271400D01*
X50514843Y-29346141D01*
X50415388Y-29453244D01*
X50383007Y-29500012D01*
X50383004Y-29500016D01*
X50375615Y-29510690D01*
X50375612Y-29510694D01*
X50310363Y-29641478D01*
X50292886Y-29694218D01*
X50289889Y-29700677D01*
X50287916Y-29702925D01*
X50282950Y-29713576D01*
X50268096Y-29737659D01*
X50250237Y-29760245D01*
X50230245Y-29780237D01*
X50207660Y-29798095D01*
X50183579Y-29812948D01*
X50157489Y-29825114D01*
X50126184Y-29835488D01*
X50099788Y-29841140D01*
X50097675Y-29841356D01*
X50085065Y-29841999D01*
X47958935Y-29841999D01*
X47946279Y-29841351D01*
X47944164Y-29841134D01*
X47917818Y-29835488D01*
X47886513Y-29825115D01*
X47860419Y-29812948D01*
X47836338Y-29798095D01*
X47813753Y-29780237D01*
X47793761Y-29760245D01*
X47775903Y-29737660D01*
X47761048Y-29713576D01*
X47748881Y-29687483D01*
X47733637Y-29641478D01*
X47724161Y-29615282D01*
X47724158Y-29615274D01*
X47719257Y-29602794D01*
X47708385Y-29577173D01*
X47629366Y-29454218D01*
X47629360Y-29454211D01*
X47583615Y-29401418D01*
X47583612Y-29401415D01*
X47473159Y-29305705D01*
X47473153Y-29305701D01*
X47340211Y-29244987D01*
X47338811Y-29244576D01*
X47273169Y-29225301D01*
X47273171Y-29225301D01*
X47273166Y-29225300D01*
X47224941Y-29218366D01*
X47128495Y-29204500D01*
X47128493Y-29204500D01*
X18417500Y-29204500D01*
X18350461Y-29184815D01*
X18304706Y-29132011D01*
X18293500Y-29080500D01*
X18293500Y-26540010D01*
X18293500Y-26540000D01*
X18281764Y-26430843D01*
X18270558Y-26379332D01*
X18270453Y-26379017D01*
X18235893Y-26275179D01*
X18235890Y-26275173D01*
X18156871Y-26152218D01*
X18156865Y-26152211D01*
X18111120Y-26099418D01*
X18111117Y-26099415D01*
X18000664Y-26003705D01*
X18000658Y-26003701D01*
X17867716Y-25942987D01*
X17800671Y-25923300D01*
X17737627Y-25914236D01*
X17656000Y-25902500D01*
X13586000Y-25902500D01*
X13487753Y-25913062D01*
X13418995Y-25900657D01*
X13367858Y-25853046D01*
X13350500Y-25789773D01*
X13350500Y-17102871D01*
X13350632Y-17097144D01*
X13367083Y-16741309D01*
X13368140Y-16729905D01*
X13380303Y-16642711D01*
X15167500Y-16642711D01*
X15167500Y-16885288D01*
X15199161Y-17125785D01*
X15261947Y-17360104D01*
X15354773Y-17584205D01*
X15354776Y-17584212D01*
X15476064Y-17794289D01*
X15476066Y-17794292D01*
X15476067Y-17794293D01*
X15623733Y-17986736D01*
X15623739Y-17986743D01*
X15795256Y-18158260D01*
X15795262Y-18158265D01*
X15987711Y-18305936D01*
X16197788Y-18427224D01*
X16421900Y-18520054D01*
X16656211Y-18582838D01*
X16836586Y-18606584D01*
X16896711Y-18614500D01*
X16896712Y-18614500D01*
X17139289Y-18614500D01*
X17187388Y-18608167D01*
X17379789Y-18582838D01*
X17614100Y-18520054D01*
X17838212Y-18427224D01*
X18048289Y-18305936D01*
X18240738Y-18158265D01*
X18412265Y-17986738D01*
X18559936Y-17794289D01*
X18681224Y-17584212D01*
X18774054Y-17360100D01*
X18836838Y-17125789D01*
X18868500Y-16885288D01*
X18868500Y-16642712D01*
X18868500Y-16642711D01*
X46409500Y-16642711D01*
X46409500Y-16885288D01*
X46441161Y-17125785D01*
X46503947Y-17360104D01*
X46596773Y-17584205D01*
X46596776Y-17584212D01*
X46718064Y-17794289D01*
X46718066Y-17794292D01*
X46718067Y-17794293D01*
X46865733Y-17986736D01*
X46865739Y-17986743D01*
X47037256Y-18158260D01*
X47037262Y-18158265D01*
X47229711Y-18305936D01*
X47439788Y-18427224D01*
X47663900Y-18520054D01*
X47898211Y-18582838D01*
X48078586Y-18606584D01*
X48138711Y-18614500D01*
X48138712Y-18614500D01*
X48381289Y-18614500D01*
X48429388Y-18608167D01*
X48621789Y-18582838D01*
X48856100Y-18520054D01*
X49080212Y-18427224D01*
X49290289Y-18305936D01*
X49482738Y-18158265D01*
X49654265Y-17986738D01*
X49801936Y-17794289D01*
X49923224Y-17584212D01*
X50016054Y-17360100D01*
X50078838Y-17125789D01*
X50110500Y-16885288D01*
X50110500Y-16642712D01*
X50078838Y-16402211D01*
X50016054Y-16167900D01*
X49923224Y-15943788D01*
X49801936Y-15733711D01*
X49654265Y-15541262D01*
X49654260Y-15541256D01*
X49482743Y-15369739D01*
X49482736Y-15369733D01*
X49290293Y-15222067D01*
X49290292Y-15222066D01*
X49290289Y-15222064D01*
X49080212Y-15100776D01*
X49080205Y-15100773D01*
X48856104Y-15007947D01*
X48621785Y-14945161D01*
X48381289Y-14913500D01*
X48381288Y-14913500D01*
X48138712Y-14913500D01*
X48138711Y-14913500D01*
X47898214Y-14945161D01*
X47663895Y-15007947D01*
X47439794Y-15100773D01*
X47439785Y-15100777D01*
X47229706Y-15222067D01*
X47037263Y-15369733D01*
X47037256Y-15369739D01*
X46865739Y-15541256D01*
X46865733Y-15541263D01*
X46718067Y-15733706D01*
X46596777Y-15943785D01*
X46596773Y-15943794D01*
X46503947Y-16167895D01*
X46441161Y-16402214D01*
X46409500Y-16642711D01*
X18868500Y-16642711D01*
X18836838Y-16402211D01*
X18774054Y-16167900D01*
X18681224Y-15943788D01*
X18559936Y-15733711D01*
X18412265Y-15541262D01*
X18412260Y-15541256D01*
X18240743Y-15369739D01*
X18240736Y-15369733D01*
X18048293Y-15222067D01*
X18048292Y-15222066D01*
X18048289Y-15222064D01*
X17838212Y-15100776D01*
X17838205Y-15100773D01*
X17614104Y-15007947D01*
X17379785Y-14945161D01*
X17139289Y-14913500D01*
X17139288Y-14913500D01*
X16896712Y-14913500D01*
X16896711Y-14913500D01*
X16656214Y-14945161D01*
X16421895Y-15007947D01*
X16197794Y-15100773D01*
X16197785Y-15100777D01*
X15987706Y-15222067D01*
X15795263Y-15369733D01*
X15795256Y-15369739D01*
X15623739Y-15541256D01*
X15623733Y-15541263D01*
X15476067Y-15733706D01*
X15354777Y-15943785D01*
X15354773Y-15943794D01*
X15261947Y-16167895D01*
X15199161Y-16402214D01*
X15167500Y-16642711D01*
X13380303Y-16642711D01*
X13416958Y-16379944D01*
X13419058Y-16368708D01*
X13499961Y-16024732D01*
X13503084Y-16013753D01*
X13615387Y-15678685D01*
X13619510Y-15668046D01*
X13762245Y-15344781D01*
X13767328Y-15334572D01*
X13939278Y-15025862D01*
X13945304Y-15016130D01*
X14144999Y-14724612D01*
X14151881Y-14715498D01*
X14377636Y-14443630D01*
X14385332Y-14435190D01*
X14635190Y-14185332D01*
X14643630Y-14177636D01*
X14915498Y-13951881D01*
X14924612Y-13944999D01*
X15216136Y-13745300D01*
X15225862Y-13739278D01*
X15534572Y-13567328D01*
X15544781Y-13562245D01*
X15868046Y-13419510D01*
X15878685Y-13415387D01*
X16213753Y-13303084D01*
X16224732Y-13299961D01*
X16568708Y-13219058D01*
X16579944Y-13216958D01*
X16929914Y-13168139D01*
X16941300Y-13167083D01*
X17297145Y-13150632D01*
X17302872Y-13150500D01*
X17316408Y-13150500D01*
X38242810Y-13150500D01*
X38309849Y-13170185D01*
G37*
%TD.AperFunction*%
M02*
