%TF.GenerationSoftware,KiCad,Pcbnew,9.0.7*%
%TF.CreationDate,2026-03-04T23:18:43+00:00*%
%TF.ProjectId,USB-Lora-Modem,5553422d-4c6f-4726-912d-4d6f64656d2e,V1.2*%
%TF.SameCoordinates,Original*%
%TF.FileFunction,Copper,L1,Top*%
%TF.FilePolarity,Positive*%
%FSLAX46Y46*%
G04 Gerber Fmt 4.6, Leading zero omitted, Abs format (unit mm)*
G04 Created by KiCad (PCBNEW 9.0.7) date 2026-03-04 23:18:43*
%MOMM*%
%LPD*%
G01*
G04 APERTURE LIST*
G04 Aperture macros list*
%AMRoundRect*
0 Rectangle with rounded corners*
0 $1 Rounding radius*
0 $2 $3 $4 $5 $6 $7 $8 $9 X,Y pos of 4 corners*
0 Add a 4 corners polygon primitive as box body*
4,1,4,$2,$3,$4,$5,$6,$7,$8,$9,$2,$3,0*
0 Add four circle primitives for the rounded corners*
1,1,$1+$1,$2,$3*
1,1,$1+$1,$4,$5*
1,1,$1+$1,$6,$7*
1,1,$1+$1,$8,$9*
0 Add four rect primitives between the rounded corners*
20,1,$1+$1,$2,$3,$4,$5,0*
20,1,$1+$1,$4,$5,$6,$7,0*
20,1,$1+$1,$6,$7,$8,$9,0*
20,1,$1+$1,$8,$9,$2,$3,0*%
G04 Aperture macros list end*
%TA.AperFunction,SMDPad,CuDef*%
%ADD10R,1.500000X5.080000*%
%TD*%
%TA.AperFunction,SMDPad,CuDef*%
%ADD11RoundRect,0.250000X-0.475000X0.337500X-0.475000X-0.337500X0.475000X-0.337500X0.475000X0.337500X0*%
%TD*%
%TA.AperFunction,SMDPad,CuDef*%
%ADD12RoundRect,0.250001X1.074999X-0.462499X1.074999X0.462499X-1.074999X0.462499X-1.074999X-0.462499X0*%
%TD*%
%TA.AperFunction,SMDPad,CuDef*%
%ADD13RoundRect,0.237500X0.237500X-0.250000X0.237500X0.250000X-0.237500X0.250000X-0.237500X-0.250000X0*%
%TD*%
%TA.AperFunction,SMDPad,CuDef*%
%ADD14RoundRect,0.237500X0.237500X-0.300000X0.237500X0.300000X-0.237500X0.300000X-0.237500X-0.300000X0*%
%TD*%
%TA.AperFunction,SMDPad,CuDef*%
%ADD15R,2.340000X1.530000*%
%TD*%
%TA.AperFunction,SMDPad,CuDef*%
%ADD16R,1.510000X2.310000*%
%TD*%
%TA.AperFunction,SMDPad,CuDef*%
%ADD17RoundRect,0.250000X-0.475000X0.250000X-0.475000X-0.250000X0.475000X-0.250000X0.475000X0.250000X0*%
%TD*%
%TA.AperFunction,SMDPad,CuDef*%
%ADD18RoundRect,0.250001X0.624999X-0.462499X0.624999X0.462499X-0.624999X0.462499X-0.624999X-0.462499X0*%
%TD*%
%TA.AperFunction,SMDPad,CuDef*%
%ADD19RoundRect,0.237500X0.300000X0.237500X-0.300000X0.237500X-0.300000X-0.237500X0.300000X-0.237500X0*%
%TD*%
%TA.AperFunction,SMDPad,CuDef*%
%ADD20RoundRect,0.250000X0.475000X-0.250000X0.475000X0.250000X-0.475000X0.250000X-0.475000X-0.250000X0*%
%TD*%
%TA.AperFunction,SMDPad,CuDef*%
%ADD21RoundRect,0.237500X-0.237500X0.300000X-0.237500X-0.300000X0.237500X-0.300000X0.237500X0.300000X0*%
%TD*%
%TA.AperFunction,SMDPad,CuDef*%
%ADD22RoundRect,0.237500X-0.237500X0.250000X-0.237500X-0.250000X0.237500X-0.250000X0.237500X0.250000X0*%
%TD*%
%TA.AperFunction,SMDPad,CuDef*%
%ADD23RoundRect,0.162500X-0.617500X-0.162500X0.617500X-0.162500X0.617500X0.162500X-0.617500X0.162500X0*%
%TD*%
%TA.AperFunction,SMDPad,CuDef*%
%ADD24RoundRect,0.087500X-0.087500X0.250000X-0.087500X-0.250000X0.087500X-0.250000X0.087500X0.250000X0*%
%TD*%
%TA.AperFunction,SMDPad,CuDef*%
%ADD25RoundRect,0.075000X-0.312500X-0.075000X0.312500X-0.075000X0.312500X0.075000X-0.312500X0.075000X0*%
%TD*%
%TA.AperFunction,SMDPad,CuDef*%
%ADD26RoundRect,0.075000X-0.075000X-0.312500X0.075000X-0.312500X0.075000X0.312500X-0.075000X0.312500X0*%
%TD*%
%TA.AperFunction,HeatsinkPad*%
%ADD27R,1.800000X1.800000*%
%TD*%
%TA.AperFunction,SMDPad,CuDef*%
%ADD28RoundRect,0.250000X1.075000X-0.400000X1.075000X0.400000X-1.075000X0.400000X-1.075000X-0.400000X0*%
%TD*%
%TA.AperFunction,ComponentPad*%
%ADD29C,1.308000*%
%TD*%
%TA.AperFunction,SMDPad,CuDef*%
%ADD30RoundRect,0.250000X1.045000X-0.785000X1.045000X0.785000X-1.045000X0.785000X-1.045000X-0.785000X0*%
%TD*%
%TA.AperFunction,ComponentPad*%
%ADD31R,1.700000X1.700000*%
%TD*%
%TA.AperFunction,ComponentPad*%
%ADD32C,1.700000*%
%TD*%
%TA.AperFunction,ViaPad*%
%ADD33C,0.800000*%
%TD*%
%TA.AperFunction,Conductor*%
%ADD34C,0.300000*%
%TD*%
%TA.AperFunction,Conductor*%
%ADD35C,0.250000*%
%TD*%
G04 APERTURE END LIST*
D10*
X159961000Y-74803000D03*
X155711000Y-74803000D03*
X164211000Y-74803000D03*
D11*
X171124800Y-112520900D03*
X171124800Y-114595900D03*
D12*
X137850800Y-112341400D03*
X137850800Y-109366400D03*
D13*
X161726800Y-122090900D03*
X161726800Y-120265900D03*
D14*
X137342800Y-118638400D03*
X137342800Y-116913400D03*
D15*
X165113800Y-99598400D03*
X165113800Y-102138400D03*
X165113800Y-104678400D03*
X165113800Y-107218400D03*
X165113800Y-109758400D03*
X165113800Y-112298400D03*
X165113800Y-114838400D03*
X141243800Y-114838400D03*
X141243800Y-112298400D03*
X141243800Y-109758400D03*
X141243800Y-107218400D03*
X141243800Y-104678400D03*
X141243800Y-102138400D03*
X141243800Y-99598400D03*
D16*
X146408800Y-79268400D03*
X148948800Y-79268400D03*
X157408800Y-79268400D03*
X159948800Y-79268400D03*
D17*
X135056800Y-108356400D03*
X135056800Y-110256400D03*
D18*
X142168800Y-125496400D03*
X142168800Y-122521400D03*
D19*
X150296800Y-120416400D03*
X148571800Y-120416400D03*
D13*
X158678800Y-122090900D03*
X158678800Y-120265900D03*
D20*
X135064800Y-113812400D03*
X135064800Y-111912400D03*
D21*
X168076800Y-112695900D03*
X168076800Y-114420900D03*
D22*
X157154800Y-120265900D03*
X157154800Y-122090900D03*
D23*
X156138800Y-125628400D03*
X156138800Y-126578400D03*
X156138800Y-127528400D03*
X158838800Y-127528400D03*
X158838800Y-126578400D03*
X158838800Y-125628400D03*
D24*
X137588800Y-113911400D03*
X137088800Y-113911400D03*
X136588800Y-113911400D03*
X136588800Y-115336400D03*
X137088800Y-115336400D03*
X137588800Y-115336400D03*
D25*
X152169300Y-120878400D03*
X152169300Y-121378400D03*
X152169300Y-121878400D03*
X152169300Y-122378400D03*
D26*
X152906800Y-123115900D03*
X153406800Y-123115900D03*
X153906800Y-123115900D03*
X154406800Y-123115900D03*
D25*
X155144300Y-122378400D03*
X155144300Y-121878400D03*
X155144300Y-121378400D03*
X155144300Y-120878400D03*
D26*
X154406800Y-120140900D03*
X153906800Y-120140900D03*
X153406800Y-120140900D03*
X152906800Y-120140900D03*
D27*
X153656800Y-121628400D03*
D21*
X138866800Y-116913400D03*
X138866800Y-118638400D03*
D28*
X136358800Y-91968400D03*
X136358800Y-88868400D03*
D19*
X151058800Y-123972400D03*
X149333800Y-123972400D03*
D29*
X136398000Y-96720400D03*
X136398000Y-99720400D03*
X136398000Y-102720400D03*
D14*
X135818800Y-118638400D03*
X135818800Y-116913400D03*
D13*
X160202800Y-122090900D03*
X160202800Y-120265900D03*
D30*
X169600800Y-110328400D03*
X169600800Y-104088400D03*
D31*
X153090800Y-126512400D03*
D32*
X150550800Y-126512400D03*
X148010800Y-126512400D03*
X145470800Y-126512400D03*
D30*
X169600800Y-99842400D03*
X169600800Y-93602400D03*
D19*
X150296800Y-121940400D03*
X148571800Y-121940400D03*
D33*
X165100000Y-82550000D03*
X165100000Y-81280000D03*
X165100000Y-80010000D03*
X165100000Y-80010000D03*
X165100000Y-78740000D03*
X165100000Y-77470000D03*
X156210000Y-77470000D03*
X154940000Y-77470000D03*
X154940000Y-78740000D03*
X156210000Y-78740000D03*
X156210000Y-80010000D03*
X154940000Y-80010000D03*
X154940000Y-81280000D03*
X154940000Y-82550000D03*
X156210000Y-81280000D03*
X156210000Y-82550000D03*
X157480000Y-82550000D03*
X158750000Y-82550000D03*
X160020000Y-82550000D03*
X161290000Y-82550000D03*
X162560000Y-82550000D03*
X163830000Y-82550000D03*
X163830000Y-81280000D03*
X163830000Y-80010000D03*
X163830000Y-78740000D03*
X163830000Y-77470000D03*
X157480000Y-80010000D03*
X157480000Y-81280000D03*
X157480000Y-78740000D03*
X155711000Y-74803000D03*
X158750000Y-81280000D03*
X160020000Y-81280000D03*
X161290000Y-81280000D03*
X162560000Y-81280000D03*
X162560000Y-80010000D03*
X162560000Y-78740000D03*
X162560000Y-77470000D03*
X162560000Y-76200000D03*
X162560000Y-74930000D03*
X162560000Y-73660000D03*
X162560000Y-72390000D03*
X157480000Y-72390000D03*
X157480000Y-73660000D03*
X157480000Y-74930000D03*
X157480000Y-76200000D03*
X157480000Y-77470000D03*
X146537600Y-81656000D03*
X147248800Y-120416400D03*
X165892400Y-118740000D03*
X146842400Y-93187600D03*
X164165200Y-120365600D03*
X147248800Y-121940400D03*
X165892400Y-117063600D03*
X139882800Y-118638400D03*
X165892400Y-120416400D03*
X160253600Y-93238400D03*
X167721200Y-118740000D03*
X139120800Y-111018400D03*
X169448400Y-117114400D03*
X164165200Y-122042000D03*
X136072800Y-111018400D03*
X157612000Y-93136800D03*
X155580000Y-102128400D03*
X169448400Y-118790800D03*
X167721200Y-117063600D03*
X169600800Y-106192400D03*
X164165200Y-117012800D03*
X153090800Y-121378400D03*
X154868800Y-126512400D03*
X148976000Y-81706800D03*
X156189600Y-122092800D03*
X153868333Y-121721833D03*
X137342800Y-90190400D03*
X149280800Y-93238400D03*
X169600800Y-102382400D03*
X155427600Y-114523600D03*
X135615600Y-90190400D03*
X165892400Y-122092800D03*
X164165200Y-118689200D03*
X137088800Y-111018400D03*
X138104800Y-111018400D03*
X148264800Y-123972400D03*
X139171600Y-90190400D03*
X143692800Y-127528400D03*
X143692800Y-126512400D03*
X143692800Y-125496400D03*
X143692800Y-124480400D03*
X151132979Y-122825375D03*
X160683104Y-123935399D03*
X161726800Y-123210400D03*
X152074800Y-123210400D03*
X162451800Y-118994000D03*
X155173600Y-119044800D03*
X139925324Y-117378722D03*
X137850800Y-107716400D03*
D34*
X159948800Y-74815200D02*
X159961000Y-74803000D01*
X159948800Y-79268400D02*
X159948800Y-74815200D01*
D35*
X153406800Y-123910400D02*
X153090800Y-124226400D01*
X153406800Y-123115900D02*
X153406800Y-123910400D01*
X153090800Y-124226400D02*
X151566800Y-124226400D01*
X156189600Y-122092800D02*
X156191500Y-122090900D01*
X153750233Y-121721833D02*
X153406800Y-121378400D01*
X149333800Y-123972400D02*
X148264800Y-123972400D01*
X169600800Y-104088400D02*
X169600800Y-102382400D01*
X148571800Y-120416400D02*
X147248800Y-120416400D01*
X136072800Y-111018400D02*
X139963800Y-111018400D01*
X138866800Y-118638400D02*
X138866800Y-118437400D01*
X152169300Y-121378400D02*
X153090800Y-121378400D01*
X138866800Y-118638400D02*
X139882800Y-118638400D01*
X135178800Y-111912400D02*
X136072800Y-111018400D01*
X156191500Y-122090900D02*
X157154800Y-122090900D01*
X169600800Y-104088400D02*
X169600800Y-106192400D01*
X135310800Y-110256400D02*
X136072800Y-111018400D01*
X139963800Y-111018400D02*
X141243800Y-112298400D01*
X135064800Y-111912400D02*
X135178800Y-111912400D01*
X153868333Y-121721833D02*
X153750233Y-121721833D01*
X135056800Y-110256400D02*
X135310800Y-110256400D01*
X153406800Y-121378400D02*
X153090800Y-121378400D01*
X148571800Y-121940400D02*
X147248800Y-121940400D01*
X165113800Y-112298400D02*
X167679300Y-112298400D01*
X158678800Y-121432400D02*
X158678800Y-122090900D01*
X152169300Y-118543900D02*
X152481200Y-118232000D01*
X156138800Y-118486000D02*
X156138800Y-121026000D01*
X156342000Y-121229200D02*
X158475600Y-121229200D01*
X152169300Y-120878400D02*
X150758800Y-120878400D01*
X152481200Y-118232000D02*
X155884800Y-118232000D01*
X155884800Y-118232000D02*
X156138800Y-118486000D01*
X150758800Y-120878400D02*
X150296800Y-120416400D01*
X158475600Y-121229200D02*
X158678800Y-121432400D01*
X152169300Y-120878400D02*
X152169300Y-118543900D01*
X156138800Y-121026000D02*
X156342000Y-121229200D01*
X167679300Y-112298400D02*
X168076800Y-112695900D01*
X161716800Y-102138400D02*
X159694800Y-104160400D01*
X159694800Y-119298800D02*
X158727700Y-120265900D01*
X159694800Y-104160400D02*
X159694800Y-119298800D01*
X158727700Y-120265900D02*
X158678800Y-120265900D01*
X165113800Y-102138400D02*
X161716800Y-102138400D01*
X158678800Y-118892400D02*
X157305300Y-120265900D01*
X157305300Y-120265900D02*
X157154800Y-120265900D01*
X158678800Y-101874400D02*
X158678800Y-118892400D01*
X165113800Y-99598400D02*
X160954800Y-99598400D01*
X160954800Y-99598400D02*
X158678800Y-101874400D01*
X160202800Y-120265900D02*
X160202800Y-119908400D01*
X160710800Y-106192400D02*
X162224800Y-104678400D01*
X162224800Y-104678400D02*
X165113800Y-104678400D01*
X160710800Y-119400400D02*
X160710800Y-106192400D01*
X160202800Y-119908400D02*
X160710800Y-119400400D01*
X152169300Y-122378400D02*
X151579954Y-122378400D01*
X160202800Y-122090900D02*
X160202800Y-123455095D01*
X160202800Y-123455095D02*
X160683104Y-123935399D01*
X151579954Y-122378400D02*
X151132979Y-122825375D01*
X161726800Y-123210400D02*
X161726800Y-122090900D01*
X152169300Y-123115900D02*
X152074800Y-123210400D01*
X152906800Y-123115900D02*
X152169300Y-123115900D01*
X165113800Y-107218400D02*
X162986800Y-107218400D01*
X161726800Y-108478400D02*
X161726800Y-120265900D01*
X162986800Y-107218400D02*
X161726800Y-108478400D01*
X153954400Y-119044800D02*
X153406800Y-119592400D01*
X162742800Y-115539600D02*
X162742800Y-115844400D01*
X155173600Y-119044800D02*
X153954400Y-119044800D01*
X153406800Y-119592400D02*
X153406800Y-120140900D01*
X162742800Y-115133200D02*
X162742800Y-115539600D01*
X163494800Y-109758400D02*
X162742800Y-110510400D01*
X162742800Y-115133200D02*
X162742800Y-118703000D01*
X165113800Y-109758400D02*
X163494800Y-109758400D01*
X162742800Y-110510400D02*
X162742800Y-115133200D01*
X162742800Y-118703000D02*
X162451800Y-118994000D01*
X158838800Y-125148400D02*
X158838800Y-125628400D01*
X153906800Y-123572578D02*
X154306622Y-123972400D01*
X153906800Y-123115900D02*
X153906800Y-123572578D01*
X157662800Y-123972400D02*
X158838800Y-125148400D01*
X158838800Y-125590400D02*
X158932800Y-125496400D01*
X154306622Y-123972400D02*
X157662800Y-123972400D01*
X159948800Y-125242400D02*
X159948800Y-127020400D01*
X158170800Y-123464400D02*
X159948800Y-125242400D01*
X159440800Y-127528400D02*
X158838800Y-127528400D01*
X154755300Y-123464400D02*
X158170800Y-123464400D01*
X159948800Y-127020400D02*
X159440800Y-127528400D01*
X154406800Y-123115900D02*
X154755300Y-123464400D01*
X155978800Y-127688400D02*
X156138800Y-127528400D01*
X151726800Y-127688400D02*
X155978800Y-127688400D01*
X150550800Y-126512400D02*
X151726800Y-127688400D01*
X137342800Y-118638400D02*
X138205300Y-117775900D01*
X135818800Y-118638400D02*
X137342800Y-118638400D01*
X137850800Y-107716400D02*
X137850800Y-109366400D01*
X139882800Y-117368400D02*
X139915002Y-117368400D01*
X139475300Y-117775900D02*
X139882800Y-117368400D01*
X138205300Y-117775900D02*
X139475300Y-117775900D01*
X139915002Y-117368400D02*
X139925324Y-117378722D01*
X148010800Y-126512400D02*
X149186800Y-125336400D01*
X149186800Y-125336400D02*
X155846800Y-125336400D01*
X155846800Y-125336400D02*
X156138800Y-125628400D01*
X137342800Y-116913400D02*
X138866800Y-116913400D01*
X137088800Y-115336400D02*
X137088800Y-116913400D01*
X135818800Y-116913400D02*
X137342800Y-116913400D01*
X136588800Y-115336400D02*
X134548800Y-115336400D01*
X142168800Y-122521400D02*
X142749800Y-122521400D01*
X160456800Y-124734400D02*
X158678800Y-122956400D01*
X142749800Y-122521400D02*
X143438800Y-123210400D01*
X150196300Y-124450890D02*
X150518810Y-124773400D01*
X158014454Y-128179400D02*
X159663146Y-128179400D01*
X150196300Y-122040900D02*
X150196300Y-123210400D01*
X159663146Y-128179400D02*
X160456800Y-127385746D01*
X157732800Y-126904401D02*
X157732800Y-127274400D01*
X150358800Y-121878400D02*
X150296800Y-121940400D01*
X157798800Y-126578400D02*
X157732800Y-126512400D01*
X158838800Y-126578400D02*
X158058801Y-126578400D01*
X150296800Y-121940400D02*
X150196300Y-122040900D01*
X150196300Y-123210400D02*
X150196300Y-124450890D01*
X150518810Y-124773400D02*
X157263800Y-124773400D01*
X158838800Y-126578400D02*
X157798800Y-126578400D01*
X142649300Y-122040900D02*
X142168800Y-122521400D01*
X135163800Y-113911400D02*
X135064800Y-113812400D01*
X134548800Y-114328400D02*
X135064800Y-113812400D01*
X157732800Y-127274400D02*
X157732800Y-127897746D01*
X158678800Y-122956400D02*
X155722300Y-122956400D01*
X157732800Y-125242400D02*
X157732800Y-126512400D01*
X155722300Y-122956400D02*
X155144300Y-122378400D01*
X143477800Y-123171400D02*
X150157300Y-123171400D01*
X134548800Y-115336400D02*
X134548800Y-114328400D01*
X152169300Y-121878400D02*
X150358800Y-121878400D01*
X150157300Y-123171400D02*
X150196300Y-123210400D01*
X136588800Y-113911400D02*
X135163800Y-113911400D01*
X160456800Y-127385746D02*
X160456800Y-124734400D01*
X157263800Y-124773400D02*
X157732800Y-125242400D01*
X157732800Y-127897746D02*
X158014454Y-128179400D01*
X143438800Y-123210400D02*
X143477800Y-123171400D01*
X157732800Y-126512400D02*
X157732800Y-127274400D01*
X137088800Y-113304400D02*
X138104800Y-112288400D01*
X137088800Y-113911400D02*
X137088800Y-113304400D01*
%TA.AperFunction,Conductor*%
G36*
X137697918Y-91235814D02*
G01*
X137764795Y-91256037D01*
X137810124Y-91309207D01*
X137820918Y-91359285D01*
X137838375Y-95484303D01*
X137838373Y-95485705D01*
X137819444Y-98161610D01*
X137799286Y-98228509D01*
X137746159Y-98273889D01*
X137693935Y-98284724D01*
X135647720Y-98259770D01*
X134294571Y-98243268D01*
X134294570Y-98243268D01*
X134294564Y-98243268D01*
X134294550Y-98243269D01*
X134178807Y-98254645D01*
X134178686Y-98253421D01*
X134114407Y-98244827D01*
X134061153Y-98199597D01*
X134040806Y-98132755D01*
X134040800Y-98131529D01*
X134040800Y-91331401D01*
X134060485Y-91264362D01*
X134113289Y-91218607D01*
X134165795Y-91207405D01*
X137697918Y-91235814D01*
G37*
%TD.AperFunction*%
%TA.AperFunction,Conductor*%
G36*
X136175952Y-113311357D02*
G01*
X136200489Y-113314165D01*
X136214724Y-113322742D01*
X136219296Y-113324085D01*
X136226242Y-113329682D01*
X136230719Y-113332380D01*
X136235531Y-113336312D01*
X136302149Y-113402930D01*
X136362955Y-113440436D01*
X136369314Y-113445632D01*
X136384586Y-113467952D01*
X136402673Y-113488060D01*
X136404023Y-113496358D01*
X136408770Y-113503295D01*
X136413481Y-113554477D01*
X136413896Y-113557023D01*
X136413747Y-113557364D01*
X136413791Y-113557837D01*
X136405300Y-113622333D01*
X136405300Y-114200466D01*
X136420639Y-114316985D01*
X136420640Y-114316987D01*
X136456246Y-114402947D01*
X136463715Y-114472417D01*
X136432440Y-114534896D01*
X136372351Y-114570548D01*
X136341685Y-114574400D01*
X135056800Y-114574400D01*
X135056800Y-116031534D01*
X135037115Y-116098573D01*
X135020481Y-116119215D01*
X134992142Y-116147553D01*
X134992139Y-116147557D01*
X134900595Y-116295971D01*
X134900590Y-116295982D01*
X134845738Y-116461517D01*
X134835300Y-116563679D01*
X134835300Y-117263105D01*
X134835301Y-117263121D01*
X134845738Y-117365282D01*
X134900590Y-117530817D01*
X134900595Y-117530828D01*
X134992139Y-117679242D01*
X134992142Y-117679246D01*
X135001115Y-117688219D01*
X135034600Y-117749542D01*
X135029616Y-117819234D01*
X135001115Y-117863581D01*
X134992142Y-117872553D01*
X134992139Y-117872557D01*
X134900595Y-118020971D01*
X134900590Y-118020982D01*
X134845738Y-118186517D01*
X134835300Y-118288679D01*
X134835300Y-118988105D01*
X134835301Y-118988121D01*
X134845738Y-119090282D01*
X134900590Y-119255817D01*
X134900595Y-119255828D01*
X134992139Y-119404242D01*
X134992142Y-119404246D01*
X135115453Y-119527557D01*
X135115457Y-119527560D01*
X135263871Y-119619104D01*
X135263874Y-119619105D01*
X135263880Y-119619109D01*
X135429419Y-119673962D01*
X135531587Y-119684400D01*
X136106012Y-119684399D01*
X136208181Y-119673962D01*
X136373720Y-119619109D01*
X136515704Y-119531531D01*
X136583095Y-119513091D01*
X136645895Y-119531531D01*
X136787880Y-119619109D01*
X136953419Y-119673962D01*
X137055587Y-119684400D01*
X137630012Y-119684399D01*
X137732181Y-119673962D01*
X137897720Y-119619109D01*
X138039704Y-119531531D01*
X138107095Y-119513091D01*
X138169895Y-119531531D01*
X138311880Y-119619109D01*
X138477419Y-119673962D01*
X138579587Y-119684400D01*
X139154012Y-119684399D01*
X139256181Y-119673962D01*
X139421720Y-119619109D01*
X139559372Y-119534203D01*
X139626763Y-119515763D01*
X139648655Y-119518124D01*
X139793319Y-119546899D01*
X139793320Y-119546900D01*
X139793321Y-119546900D01*
X139972280Y-119546900D01*
X139972281Y-119546899D01*
X140147800Y-119511987D01*
X140313136Y-119443502D01*
X140346367Y-119421297D01*
X140413044Y-119400420D01*
X140415258Y-119400400D01*
X145854800Y-119400400D01*
X145921839Y-119420085D01*
X145967594Y-119472889D01*
X145978800Y-119524400D01*
X145978800Y-123340400D01*
X145959115Y-123407439D01*
X145906311Y-123453194D01*
X145854800Y-123464400D01*
X140768800Y-123464400D01*
X140701761Y-123444715D01*
X140656006Y-123391911D01*
X140644800Y-123340400D01*
X140644800Y-121178400D01*
X134164800Y-121178400D01*
X134097761Y-121158715D01*
X134052006Y-121105911D01*
X134040800Y-121054400D01*
X134040800Y-113428400D01*
X134060485Y-113361361D01*
X134113289Y-113315606D01*
X134164800Y-113304400D01*
X136152257Y-113304400D01*
X136175952Y-113311357D01*
G37*
%TD.AperFunction*%
%TA.AperFunction,Conductor*%
G36*
X167774334Y-94528085D02*
G01*
X167820089Y-94580889D01*
X167825001Y-94593396D01*
X167863685Y-94710138D01*
X167956770Y-94861052D01*
X168082148Y-94986430D01*
X168233062Y-95079515D01*
X168401374Y-95135287D01*
X168505255Y-95145900D01*
X170696344Y-95145899D01*
X170800226Y-95135287D01*
X170968538Y-95079515D01*
X171119452Y-94986430D01*
X171244830Y-94861052D01*
X171337915Y-94710138D01*
X171376599Y-94593396D01*
X171416372Y-94535951D01*
X171480887Y-94509128D01*
X171494305Y-94508400D01*
X172015090Y-94508400D01*
X172082129Y-94528085D01*
X172127884Y-94580889D01*
X172139078Y-94634098D01*
X171888475Y-112928098D01*
X171867874Y-112994862D01*
X171814449Y-113039889D01*
X171764487Y-113050400D01*
X167184800Y-113050400D01*
X167117761Y-113030715D01*
X167072006Y-112977911D01*
X167060800Y-112926400D01*
X167060800Y-103252847D01*
X167797300Y-103252847D01*
X167797300Y-104923937D01*
X167797301Y-104923953D01*
X167807913Y-105027826D01*
X167863685Y-105196138D01*
X167956770Y-105347052D01*
X168082148Y-105472430D01*
X168233062Y-105565515D01*
X168401374Y-105621287D01*
X168505255Y-105631900D01*
X168664034Y-105631899D01*
X168731073Y-105651583D01*
X168776828Y-105704387D01*
X168786772Y-105773545D01*
X168778595Y-105803351D01*
X168727214Y-105927395D01*
X168727211Y-105927407D01*
X168692300Y-106102916D01*
X168692300Y-106281883D01*
X168727211Y-106457392D01*
X168727213Y-106457400D01*
X168795696Y-106622732D01*
X168795701Y-106622742D01*
X168895121Y-106771534D01*
X168895124Y-106771538D01*
X169021661Y-106898075D01*
X169021665Y-106898078D01*
X169170457Y-106997498D01*
X169170461Y-106997500D01*
X169170464Y-106997502D01*
X169335800Y-107065987D01*
X169511316Y-107100899D01*
X169511320Y-107100900D01*
X169511321Y-107100900D01*
X169690280Y-107100900D01*
X169690281Y-107100899D01*
X169865800Y-107065987D01*
X170031136Y-106997502D01*
X170179935Y-106898078D01*
X170306478Y-106771535D01*
X170405902Y-106622736D01*
X170474387Y-106457400D01*
X170509300Y-106281879D01*
X170509300Y-106102921D01*
X170474387Y-105927400D01*
X170423003Y-105803351D01*
X170415535Y-105733883D01*
X170446810Y-105671403D01*
X170506899Y-105635751D01*
X170537565Y-105631899D01*
X170696337Y-105631899D01*
X170696344Y-105631899D01*
X170800226Y-105621287D01*
X170968538Y-105565515D01*
X171119452Y-105472430D01*
X171244830Y-105347052D01*
X171337915Y-105196138D01*
X171393687Y-105027826D01*
X171404300Y-104923945D01*
X171404299Y-103252856D01*
X171393687Y-103148974D01*
X171337915Y-102980662D01*
X171244830Y-102829748D01*
X171119452Y-102704370D01*
X170968538Y-102611285D01*
X170968535Y-102611284D01*
X170800227Y-102555513D01*
X170696352Y-102544900D01*
X170696345Y-102544900D01*
X170633300Y-102544900D01*
X170566261Y-102525215D01*
X170520506Y-102472411D01*
X170509300Y-102420900D01*
X170509300Y-102292920D01*
X170509299Y-102292916D01*
X170494373Y-102217879D01*
X170474387Y-102117400D01*
X170405902Y-101952064D01*
X170405900Y-101952061D01*
X170405898Y-101952057D01*
X170306478Y-101803265D01*
X170306475Y-101803261D01*
X170179938Y-101676724D01*
X170179934Y-101676721D01*
X170031142Y-101577301D01*
X170031132Y-101577296D01*
X169865800Y-101508813D01*
X169865792Y-101508811D01*
X169690283Y-101473900D01*
X169690279Y-101473900D01*
X169511321Y-101473900D01*
X169511316Y-101473900D01*
X169335807Y-101508811D01*
X169335799Y-101508813D01*
X169170467Y-101577296D01*
X169170457Y-101577301D01*
X169021665Y-101676721D01*
X169021661Y-101676724D01*
X168895124Y-101803261D01*
X168895121Y-101803265D01*
X168795701Y-101952057D01*
X168795696Y-101952067D01*
X168727213Y-102117399D01*
X168727211Y-102117407D01*
X168692300Y-102292916D01*
X168692300Y-102420900D01*
X168672615Y-102487939D01*
X168619811Y-102533694D01*
X168568302Y-102544900D01*
X168505262Y-102544900D01*
X168505246Y-102544901D01*
X168401372Y-102555513D01*
X168233064Y-102611284D01*
X168233059Y-102611286D01*
X168082146Y-102704371D01*
X167956771Y-102829746D01*
X167863686Y-102980659D01*
X167863684Y-102980664D01*
X167807913Y-103148972D01*
X167797300Y-103252847D01*
X167060800Y-103252847D01*
X167060800Y-98572400D01*
X167060799Y-98572400D01*
X166787767Y-98574132D01*
X166720605Y-98554873D01*
X166687715Y-98524445D01*
X166647062Y-98470141D01*
X166647063Y-98470141D01*
X166647061Y-98470139D01*
X166530004Y-98382511D01*
X166393003Y-98331411D01*
X166332454Y-98324900D01*
X166332438Y-98324900D01*
X163895162Y-98324900D01*
X163895145Y-98324900D01*
X163834597Y-98331411D01*
X163834595Y-98331411D01*
X163697595Y-98382511D01*
X163580539Y-98470139D01*
X163523911Y-98545785D01*
X163467977Y-98587656D01*
X163425431Y-98595472D01*
X152328800Y-98665900D01*
X152328800Y-119493326D01*
X152319361Y-119540777D01*
X152299080Y-119589742D01*
X152263319Y-119676075D01*
X152263319Y-119676076D01*
X152248300Y-119790148D01*
X152248300Y-120491646D01*
X152258443Y-120568697D01*
X152258131Y-120574850D01*
X152259326Y-120578235D01*
X152256183Y-120613389D01*
X152253580Y-120624408D01*
X152219010Y-120685126D01*
X152157101Y-120717516D01*
X152132901Y-120719900D01*
X151818548Y-120719900D01*
X151704476Y-120734919D01*
X151704475Y-120734919D01*
X151562533Y-120793713D01*
X151440639Y-120887246D01*
X151439798Y-120888088D01*
X151438914Y-120888570D01*
X151434196Y-120892191D01*
X151433631Y-120891454D01*
X151378472Y-120921568D01*
X151352123Y-120924400D01*
X149732557Y-120924400D01*
X149665518Y-120904715D01*
X149619763Y-120851911D01*
X149609199Y-120787797D01*
X149611512Y-120765156D01*
X149617800Y-120703613D01*
X149617799Y-120129188D01*
X149607362Y-120027019D01*
X149552509Y-119861480D01*
X149552505Y-119861473D01*
X149549911Y-119855910D01*
X149538296Y-119803125D01*
X149606000Y-98094800D01*
X149605999Y-98094799D01*
X139578000Y-98115200D01*
X139578000Y-98685234D01*
X139572384Y-98716361D01*
X139573595Y-98716648D01*
X139571810Y-98724199D01*
X139565300Y-98784745D01*
X139565300Y-100412054D01*
X139571810Y-100472599D01*
X139573595Y-100480150D01*
X139572382Y-100480436D01*
X139578000Y-100511565D01*
X139578000Y-101038732D01*
X139558315Y-101105771D01*
X139505511Y-101151526D01*
X139453533Y-101162731D01*
X134286333Y-101143265D01*
X134219368Y-101123328D01*
X134173812Y-101070352D01*
X134162800Y-101019266D01*
X134162800Y-98880721D01*
X134182485Y-98813682D01*
X134235289Y-98767927D01*
X134288309Y-98756730D01*
X138328400Y-98806000D01*
X138357929Y-94631522D01*
X138378087Y-94564624D01*
X138431214Y-94519244D01*
X138481926Y-94508400D01*
X167707295Y-94508400D01*
X167774334Y-94528085D01*
G37*
%TD.AperFunction*%
%TA.AperFunction,Conductor*%
G36*
X134284399Y-101656761D02*
G01*
X139271670Y-101675549D01*
X139338632Y-101695485D01*
X139384188Y-101748461D01*
X139395200Y-101799547D01*
X139395200Y-109995588D01*
X139375515Y-110062627D01*
X139322711Y-110108382D01*
X139253553Y-110118326D01*
X139247010Y-110117206D01*
X139229167Y-110113657D01*
X139210279Y-110109900D01*
X139031321Y-110109900D01*
X139031316Y-110109900D01*
X138855807Y-110144811D01*
X138855799Y-110144813D01*
X138690462Y-110213298D01*
X138681686Y-110219162D01*
X138615008Y-110240037D01*
X138547628Y-110221549D01*
X138543914Y-110219162D01*
X138535137Y-110213298D01*
X138369800Y-110144813D01*
X138369792Y-110144811D01*
X138194283Y-110109900D01*
X138194279Y-110109900D01*
X138015321Y-110109900D01*
X138015316Y-110109900D01*
X137839807Y-110144811D01*
X137839799Y-110144813D01*
X137674462Y-110213298D01*
X137665686Y-110219162D01*
X137599008Y-110240037D01*
X137531628Y-110221549D01*
X137527914Y-110219162D01*
X137519137Y-110213298D01*
X137353800Y-110144813D01*
X137353792Y-110144811D01*
X137178283Y-110109900D01*
X137178279Y-110109900D01*
X136999321Y-110109900D01*
X136999316Y-110109900D01*
X136823807Y-110144811D01*
X136823799Y-110144813D01*
X136658462Y-110213298D01*
X136649686Y-110219162D01*
X136583008Y-110240037D01*
X136529159Y-110228792D01*
X136520144Y-110224662D01*
X136503136Y-110213298D01*
X136421656Y-110179547D01*
X136419559Y-110178587D01*
X136394850Y-110157126D01*
X136369343Y-110136571D01*
X136368594Y-110134322D01*
X136366808Y-110132771D01*
X136357622Y-110101355D01*
X136347279Y-110070277D01*
X136347200Y-110065852D01*
X136347200Y-109677200D01*
X136289136Y-109677200D01*
X136222097Y-109657515D01*
X136183598Y-109618297D01*
X136130832Y-109532751D01*
X136130829Y-109532747D01*
X136005453Y-109407371D01*
X136005452Y-109407370D01*
X135859274Y-109317206D01*
X135854540Y-109314286D01*
X135854535Y-109314284D01*
X135686227Y-109258513D01*
X135582346Y-109247900D01*
X134531262Y-109247900D01*
X134531246Y-109247901D01*
X134427372Y-109258513D01*
X134259064Y-109314284D01*
X134259054Y-109314289D01*
X134250293Y-109319693D01*
X134182900Y-109338131D01*
X134116237Y-109317206D01*
X134071469Y-109263562D01*
X134061200Y-109214152D01*
X134061200Y-101767460D01*
X134080885Y-101700421D01*
X134133689Y-101654666D01*
X134202847Y-101644722D01*
X134284399Y-101656761D01*
G37*
%TD.AperFunction*%
%TA.AperFunction,Conductor*%
G36*
X145921839Y-123997585D02*
G01*
X145967594Y-124050389D01*
X145978800Y-124101900D01*
X145978800Y-125087313D01*
X145959115Y-125154352D01*
X145906311Y-125200107D01*
X145837153Y-125210051D01*
X145816485Y-125205245D01*
X145786927Y-125195642D01*
X145577046Y-125162400D01*
X145364554Y-125162400D01*
X145154672Y-125195642D01*
X145154669Y-125195642D01*
X144952582Y-125261304D01*
X144763239Y-125357780D01*
X144709082Y-125397127D01*
X144709082Y-125397128D01*
X145341391Y-126029437D01*
X145277807Y-126046475D01*
X145163793Y-126112301D01*
X145070701Y-126205393D01*
X145004875Y-126319407D01*
X144987837Y-126382990D01*
X144355528Y-125750682D01*
X144355527Y-125750682D01*
X144316180Y-125804839D01*
X144219704Y-125994182D01*
X144154042Y-126196269D01*
X144154042Y-126196272D01*
X144120800Y-126406153D01*
X144120800Y-126618646D01*
X144154042Y-126828527D01*
X144154042Y-126828530D01*
X144219704Y-127030617D01*
X144316175Y-127219950D01*
X144355528Y-127274116D01*
X144987837Y-126641808D01*
X145004875Y-126705393D01*
X145070701Y-126819407D01*
X145163793Y-126912499D01*
X145277807Y-126978325D01*
X145341389Y-126995362D01*
X144709082Y-127627669D01*
X144709082Y-127627670D01*
X144763249Y-127667024D01*
X144952582Y-127763495D01*
X145047910Y-127794469D01*
X145105585Y-127833906D01*
X145132784Y-127898265D01*
X145120870Y-127967111D01*
X145073626Y-128018587D01*
X145009592Y-128036400D01*
X141276800Y-128036400D01*
X141209761Y-128016715D01*
X141164006Y-127963911D01*
X141152800Y-127912400D01*
X141152800Y-126791159D01*
X141172485Y-126724120D01*
X141225289Y-126678365D01*
X141294447Y-126668421D01*
X141315804Y-126673453D01*
X141391103Y-126698405D01*
X141391110Y-126698406D01*
X141493814Y-126708899D01*
X141493827Y-126708900D01*
X141918800Y-126708900D01*
X142418800Y-126708900D01*
X142843773Y-126708900D01*
X142843785Y-126708899D01*
X142946489Y-126698406D01*
X142946496Y-126698405D01*
X143112918Y-126643258D01*
X143112923Y-126643256D01*
X143262144Y-126551215D01*
X143386115Y-126427244D01*
X143442282Y-126336184D01*
X143442284Y-126336181D01*
X143478153Y-126278029D01*
X143478158Y-126278018D01*
X143533305Y-126111596D01*
X143533306Y-126111589D01*
X143543799Y-126008885D01*
X143543800Y-126008872D01*
X143543800Y-125746400D01*
X142418800Y-125746400D01*
X142418800Y-126708900D01*
X141918800Y-126708900D01*
X141918800Y-125246400D01*
X142418800Y-125246400D01*
X143543800Y-125246400D01*
X143543800Y-124983927D01*
X143543799Y-124983914D01*
X143533306Y-124881210D01*
X143533305Y-124881203D01*
X143478158Y-124714781D01*
X143478156Y-124714776D01*
X143386115Y-124565555D01*
X143262144Y-124441584D01*
X143112923Y-124349543D01*
X143112918Y-124349541D01*
X142946496Y-124294394D01*
X142946489Y-124294393D01*
X142843785Y-124283900D01*
X142418800Y-124283900D01*
X142418800Y-125246400D01*
X141918800Y-125246400D01*
X141918800Y-124283900D01*
X141493814Y-124283900D01*
X141391110Y-124294393D01*
X141391099Y-124294395D01*
X141315803Y-124319346D01*
X141245975Y-124321747D01*
X141185933Y-124286015D01*
X141154741Y-124223495D01*
X141152800Y-124201640D01*
X141152800Y-124101900D01*
X141172485Y-124034861D01*
X141225289Y-123989106D01*
X141276800Y-123977900D01*
X145854800Y-123977900D01*
X145921839Y-123997585D01*
G37*
%TD.AperFunction*%
%TA.AperFunction,Conductor*%
G36*
X149763839Y-123566585D02*
G01*
X149809594Y-123619389D01*
X149820800Y-123670900D01*
X149820800Y-124401454D01*
X149820800Y-124500326D01*
X149825298Y-124517112D01*
X149844684Y-124589463D01*
X149846391Y-124595831D01*
X149892881Y-124676354D01*
X149892882Y-124676354D01*
X149895826Y-124681453D01*
X149895828Y-124681456D01*
X149963591Y-124749219D01*
X149997076Y-124810542D01*
X149992092Y-124880234D01*
X149950220Y-124936167D01*
X149884756Y-124960584D01*
X149875910Y-124960900D01*
X149137364Y-124960900D01*
X149089612Y-124973695D01*
X149089611Y-124973694D01*
X149041863Y-124986489D01*
X149041862Y-124986489D01*
X148956235Y-125035927D01*
X148537084Y-125455077D01*
X148475761Y-125488562D01*
X148411086Y-125485327D01*
X148268501Y-125438998D01*
X148268499Y-125438997D01*
X148268498Y-125438997D01*
X148137071Y-125418181D01*
X148097411Y-125411900D01*
X147924189Y-125411900D01*
X147884528Y-125418181D01*
X147753102Y-125438997D01*
X147588352Y-125492528D01*
X147434011Y-125571168D01*
X147372060Y-125616179D01*
X147293872Y-125672986D01*
X147293870Y-125672988D01*
X147293869Y-125672988D01*
X147171388Y-125795469D01*
X147171388Y-125795470D01*
X147171386Y-125795472D01*
X147151094Y-125823402D01*
X147069568Y-125935611D01*
X146990928Y-126089952D01*
X146937397Y-126254702D01*
X146910300Y-126425789D01*
X146910300Y-126599010D01*
X146935639Y-126758999D01*
X146937398Y-126770101D01*
X146990927Y-126934845D01*
X147069568Y-127089188D01*
X147171386Y-127229328D01*
X147293872Y-127351814D01*
X147434012Y-127453632D01*
X147588355Y-127532273D01*
X147753099Y-127585802D01*
X147924189Y-127612900D01*
X147924190Y-127612900D01*
X148097410Y-127612900D01*
X148097411Y-127612900D01*
X148268501Y-127585802D01*
X148433245Y-127532273D01*
X148587588Y-127453632D01*
X148727728Y-127351814D01*
X148850214Y-127229328D01*
X148952032Y-127089188D01*
X149030673Y-126934845D01*
X149084202Y-126770101D01*
X149111300Y-126599011D01*
X149111300Y-126425789D01*
X149084202Y-126254699D01*
X149037871Y-126112110D01*
X149035877Y-126042271D01*
X149068119Y-125986117D01*
X149306019Y-125748216D01*
X149332951Y-125733511D01*
X149358764Y-125716923D01*
X149364964Y-125716031D01*
X149367341Y-125714734D01*
X149393699Y-125711900D01*
X149528740Y-125711900D01*
X149595779Y-125731585D01*
X149641534Y-125784389D01*
X149651478Y-125853547D01*
X149629059Y-125908785D01*
X149609567Y-125935612D01*
X149530928Y-126089952D01*
X149477397Y-126254702D01*
X149450300Y-126425789D01*
X149450300Y-126599010D01*
X149475639Y-126758999D01*
X149477398Y-126770101D01*
X149530927Y-126934845D01*
X149609568Y-127089188D01*
X149711386Y-127229328D01*
X149833872Y-127351814D01*
X149974012Y-127453632D01*
X150128355Y-127532273D01*
X150293099Y-127585802D01*
X150464189Y-127612900D01*
X150464190Y-127612900D01*
X150637410Y-127612900D01*
X150637411Y-127612900D01*
X150808501Y-127585802D01*
X150951089Y-127539471D01*
X151020926Y-127537477D01*
X151077085Y-127569722D01*
X151426325Y-127918962D01*
X151496238Y-127988875D01*
X151566064Y-128029189D01*
X151581862Y-128038310D01*
X151612895Y-128046626D01*
X151672555Y-128082991D01*
X151703083Y-128145839D01*
X151694788Y-128215214D01*
X151650301Y-128269092D01*
X151583749Y-128290365D01*
X151580800Y-128290400D01*
X145720929Y-128290400D01*
X145698782Y-128283897D01*
X145675787Y-128281891D01*
X145665891Y-128274238D01*
X145653890Y-128270715D01*
X145638774Y-128253271D01*
X145620514Y-128239151D01*
X145616326Y-128227363D01*
X145608135Y-128217911D01*
X145604849Y-128195064D01*
X145597122Y-128173314D01*
X145599305Y-128156504D01*
X145598191Y-128148753D01*
X145600189Y-128138153D01*
X145601380Y-128133057D01*
X145626850Y-128054672D01*
X145638764Y-127985826D01*
X145638764Y-127985824D01*
X145642936Y-127839726D01*
X145617120Y-127741515D01*
X145619114Y-127671677D01*
X145658551Y-127614001D01*
X145717650Y-127587520D01*
X145728501Y-127585802D01*
X145893245Y-127532273D01*
X146047588Y-127453632D01*
X146187728Y-127351814D01*
X146310214Y-127229328D01*
X146412032Y-127089188D01*
X146490673Y-126934845D01*
X146544202Y-126770101D01*
X146571300Y-126599011D01*
X146571300Y-126425789D01*
X146544202Y-126254699D01*
X146490673Y-126089955D01*
X146412032Y-125935612D01*
X146310214Y-125795472D01*
X146261936Y-125747194D01*
X146228451Y-125685871D01*
X146233435Y-125616179D01*
X146268414Y-125565800D01*
X146295386Y-125542429D01*
X146391097Y-125431974D01*
X146451814Y-125299026D01*
X146471499Y-125231987D01*
X146471500Y-125231983D01*
X146492300Y-125087313D01*
X146492300Y-124101900D01*
X146480564Y-123992743D01*
X146469358Y-123941232D01*
X146447879Y-123876698D01*
X146434691Y-123837074D01*
X146434690Y-123837072D01*
X146405230Y-123791233D01*
X146402678Y-123782543D01*
X146396748Y-123775699D01*
X146392988Y-123749546D01*
X146385544Y-123724194D01*
X146387832Y-123713674D01*
X146386807Y-123706540D01*
X146396749Y-123672683D01*
X146418496Y-123625068D01*
X146421092Y-123619384D01*
X146466848Y-123566582D01*
X146533884Y-123546900D01*
X149696800Y-123546900D01*
X149763839Y-123566585D01*
G37*
%TD.AperFunction*%
%TA.AperFunction,Conductor*%
G36*
X163612634Y-110274117D02*
G01*
X163668567Y-110315989D01*
X163692984Y-110381453D01*
X163693300Y-110390299D01*
X163693300Y-110548078D01*
X163707832Y-110621135D01*
X163707833Y-110621139D01*
X163724102Y-110645487D01*
X163763199Y-110704001D01*
X163837215Y-110753456D01*
X163846060Y-110759366D01*
X163846064Y-110759367D01*
X163919121Y-110773899D01*
X163919124Y-110773900D01*
X163919126Y-110773900D01*
X166308476Y-110773900D01*
X166308477Y-110773899D01*
X166325519Y-110770509D01*
X166393519Y-110756984D01*
X166394072Y-110759765D01*
X166445306Y-110754253D01*
X166507788Y-110785523D01*
X166543446Y-110845609D01*
X166547300Y-110876285D01*
X166547300Y-111180514D01*
X166527615Y-111247553D01*
X166474811Y-111293308D01*
X166405653Y-111303252D01*
X166392093Y-111299532D01*
X166308477Y-111282900D01*
X166308474Y-111282900D01*
X163919126Y-111282900D01*
X163919123Y-111282900D01*
X163846064Y-111297432D01*
X163846060Y-111297433D01*
X163763199Y-111352799D01*
X163707833Y-111435660D01*
X163707832Y-111435664D01*
X163693300Y-111508721D01*
X163693300Y-113088078D01*
X163707832Y-113161135D01*
X163707833Y-113161139D01*
X163708038Y-113161446D01*
X163763199Y-113244001D01*
X163822653Y-113283726D01*
X163846060Y-113299366D01*
X163846064Y-113299367D01*
X163919121Y-113313899D01*
X163919124Y-113313900D01*
X163919126Y-113313900D01*
X166308476Y-113313900D01*
X166308477Y-113313899D01*
X166381540Y-113299366D01*
X166464401Y-113244001D01*
X166464401Y-113243999D01*
X166474556Y-113237215D01*
X166475746Y-113238996D01*
X166523092Y-113213139D01*
X166592784Y-113218118D01*
X166648721Y-113259984D01*
X166653774Y-113267262D01*
X166683925Y-113314177D01*
X166683934Y-113314188D01*
X166729679Y-113366981D01*
X166729682Y-113366984D01*
X166840135Y-113462694D01*
X166840137Y-113462695D01*
X166840139Y-113462697D01*
X166973087Y-113523414D01*
X167040126Y-113543099D01*
X167040130Y-113543100D01*
X167184800Y-113563900D01*
X167184803Y-113563900D01*
X171764481Y-113563900D01*
X171764487Y-113563900D01*
X171870203Y-113552900D01*
X171920165Y-113542389D01*
X172021348Y-113509862D01*
X172109278Y-113455040D01*
X172149133Y-113430192D01*
X172149949Y-113431501D01*
X172209527Y-113410188D01*
X172277594Y-113425956D01*
X172326331Y-113476021D01*
X172340710Y-113533939D01*
X172344292Y-124366327D01*
X172344294Y-124370892D01*
X172344294Y-124370905D01*
X172344297Y-124379907D01*
X172344167Y-124385625D01*
X172327856Y-124741544D01*
X172326803Y-124752951D01*
X172278109Y-125103005D01*
X172276008Y-125114268D01*
X172195212Y-125458337D01*
X172192081Y-125469357D01*
X172079874Y-125804507D01*
X172075739Y-125815191D01*
X171933079Y-126138556D01*
X171927975Y-126148813D01*
X171756087Y-126457616D01*
X171750059Y-126467358D01*
X171550391Y-126758999D01*
X171543489Y-126768144D01*
X171317767Y-127040100D01*
X171310050Y-127048568D01*
X171060187Y-127298535D01*
X171051723Y-127306255D01*
X170779850Y-127532101D01*
X170770716Y-127539000D01*
X170479169Y-127738783D01*
X170469435Y-127744812D01*
X170160686Y-127916838D01*
X170150432Y-127921946D01*
X169827133Y-128064740D01*
X169816450Y-128068880D01*
X169481348Y-128181227D01*
X169470329Y-128184363D01*
X169126284Y-128265304D01*
X169115023Y-128267409D01*
X168958780Y-128289210D01*
X168941644Y-128290400D01*
X160382544Y-128290400D01*
X160315505Y-128270715D01*
X160269750Y-128217911D01*
X160259806Y-128148753D01*
X160288831Y-128085197D01*
X160294863Y-128078719D01*
X160415476Y-127958107D01*
X160757274Y-127616309D01*
X160757275Y-127616308D01*
X160806710Y-127530684D01*
X160820568Y-127478964D01*
X160832300Y-127435182D01*
X160832300Y-127336310D01*
X160832300Y-124684965D01*
X160832298Y-124684961D01*
X160831327Y-124677581D01*
X160842091Y-124608546D01*
X160888469Y-124556288D01*
X160906814Y-124546831D01*
X160978564Y-124517111D01*
X166988300Y-124517111D01*
X166988300Y-124759688D01*
X167018158Y-124986490D01*
X167019962Y-125000189D01*
X167038673Y-125070019D01*
X167082747Y-125234504D01*
X167174112Y-125455077D01*
X167175576Y-125458612D01*
X167296864Y-125668689D01*
X167296866Y-125668692D01*
X167296867Y-125668693D01*
X167444533Y-125861136D01*
X167444539Y-125861143D01*
X167616056Y-126032660D01*
X167616063Y-126032666D01*
X167669845Y-126073934D01*
X167808511Y-126180336D01*
X168018588Y-126301624D01*
X168242700Y-126394454D01*
X168477011Y-126457238D01*
X168657386Y-126480984D01*
X168717511Y-126488900D01*
X168717512Y-126488900D01*
X168960089Y-126488900D01*
X169008188Y-126482567D01*
X169200589Y-126457238D01*
X169434900Y-126394454D01*
X169659012Y-126301624D01*
X169869089Y-126180336D01*
X170061538Y-126032665D01*
X170233065Y-125861138D01*
X170380736Y-125668689D01*
X170502024Y-125458612D01*
X170594854Y-125234500D01*
X170657638Y-125000189D01*
X170689300Y-124759688D01*
X170689300Y-124517112D01*
X170688609Y-124511867D01*
X170676975Y-124423490D01*
X170657638Y-124276611D01*
X170594854Y-124042300D01*
X170502024Y-123818188D01*
X170380736Y-123608111D01*
X170259078Y-123449563D01*
X170233066Y-123415663D01*
X170233060Y-123415656D01*
X170061543Y-123244139D01*
X170061536Y-123244133D01*
X169869093Y-123096467D01*
X169869092Y-123096466D01*
X169869089Y-123096464D01*
X169659012Y-122975176D01*
X169659005Y-122975173D01*
X169434904Y-122882347D01*
X169200585Y-122819561D01*
X168960089Y-122787900D01*
X168960088Y-122787900D01*
X168717512Y-122787900D01*
X168717511Y-122787900D01*
X168477014Y-122819561D01*
X168242695Y-122882347D01*
X168018594Y-122975173D01*
X168018585Y-122975177D01*
X167808506Y-123096467D01*
X167616063Y-123244133D01*
X167616056Y-123244139D01*
X167444539Y-123415656D01*
X167444533Y-123415663D01*
X167296867Y-123608106D01*
X167175577Y-123818185D01*
X167175573Y-123818194D01*
X167082747Y-124042295D01*
X167019961Y-124276614D01*
X166988300Y-124517111D01*
X160978564Y-124517111D01*
X160991224Y-124511867D01*
X160991224Y-124511866D01*
X160991231Y-124511864D01*
X161097773Y-124440675D01*
X161097776Y-124440672D01*
X161113077Y-124425372D01*
X161188377Y-124350071D01*
X161188380Y-124350068D01*
X161259569Y-124243526D01*
X161308605Y-124125143D01*
X161318860Y-124073589D01*
X161333604Y-123999470D01*
X161333604Y-123937207D01*
X161353289Y-123870168D01*
X161406093Y-123824413D01*
X161475251Y-123814469D01*
X161505051Y-123822644D01*
X161537056Y-123835901D01*
X161537060Y-123835901D01*
X161537061Y-123835902D01*
X161662728Y-123860900D01*
X161662731Y-123860900D01*
X161790871Y-123860900D01*
X161875415Y-123844082D01*
X161916544Y-123835901D01*
X162034927Y-123786865D01*
X162141469Y-123715676D01*
X162232076Y-123625069D01*
X162303265Y-123518527D01*
X162352301Y-123400144D01*
X162373614Y-123293001D01*
X162377300Y-123274471D01*
X162377300Y-123146328D01*
X162352302Y-123020661D01*
X162352301Y-123020660D01*
X162352301Y-123020656D01*
X162303265Y-122902273D01*
X162277018Y-122862992D01*
X162256141Y-122796316D01*
X162274625Y-122728936D01*
X162305812Y-122694833D01*
X162312916Y-122689516D01*
X162397012Y-122577178D01*
X162446051Y-122445699D01*
X162449440Y-122414178D01*
X162452299Y-122387590D01*
X162452300Y-122387573D01*
X162452300Y-121794226D01*
X162452299Y-121794209D01*
X162446051Y-121736100D01*
X162425426Y-121680804D01*
X162397012Y-121604622D01*
X162392130Y-121598101D01*
X162343043Y-121532529D01*
X162312916Y-121492284D01*
X162236340Y-121434959D01*
X162200580Y-121408189D01*
X162200578Y-121408188D01*
X162158788Y-121392601D01*
X162069099Y-121359148D01*
X162010990Y-121352900D01*
X162010974Y-121352900D01*
X161442626Y-121352900D01*
X161442609Y-121352900D01*
X161384500Y-121359148D01*
X161253019Y-121408189D01*
X161184128Y-121459762D01*
X161140684Y-121492284D01*
X161140683Y-121492285D01*
X161140682Y-121492286D01*
X161064066Y-121594631D01*
X161008132Y-121636502D01*
X160938441Y-121641486D01*
X160877118Y-121608000D01*
X160865534Y-121594631D01*
X160796863Y-121502900D01*
X160788916Y-121492284D01*
X160695238Y-121422157D01*
X160676580Y-121408189D01*
X160676578Y-121408188D01*
X160634788Y-121392601D01*
X160545099Y-121359148D01*
X160486990Y-121352900D01*
X160486974Y-121352900D01*
X159918626Y-121352900D01*
X159918609Y-121352900D01*
X159860500Y-121359148D01*
X159729019Y-121408189D01*
X159660128Y-121459762D01*
X159616684Y-121492284D01*
X159616683Y-121492285D01*
X159616682Y-121492286D01*
X159540066Y-121594631D01*
X159484132Y-121636502D01*
X159414441Y-121641486D01*
X159353118Y-121608000D01*
X159341534Y-121594631D01*
X159272863Y-121502900D01*
X159264916Y-121492284D01*
X159152578Y-121408188D01*
X159152575Y-121408186D01*
X159110790Y-121392601D01*
X159054857Y-121350729D01*
X159045009Y-121335324D01*
X159038110Y-121322544D01*
X159028710Y-121287462D01*
X158979275Y-121201838D01*
X158965530Y-121188093D01*
X158956918Y-121172139D01*
X158953272Y-121154984D01*
X158944868Y-121139593D01*
X158946160Y-121121518D01*
X158942394Y-121103795D01*
X158948600Y-121087394D01*
X158949852Y-121069901D01*
X158960711Y-121055394D01*
X158967125Y-121038449D01*
X158981214Y-121028006D01*
X158991724Y-121013968D01*
X159022698Y-120997054D01*
X159152578Y-120948612D01*
X159264916Y-120864516D01*
X159341534Y-120762167D01*
X159397467Y-120720297D01*
X159467159Y-120715313D01*
X159528482Y-120748798D01*
X159540063Y-120762163D01*
X159616684Y-120864516D01*
X159729022Y-120948612D01*
X159821394Y-120983065D01*
X159860500Y-120997651D01*
X159918609Y-121003899D01*
X159918626Y-121003900D01*
X160486974Y-121003900D01*
X160486990Y-121003899D01*
X160545099Y-120997651D01*
X160561486Y-120991539D01*
X160676578Y-120948612D01*
X160788916Y-120864516D01*
X160865534Y-120762167D01*
X160921467Y-120720297D01*
X160991159Y-120715313D01*
X161052482Y-120748798D01*
X161064063Y-120762163D01*
X161140684Y-120864516D01*
X161253022Y-120948612D01*
X161345394Y-120983065D01*
X161384500Y-120997651D01*
X161442609Y-121003899D01*
X161442626Y-121003900D01*
X162010974Y-121003900D01*
X162010990Y-121003899D01*
X162069099Y-120997651D01*
X162085486Y-120991539D01*
X162200578Y-120948612D01*
X162312916Y-120864516D01*
X162397012Y-120752178D01*
X162446051Y-120620699D01*
X162452299Y-120562590D01*
X162452300Y-120562573D01*
X162452300Y-119969226D01*
X162452299Y-119969209D01*
X162446306Y-119913477D01*
X162446051Y-119911101D01*
X162408910Y-119811524D01*
X162403926Y-119741834D01*
X162437410Y-119680511D01*
X162498733Y-119647025D01*
X162512949Y-119644787D01*
X162515856Y-119644500D01*
X162515869Y-119644500D01*
X162641544Y-119619501D01*
X162759927Y-119570465D01*
X162866469Y-119499276D01*
X162957076Y-119408669D01*
X163028265Y-119302127D01*
X163077301Y-119183744D01*
X163086677Y-119136611D01*
X163102300Y-119058071D01*
X163102300Y-118929930D01*
X163094494Y-118890690D01*
X163096335Y-118834405D01*
X163118300Y-118752435D01*
X163118300Y-115083765D01*
X163118300Y-110717299D01*
X163137985Y-110650260D01*
X163154619Y-110629618D01*
X163481619Y-110302618D01*
X163542942Y-110269133D01*
X163612634Y-110274117D01*
G37*
%TD.AperFunction*%
%TA.AperFunction,Conductor*%
G36*
X155051940Y-125731585D02*
G01*
X155097695Y-125784389D01*
X155106591Y-125818739D01*
X155107538Y-125818590D01*
X155123617Y-125920113D01*
X155123617Y-125920114D01*
X155131514Y-125935612D01*
X155183011Y-126036681D01*
X155183013Y-126036683D01*
X155183015Y-126036686D01*
X155275513Y-126129184D01*
X155275516Y-126129186D01*
X155275519Y-126129189D01*
X155392085Y-126188582D01*
X155392086Y-126188582D01*
X155392088Y-126188583D01*
X155392087Y-126188583D01*
X155435418Y-126195445D01*
X155488797Y-126203900D01*
X156788802Y-126203899D01*
X156788807Y-126203899D01*
X156788807Y-126203898D01*
X156885515Y-126188582D01*
X157002081Y-126129189D01*
X157094589Y-126036681D01*
X157122816Y-125981281D01*
X157170789Y-125930487D01*
X157238610Y-125913691D01*
X157304745Y-125936228D01*
X157348197Y-125990943D01*
X157357300Y-126037577D01*
X157357300Y-127119221D01*
X157337615Y-127186260D01*
X157284811Y-127232015D01*
X157215653Y-127241959D01*
X157152097Y-127212934D01*
X157122816Y-127175516D01*
X157094591Y-127120122D01*
X157094584Y-127120113D01*
X157002086Y-127027615D01*
X157002082Y-127027612D01*
X157002081Y-127027611D01*
X156885515Y-126968218D01*
X156885514Y-126968217D01*
X156885511Y-126968216D01*
X156885512Y-126968216D01*
X156788803Y-126952900D01*
X155488792Y-126952900D01*
X155488792Y-126952901D01*
X155392086Y-126968217D01*
X155392085Y-126968217D01*
X155317301Y-127006322D01*
X155275519Y-127027611D01*
X155275518Y-127027612D01*
X155275513Y-127027615D01*
X155183015Y-127120113D01*
X155183012Y-127120118D01*
X155183011Y-127120119D01*
X155123618Y-127236685D01*
X155119282Y-127245195D01*
X155071307Y-127295991D01*
X155008797Y-127312900D01*
X151933699Y-127312900D01*
X151866660Y-127293215D01*
X151846018Y-127276581D01*
X151608122Y-127038685D01*
X151574637Y-126977362D01*
X151577871Y-126912689D01*
X151624202Y-126770101D01*
X151651300Y-126599011D01*
X151651300Y-126425789D01*
X151624202Y-126254699D01*
X151570673Y-126089955D01*
X151492032Y-125935612D01*
X151472541Y-125908785D01*
X151449062Y-125842978D01*
X151464888Y-125774925D01*
X151514994Y-125726230D01*
X151572860Y-125711900D01*
X154984901Y-125711900D01*
X155051940Y-125731585D01*
G37*
%TD.AperFunction*%
%TA.AperFunction,Conductor*%
G36*
X149033331Y-98629149D02*
G01*
X149079193Y-98681860D01*
X149090503Y-98733988D01*
X149024797Y-119801521D01*
X149036793Y-119913474D01*
X149036794Y-119913477D01*
X149048409Y-119966262D01*
X149049991Y-119970935D01*
X149050729Y-119973186D01*
X149066378Y-120022563D01*
X149065072Y-120022997D01*
X149098211Y-120123009D01*
X149098463Y-120123802D01*
X149098481Y-120124668D01*
X149103582Y-120148347D01*
X149103624Y-120148748D01*
X149104299Y-120161665D01*
X149104299Y-120671129D01*
X149103657Y-120683731D01*
X149098358Y-120735602D01*
X149098357Y-120735614D01*
X149102530Y-120871282D01*
X149113093Y-120935383D01*
X149113095Y-120935395D01*
X149152667Y-121065228D01*
X149231685Y-121188181D01*
X149231691Y-121188188D01*
X149277436Y-121240981D01*
X149277439Y-121240984D01*
X149277441Y-121240986D01*
X149305457Y-121265262D01*
X149387892Y-121336694D01*
X149387893Y-121336695D01*
X149387896Y-121336697D01*
X149387898Y-121336698D01*
X149387900Y-121336699D01*
X149474835Y-121376402D01*
X149527639Y-121422157D01*
X149547323Y-121489197D01*
X149539505Y-121532529D01*
X149515049Y-121598098D01*
X149515049Y-121598099D01*
X149508800Y-121656209D01*
X149508800Y-122224590D01*
X149515048Y-122282699D01*
X149564089Y-122414180D01*
X149588397Y-122446651D01*
X149648184Y-122526516D01*
X149709789Y-122572633D01*
X149751660Y-122628567D01*
X149756644Y-122698259D01*
X149723159Y-122759582D01*
X149661835Y-122793066D01*
X149635478Y-122795900D01*
X146616300Y-122795900D01*
X146549261Y-122776215D01*
X146503506Y-122723411D01*
X146492300Y-122671900D01*
X146492300Y-119524410D01*
X146492300Y-119524400D01*
X146480564Y-119415243D01*
X146469358Y-119363732D01*
X146447541Y-119298182D01*
X146434693Y-119259579D01*
X146434690Y-119259573D01*
X146355671Y-119136618D01*
X146355665Y-119136611D01*
X146309920Y-119083818D01*
X146309917Y-119083815D01*
X146199464Y-118988105D01*
X146199458Y-118988101D01*
X146066516Y-118927387D01*
X145999471Y-118907700D01*
X145951246Y-118900766D01*
X145854800Y-118886900D01*
X140415258Y-118886900D01*
X140410620Y-118886921D01*
X140408406Y-118886941D01*
X140404215Y-118886997D01*
X140403882Y-118887002D01*
X140259602Y-118910380D01*
X140202182Y-118928358D01*
X140202170Y-118928363D01*
X140192932Y-118931256D01*
X140192918Y-118931260D01*
X140098270Y-118976544D01*
X140097616Y-118976848D01*
X140097499Y-118976865D01*
X140092904Y-118978915D01*
X140009296Y-119013547D01*
X139986035Y-119020603D01*
X139948907Y-119027988D01*
X139933680Y-119031017D01*
X139909490Y-119033400D01*
X139856112Y-119033400D01*
X139831921Y-119031017D01*
X139748838Y-119014491D01*
X139748833Y-119014490D01*
X139748832Y-119014490D01*
X139746332Y-119014107D01*
X139703711Y-119007582D01*
X139681821Y-119005222D01*
X139636271Y-119002350D01*
X139636259Y-119002351D01*
X139491242Y-119020469D01*
X139491240Y-119020469D01*
X139423867Y-119038904D01*
X139423865Y-119038904D01*
X139423846Y-119038910D01*
X139423844Y-119038911D01*
X139289794Y-119097156D01*
X139210951Y-119145787D01*
X139206101Y-119148222D01*
X139203052Y-119148775D01*
X139189471Y-119155109D01*
X139160932Y-119164565D01*
X139134638Y-119170205D01*
X139134240Y-119170246D01*
X139121533Y-119170899D01*
X138612067Y-119170899D01*
X138599182Y-119170228D01*
X138598780Y-119170186D01*
X138572663Y-119164564D01*
X138555690Y-119158940D01*
X138544129Y-119155109D01*
X138518037Y-119142942D01*
X138450277Y-119101148D01*
X138439471Y-119094483D01*
X138439470Y-119094482D01*
X138314572Y-119038834D01*
X138314570Y-119038833D01*
X138314567Y-119038832D01*
X138284725Y-119030069D01*
X138251769Y-119020392D01*
X138251764Y-119020391D01*
X138173516Y-119008400D01*
X138110232Y-118978787D01*
X138073004Y-118919662D01*
X138068300Y-118885831D01*
X138068300Y-118495299D01*
X138087985Y-118428260D01*
X138104619Y-118407618D01*
X138324518Y-118187719D01*
X138385841Y-118154234D01*
X138412199Y-118151400D01*
X139524735Y-118151400D01*
X139524736Y-118151400D01*
X139572486Y-118138605D01*
X139620238Y-118125810D01*
X139705862Y-118076375D01*
X139736808Y-118045428D01*
X139752595Y-118036852D01*
X139769893Y-118033127D01*
X139785427Y-118024645D01*
X139810323Y-118024422D01*
X139820899Y-118022146D01*
X139826577Y-118024277D01*
X139835978Y-118024194D01*
X139861255Y-118029222D01*
X139861256Y-118029222D01*
X139989395Y-118029222D01*
X140073939Y-118012404D01*
X140115068Y-118004223D01*
X140233451Y-117955187D01*
X140339993Y-117883998D01*
X140430600Y-117793391D01*
X140501789Y-117686849D01*
X140550825Y-117568466D01*
X140574454Y-117449678D01*
X140575824Y-117442793D01*
X140575824Y-117314650D01*
X140550826Y-117188983D01*
X140550825Y-117188982D01*
X140550825Y-117188978D01*
X140501789Y-117070595D01*
X140501788Y-117070594D01*
X140501785Y-117070588D01*
X140430600Y-116964053D01*
X140430597Y-116964049D01*
X140339996Y-116873448D01*
X140339992Y-116873445D01*
X140233457Y-116802260D01*
X140233448Y-116802255D01*
X140115068Y-116753221D01*
X140115062Y-116753219D01*
X139989395Y-116728222D01*
X139989393Y-116728222D01*
X139861255Y-116728222D01*
X139861252Y-116728222D01*
X139740491Y-116752243D01*
X139670900Y-116746016D01*
X139615722Y-116703153D01*
X139592478Y-116637263D01*
X139592300Y-116630626D01*
X139592300Y-116566726D01*
X139592299Y-116566709D01*
X139586051Y-116508600D01*
X139571465Y-116469494D01*
X139537012Y-116377122D01*
X139452916Y-116264784D01*
X139385412Y-116214251D01*
X139340580Y-116180689D01*
X139340578Y-116180688D01*
X139313944Y-116170754D01*
X139209099Y-116131648D01*
X139150990Y-116125400D01*
X139150974Y-116125400D01*
X138582626Y-116125400D01*
X138582609Y-116125400D01*
X138524500Y-116131648D01*
X138393019Y-116180689D01*
X138312984Y-116240604D01*
X138280684Y-116264784D01*
X138280683Y-116264785D01*
X138280682Y-116264786D01*
X138204066Y-116367131D01*
X138148132Y-116409002D01*
X138078441Y-116413986D01*
X138017118Y-116380500D01*
X138005534Y-116367131D01*
X137928917Y-116264786D01*
X137928918Y-116264786D01*
X137928916Y-116264784D01*
X137816578Y-116180688D01*
X137748770Y-116155396D01*
X137692837Y-116113524D01*
X137668421Y-116048059D01*
X137683274Y-115979787D01*
X137732680Y-115930382D01*
X137757418Y-115920165D01*
X137765115Y-115917920D01*
X137765130Y-115917919D01*
X137873159Y-115867544D01*
X137957444Y-115783259D01*
X138007819Y-115675230D01*
X138014300Y-115626003D01*
X138014299Y-115046798D01*
X138007819Y-114997570D01*
X137957444Y-114889541D01*
X137873159Y-114805256D01*
X137765130Y-114754881D01*
X137765128Y-114754880D01*
X137715913Y-114748401D01*
X137715908Y-114748400D01*
X137715903Y-114748400D01*
X137715896Y-114748400D01*
X137461695Y-114748400D01*
X137412474Y-114754880D01*
X137412468Y-114754881D01*
X137391203Y-114764798D01*
X137322125Y-114775289D01*
X137286396Y-114764797D01*
X137265130Y-114754881D01*
X137265128Y-114754880D01*
X137215913Y-114748401D01*
X137215908Y-114748400D01*
X137215903Y-114748400D01*
X137215896Y-114748400D01*
X137079503Y-114748400D01*
X137052059Y-114740341D01*
X137023915Y-114735242D01*
X137018961Y-114730622D01*
X137012464Y-114728715D01*
X136993735Y-114707101D01*
X136972814Y-114687593D01*
X136971143Y-114681029D01*
X136966709Y-114675911D01*
X136962638Y-114647602D01*
X136955585Y-114619881D01*
X136957295Y-114610441D01*
X136956765Y-114606753D01*
X136961875Y-114585162D01*
X136962212Y-114584151D01*
X137002103Y-114526789D01*
X137066675Y-114500100D01*
X137079837Y-114499399D01*
X137215904Y-114499399D01*
X137229967Y-114497547D01*
X137265130Y-114492919D01*
X137373159Y-114442544D01*
X137457444Y-114358259D01*
X137507819Y-114250230D01*
X137514300Y-114201003D01*
X137514300Y-114048721D01*
X139823300Y-114048721D01*
X139823300Y-115628078D01*
X139837832Y-115701135D01*
X139837833Y-115701139D01*
X139848289Y-115716787D01*
X139893199Y-115784001D01*
X139970873Y-115835900D01*
X139976060Y-115839366D01*
X139976064Y-115839367D01*
X140049121Y-115853899D01*
X140049124Y-115853900D01*
X140049126Y-115853900D01*
X142438476Y-115853900D01*
X142438477Y-115853899D01*
X142511540Y-115839366D01*
X142594401Y-115784001D01*
X142649766Y-115701140D01*
X142664300Y-115628074D01*
X142664300Y-114048726D01*
X142664300Y-114048723D01*
X142664299Y-114048721D01*
X142649767Y-113975664D01*
X142649766Y-113975660D01*
X142594401Y-113892799D01*
X142511540Y-113837434D01*
X142511539Y-113837433D01*
X142511535Y-113837432D01*
X142438477Y-113822900D01*
X142438474Y-113822900D01*
X140049126Y-113822900D01*
X140049123Y-113822900D01*
X139976064Y-113837432D01*
X139976060Y-113837433D01*
X139893199Y-113892799D01*
X139837833Y-113975660D01*
X139837832Y-113975664D01*
X139823300Y-114048721D01*
X137514300Y-114048721D01*
X137514299Y-113892799D01*
X137514299Y-113621795D01*
X137511521Y-113600700D01*
X137507819Y-113572570D01*
X137494853Y-113544765D01*
X137491456Y-113522401D01*
X137483552Y-113501207D01*
X137486311Y-113488523D01*
X137484362Y-113475691D01*
X137493594Y-113455040D01*
X137498404Y-113432934D01*
X137511005Y-113416100D01*
X137512881Y-113411906D01*
X137519530Y-113404706D01*
X137583520Y-113340716D01*
X137644842Y-113307234D01*
X137671199Y-113304400D01*
X138973663Y-113304400D01*
X138973672Y-113304400D01*
X139033282Y-113297991D01*
X139168130Y-113247696D01*
X139283346Y-113161446D01*
X139369596Y-113046230D01*
X139419891Y-112911382D01*
X139426300Y-112851772D01*
X139426300Y-111831028D01*
X139419891Y-111771418D01*
X139369596Y-111636570D01*
X139283346Y-111521354D01*
X139168130Y-111435104D01*
X139168128Y-111435103D01*
X139168127Y-111435102D01*
X139033281Y-111384808D01*
X139033282Y-111384808D01*
X138973682Y-111378401D01*
X138973680Y-111378400D01*
X138973672Y-111378400D01*
X136727928Y-111378400D01*
X136727920Y-111378400D01*
X136727917Y-111378401D01*
X136668318Y-111384808D01*
X136533472Y-111435102D01*
X136533470Y-111435104D01*
X136418254Y-111521354D01*
X136332004Y-111636570D01*
X136332002Y-111636572D01*
X136281708Y-111771418D01*
X136275301Y-111831017D01*
X136275300Y-111831036D01*
X136275300Y-112666900D01*
X136255615Y-112733939D01*
X136202811Y-112779694D01*
X136151300Y-112790900D01*
X134164800Y-112790900D01*
X134066553Y-112801462D01*
X133997795Y-112789057D01*
X133946658Y-112741446D01*
X133929300Y-112678173D01*
X133929300Y-109957630D01*
X133948985Y-109890591D01*
X134001789Y-109844836D01*
X134070947Y-109834892D01*
X134073203Y-109835238D01*
X134173378Y-109851543D01*
X134318408Y-109833429D01*
X134385801Y-109814991D01*
X134385824Y-109814985D01*
X134400129Y-109808768D01*
X134402661Y-109807798D01*
X134403105Y-109807762D01*
X134408057Y-109805870D01*
X134420581Y-109801719D01*
X134420582Y-109801720D01*
X134522623Y-109767906D01*
X134549057Y-109762253D01*
X134551197Y-109762035D01*
X134563731Y-109761400D01*
X135549866Y-109761400D01*
X135562424Y-109762038D01*
X135563702Y-109762168D01*
X135564538Y-109762253D01*
X135590976Y-109767907D01*
X135622297Y-109778286D01*
X135648381Y-109790450D01*
X135672460Y-109805302D01*
X135695042Y-109823158D01*
X135715040Y-109843156D01*
X135732896Y-109865738D01*
X135746547Y-109887869D01*
X135746550Y-109887873D01*
X135746552Y-109887876D01*
X135807322Y-109965468D01*
X135833162Y-110030382D01*
X135833700Y-110041925D01*
X135833700Y-110065854D01*
X135833782Y-110075025D01*
X135833860Y-110079401D01*
X135834106Y-110088596D01*
X135834106Y-110088600D01*
X135860051Y-110232423D01*
X135860053Y-110232429D01*
X135865190Y-110247863D01*
X135865258Y-110248070D01*
X135866826Y-110252809D01*
X135866826Y-110252822D01*
X135868121Y-110256965D01*
X135873707Y-110276072D01*
X135873919Y-110276817D01*
X135873951Y-110276906D01*
X135874581Y-110278288D01*
X135879373Y-110290485D01*
X135882148Y-110298817D01*
X135882149Y-110298820D01*
X135882151Y-110298824D01*
X135884051Y-110302618D01*
X135900809Y-110336090D01*
X135902779Y-110340213D01*
X135914276Y-110365459D01*
X135934521Y-110409918D01*
X135934522Y-110409919D01*
X135934523Y-110409921D01*
X135939310Y-110417389D01*
X135939063Y-110417546D01*
X135942247Y-110422315D01*
X135942487Y-110422149D01*
X135947540Y-110429427D01*
X135947542Y-110429430D01*
X135947544Y-110429432D01*
X135947546Y-110429435D01*
X135976902Y-110460965D01*
X136001481Y-110487364D01*
X136030113Y-110520481D01*
X136031899Y-110522032D01*
X136032794Y-110520999D01*
X136046074Y-110535263D01*
X136046080Y-110535268D01*
X136047132Y-110536398D01*
X136047142Y-110536407D01*
X136063490Y-110549582D01*
X136066991Y-110552511D01*
X136082835Y-110566272D01*
X136082931Y-110566355D01*
X136205814Y-110645487D01*
X136207073Y-110646063D01*
X136207895Y-110646440D01*
X136216660Y-110650260D01*
X136225144Y-110653957D01*
X136272259Y-110673472D01*
X136285261Y-110679770D01*
X136299479Y-110687710D01*
X136306263Y-110691499D01*
X136306280Y-110691508D01*
X136315279Y-110695631D01*
X136315284Y-110695632D01*
X136315287Y-110695634D01*
X136424192Y-110731449D01*
X136478041Y-110742694D01*
X136478048Y-110742694D01*
X136478050Y-110742695D01*
X136493035Y-110744108D01*
X136592151Y-110753456D01*
X136736427Y-110730083D01*
X136803105Y-110709208D01*
X136803129Y-110709200D01*
X136803135Y-110709196D01*
X136803138Y-110709196D01*
X136804493Y-110708648D01*
X136807483Y-110707316D01*
X136854954Y-110687671D01*
X136854970Y-110687710D01*
X136962341Y-110643234D01*
X136962357Y-110643233D01*
X136985549Y-110636198D01*
X137037918Y-110625781D01*
X137062103Y-110623400D01*
X137115496Y-110623400D01*
X137139679Y-110625781D01*
X137192047Y-110636198D01*
X137215291Y-110643248D01*
X137322629Y-110687710D01*
X137322629Y-110687709D01*
X137358855Y-110702715D01*
X137374223Y-110707372D01*
X137395754Y-110716746D01*
X137463134Y-110735234D01*
X137608151Y-110753456D01*
X137752427Y-110730083D01*
X137819105Y-110709208D01*
X137819129Y-110709200D01*
X137819135Y-110709196D01*
X137819138Y-110709196D01*
X137820493Y-110708648D01*
X137823483Y-110707316D01*
X137870954Y-110687671D01*
X137870970Y-110687710D01*
X137978341Y-110643234D01*
X137978357Y-110643233D01*
X138001549Y-110636198D01*
X138053918Y-110625781D01*
X138078103Y-110623400D01*
X138131496Y-110623400D01*
X138155679Y-110625781D01*
X138208047Y-110636198D01*
X138231291Y-110643248D01*
X138338629Y-110687710D01*
X138338629Y-110687709D01*
X138374855Y-110702715D01*
X138390223Y-110707372D01*
X138411754Y-110716746D01*
X138479134Y-110735234D01*
X138624151Y-110753456D01*
X138768427Y-110730083D01*
X138835105Y-110709208D01*
X138835129Y-110709200D01*
X138835135Y-110709196D01*
X138835138Y-110709196D01*
X138836493Y-110708648D01*
X138839483Y-110707316D01*
X138886954Y-110687671D01*
X138886970Y-110687710D01*
X138994341Y-110643234D01*
X138994357Y-110643233D01*
X139017549Y-110636198D01*
X139069918Y-110625781D01*
X139094103Y-110623400D01*
X139150454Y-110623400D01*
X139169739Y-110624908D01*
X139180479Y-110626600D01*
X139326636Y-110626599D01*
X139395794Y-110616655D01*
X139536027Y-110575478D01*
X139642432Y-110507094D01*
X139709468Y-110487411D01*
X139776507Y-110507095D01*
X139822263Y-110559898D01*
X139831086Y-110587219D01*
X139837832Y-110621136D01*
X139837833Y-110621139D01*
X139854102Y-110645487D01*
X139893199Y-110704001D01*
X139967215Y-110753456D01*
X139976060Y-110759366D01*
X139976064Y-110759367D01*
X140049121Y-110773899D01*
X140049124Y-110773900D01*
X140049126Y-110773900D01*
X142438476Y-110773900D01*
X142438477Y-110773899D01*
X142511540Y-110759366D01*
X142594401Y-110704001D01*
X142649766Y-110621140D01*
X142664300Y-110548074D01*
X142664300Y-108968726D01*
X142664300Y-108968723D01*
X142664299Y-108968721D01*
X142649767Y-108895664D01*
X142649766Y-108895660D01*
X142594401Y-108812799D01*
X142539035Y-108775805D01*
X142511539Y-108757433D01*
X142511535Y-108757432D01*
X142438477Y-108742900D01*
X142438474Y-108742900D01*
X140049126Y-108742900D01*
X140049123Y-108742900D01*
X140044845Y-108743321D01*
X139976199Y-108730297D01*
X139925493Y-108682228D01*
X139908700Y-108619917D01*
X139908700Y-108356882D01*
X139928385Y-108289843D01*
X139981189Y-108244088D01*
X140044856Y-108233479D01*
X140049122Y-108233899D01*
X140049126Y-108233900D01*
X140049130Y-108233900D01*
X142438476Y-108233900D01*
X142438477Y-108233899D01*
X142511540Y-108219366D01*
X142594401Y-108164001D01*
X142649766Y-108081140D01*
X142664300Y-108008074D01*
X142664300Y-106428726D01*
X142664300Y-106428723D01*
X142664299Y-106428721D01*
X142649767Y-106355664D01*
X142649766Y-106355660D01*
X142634131Y-106332260D01*
X142594401Y-106272799D01*
X142532301Y-106231306D01*
X142511539Y-106217433D01*
X142511535Y-106217432D01*
X142438477Y-106202900D01*
X142438474Y-106202900D01*
X140049126Y-106202900D01*
X140049123Y-106202900D01*
X140044845Y-106203321D01*
X139976199Y-106190297D01*
X139925493Y-106142228D01*
X139908700Y-106079917D01*
X139908700Y-105816882D01*
X139928385Y-105749843D01*
X139981189Y-105704088D01*
X140044856Y-105693479D01*
X140049122Y-105693899D01*
X140049126Y-105693900D01*
X140049130Y-105693900D01*
X142438476Y-105693900D01*
X142438477Y-105693899D01*
X142511540Y-105679366D01*
X142594401Y-105624001D01*
X142649766Y-105541140D01*
X142664300Y-105468074D01*
X142664300Y-103888726D01*
X142664300Y-103888723D01*
X142664299Y-103888721D01*
X142649767Y-103815664D01*
X142649766Y-103815660D01*
X142594401Y-103732799D01*
X142539035Y-103695805D01*
X142511539Y-103677433D01*
X142511535Y-103677432D01*
X142438477Y-103662900D01*
X142438474Y-103662900D01*
X140049126Y-103662900D01*
X140049123Y-103662900D01*
X140044845Y-103663321D01*
X139976199Y-103650297D01*
X139925493Y-103602228D01*
X139908700Y-103539917D01*
X139908700Y-103276882D01*
X139928385Y-103209843D01*
X139981189Y-103164088D01*
X140044856Y-103153479D01*
X140049122Y-103153899D01*
X140049126Y-103153900D01*
X140049130Y-103153900D01*
X142438476Y-103153900D01*
X142438477Y-103153899D01*
X142511540Y-103139366D01*
X142594401Y-103084001D01*
X142649766Y-103001140D01*
X142664300Y-102928074D01*
X142664300Y-101348726D01*
X142664300Y-101348723D01*
X142664299Y-101348721D01*
X142649767Y-101275664D01*
X142649766Y-101275660D01*
X142594401Y-101192799D01*
X142539035Y-101155805D01*
X142511539Y-101137433D01*
X142511535Y-101137432D01*
X142438477Y-101122900D01*
X142438474Y-101122900D01*
X140215500Y-101122900D01*
X140148461Y-101103215D01*
X140102706Y-101050411D01*
X140091500Y-100998900D01*
X140091500Y-100737900D01*
X140111185Y-100670861D01*
X140163989Y-100625106D01*
X140215500Y-100613900D01*
X142438476Y-100613900D01*
X142438477Y-100613899D01*
X142511540Y-100599366D01*
X142594401Y-100544001D01*
X142649766Y-100461140D01*
X142664300Y-100388074D01*
X142664300Y-98808726D01*
X142664300Y-98808723D01*
X142656673Y-98770381D01*
X142662900Y-98700789D01*
X142705763Y-98645612D01*
X142771652Y-98622367D01*
X142778011Y-98622189D01*
X148966253Y-98609601D01*
X149033331Y-98629149D01*
G37*
%TD.AperFunction*%
%TA.AperFunction,Conductor*%
G36*
X155908679Y-121380093D02*
G01*
X155931659Y-121378310D01*
X155942702Y-121384253D01*
X155955152Y-121385776D01*
X155972887Y-121400499D01*
X155993184Y-121411423D01*
X155993716Y-121411953D01*
X156041525Y-121459762D01*
X156111438Y-121529675D01*
X156197062Y-121579110D01*
X156239533Y-121590490D01*
X156292564Y-121604700D01*
X156292565Y-121604700D01*
X157835630Y-121604700D01*
X157902669Y-121624385D01*
X157948424Y-121677189D01*
X157958919Y-121741956D01*
X157953300Y-121794209D01*
X157953300Y-122387588D01*
X157959328Y-122443643D01*
X157946924Y-122512403D01*
X157899314Y-122563541D01*
X157836039Y-122580900D01*
X155929199Y-122580900D01*
X155899758Y-122572255D01*
X155869772Y-122565732D01*
X155864756Y-122561977D01*
X155862160Y-122561215D01*
X155841518Y-122544581D01*
X155818618Y-122521681D01*
X155785133Y-122460358D01*
X155782299Y-122434000D01*
X155782299Y-122265267D01*
X155782299Y-122265262D01*
X155776059Y-122217855D01*
X155758782Y-122180804D01*
X155748290Y-122111726D01*
X155758780Y-122075999D01*
X155776059Y-122038945D01*
X155782300Y-121991539D01*
X155782299Y-121765262D01*
X155776059Y-121717855D01*
X155763956Y-121691900D01*
X155758782Y-121680804D01*
X155748290Y-121611726D01*
X155751475Y-121595986D01*
X155754266Y-121585679D01*
X155776059Y-121538945D01*
X155782300Y-121491539D01*
X155782299Y-121482161D01*
X155786346Y-121467221D01*
X155798396Y-121447569D01*
X155806320Y-121425926D01*
X155816313Y-121418350D01*
X155822870Y-121407658D01*
X155843632Y-121397640D01*
X155861999Y-121383717D01*
X155874501Y-121382746D01*
X155885798Y-121377296D01*
X155908679Y-121380093D01*
G37*
%TD.AperFunction*%
%TA.AperFunction,Conductor*%
G36*
X154209204Y-120755381D02*
G01*
X154246255Y-120772659D01*
X154293661Y-120778900D01*
X154382300Y-120778899D01*
X154449338Y-120798583D01*
X154495094Y-120851386D01*
X154504822Y-120883809D01*
X154506300Y-120893298D01*
X154506301Y-120991538D01*
X154512541Y-121038945D01*
X154537249Y-121091933D01*
X154539957Y-121109309D01*
X154537597Y-121127216D01*
X154540309Y-121145073D01*
X154531119Y-121176370D01*
X154530828Y-121178580D01*
X154530280Y-121179227D01*
X154529818Y-121180802D01*
X154512542Y-121217851D01*
X154512540Y-121217858D01*
X154506300Y-121265259D01*
X154506300Y-121491531D01*
X154506301Y-121491538D01*
X154512541Y-121538945D01*
X154529818Y-121575996D01*
X154540309Y-121645073D01*
X154529818Y-121680802D01*
X154512542Y-121717851D01*
X154512540Y-121717858D01*
X154506300Y-121765259D01*
X154506300Y-121991531D01*
X154506301Y-121991538D01*
X154512541Y-122038945D01*
X154529818Y-122075996D01*
X154540309Y-122145073D01*
X154539957Y-122147489D01*
X154537249Y-122164867D01*
X154512541Y-122217855D01*
X154506300Y-122265261D01*
X154506300Y-122363504D01*
X154504822Y-122372990D01*
X154493860Y-122396263D01*
X154486615Y-122420939D01*
X154479221Y-122427345D01*
X154475051Y-122436200D01*
X154453246Y-122449853D01*
X154433811Y-122466694D01*
X154422379Y-122469180D01*
X154415833Y-122473280D01*
X154404168Y-122473142D01*
X154382301Y-122477900D01*
X154293668Y-122477900D01*
X154283141Y-122479285D01*
X154246255Y-122484141D01*
X154246253Y-122484142D01*
X154246251Y-122484142D01*
X154209203Y-122501418D01*
X154140125Y-122511909D01*
X154104396Y-122501418D01*
X154067345Y-122484141D01*
X154067341Y-122484140D01*
X154019940Y-122477900D01*
X153793668Y-122477900D01*
X153783141Y-122479285D01*
X153746255Y-122484141D01*
X153746253Y-122484142D01*
X153746251Y-122484142D01*
X153709203Y-122501418D01*
X153640125Y-122511909D01*
X153604396Y-122501418D01*
X153567345Y-122484141D01*
X153567341Y-122484140D01*
X153519940Y-122477900D01*
X153293668Y-122477900D01*
X153283141Y-122479285D01*
X153246255Y-122484141D01*
X153246253Y-122484142D01*
X153246251Y-122484142D01*
X153209203Y-122501418D01*
X153140125Y-122511909D01*
X153137710Y-122511557D01*
X153120333Y-122508849D01*
X153067345Y-122484141D01*
X153019939Y-122477900D01*
X152921695Y-122477900D01*
X152912209Y-122476422D01*
X152888935Y-122465460D01*
X152864260Y-122458215D01*
X152857853Y-122450821D01*
X152848999Y-122446651D01*
X152835345Y-122424846D01*
X152818505Y-122405411D01*
X152816018Y-122393979D01*
X152811919Y-122387433D01*
X152812056Y-122375767D01*
X152807299Y-122353900D01*
X152807299Y-122265267D01*
X152807299Y-122265262D01*
X152801059Y-122217855D01*
X152783782Y-122180804D01*
X152773290Y-122111726D01*
X152783780Y-122075999D01*
X152801059Y-122038945D01*
X152807300Y-121991539D01*
X152807299Y-121765262D01*
X152801059Y-121717855D01*
X152752547Y-121613821D01*
X152671379Y-121532653D01*
X152581585Y-121490781D01*
X152529147Y-121444610D01*
X152509995Y-121377416D01*
X152530211Y-121310535D01*
X152581585Y-121266018D01*
X152671379Y-121224147D01*
X152752547Y-121142979D01*
X152801059Y-121038945D01*
X152807300Y-120991539D01*
X152807300Y-120902899D01*
X152826985Y-120835860D01*
X152879789Y-120790105D01*
X152912210Y-120780377D01*
X152921696Y-120778899D01*
X153019938Y-120778899D01*
X153067345Y-120772659D01*
X153120334Y-120747949D01*
X153137710Y-120745242D01*
X153155617Y-120747601D01*
X153173472Y-120744890D01*
X153204768Y-120754079D01*
X153206981Y-120754371D01*
X153207628Y-120754919D01*
X153209204Y-120755381D01*
X153246255Y-120772659D01*
X153293661Y-120778900D01*
X153519938Y-120778899D01*
X153567345Y-120772659D01*
X153604395Y-120755381D01*
X153673472Y-120744890D01*
X153709204Y-120755381D01*
X153746255Y-120772659D01*
X153793661Y-120778900D01*
X154019938Y-120778899D01*
X154067345Y-120772659D01*
X154104395Y-120755381D01*
X154173472Y-120744890D01*
X154209204Y-120755381D01*
G37*
%TD.AperFunction*%
%TA.AperFunction,Conductor*%
G36*
X160662233Y-99146204D02*
G01*
X160708322Y-99198717D01*
X160718704Y-99267811D01*
X160690083Y-99331549D01*
X160683538Y-99338624D01*
X158448238Y-101573925D01*
X158378326Y-101643836D01*
X158328891Y-101729459D01*
X158328891Y-101729460D01*
X158328890Y-101729462D01*
X158303300Y-101824965D01*
X158303300Y-101824967D01*
X158303300Y-118685500D01*
X158283615Y-118752539D01*
X158266981Y-118773181D01*
X157547098Y-119493063D01*
X157485775Y-119526548D01*
X157446171Y-119528673D01*
X157438978Y-119527900D01*
X157438974Y-119527900D01*
X156870626Y-119527900D01*
X156870609Y-119527900D01*
X156812500Y-119534148D01*
X156715131Y-119570466D01*
X156681633Y-119582960D01*
X156611942Y-119587944D01*
X156550619Y-119554459D01*
X156517134Y-119493136D01*
X156514300Y-119466778D01*
X156514300Y-118436567D01*
X156514300Y-118436565D01*
X156488710Y-118341062D01*
X156439275Y-118255438D01*
X156369362Y-118185525D01*
X156115363Y-117931526D01*
X156115362Y-117931525D01*
X156029738Y-117882090D01*
X155981986Y-117869295D01*
X155981984Y-117869294D01*
X155981982Y-117869293D01*
X155934236Y-117856500D01*
X155934235Y-117856500D01*
X152966300Y-117856500D01*
X152899261Y-117836815D01*
X152853506Y-117784011D01*
X152842300Y-117732500D01*
X152842300Y-99299366D01*
X152861985Y-99232327D01*
X152914789Y-99186572D01*
X152965508Y-99175369D01*
X160595074Y-99126946D01*
X160662233Y-99146204D01*
G37*
%TD.AperFunction*%
%TA.AperFunction,Conductor*%
G36*
X169651682Y-101989781D02*
G01*
X169704036Y-102000195D01*
X169727299Y-102007252D01*
X169776625Y-102027684D01*
X169798062Y-102039143D01*
X169842442Y-102068797D01*
X169861231Y-102084217D01*
X169898976Y-102121961D01*
X169914399Y-102140753D01*
X169944057Y-102185140D01*
X169955515Y-102206576D01*
X169975948Y-102255904D01*
X169983003Y-102279162D01*
X169983004Y-102279166D01*
X169993417Y-102331514D01*
X169995800Y-102355705D01*
X169995800Y-102420900D01*
X169995801Y-102420909D01*
X170007535Y-102530051D01*
X170007537Y-102530063D01*
X170018743Y-102581573D01*
X170053406Y-102685720D01*
X170053409Y-102685726D01*
X170132428Y-102808681D01*
X170132434Y-102808688D01*
X170178179Y-102861481D01*
X170178182Y-102861484D01*
X170178184Y-102861486D01*
X170194957Y-102876020D01*
X170288635Y-102957194D01*
X170288637Y-102957195D01*
X170288639Y-102957197D01*
X170421587Y-103017914D01*
X170488626Y-103037599D01*
X170488630Y-103037600D01*
X170633300Y-103058400D01*
X170663867Y-103058400D01*
X170676466Y-103059041D01*
X170678586Y-103059258D01*
X170704983Y-103064910D01*
X170736282Y-103075281D01*
X170762376Y-103087448D01*
X170786460Y-103102303D01*
X170809045Y-103120161D01*
X170829037Y-103140153D01*
X170846895Y-103162738D01*
X170861748Y-103186819D01*
X170873914Y-103212909D01*
X170878123Y-103225609D01*
X170884287Y-103244213D01*
X170884288Y-103244214D01*
X170889941Y-103270616D01*
X170890157Y-103272730D01*
X170890799Y-103285334D01*
X170890799Y-104891463D01*
X170890151Y-104904119D01*
X170889934Y-104906234D01*
X170884288Y-104932580D01*
X170873915Y-104963885D01*
X170861748Y-104989979D01*
X170846895Y-105014060D01*
X170829037Y-105036645D01*
X170809045Y-105056637D01*
X170786460Y-105074495D01*
X170762379Y-105089348D01*
X170736289Y-105101514D01*
X170704984Y-105111888D01*
X170678588Y-105117540D01*
X170676475Y-105117756D01*
X170663865Y-105118399D01*
X170537565Y-105118399D01*
X170473556Y-105122403D01*
X170442915Y-105126252D01*
X170379907Y-105138201D01*
X170379903Y-105138202D01*
X170244883Y-105194128D01*
X170184799Y-105229778D01*
X170184786Y-105229786D01*
X170070981Y-105321495D01*
X170070980Y-105321496D01*
X169987628Y-105441548D01*
X169987620Y-105441561D01*
X169956353Y-105504027D01*
X169956345Y-105504044D01*
X169910195Y-105642703D01*
X169904977Y-105788767D01*
X169912442Y-105858214D01*
X169912446Y-105858247D01*
X169912447Y-105858251D01*
X169948590Y-105999855D01*
X169948594Y-105999865D01*
X169975948Y-106065904D01*
X169983002Y-106089159D01*
X169983004Y-106089164D01*
X169993417Y-106141511D01*
X169995800Y-106165703D01*
X169995800Y-106219093D01*
X169993417Y-106243286D01*
X169983004Y-106295632D01*
X169975947Y-106318894D01*
X169955514Y-106368221D01*
X169944057Y-106389655D01*
X169914397Y-106434046D01*
X169898975Y-106452838D01*
X169861238Y-106490575D01*
X169842446Y-106505997D01*
X169798051Y-106535660D01*
X169776617Y-106547117D01*
X169727302Y-106567545D01*
X169704039Y-106574602D01*
X169662331Y-106582898D01*
X169651680Y-106585017D01*
X169627490Y-106587400D01*
X169574106Y-106587400D01*
X169549914Y-106585017D01*
X169497567Y-106574604D01*
X169474306Y-106567548D01*
X169424979Y-106547116D01*
X169403541Y-106535657D01*
X169359152Y-106505997D01*
X169340362Y-106490576D01*
X169302621Y-106452835D01*
X169287204Y-106434051D01*
X169257534Y-106389647D01*
X169246084Y-106368225D01*
X169225651Y-106318898D01*
X169218596Y-106295639D01*
X169208182Y-106243282D01*
X169205800Y-106219092D01*
X169205800Y-106165705D01*
X169208183Y-106141514D01*
X169218597Y-106089159D01*
X169225651Y-106065901D01*
X169253007Y-105999860D01*
X169273798Y-105939205D01*
X169281975Y-105909399D01*
X169295046Y-105846619D01*
X169295045Y-105700462D01*
X169285101Y-105631304D01*
X169243924Y-105491071D01*
X169164905Y-105368116D01*
X169119150Y-105315312D01*
X169119148Y-105315310D01*
X169008690Y-105219598D01*
X169008686Y-105219595D01*
X168875736Y-105158881D01*
X168875730Y-105158879D01*
X168843636Y-105149456D01*
X168833142Y-105142712D01*
X168808701Y-105139198D01*
X168664031Y-105118399D01*
X168537735Y-105118399D01*
X168525079Y-105117751D01*
X168522964Y-105117534D01*
X168496618Y-105111888D01*
X168465313Y-105101515D01*
X168439219Y-105089348D01*
X168415138Y-105074495D01*
X168392553Y-105056637D01*
X168372561Y-105036645D01*
X168354703Y-105014060D01*
X168339850Y-104989979D01*
X168327684Y-104963889D01*
X168327683Y-104963885D01*
X168317308Y-104932576D01*
X168311653Y-104906136D01*
X168311435Y-104904000D01*
X168310800Y-104891464D01*
X168310800Y-103285331D01*
X168311438Y-103272773D01*
X168311653Y-103270661D01*
X168317310Y-103244214D01*
X168327686Y-103212902D01*
X168339849Y-103186819D01*
X168354703Y-103162735D01*
X168372555Y-103140158D01*
X168392558Y-103120155D01*
X168415134Y-103102304D01*
X168439220Y-103087448D01*
X168465302Y-103075286D01*
X168496619Y-103064908D01*
X168523057Y-103059253D01*
X168525184Y-103059036D01*
X168537732Y-103058400D01*
X168568293Y-103058400D01*
X168568302Y-103058400D01*
X168677463Y-103046663D01*
X168728972Y-103035457D01*
X168833127Y-103000790D01*
X168956082Y-102921771D01*
X169008886Y-102876016D01*
X169104597Y-102765561D01*
X169165314Y-102632613D01*
X169184999Y-102565574D01*
X169185000Y-102565570D01*
X169205800Y-102420900D01*
X169205800Y-102355705D01*
X169208182Y-102331515D01*
X169208182Y-102331514D01*
X169218595Y-102279158D01*
X169225650Y-102255902D01*
X169246086Y-102206567D01*
X169257540Y-102185140D01*
X169287201Y-102140749D01*
X169302612Y-102121971D01*
X169340367Y-102084216D01*
X169359140Y-102068808D01*
X169403554Y-102039131D01*
X169424968Y-102027686D01*
X169474302Y-102007250D01*
X169497556Y-102000196D01*
X169549916Y-101989781D01*
X169574106Y-101987400D01*
X169627493Y-101987400D01*
X169651682Y-101989781D01*
G37*
%TD.AperFunction*%
%TA.AperFunction,Conductor*%
G36*
X158913805Y-72070185D02*
G01*
X158959560Y-72122989D01*
X158969504Y-72192147D01*
X158968383Y-72198691D01*
X158960500Y-72238321D01*
X158960500Y-77367678D01*
X158975032Y-77440735D01*
X158975033Y-77440739D01*
X158979921Y-77448054D01*
X159030399Y-77523601D01*
X159113260Y-77578966D01*
X159113264Y-77578967D01*
X159186321Y-77593499D01*
X159186324Y-77593500D01*
X159186326Y-77593500D01*
X159424300Y-77593500D01*
X159432985Y-77596050D01*
X159441947Y-77594762D01*
X159465987Y-77605740D01*
X159491339Y-77613185D01*
X159497266Y-77620025D01*
X159505503Y-77623787D01*
X159519792Y-77646021D01*
X159537094Y-77665989D01*
X159539381Y-77676503D01*
X159543277Y-77682565D01*
X159548300Y-77717500D01*
X159548300Y-77738900D01*
X159528615Y-77805939D01*
X159475811Y-77851694D01*
X159424300Y-77862900D01*
X159169123Y-77862900D01*
X159096064Y-77877432D01*
X159096060Y-77877433D01*
X159013199Y-77932799D01*
X158957833Y-78015660D01*
X158957832Y-78015664D01*
X158943300Y-78088721D01*
X158943300Y-80448078D01*
X158957832Y-80521135D01*
X158957833Y-80521139D01*
X158957834Y-80521140D01*
X159013199Y-80604001D01*
X159096060Y-80659366D01*
X159096064Y-80659367D01*
X159169121Y-80673899D01*
X159169124Y-80673900D01*
X159169126Y-80673900D01*
X160728476Y-80673900D01*
X160728477Y-80673899D01*
X160801540Y-80659366D01*
X160884401Y-80604001D01*
X160939766Y-80521140D01*
X160954300Y-80448074D01*
X160954300Y-78088726D01*
X160954300Y-78088723D01*
X160954299Y-78088721D01*
X160939767Y-78015664D01*
X160939766Y-78015660D01*
X160884401Y-77932799D01*
X160801540Y-77877434D01*
X160801539Y-77877433D01*
X160801535Y-77877432D01*
X160728477Y-77862900D01*
X160728474Y-77862900D01*
X160473300Y-77862900D01*
X160464614Y-77860349D01*
X160455653Y-77861638D01*
X160431612Y-77850659D01*
X160406261Y-77843215D01*
X160400333Y-77836374D01*
X160392097Y-77832613D01*
X160377807Y-77810378D01*
X160360506Y-77790411D01*
X160358218Y-77779896D01*
X160354323Y-77773835D01*
X160349300Y-77738900D01*
X160349300Y-77717500D01*
X160368985Y-77650461D01*
X160421789Y-77604706D01*
X160473300Y-77593500D01*
X160735676Y-77593500D01*
X160735677Y-77593499D01*
X160808740Y-77578966D01*
X160891601Y-77523601D01*
X160946966Y-77440740D01*
X160961500Y-77367674D01*
X160961500Y-75570711D01*
X166805500Y-75570711D01*
X166805500Y-75813288D01*
X166837161Y-76053785D01*
X166899947Y-76288104D01*
X166992773Y-76512205D01*
X166992776Y-76512212D01*
X167114064Y-76722289D01*
X167114066Y-76722292D01*
X167114067Y-76722293D01*
X167261733Y-76914736D01*
X167261739Y-76914743D01*
X167433256Y-77086260D01*
X167433262Y-77086265D01*
X167625711Y-77233936D01*
X167835788Y-77355224D01*
X168059900Y-77448054D01*
X168294211Y-77510838D01*
X168474586Y-77534584D01*
X168534711Y-77542500D01*
X168534712Y-77542500D01*
X168777289Y-77542500D01*
X168825388Y-77536167D01*
X169017789Y-77510838D01*
X169252100Y-77448054D01*
X169476212Y-77355224D01*
X169686289Y-77233936D01*
X169878738Y-77086265D01*
X170050265Y-76914738D01*
X170197936Y-76722289D01*
X170319224Y-76512212D01*
X170412054Y-76288100D01*
X170474838Y-76053789D01*
X170506500Y-75813288D01*
X170506500Y-75570712D01*
X170474838Y-75330211D01*
X170412054Y-75095900D01*
X170319224Y-74871788D01*
X170197936Y-74661711D01*
X170050265Y-74469262D01*
X170050260Y-74469256D01*
X169878743Y-74297739D01*
X169878736Y-74297733D01*
X169686293Y-74150067D01*
X169686292Y-74150066D01*
X169686289Y-74150064D01*
X169476212Y-74028776D01*
X169471690Y-74026903D01*
X169252104Y-73935947D01*
X169017785Y-73873161D01*
X168777289Y-73841500D01*
X168777288Y-73841500D01*
X168534712Y-73841500D01*
X168534711Y-73841500D01*
X168294214Y-73873161D01*
X168059895Y-73935947D01*
X167835794Y-74028773D01*
X167835785Y-74028777D01*
X167625706Y-74150067D01*
X167433263Y-74297733D01*
X167433256Y-74297739D01*
X167261739Y-74469256D01*
X167261733Y-74469263D01*
X167114067Y-74661706D01*
X166992777Y-74871785D01*
X166992773Y-74871794D01*
X166899947Y-75095895D01*
X166837161Y-75330214D01*
X166805500Y-75570711D01*
X160961500Y-75570711D01*
X160961500Y-72238326D01*
X160961500Y-72238323D01*
X160961499Y-72238321D01*
X160953617Y-72198691D01*
X160959844Y-72129099D01*
X161002708Y-72073922D01*
X161068597Y-72050678D01*
X161075234Y-72050500D01*
X168362392Y-72050500D01*
X168375928Y-72050500D01*
X168381655Y-72050632D01*
X168737497Y-72067083D01*
X168748886Y-72068139D01*
X169098851Y-72116957D01*
X169110095Y-72119059D01*
X169454061Y-72199959D01*
X169465051Y-72203086D01*
X169800106Y-72315385D01*
X169810760Y-72319513D01*
X170134009Y-72462241D01*
X170144236Y-72467333D01*
X170385489Y-72601710D01*
X170452931Y-72639275D01*
X170462669Y-72645304D01*
X170754174Y-72844990D01*
X170763314Y-72851892D01*
X171035156Y-73077626D01*
X171043620Y-73085343D01*
X171293456Y-73335179D01*
X171301173Y-73343643D01*
X171526907Y-73615485D01*
X171533809Y-73624625D01*
X171733495Y-73916130D01*
X171739524Y-73925868D01*
X171796844Y-74028777D01*
X171864400Y-74150064D01*
X171911459Y-74234550D01*
X171916562Y-74244799D01*
X172015670Y-74469256D01*
X172059281Y-74568026D01*
X172063419Y-74578706D01*
X172175709Y-74913735D01*
X172178843Y-74924751D01*
X172259738Y-75268696D01*
X172261843Y-75279955D01*
X172310659Y-75629905D01*
X172311716Y-75641309D01*
X172328168Y-75997144D01*
X172328300Y-76002830D01*
X172328300Y-76016408D01*
X172328304Y-76016414D01*
X172328311Y-76035785D01*
X172334218Y-93901239D01*
X172314556Y-93968285D01*
X172261767Y-94014057D01*
X172192612Y-94024024D01*
X172175284Y-94020257D01*
X172159772Y-94015702D01*
X172159766Y-94015701D01*
X172159761Y-94015700D01*
X172159760Y-94015700D01*
X172015090Y-93994900D01*
X171494305Y-93994900D01*
X171494287Y-93994900D01*
X171466505Y-93995652D01*
X171453059Y-93996382D01*
X171425321Y-93998642D01*
X171283754Y-94034975D01*
X171283750Y-94034976D01*
X171219240Y-94061797D01*
X171219234Y-94061800D01*
X171093643Y-94136541D01*
X170994188Y-94243644D01*
X170961807Y-94290412D01*
X170961804Y-94290416D01*
X170954415Y-94301090D01*
X170954412Y-94301094D01*
X170889163Y-94431878D01*
X170871686Y-94484618D01*
X170868689Y-94491077D01*
X170866716Y-94493325D01*
X170861750Y-94503976D01*
X170846896Y-94528059D01*
X170829037Y-94550645D01*
X170809045Y-94570637D01*
X170786460Y-94588495D01*
X170762379Y-94603348D01*
X170736289Y-94615514D01*
X170704984Y-94625888D01*
X170678588Y-94631540D01*
X170676475Y-94631756D01*
X170663865Y-94632399D01*
X168537735Y-94632399D01*
X168525079Y-94631751D01*
X168522964Y-94631534D01*
X168496618Y-94625888D01*
X168465313Y-94615515D01*
X168439219Y-94603348D01*
X168415138Y-94588495D01*
X168392553Y-94570637D01*
X168372561Y-94550645D01*
X168354703Y-94528060D01*
X168339848Y-94503976D01*
X168327681Y-94477883D01*
X168312437Y-94431878D01*
X168302961Y-94405682D01*
X168302958Y-94405674D01*
X168298057Y-94393194D01*
X168287185Y-94367573D01*
X168208166Y-94244618D01*
X168208160Y-94244611D01*
X168162415Y-94191818D01*
X168162412Y-94191815D01*
X168051959Y-94096105D01*
X168051953Y-94096101D01*
X167919011Y-94035387D01*
X167917611Y-94034976D01*
X167867485Y-94020257D01*
X167851966Y-94015700D01*
X167786251Y-94006252D01*
X167707295Y-93994900D01*
X138481926Y-93994900D01*
X138481923Y-93994900D01*
X138478667Y-93995072D01*
X138478624Y-93994258D01*
X138413325Y-93982340D01*
X138362285Y-93934625D01*
X138345056Y-93872094D01*
X138334413Y-91357112D01*
X138322890Y-91251088D01*
X138312096Y-91201010D01*
X138312092Y-91201000D01*
X138312091Y-91200993D01*
X138278919Y-91099654D01*
X138278919Y-91099652D01*
X138200898Y-90976075D01*
X138200895Y-90976071D01*
X138200892Y-90976066D01*
X138155563Y-90922896D01*
X138155560Y-90922893D01*
X138155558Y-90922891D01*
X138045884Y-90826304D01*
X138045882Y-90826302D01*
X137913426Y-90764518D01*
X137848212Y-90744798D01*
X137846885Y-90744376D01*
X137846551Y-90744295D01*
X137846549Y-90744295D01*
X137846546Y-90744294D01*
X137846540Y-90744293D01*
X137793547Y-90736238D01*
X137702048Y-90722331D01*
X134169925Y-90693922D01*
X134169924Y-90693922D01*
X134169916Y-90693922D01*
X134065811Y-90704480D01*
X133997128Y-90691660D01*
X133946279Y-90643742D01*
X133929300Y-90581113D01*
X133929300Y-76002871D01*
X133929432Y-75997144D01*
X133945883Y-75641309D01*
X133946940Y-75629905D01*
X133955198Y-75570712D01*
X133955198Y-75570711D01*
X135690500Y-75570711D01*
X135690500Y-75813288D01*
X135722161Y-76053785D01*
X135784947Y-76288104D01*
X135877773Y-76512205D01*
X135877776Y-76512212D01*
X135999064Y-76722289D01*
X135999066Y-76722292D01*
X135999067Y-76722293D01*
X136146733Y-76914736D01*
X136146739Y-76914743D01*
X136318256Y-77086260D01*
X136318262Y-77086265D01*
X136510711Y-77233936D01*
X136720788Y-77355224D01*
X136944900Y-77448054D01*
X137179211Y-77510838D01*
X137359586Y-77534584D01*
X137419711Y-77542500D01*
X137419712Y-77542500D01*
X137662289Y-77542500D01*
X137710388Y-77536167D01*
X137902789Y-77510838D01*
X138137100Y-77448054D01*
X138361212Y-77355224D01*
X138571289Y-77233936D01*
X138763738Y-77086265D01*
X138935265Y-76914738D01*
X139082936Y-76722289D01*
X139204224Y-76512212D01*
X139297054Y-76288100D01*
X139359838Y-76053789D01*
X139391500Y-75813288D01*
X139391500Y-75570712D01*
X139359838Y-75330211D01*
X139297054Y-75095900D01*
X139204224Y-74871788D01*
X139082936Y-74661711D01*
X138935265Y-74469262D01*
X138935260Y-74469256D01*
X138763743Y-74297739D01*
X138763736Y-74297733D01*
X138571293Y-74150067D01*
X138571292Y-74150066D01*
X138571289Y-74150064D01*
X138361212Y-74028776D01*
X138356690Y-74026903D01*
X138137104Y-73935947D01*
X137902785Y-73873161D01*
X137662289Y-73841500D01*
X137662288Y-73841500D01*
X137419712Y-73841500D01*
X137419711Y-73841500D01*
X137179214Y-73873161D01*
X136944895Y-73935947D01*
X136720794Y-74028773D01*
X136720785Y-74028777D01*
X136510706Y-74150067D01*
X136318263Y-74297733D01*
X136318256Y-74297739D01*
X136146739Y-74469256D01*
X136146733Y-74469263D01*
X135999067Y-74661706D01*
X135877777Y-74871785D01*
X135877773Y-74871794D01*
X135784947Y-75095895D01*
X135722161Y-75330214D01*
X135690500Y-75570711D01*
X133955198Y-75570711D01*
X133995758Y-75279944D01*
X133997858Y-75268708D01*
X134078761Y-74924732D01*
X134081884Y-74913753D01*
X134194187Y-74578685D01*
X134198310Y-74568046D01*
X134341045Y-74244781D01*
X134346128Y-74234572D01*
X134518078Y-73925862D01*
X134524104Y-73916130D01*
X134666355Y-73708470D01*
X134723799Y-73624612D01*
X134730681Y-73615498D01*
X134956436Y-73343630D01*
X134964132Y-73335190D01*
X135213990Y-73085332D01*
X135222430Y-73077636D01*
X135494298Y-72851881D01*
X135503412Y-72844999D01*
X135794936Y-72645300D01*
X135804662Y-72639278D01*
X136113372Y-72467328D01*
X136123581Y-72462245D01*
X136446846Y-72319510D01*
X136457485Y-72315387D01*
X136792553Y-72203084D01*
X136803532Y-72199961D01*
X137147508Y-72119058D01*
X137158744Y-72116958D01*
X137508714Y-72068139D01*
X137520100Y-72067083D01*
X137875945Y-72050632D01*
X137881672Y-72050500D01*
X137895208Y-72050500D01*
X158846766Y-72050500D01*
X158913805Y-72070185D01*
G37*
%TD.AperFunction*%
M02*
